<svg xmlns="http://www.w3.org/2000/svg" version="1.1" id="Layer_1" x="0" y="0" viewBox="0 0 264.567 49.134" xml:space="preserve" width="7cm" height="1.3cm"><style type="text/css" id="style2">.st0{fill:none}.st1{fill:#ffcd00}</style><g id="Logo" transform="translate(-95.667 -222.405)"><path class="st0" id="rect6" d="M-42.9-41h541.7v474H-42.9z"/><path id="_Path_" class="st1" d="M164.9 244.9v18.9c0 .2-.1.3-.3.4-5.5 1.4-11.2 2.2-16.8 2.1-24.9 0-28.1-12.3-28.1-18.6 0-6.3 4.6-18.6 29.5-18.6 4 0 7.9.3 11.8 1.1.2.1.4.3.3.5l-2.3 6.4c-.1.2-.3.3-.5.3-3-.8-6.1-1.1-9.2-1.1-15.9 0-18.9 7.6-18.9 11.4 0 3.8 2.5 11.3 19.3 11.3 1.5 0 3.1-.1 4.6-.2.2 0 .4-.2.4-.4v-6.7c0-.2-.2-.4-.4-.4h-10.5c-.2 0-.4-.2-.4-.4v-.1l2.2-5.9c.1-.2.2-.3.4-.3h18.7c0-.1.2.1.2.3z"/><path id="_Path_2" class="st1" d="m285.6 257.9 2.4 6.7c.1.2 0 .4-.2.5-3.8.8-7.7 1.2-11.6 1.1-24.4 0-29-12.3-29-18.6 0-6.4 4.5-18.6 29-18.6 3.9 0 7.8.3 11.5 1.1.2.1.4.3.3.5l-2.4 6.7c-.1.2-.3.3-.5.3-2.9-.8-5.9-1.1-8.9-1.1-15.6 0-18.5 7.3-18.5 11.1s2.9 11 18.5 11c3 .1 6-.3 8.9-1.1.2.1.4.2.5.4z"/><path class="st1" d="M311.5 229c-14 0-24.9 8.2-24.9 18.7s10.6 18.6 24.8 18.6c14 0 24.9-8.2 24.9-18.7 0-10.4-10.7-18.6-24.8-18.6zm0 29.7c-8.2 0-14.4-4.8-14.4-11.1s6.1-11 14.3-11c8.2 0 14.4 4.8 14.4 11.1s-6.2 11-14.3 11z" id="path13"/><g id="_Group_3"><path id="_Path_3" class="st1" d="M222.8 237.7v7.4c0 .2.2.4.4.4h19.5c.2 0 .4.2.4.4v.1l-2.4 6.7c-.1.2-.2.3-.4.3h-17.1c-.2 0-.4.2-.4.4V265c0 .2-.2.4-.4.4h-10.2c-.2 0-.4-.2-.4-.4v-34.9c0-.2.2-.4.4-.4h37.5c.2 0 .4.2.4.4v.1l-2.4 6.7c-.1.2-.2.3-.4.3h-24.1c-.2.1-.4.3-.4.5z"/></g><g id="_Group_4"><path id="_Path_4" class="st1" d="m206.6 258.6-2.4 6.7c-.1.2-.2.3-.4.3H171c-.2 0-.4-.2-.4-.4v-34.9c0-.2.2-.4.4-.4h35.2c.2 0 .4.2.4.4v.1l-2.4 6.7c-.1.2-.2.3-.4.3H182c-.2 0-.4.2-.4.4v6c0 .2.2.4.4.4h19c.2 0 .4.2.4.4v.1l-2.4 6.7c-.1.2-.2.3-.4.3H182c-.2 0-.4.2-.4.4v5.6c0 .2.2.4.4.4h24.3c.1 0 .3.2.3.5 0-.1 0-.1 0 0z"/></g><path class="st0" id="rect55" d="M282.1 419.2h162.5v142.2H282.1z"/></g></svg>