<?xml version="1.0" encoding="UTF-8" standalone="no"?>
<svg
   xmlns:dc="http://purl.org/dc/elements/1.1/"
   xmlns:cc="http://creativecommons.org/ns#"
   xmlns:rdf="http://www.w3.org/1999/02/22-rdf-syntax-ns#"
   xmlns:svg="http://www.w3.org/2000/svg"
   xmlns="http://www.w3.org/2000/svg"
   xmlns:sodipodi="http://sodipodi.sourceforge.net/DTD/sodipodi-0.dtd"
   xmlns:inkscape="http://www.inkscape.org/namespaces/inkscape"
   version="1.1"
   id="Layer_1"
   x="0px"
   y="0px"
   viewBox="0 0 264.56691 49.133855"
   xml:space="preserve"
   sodipodi:docname="GEFCO_Logo.svg"
   width="7cm"
   height="1.3cm"
   inkscape:version="1.0.2-2 (e86c870879, 2021-01-15)"><metadata
   id="metadata725"><rdf:RDF><cc:Work
       rdf:about=""><dc:format>image/svg+xml</dc:format><dc:type
         rdf:resource="http://purl.org/dc/dcmitype/StillImage" /><dc:title>GEFCO_Logo_SignVertiBleu_RVB_crop</dc:title></cc:Work></rdf:RDF></metadata><defs
   id="defs723" /><sodipodi:namedview
   pagecolor="#ffffff"
   bordercolor="#666666"
   borderopacity="1"
   objecttolerance="10"
   gridtolerance="10"
   guidetolerance="10"
   inkscape:pageopacity="0"
   inkscape:pageshadow="2"
   inkscape:window-width="1440"
   inkscape:window-height="837"
   id="namedview721"
   showgrid="false"
   units="cm"
   inkscape:zoom="0.57670527"
   inkscape:cx="-121.78302"
   inkscape:cy="39.795651"
   inkscape:window-x="-8"
   inkscape:window-y="124"
   inkscape:window-maximized="1"
   inkscape:current-layer="Layer_1"
   inkscape:document-rotation="0" />
<style
   type="text/css"
   id="style2">
	.st0{fill:none;}
	.st1{fill:#FFCD00;}
	.st2{fill:#00538B;}
	.st3{fill:none;stroke:#1D1D1B;stroke-width:0.225;}
	.st4{fill:none;stroke:#1D1D1B;stroke-width:0.27;}
	.st5{fill:#1D1D1B;}
	.st6{fill:#E20613;}
	.st7{fill:none;stroke:#1D1D1B;stroke-width:0.5;}
	.st8{fill:#FFEC00;stroke:#D10A11;stroke-width:1.98;}
	.st9{fill:#D10A11;}
	.st10{fill:#FFFFFF;}
</style>
<title
   id="title4">GEFCO_Logo_SignVertiBleu_RVB_crop</title>
<g
   id="Logo"
   transform="translate(-95.66654,-222.40473)">
	<rect
   x="-42.900002"
   y="-41"
   class="st0"
   width="541.70001"
   height="474"
   id="rect6" />
	<g
   id="_Group_">
		<g
   id="_Group_2">
			
		</g>
	</g>
	<path
   id="_Path_"
   class="st1"
   d="m 164.9,244.9 v 18.9 c 0,0.2 -0.1,0.3 -0.3,0.4 -5.5,1.4 -11.2,2.2 -16.8,2.1 -24.9,0 -28.1,-12.3 -28.1,-18.6 0,-6.3 4.6,-18.6 29.5,-18.6 4,0 7.9,0.3 11.8,1.1 0.2,0.1 0.4,0.3 0.3,0.5 0,0 0,0 0,0 l -2.3,6.4 c -0.1,0.2 -0.3,0.3 -0.5,0.3 -3,-0.8 -6.1,-1.1 -9.2,-1.1 -15.9,0 -18.9,7.6 -18.9,11.4 0,3.8 2.5,11.3 19.3,11.3 1.5,0 3.1,-0.1 4.6,-0.2 0.2,0 0.4,-0.2 0.4,-0.4 v -6.7 c 0,-0.2 -0.2,-0.4 -0.4,-0.4 v 0 h -10.5 c -0.2,0 -0.4,-0.2 -0.4,-0.4 0,0 0,-0.1 0,-0.1 l 2.2,-5.9 c 0.1,-0.2 0.2,-0.3 0.4,-0.3 h 18.7 c 0,-0.1 0.2,0.1 0.2,0.3 0,0 0,0 0,0 z" />
	<path
   id="_Path_2"
   class="st1"
   d="m 285.6,257.9 2.4,6.7 c 0.1,0.2 0,0.4 -0.2,0.5 0,0 0,0 0,0 -3.8,0.8 -7.7,1.2 -11.6,1.1 -24.4,0 -29,-12.3 -29,-18.6 0,-6.4 4.5,-18.6 29,-18.6 3.9,0 7.8,0.3 11.5,1.1 0.2,0.1 0.4,0.3 0.3,0.5 0,0 0,0 0,0 l -2.4,6.7 c -0.1,0.2 -0.3,0.3 -0.5,0.3 -2.9,-0.8 -5.9,-1.1 -8.9,-1.1 -15.6,0 -18.5,7.3 -18.5,11.1 0,3.8 2.9,11 18.5,11 3,0.1 6,-0.3 8.9,-1.1 0.2,0.1 0.4,0.2 0.5,0.4 0,0 0,0 0,0 z" />
	<path
   class="st1"
   d="m 311.5,229 c -14,0 -24.9,8.2 -24.9,18.7 0,10.5 10.6,18.6 24.8,18.6 14,0 24.9,-8.2 24.9,-18.7 0,-10.4 -10.7,-18.6 -24.8,-18.6 z m 0,29.7 c -8.2,0 -14.4,-4.8 -14.4,-11.1 0,-6.3 6.1,-11 14.3,-11 8.2,0 14.4,4.8 14.4,11.1 0,6.3 -6.2,11 -14.3,11 z"
   id="path13" />
	<g
   id="_Group_3">
		<path
   id="_Path_3"
   class="st1"
   d="m 222.8,237.7 v 7.4 c 0,0.2 0.2,0.4 0.4,0.4 v 0 h 19.5 c 0.2,0 0.4,0.2 0.4,0.4 0,0 0,0.1 0,0.1 l -2.4,6.7 c -0.1,0.2 -0.2,0.3 -0.4,0.3 h -17.1 c -0.2,0 -0.4,0.2 -0.4,0.4 v 0 11.6 c 0,0.2 -0.2,0.4 -0.4,0.4 v 0 h -10.2 c -0.2,0 -0.4,-0.2 -0.4,-0.4 v 0 -34.9 c 0,-0.2 0.2,-0.4 0.4,-0.4 v 0 h 37.5 c 0.2,0 0.4,0.2 0.4,0.4 0,0 0,0.1 0,0.1 l -2.4,6.7 c -0.1,0.2 -0.2,0.3 -0.4,0.3 h -24.1 c -0.2,0.1 -0.4,0.3 -0.4,0.5 z" />
	</g>
	<g
   id="_Group_4">
		<path
   id="_Path_4"
   class="st1"
   d="m 206.6,258.6 -2.4,6.7 c -0.1,0.2 -0.2,0.3 -0.4,0.3 H 171 c -0.2,0 -0.4,-0.2 -0.4,-0.4 v 0 -34.9 c 0,-0.2 0.2,-0.4 0.4,-0.4 v 0 h 35.2 c 0.2,0 0.4,0.2 0.4,0.4 0,0 0,0.1 0,0.1 l -2.4,6.7 c -0.1,0.2 -0.2,0.3 -0.4,0.3 H 182 c -0.2,0 -0.4,0.2 -0.4,0.4 v 0 6 c 0,0.2 0.2,0.4 0.4,0.4 v 0 h 19 c 0.2,0 0.4,0.2 0.4,0.4 0,0 0,0.1 0,0.1 l -2.4,6.7 c -0.1,0.2 -0.2,0.3 -0.4,0.3 H 182 c -0.2,0 -0.4,0.2 -0.4,0.4 v 0 5.6 c 0,0.2 0.2,0.4 0.4,0.4 v 0 h 24.3 c 0.1,0 0.3,0.2 0.3,0.5 0,-0.1 0,-0.1 0,0 z" />
	</g>
	
	
	
	
	
	
	
	
	
	
	
	
	
	
	
	
	
	
	<rect
   x="282.10001"
   y="419.20001"
   class="st0"
   width="162.5"
   height="142.2"
   id="rect55" />
	<g
   id="_Group_5">
		<g
   id="_Group_6">
			
		</g>
	</g>
	
	
	
	<g
   id="_Group_7">
		
	</g>
	<g
   id="_Group_8">
		
	</g>
	
	
	
	
	
	
	
	
	
	
	
	
	
	
	
	
	
	
</g>

</svg>
