<?xml version="1.0" encoding="utf-8"?>
<!-- Generator: Adobe Illustrator 21.0.0, SVG Export Plug-In . SVG Version: 6.00 Build 0)  -->
<svg version="1.1" id="Layer_1" xmlns="http://www.w3.org/2000/svg" xmlns:xlink="http://www.w3.org/1999/xlink" x="0px" y="0px"
	 viewBox="0 0 750 316.5" style="enable-background:new 0 0 750 316.5;" xml:space="preserve">
<style type="text/css">
	.st0{fill:none;}
	.st1{fill:#FFCD00;}
	.st2{fill:#00538B;}
	.st3{fill:none;stroke:#1D1D1B;stroke-width:0.225;}
	.st4{fill:none;stroke:#1D1D1B;stroke-width:0.27;}
	.st5{fill:#1D1D1B;}
	.st6{fill:#E20613;}
	.st7{fill:none;stroke:#1D1D1B;stroke-width:0.5;}
	.st8{fill:#FFEC00;stroke:#D10A11;stroke-width:1.98;}
	.st9{fill:#D10A11;}
	.st10{fill:#FFFFFF;}
</style>
<title>GEFCO_Logo_SignHoriBleu_RVB_crop</title>
<g id="Logo">
	<rect x="-48.1" y="-43.1" class="st0" width="846.9" height="406.3"/>
	<g id="_Group_">
		<g id="_Group_2">
			<path id="_Compound_Path_" class="st1" d="M290.4,295.4H19.6V24.6h270.8V295.4z M31,284h248V36H31L31,284z"/>
		</g>
	</g>
	<path id="_Path_" class="st1" d="M92,242.8v18.9c0,0.2-0.1,0.3-0.3,0.4c-5.5,1.5-11.2,2.2-16.8,2.1c-24.9,0-28.1-12.3-28.1-18.6
		s4.6-18.6,29.5-18.6c4,0,7.9,0.3,11.8,1.1c0.2,0.1,0.4,0.3,0.3,0.5c0,0,0,0,0,0L86,235c-0.1,0.2-0.3,0.3-0.5,0.3
		c-3-0.8-6.1-1.1-9.2-1.1c-15.9,0-19,7.6-19,11.4s2.6,11.3,19.3,11.3c1.5,0,3.1-0.1,4.6-0.2c0.2,0,0.4-0.2,0.4-0.4v-6.7
		c0-0.2-0.2-0.4-0.4-0.4h0H70.7c-0.2,0-0.4-0.2-0.4-0.4c0,0,0-0.1,0-0.1l2.2-5.9c0.1-0.2,0.2-0.3,0.4-0.3h18.7
		C91.8,242.4,92,242.6,92,242.8C92,242.8,92,242.8,92,242.8z"/>
	<path id="_Path_2" class="st1" d="M212.7,255.8l2.4,6.7c0.1,0.2,0,0.4-0.2,0.5c0,0,0,0,0,0c-3.8,0.8-7.7,1.2-11.5,1.1
		c-24.4,0-29-12.3-29-18.6s4.5-18.6,29-18.6c3.9,0,7.8,0.3,11.5,1.1c0.2,0.1,0.4,0.3,0.3,0.5c0,0,0,0,0,0l-2.4,6.7
		c-0.1,0.2-0.3,0.3-0.5,0.3c-2.9-0.8-5.9-1.1-8.9-1.1c-15.6,0-18.5,7.3-18.5,11.1s2.9,11.1,18.5,11.1c3,0.1,6-0.3,8.9-1.1
		C212.4,255.5,212.6,255.6,212.7,255.8z"/>
	<path class="st1" d="M238.6,226.9c-14,0-24.9,8.2-24.9,18.7c0,10.5,10.6,18.6,24.8,18.6c14,0,24.9-8.2,24.9-18.7
		S252.7,226.9,238.6,226.9z M238.6,256.6c-8.2,0-14.4-4.8-14.4-11.1s6.1-11,14.3-11s14.4,4.8,14.4,11.1S246.7,256.6,238.6,256.6
		L238.6,256.6z"/>
	<g id="_Group_3">
		<path id="_Path_3" class="st1" d="M149.8,235.6v7.4c0,0.2,0.2,0.4,0.4,0.4l0,0h19.6c0.2,0,0.4,0.2,0.4,0.4c0,0,0,0.1,0,0.1
			l-2.4,6.7c-0.1,0.2-0.2,0.3-0.4,0.3h-17.1c-0.2,0-0.4,0.2-0.4,0.4l0,0V263c0,0.2-0.2,0.4-0.4,0.4l0,0h-10.2
			c-0.2,0-0.4-0.2-0.4-0.4l0,0v-34.9c0-0.2,0.2-0.4,0.4-0.4l0,0h37.5c0.2,0,0.4,0.2,0.4,0.4c0,0,0,0.1,0,0.1l-2.4,6.7
			c-0.1,0.2-0.2,0.3-0.4,0.3h-24.1C150,235.2,149.8,235.4,149.8,235.6C149.8,235.6,149.8,235.6,149.8,235.6z"/>
	</g>
	<g id="_Group_4">
		<path id="_Path_4" class="st1" d="M133.6,256.5l-2.4,6.7c-0.1,0.2-0.2,0.3-0.4,0.3H98c-0.2,0-0.4-0.2-0.4-0.4l0,0v-34.9
			c0-0.2,0.2-0.4,0.4-0.4h0h35.2c0.2,0,0.4,0.2,0.4,0.4c0,0,0,0.1,0,0.1l-2.4,6.7c-0.1,0.2-0.2,0.3-0.4,0.3H109
			c-0.2,0-0.4,0.2-0.4,0.4l0,0v6c0,0.2,0.2,0.4,0.4,0.4h0h19c0.2,0,0.4,0.2,0.4,0.4c0,0,0,0.1,0,0.1l-2.4,6.7
			c-0.1,0.2-0.2,0.3-0.4,0.3H109c-0.2,0-0.4,0.2-0.4,0.4l0,0v5.6c0,0.2,0.2,0.4,0.4,0.4h0h24.2c0.2,0,0.4,0.2,0.4,0.4
			C133.6,256.4,133.6,256.4,133.6,256.5z"/>
	</g>
	<path class="st2" d="M347.3,228.9c1.9,1.6,2.9,4.6,2.9,9.1c0,4.6-0.7,7.3-2.9,8.9s-5,2.1-10.3,2.1h-5.6v11.9c0,0.6-0.1,0.7-0.7,0.7
		H325c-0.5,0-0.7-0.1-0.7-0.7v-33.4c0-0.5,0.1-0.6,0.7-0.6c3.6-0.3,7.6-0.5,12-0.5C342,226.4,345.4,227.2,347.3,228.9z M331.4,232.6
		v10.9h4.9c2.8,0,4.6-0.3,5.5-0.9s1.3-2.1,1.3-4.4s-0.5-3.8-1.4-4.5s-2.7-1.1-5.4-1.1L331.4,232.6z"/>
	<path class="st2" d="M370.9,238c1.5,1.3,2.3,3.2,2.3,5.9v15.6c0.1,0.6-0.4,1.2-1,1.4c-3.4,0.7-6.8,1-10.2,1c-3.8,0-5.7-0.2-7.7-1.2
		s-2.7-3.1-2.8-6.6c0-2.9,0.8-4.8,2.2-5.9s3.8-1.5,7-1.5h5.7V245c0-2.1-1.4-3.1-4.2-3.1h-8.1c-0.5,0-0.6-0.1-0.6-0.7v-3.7
		c0-0.5,0.1-0.6,0.6-0.7c2.7-0.5,5.4-0.7,8.2-0.7C366.5,236.1,369.4,236.7,370.9,238z M366.5,250.9h-5.2c-2.4,0-3.2,0.7-3.2,2.7
		s1,2.8,3.8,2.8c1.5,0.1,3-0.1,4.5-0.4V250.9z"/>
	<path class="st2" d="M393,236.6c0.4,0.1,0.8,0.5,0.7,0.9v3.7c0,0.4-0.3,0.7-0.8,0.7h-4.2c-2.5,0-3.2,0.4-3.2,2.3v16.7
		c0,0.5-0.2,0.7-0.7,0.7h-5.4c-0.5,0-0.7-0.2-0.7-0.7v-18.4c-0.1-1.7,0.5-3.4,1.7-4.7c1.7-1.4,4-1.7,6.5-1.7
		C389,236.1,391,236.2,393,236.6z"/>
	<path class="st2" d="M405.5,229.3c0.5-0.1,0.7,0.1,0.7,0.7v6.4h4.1c0.5,0,0.8,0.2,0.8,0.7v3.6c0,0.4-0.3,0.7-0.8,0.7h-4.1v12.3
		c0,1.9,0.6,2.3,2.7,2.3h1.9c0.5,0,0.8,0.2,0.8,0.7v3.8c0.1,0.4-0.3,0.8-0.7,0.9c0,0,0,0,0,0c-1.3,0.3-2.5,0.4-3.8,0.4
		c-1.4,0.1-2.9-0.1-4.2-0.4c-2.1-0.6-3-2-3.2-5.4v-14.6h-2.7c-0.5,0-0.7-0.2-0.7-0.7v-3.6c0-0.4,0.2-0.7,0.7-0.7h2.7v-5
		c0-0.4,0.3-0.7,0.6-0.7L405.5,229.3z"/>
	<path class="st2" d="M435.8,238.1c1.8,1.6,2.3,4.1,2.3,8.8v14c0,0.5-0.2,0.7-0.7,0.7H432c-0.5,0-0.7-0.2-0.7-0.7v-12.3
		c0-3.4,0-4.8-0.9-5.8s-1.6-1-3.9-1h-4.1v19c0,0.5-0.2,0.7-0.7,0.7h-5.3c-0.5,0-0.7-0.2-0.7-0.7v-23.3c0-0.5,0.2-0.6,0.7-0.7
		c3.6-0.6,7.2-0.9,10.8-0.8C431.8,236.1,434.1,236.5,435.8,238.1z"/>
	<path class="st2" d="M463,238.6c1.5,1.7,2.2,5,2.3,10v1.4c0,0.9-0.3,1.2-1.4,1.2h-14.2c0,2,0.4,3.3,1,3.9s2,0.9,4.1,0.9h8
		c0.3,0,0.6,0.2,0.7,0.5c0,0.1,0,0.1,0,0.2v3.8c0,0.4-0.2,0.7-0.6,0.7c0,0,0,0,0,0c-2.8,0.5-5.7,0.7-8.6,0.6c-4.6,0-7.6-0.9-9.1-2.6
		c-1.5-1.7-2.3-5.1-2.3-10.3s0.8-8.6,2.3-10.3s4.5-2.6,9.1-2.6S461.5,237,463,238.6z M449.6,246.9h8.9c0-3.9-1.1-5-4.4-5
		S449.6,243,449.6,246.9z"/>
	<path class="st2" d="M484,236.6c0.4,0.1,0.8,0.5,0.7,0.9v3.7c0,0.4-0.3,0.7-0.8,0.7h-4.2c-2.5,0-3.2,0.4-3.2,2.3v16.7
		c0,0.5-0.2,0.7-0.7,0.7h-5.4c-0.5,0-0.7-0.2-0.7-0.7v-18.4c-0.1-1.7,0.5-3.4,1.7-4.7c1.7-1.4,4-1.7,6.5-1.7
		C480,236.1,482,236.2,484,236.6z"/>
	<path class="st2" d="M504.6,236.7c0.5,0.1,0.7,0.4,0.7,0.7v3.4c0,0.5-0.3,0.7-0.8,0.7h-8.1c-1.8,0-2.7,0.5-2.7,1.6v0.4
		c0,0.9,0.7,1.6,2.2,2.1l5.8,2c3.6,1.3,4.7,3.4,4.7,6.8v0.7c0,4.9-3.3,6.6-9.6,6.6c-3.1,0-6.2-0.1-9.3-0.5c-0.5,0-0.8-0.2-0.8-0.7
		V257c0-0.5,0.3-0.7,0.8-0.7h9.3c2.4,0,3.1-0.3,3.1-1.5v-0.4c0-0.9-0.5-1.4-2.5-2.1l-5.5-2c-3.1-1-4.6-3.3-4.6-6.9v-0.9
		c0-4.6,3.4-6.5,10.2-6.5C499.8,236,502.2,236.3,504.6,236.7z"/>
	<path class="st2" d="M518.5,255.9c0.3,0,0.5,0.1,0.5,0.4v1c0,0.2-0.1,0.4-0.2,0.6l-8.1,11.4c-0.2,0.2-0.5,0.3-0.7,0.2l-2-1.1
		c-0.2-0.1-0.3-0.3-0.1-0.6l3.3-11.6c0.1-0.2,0.3-0.4,0.5-0.4L518.5,255.9z"/>
	<path class="st2" d="M554.8,236.3c0.4,0,0.6,0.2,0.6,0.7v23.3c0,0.5-0.1,0.6-0.6,0.8c-3.6,0.6-7.2,0.8-10.8,0.8
		c-4.6,0-6.9-0.4-8.7-2s-2.2-4.2-2.2-8.9V237c0-0.4,0.2-0.7,0.7-0.7h5.3c0.4,0,0.6,0.2,0.6,0.7v12.2c-0.1,1.6,0.1,3.2,0.4,4.7
		c0.5,1.8,1.4,2.1,4.5,2.1h4.1v-19c0-0.3,0.2-0.6,0.5-0.7c0.1,0,0.1,0,0.2,0L554.8,236.3z"/>
	<path class="st2" d="M581.4,238.1c1.8,1.6,2.3,4.1,2.3,8.8v14c0,0.5-0.2,0.7-0.7,0.7h-5.3c-0.5,0-0.7-0.2-0.7-0.7v-12.3
		c0-3.4,0-4.8-0.9-5.8s-1.6-1-3.9-1H568v19c0,0.5-0.2,0.7-0.7,0.7h-5.4c-0.5,0-0.7-0.2-0.7-0.7v-23.3c0-0.5,0.2-0.6,0.7-0.7
		c3.6-0.6,7.2-0.9,10.8-0.8C577.3,236.1,579.6,236.5,581.4,238.1z"/>
	<path class="st2" d="M595.1,226.7c0.3,0,0.6,0.2,0.7,0.5c0,0.1,0,0.1,0,0.2v33.6c0,0.5-0.2,0.7-0.7,0.7h-5.3
		c-0.5,0-0.7-0.2-0.7-0.7v-33.6c0-0.3,0.2-0.6,0.5-0.7c0.1,0,0.1,0,0.2,0H595.1z"/>
	<path class="st2" d="M608.9,229.3c0,2.3-1.4,3.6-3.9,3.6s-4-1.4-4-3.6s1.4-3.6,4-3.6S608.9,227,608.9,229.3z M607.6,236.3
		c0.3,0,0.6,0.2,0.7,0.5c0,0.1,0,0.1,0,0.2v23.9c0,0.5-0.2,0.7-0.7,0.7h-5.3c-0.5,0-0.7-0.2-0.7-0.7V237c0-0.3,0.2-0.6,0.5-0.7
		c0.1,0,0.1,0,0.2,0L607.6,236.3z"/>
	<path class="st2" d="M646.8,238.1c1.4,1.3,2.1,3.8,2.1,7.6v15.2c0,0.5-0.2,0.7-0.7,0.7h-5.3c-0.5,0-0.7-0.2-0.7-0.7v-12.2
		c-0.2-6.6-0.4-6.6-4.3-6.8c-1.2,0-2.4,0.1-3.7,0.3c0.4,1.5,0.6,3.2,0.5,4.8v14c0,0.5-0.2,0.7-0.6,0.7h-5.4c-0.4,0-0.6-0.2-0.6-0.7
		v-13.8c0-2.6-0.1-3.8-0.9-4.5s-1.5-0.7-3.5-0.7h-3v19c0,0.5-0.2,0.7-0.7,0.7h-5.3c-0.5,0-0.7-0.2-0.7-0.7v-23.4
		c0-0.4,0.2-0.7,0.6-0.7c2.9-0.6,5.8-0.8,8.7-0.8c2.8-0.1,5.5,0.4,8.1,1.4c2.5-1,5.2-1.5,7.8-1.5
		C642.9,236.1,645.4,236.7,646.8,238.1z"/>
	<path class="st2" d="M661.7,229.3c0,2.3-1.4,3.6-3.9,3.6s-4-1.4-4-3.6s1.4-3.6,4-3.6S661.7,227,661.7,229.3z M660.4,236.3
		c0.3,0,0.6,0.2,0.7,0.5c0,0.1,0,0.1,0,0.2v23.9c0,0.5-0.2,0.7-0.7,0.7h-5.3c-0.5,0-0.7-0.2-0.7-0.7V237c0-0.3,0.2-0.6,0.5-0.7
		c0.1,0,0.1,0,0.2,0L660.4,236.3z"/>
	<path class="st2" d="M674,229.3c0.5-0.1,0.7,0.1,0.7,0.7v6.4h4.2c0.5,0,0.8,0.2,0.8,0.7v3.6c0,0.4-0.3,0.7-0.8,0.7h-4.2v12.3
		c0,1.9,0.6,2.3,2.7,2.3h1.8c0.5,0,0.8,0.2,0.8,0.7v3.8c0.1,0.4-0.3,0.8-0.7,0.9c0,0,0,0,0,0c-1.3,0.3-2.5,0.4-3.8,0.4
		c-1.4,0.1-2.9-0.1-4.2-0.4c-2.1-0.6-3-2-3.2-5.4v-14.6h-2.7c-0.5,0-0.7-0.2-0.7-0.7v-3.6c0-0.4,0.2-0.7,0.7-0.7h2.7v-5
		c0-0.4,0.3-0.7,0.6-0.7L674,229.3z"/>
	<path class="st2" d="M703,238.6c1.5,1.7,2.2,5,2.3,10v1.4c0,0.9-0.3,1.2-1.4,1.2h-14.2c0,2,0.4,3.3,1,3.9s2,0.9,4.1,0.9h8
		c0.3,0,0.6,0.2,0.7,0.5c0,0.1,0,0.1,0,0.2v3.8c0,0.4-0.2,0.7-0.6,0.7c0,0,0,0,0,0c-2.8,0.5-5.7,0.7-8.6,0.6c-4.6,0-7.6-0.9-9.1-2.6
		c-1.5-1.7-2.3-5.1-2.3-10.3s0.8-8.6,2.3-10.3s4.5-2.6,9.1-2.6S701.6,237,703,238.6z M689.6,246.9h8.9c0-3.9-1.1-5-4.4-5
		S689.7,243,689.6,246.9z"/>
	<path class="st2" d="M730.6,226.7c0.5,0,0.7,0.2,0.7,0.7v32.4c0.1,0.5-0.3,1-0.9,1.1c0,0-0.1,0-0.1,0c-3.3,0.6-6.6,0.8-9.9,0.9
		c-4.7,0-7.8-0.9-9.4-2.6s-2.3-5.1-2.3-10.2s0.7-8.5,2.1-10.2s4.2-2.7,8.3-2.7c1.9,0,3.7,0.1,5.5,0.3v-9c0-0.5,0.2-0.7,0.7-0.7
		L730.6,226.7z M724.6,241.9h-4.1c-2.2,0-3.7,0.4-4.2,1.3s-0.9,2.8-0.9,5.7s0.3,4.7,0.8,5.7s1.9,1.4,4.1,1.4c1.4,0,2.9-0.1,4.3-0.3
		V241.9z"/>
	<rect x="422" y="400.3" class="st0" width="254.1" height="121.9"/>
	<g id="_Group_5">
		<g id="_Group_6">
			<path id="_Compound_Path_2" class="st1" d="M523.6,501.9h-81.3v-81.3h81.3V501.9z M445.7,498.5h74.4v-74.4h-74.4L445.7,498.5z"/>
		</g>
	</g>
	<path id="_Path_5" class="st1" d="M464,486.1v5.7c0,0.1,0,0.1-0.1,0.1c-1.6,0.4-3.3,0.6-5,0.6c-7.5,0-8.4-3.7-8.4-5.6
		s1.4-5.6,8.9-5.6c1.2,0,2.4,0.1,3.5,0.3c0.1,0,0.1,0.1,0.1,0.1c0,0,0,0,0,0l-0.7,1.9c0,0.1-0.1,0.1-0.1,0.1c0,0,0,0,0,0
		c-0.9-0.2-1.8-0.3-2.8-0.3c-4.8,0-5.7,2.3-5.7,3.4s0.8,3.4,5.8,3.4c0.5,0,0.9,0,1.4-0.1c0.1,0,0.1-0.1,0.1-0.1v-2
		c0-0.1-0.1-0.1-0.1-0.1h-3.2c-0.1,0-0.1-0.1-0.1-0.1c0,0,0,0,0,0l0.6-1.8c0,0,0.1-0.1,0.1-0.1L464,486.1
		C464,486,464,486.1,464,486.1z"/>
	<path id="_Path_6" class="st1" d="M500.2,490l0.7,2c0,0.1,0,0.1-0.1,0.2c0,0,0,0,0,0c-1.1,0.2-2.3,0.4-3.5,0.3
		c-7.3,0-8.7-3.7-8.7-5.6s1.4-5.6,8.7-5.6c1.2,0,2.3,0.1,3.5,0.3c0.1,0,0.1,0.1,0.1,0.1c0,0,0,0,0,0l-0.7,2c0,0.1-0.1,0.1-0.1,0.1
		c-0.9-0.2-1.8-0.3-2.7-0.3c-4.7,0-5.5,2.2-5.5,3.3s0.9,3.3,5.5,3.3c0.9,0,1.8-0.1,2.7-0.3C500.1,489.9,500.2,489.9,500.2,490
		C500.2,490,500.2,490,500.2,490z"/>
	<path class="st1" d="M508,481.3c-4.2,0-7.5,2.5-7.5,5.6s3.2,5.6,7.4,5.6c4.2,0,7.5-2.5,7.5-5.6S512.2,481.3,508,481.3z M508,490.2
		c-2.5,0-4.3-1.4-4.3-3.3s1.8-3.3,4.3-3.3s4.3,1.4,4.3,3.3S510.4,490.2,508,490.2z"/>
	<g id="_Group_7">
		<path id="_Path_7" class="st1" d="M481.4,483.9v2.2c0,0.1,0.1,0.1,0.1,0.1h5.9c0.1,0,0.1,0.1,0.1,0.1c0,0,0,0,0,0l-0.7,2
			c0,0-0.1,0.1-0.1,0.1h-5.1c-0.1,0-0.1,0.1-0.1,0.1v3.5c0,0.1-0.1,0.1-0.1,0.1h-3c-0.1,0-0.1-0.1-0.1-0.1v-10.4
			c0-0.1,0.1-0.1,0.1-0.1h11.3c0.1,0,0.1,0.1,0.1,0.1c0,0,0,0,0,0l-0.7,2c0,0-0.1,0.1-0.1,0.1h-7.2
			C481.5,483.8,481.4,483.9,481.4,483.9C481.4,483.9,481.4,483.9,481.4,483.9z"/>
	</g>
	<g id="_Group_8">
		<path id="_Path_8" class="st1" d="M476.5,490.2l-0.7,2c0,0-0.1,0.1-0.1,0.1h-9.9c-0.1,0-0.1-0.1-0.1-0.1v-10.5
			c0-0.1,0.1-0.1,0.1-0.1h10.6c0.1,0,0.1,0.1,0.1,0.1c0,0,0,0,0,0l-0.7,2c0,0-0.1,0.1-0.1,0.1h-6.5c-0.1,0-0.1,0.1-0.1,0.1v1.8
			c0,0.1,0.1,0.1,0.1,0.1h5.7c0.1,0,0.1,0.1,0.1,0.1c0,0,0,0,0,0l-0.7,2c0,0-0.1,0.1-0.1,0.1h-5c-0.1,0-0.1,0.1-0.1,0.1v1.7
			c0,0.1,0.1,0.1,0.1,0.1h7.3c0.1,0,0.1,0,0.2,0.1C476.6,490.1,476.5,490.2,476.5,490.2z"/>
	</g>
	<path class="st2" d="M540.6,481.9c0.7,0.7,1,1.7,0.9,2.7c0,1.4-0.2,2.2-0.9,2.7c-0.9,0.5-2,0.8-3.1,0.6h-1.7v3.6
		c0,0.2,0,0.2-0.2,0.2h-1.7c-0.2,0-0.2,0-0.2-0.2v-10c0-0.1,0-0.2,0.2-0.2c1.1-0.1,2.3-0.1,3.6-0.1
		C538.6,481,539.7,481.3,540.6,481.9z M535.8,483v3.3h1.5c0.6,0.1,1.1,0,1.6-0.3c0.3-0.4,0.5-0.8,0.4-1.3c0.1-0.5-0.1-1-0.4-1.3
		c-0.5-0.3-1.1-0.4-1.6-0.3L535.8,483z"/>
	<path class="st2" d="M547.7,484.7c0.5,0.4,0.7,1.1,0.7,1.8v4.7c0,0.2-0.1,0.4-0.3,0.4c-1,0.2-2,0.3-3.1,0.3
		c-0.8,0.1-1.6-0.1-2.3-0.4c-0.6-0.3-0.8-0.9-0.8-2c-0.1-0.7,0.2-1.3,0.7-1.8c0.6-0.4,1.4-0.5,2.1-0.5h1.7v-0.5
		c0-0.6-0.4-0.9-1.3-0.9h-2.5c-0.2,0-0.2,0-0.2-0.2v-1.1c0-0.1,0-0.2,0.2-0.2c0.8-0.1,1.6-0.2,2.5-0.2
		C546,484,546.9,484.2,547.7,484.7z M546.4,488.5h-1.6c-0.7,0-1,0.2-1,0.8s0.3,0.8,1.2,0.8c0.5,0,0.9,0,1.3-0.1L546.4,488.5z"/>
	<path class="st2" d="M554.3,484.2c0.1,0,0.2,0.1,0.2,0.3v1.1c0,0.1-0.1,0.2-0.2,0.2H553c-0.7,0-1,0.1-1,0.7v5
		c0,0.1-0.1,0.2-0.2,0.2h-1.6c-0.1,0-0.2-0.1-0.2-0.2V486c0-0.5,0.2-1,0.5-1.4c0.6-0.4,1.3-0.6,2-0.5
		C553.1,484.1,553.7,484.1,554.3,484.2z"/>
	<path class="st2" d="M558.1,482.1c0.2,0,0.2,0,0.2,0.2v1.9h1.3c0.2,0,0.2,0.1,0.2,0.2v1.1c0,0.1-0.1,0.2-0.2,0.2h-1.3v3.7
		c0,0.5,0.2,0.7,0.8,0.7h0.6c0.2,0,0.2,0.1,0.2,0.2v1.1c0,0.1-0.1,0.2-0.2,0.3c0,0,0,0,0,0c-0.4,0.1-0.8,0.1-1.2,0.1
		c-0.4,0-0.9,0-1.3-0.1c-0.6-0.2-0.9-0.6-1-1.6v-4.4h-0.8c-0.2,0-0.2-0.1-0.2-0.2v-1.1c0-0.1,0.1-0.2,0.2-0.2h0.8v-1.5
		c0-0.1,0.1-0.2,0.2-0.2L558.1,482.1z"/>
	<path class="st2" d="M567.2,484.7c0.5,0.5,0.7,1.3,0.7,2.6v4.2c0,0.1-0.1,0.2-0.2,0.2h-1.6c-0.1,0-0.2-0.1-0.2-0.2v-3.6
		c0-1,0-1.5-0.3-1.7s-0.5-0.3-1.2-0.3h-1.2v5.7c0,0.1-0.1,0.2-0.2,0.2h-1.6c-0.1,0-0.2-0.1-0.2-0.2v-7c0-0.2,0.1-0.2,0.2-0.2
		c1.1-0.2,2.2-0.3,3.2-0.2C566,484.1,566.7,484.2,567.2,484.7z"/>
	<path class="st2" d="M575.3,484.8c0.5,0.9,0.8,2,0.7,3v0.4c0,0.3-0.1,0.4-0.4,0.4h-4.3c0,0.4,0.1,0.8,0.3,1.2
		c0.4,0.2,0.8,0.3,1.2,0.3h2.4c0.1,0,0.2,0.1,0.2,0.2c0,0,0,0,0,0v1.1c0,0.1-0.1,0.2-0.2,0.2c0,0,0,0,0,0c-0.9,0.1-1.7,0.2-2.6,0.2
		c-1,0.1-2-0.2-2.7-0.8c-0.6-0.9-0.8-2-0.7-3.1c-0.1-1.1,0.1-2.2,0.7-3.1c0.8-0.6,1.7-0.9,2.7-0.8
		C573.6,484,574.6,484.2,575.3,484.8z M571.3,487.3h2.7c0-1.2-0.3-1.5-1.3-1.5S571.3,486.1,571.3,487.3L571.3,487.3z"/>
	<path class="st2" d="M581.6,484.2c0.1,0,0.2,0.1,0.2,0.3v1.1c0,0.1-0.1,0.2-0.2,0.2h-1.3c-0.7,0-1,0.1-1,0.7v5
		c0,0.1-0.1,0.2-0.2,0.2h-1.6c-0.1,0-0.2-0.1-0.2-0.2V486c0-0.5,0.2-1,0.5-1.4c0.6-0.4,1.3-0.6,2-0.5
		C580.4,484.1,581,484.1,581.6,484.2z"/>
	<path class="st2" d="M587.8,484.3c0.2,0,0.2,0.1,0.2,0.2v1c0,0.1-0.1,0.2-0.2,0.2h-2.4c-0.5,0-0.8,0.2-0.8,0.5v0.1
		c0,0.3,0.2,0.5,0.7,0.6l1.7,0.6c0.9,0.2,1.5,1.1,1.4,2v0.2c0,1.5-1,2-2.9,2c-0.9,0-1.9,0-2.8-0.1c-0.2,0-0.2-0.1-0.2-0.2v-1.1
		c0-0.1,0.1-0.2,0.2-0.2h2.8c0.7,0,0.9-0.1,0.9-0.5v-0.1c0-0.3-0.2-0.4-0.7-0.6l-1.7-0.6c-0.9-0.3-1.5-1.1-1.4-2.1V486
		c0-1.4,1-2,3.1-2C586.4,484.1,587.1,484.1,587.8,484.3z"/>
	<path class="st2" d="M592,490c0.1,0,0.1,0,0.1,0.1v0.3c0,0.1,0,0.1-0.1,0.2l-2.4,3.4c-0.1,0.1-0.1,0.1-0.2,0l-0.6-0.3
		c-0.1,0-0.1-0.1,0-0.2l1-3.5c0-0.1,0.1-0.1,0.2-0.1H592z"/>
	<path class="st2" d="M602.9,484.2c0.1,0,0.2,0.1,0.2,0.2v7c0,0.2,0,0.2-0.2,0.2c-1.1,0.2-2.2,0.2-3.3,0.2c-1.4,0-2.1-0.1-2.6-0.6
		s-0.7-1.3-0.7-2.7v-4.2c0-0.1,0.1-0.2,0.2-0.2h1.6c0.1,0,0.2,0.1,0.2,0.2v3.7c0,0.5,0,1,0.1,1.4c0.2,0.5,0.4,0.6,1.3,0.6h1.2v-5.7
		c0-0.1,0.1-0.2,0.2-0.2c0,0,0,0,0,0L602.9,484.2z"/>
	<path class="st2" d="M610.8,484.7c0.5,0.5,0.7,1.3,0.7,2.6v4.2c0,0.1-0.1,0.2-0.2,0.2h-1.6c-0.1,0-0.2-0.1-0.2-0.2v-3.6
		c0-1,0-1.5-0.3-1.7s-0.5-0.3-1.2-0.3h-1.2v5.7c0,0.1-0.1,0.2-0.2,0.2H605c-0.1,0-0.2-0.1-0.2-0.2v-7c0-0.2,0.1-0.2,0.2-0.2
		c1.1-0.2,2.2-0.3,3.2-0.2C609.6,484.1,610.3,484.2,610.8,484.7z"/>
	<path class="st2" d="M615,481.3c0.1,0,0.2,0.1,0.2,0.2c0,0,0,0,0,0v10.1c0,0.1-0.1,0.2-0.2,0.2h-1.6c-0.1,0-0.2-0.1-0.2-0.2v-10
		c0-0.1,0.1-0.2,0.2-0.2c0,0,0,0,0,0L615,481.3z"/>
	<path class="st2" d="M619.1,482c0.1,0.5-0.3,1-0.9,1.1c-0.1,0-0.2,0-0.3,0c-0.5,0.1-1.1-0.2-1.2-0.8c0-0.1,0-0.2,0-0.3
		c0-0.7,0.4-1.1,1.2-1.1c0.5-0.1,1.1,0.3,1.2,0.8C619.1,481.9,619.1,482,619.1,482z M618.7,484.2c0.1,0,0.2,0.1,0.2,0.2c0,0,0,0,0,0
		v7.2c0,0.1-0.1,0.2-0.2,0.2h-1.6c-0.1,0-0.2-0.1-0.2-0.2v-7.2c0-0.1,0.1-0.2,0.2-0.2c0,0,0,0,0,0H618.7z"/>
	<path class="st2" d="M630.5,484.7c0.5,0.6,0.7,1.5,0.6,2.3v4.6c0,0.1-0.1,0.2-0.2,0.2h-1.6c-0.1,0-0.2-0.1-0.2-0.2v-3.6
		c-0.1-2-0.1-2-1.3-2c-0.4,0-0.7,0-1.1,0.1c0.1,0.5,0.2,0.9,0.2,1.4v4.2c0,0.1-0.1,0.2-0.2,0.2h-1.6c-0.1,0-0.2-0.1-0.2-0.2v-4.1
		c0-0.8,0-1.1-0.3-1.3s-0.4-0.2-1-0.2h-0.9v5.7c0,0.1-0.1,0.2-0.2,0.2h-1.7c-0.1,0-0.2-0.1-0.2-0.2v-7c0-0.1,0.1-0.2,0.2-0.2
		c0,0,0,0,0,0c0.9-0.2,1.7-0.2,2.6-0.2c0.8,0,1.7,0.1,2.4,0.4c0.8-0.3,1.6-0.4,2.4-0.5C629,484,629.8,484.2,630.5,484.7z"/>
	<path class="st2" d="M634.9,482c0.1,0.5-0.3,1-0.9,1.1c-0.1,0-0.2,0-0.3,0c-0.5,0.1-1.1-0.2-1.2-0.8c0-0.1,0-0.2,0-0.3
		c0-0.7,0.4-1.1,1.2-1.1c0.5-0.1,1.1,0.3,1.2,0.8C634.9,481.9,634.9,482,634.9,482z M634.6,484.2c0.1,0,0.2,0.1,0.2,0.2c0,0,0,0,0,0
		v7.2c0,0.1-0.1,0.2-0.2,0.2H633c-0.1,0-0.2-0.1-0.2-0.2v-7.2c0-0.1,0.1-0.2,0.2-0.2c0,0,0,0,0,0H634.6z"/>
	<path class="st2" d="M638.6,482.1c0.2,0,0.2,0,0.2,0.2v1.9h1.3c0.2,0,0.2,0.1,0.2,0.2v1.1c0,0.1-0.1,0.2-0.2,0.2h-1.3v3.7
		c0,0.5,0.2,0.7,0.8,0.7h0.6c0.2,0,0.2,0.1,0.2,0.2v1.1c0,0.1-0.1,0.2-0.2,0.3c0,0,0,0,0,0c-0.4,0.1-0.8,0.1-1.2,0.1
		c-0.4,0-0.9,0-1.3-0.1c-0.6-0.2-0.9-0.6-1-1.6v-4.4H636c-0.2,0-0.2-0.1-0.2-0.2v-1.1c0-0.1,0.1-0.2,0.2-0.2h0.8v-1.5
		c0-0.1,0.1-0.2,0.2-0.2L638.6,482.1z"/>
	<path class="st2" d="M647.3,484.8c0.5,0.9,0.8,2,0.7,3v0.4c0,0.3-0.1,0.4-0.4,0.4h-4.3c0,0.4,0.1,0.8,0.3,1.2
		c0.4,0.2,0.8,0.3,1.2,0.3h2.4c0.1,0,0.2,0.1,0.2,0.2c0,0,0,0,0,0v1.1c0,0.1-0.1,0.2-0.2,0.2c0,0,0,0,0,0c-0.9,0.1-1.7,0.2-2.6,0.2
		c-1,0.1-2-0.2-2.7-0.8c-0.6-0.9-0.8-2-0.7-3.1c-0.1-1.1,0.1-2.2,0.7-3.1c0.8-0.6,1.7-0.9,2.7-0.8
		C645.6,484,646.6,484.2,647.3,484.8z M643.3,487.3h2.7c0-1.2-0.3-1.5-1.3-1.5S643.3,486.1,643.3,487.3L643.3,487.3z"/>
	<path class="st2" d="M655.6,481.3c0.1,0,0.2,0.1,0.2,0.2v9.7c0,0.2-0.1,0.3-0.3,0.3c0,0,0,0,0,0c-1,0.2-2,0.3-3,0.3
		c-1,0.1-2-0.1-2.8-0.8c-0.6-0.9-0.8-2-0.7-3.1c-0.1-1.1,0.1-2.1,0.6-3.1c0.7-0.6,1.6-0.9,2.5-0.8c0.6,0,1.1,0,1.7,0.1v-2.7
		c0-0.1,0.1-0.2,0.2-0.2L655.6,481.3z M653.8,485.8h-1.2c-0.7,0-1.1,0.1-1.3,0.4c-0.2,0.5-0.3,1.1-0.3,1.7c0,0.6,0,1.2,0.2,1.7
		c0.2,0.3,0.6,0.4,1.2,0.4c0.4,0,0.9,0,1.3-0.1L653.8,485.8z"/>
</g>
<g id="Interne">
	<rect x="11.5" y="381.7" class="st3" width="678.4" height="142.1"/>
	<line class="st4" x1="195.1" y1="398.5" x2="689.9" y2="398.5"/>
	<path class="st5" d="M16,431.7v-0.8c1.4-1.9,1.7-2.1,1.7-2.7c0-0.2-0.1-0.4-0.3-0.4s-0.4,0.4-0.4,0.6h-0.9
		c-0.1-0.6,0.3-1.2,0.9-1.3c0.1,0,0.2,0,0.3,0c0.8,0,1.3,0.3,1.3,1.2c0,1-1.2,2.2-1.7,2.7h1.7v0.7L16,431.7z"/>
	<path class="st5" d="M18.9,429.8l1.1-2.6h1.2v2.8h0.4v0.7h-0.4v1h-0.9v-1h-1.4L18.9,429.8z M20.4,430l0.1-2.2l0,0l-0.8,2.2H20.4z"
		/>
	<path class="st5" d="M22.1,430.8H23l-0.5,1.5h-0.6L22.1,430.8z"/>
	<path class="st5" d="M25.8,428.4v0.4l0,0c0.1-0.3,0.5-0.5,0.9-0.5v0.8c-0.8,0-0.8,0.4-0.8,0.7v1.8h-0.9v-3.3L25.8,428.4z"/>
	<path class="st5" d="M28.7,431.4L28.7,431.4c-0.2,0.3-0.5,0.4-0.8,0.4c-0.4,0-0.8-0.2-0.8-0.7c0,0,0,0,0-0.1v-2.6H28v2.3
		c0,0.3,0,0.5,0.3,0.5s0.3-0.2,0.3-0.5v-2.3h0.9v2.6c0,0.2,0,0.4,0,0.6h-1L28.7,431.4z"/>
	<path class="st5" d="M31.2,430.2c0,0.4,0,1,0.4,1c0.4,0,0.4-0.3,0.4-0.6h0.9c0,0.3-0.1,0.6-0.4,0.9c-0.3,0.2-0.6,0.4-1,0.3
		c-1.2,0-1.3-0.7-1.3-1.8s0.1-1.7,1.3-1.7s1.4,0.8,1.3,1.9L31.2,430.2z M32,429.7c0-0.3,0-0.8-0.4-0.8c-0.4,0-0.4,0.5-0.4,0.8H32z"
		/>
	<path class="st5" d="M36.4,431.8c-1.2,0-1.4-0.7-1.4-1.5h1c0,0.5,0,0.8,0.6,0.8c0.3,0,0.5-0.2,0.5-0.4c0,0,0-0.1,0-0.1
		c0-0.8-2-0.9-2-2.3c0-0.7,0.4-1.3,1.5-1.3c1,0,1.4,0.4,1.4,1.4h-1c0-0.4-0.1-0.7-0.5-0.7c-0.3,0-0.5,0.2-0.5,0.4c0,0,0,0.1,0,0.1
		c0,0.9,2,0.8,2,2.3C38,431.6,37.1,431.8,36.4,431.8z"/>
	<path class="st5" d="M41.1,431.1c0,0.2,0,0.4,0,0.6h-0.8v-0.4l0,0c-0.2,0.3-0.5,0.5-0.9,0.5c-0.6,0-0.9-0.5-0.9-1
		c0-1.1,0.8-1.1,1.7-1.1v-0.3c0-0.3,0-0.5-0.4-0.5s-0.3,0.2-0.3,0.5h-0.9c0-0.3,0.1-0.6,0.3-0.8c0.3-0.2,0.6-0.2,0.9-0.2
		c1.2,0,1.3,0.5,1.3,1.1L41.1,431.1z M39.4,430.7c0,0.2,0,0.5,0.3,0.5c0.5,0,0.5-0.7,0.5-1.1C39.8,430.1,39.4,430.1,39.4,430.7z"/>
	<path class="st5" d="M42.9,427v4.7H42V427H42.9z"/>
	<path class="st5" d="M43.6,430c0-0.9,0.1-1.7,1.3-1.7s1.3,0.8,1.3,1.7s-0.2,1.8-1.3,1.8S43.6,431,43.6,430z M45.4,430
		c0-0.7,0-1-0.4-1s-0.4,0.3-0.4,1c0,1,0.1,1.2,0.4,1.2S45.4,431,45.4,430z"/>
	<path class="st5" d="M47.8,428.8L47.8,428.8c0.3-0.4,0.8-0.5,1.2-0.3c0.1,0.1,0.2,0.2,0.3,0.3c0.2-0.3,0.5-0.4,0.8-0.4
		c0.4,0,0.8,0.2,0.8,0.7c0,0,0,0,0,0.1v2.6h-0.9v-2.3c0-0.3,0-0.5-0.3-0.5s-0.3,0.2-0.3,0.5v2.3h-0.9v-2.3c0-0.3,0-0.5-0.3-0.5
		s-0.3,0.2-0.3,0.5v2.3h-0.9v-3.3h0.9V428.8z"/>
	<path class="st5" d="M51.6,430c0-0.9,0.1-1.7,1.3-1.7s1.3,0.8,1.3,1.7s-0.2,1.8-1.3,1.8S51.6,431,51.6,430z M53.3,430
		c0-0.7,0-1-0.4-1s-0.4,0.3-0.4,1c0,1,0.1,1.2,0.4,1.2S53.3,431,53.3,430z"/>
	<path class="st5" d="M55.8,428.8L55.8,428.8c0.1-0.1,0.2-0.2,0.3-0.3c0.1-0.1,0.3-0.1,0.5-0.1c0.4,0,0.8,0.2,0.8,0.7c0,0,0,0,0,0.1
		v2.6h-0.9v-2.3c0-0.3,0-0.5-0.3-0.5s-0.3,0.2-0.3,0.5v2.3h-0.9v-3.3h0.9V428.8z"/>
	<path class="st5" d="M61.2,431.7v-0.4l0,0c-0.1,0.3-0.4,0.5-0.8,0.4c-1,0-0.9-1-0.9-1.7s0-1.7,0.9-1.7c0.3,0,0.6,0.1,0.8,0.4l0,0
		V427h0.9v4.7L61.2,431.7z M61.2,430c0-0.7,0-1.1-0.4-1.1s-0.4,0.5-0.4,1.1c0,0.8,0.1,1.2,0.4,1.2S61.2,430.9,61.2,430L61.2,430z"/>
	<path class="st5" d="M63.7,430.2c0,0.4,0,1,0.4,1c0.4,0,0.4-0.3,0.4-0.6h0.9c0,0.3-0.1,0.6-0.3,0.9c-0.3,0.2-0.6,0.4-1,0.3
		c-1.2,0-1.3-0.7-1.3-1.8s0.1-1.7,1.3-1.7c1.2,0,1.4,0.8,1.3,1.9L63.7,430.2z M64.5,429.7c0-0.3,0-0.8-0.4-0.8s-0.4,0.5-0.4,0.8
		H64.5z"/>
	<path class="st5" d="M68.5,431.7h-1V427h1.8c0.7,0,1.1,0.4,1.1,1.2c0.1,0.5-0.3,1.1-0.8,1.1c0,0,0,0,0,0l0,0c0.5,0,0.8,0.3,0.9,0.8
		c0,0,0,0.1,0,0.1c0,0.5,0,0.9,0.1,1.4h-1c-0.1-0.3-0.1-0.6-0.1-0.9c0-0.6,0.1-1-0.7-1h-0.3L68.5,431.7z M68.5,429H69
		c0.4,0,0.5-0.4,0.5-0.7s-0.2-0.6-0.5-0.6h-0.4V429z"/>
	<path class="st5" d="M71.1,430c0-0.9,0.1-1.7,1.3-1.7s1.3,0.8,1.3,1.7s-0.2,1.8-1.3,1.8S71.1,431,71.1,430z M72.8,430
		c0-0.7,0-1-0.4-1s-0.4,0.3-0.4,1c0,1,0.1,1.2,0.4,1.2S72.8,431,72.8,430L72.8,430z"/>
	<path class="st5" d="M74,428.4h0.4v-0.5l0.9-0.4v0.9h0.5v0.6h-0.5v1.8c0,0.3,0,0.4,0.3,0.4h0.2v0.6c-0.2,0-0.3,0-0.5,0
		c-0.8,0-0.9-0.5-0.9-0.7v-2H74V428.4z"/>
	<path class="st5" d="M77.8,431.7v-2.3c0-0.3-0.1-0.5-0.3-0.5s-0.3,0.2-0.3,0.5v2.3h-0.9V427h0.9v1.7l0,0c0.1-0.1,0.2-0.2,0.3-0.3
		c0.1-0.1,0.3-0.1,0.4-0.1c0.4,0,0.8,0.2,0.8,0.7c0,0,0,0,0,0.1v2.6L77.8,431.7z"/>
	<path class="st5" d="M80.2,430.6c0,0.1,0,0.3,0,0.4c0.1,0.1,0.2,0.2,0.3,0.2c0.2,0,0.3-0.1,0.3-0.3c0,0,0,0,0,0
		c0-0.7-1.6-0.5-1.6-1.6c0-0.7,0.7-0.9,1.3-0.9s1.2,0.3,1.1,1h-0.8c0-0.2,0-0.4-0.1-0.4c-0.1-0.1-0.1-0.1-0.2-0.1
		c-0.2,0-0.3,0.1-0.3,0.4c0,0.5,1.6,0.5,1.6,1.5c0,0.6-0.5,1-1.2,1s-1.3-0.2-1.3-1.1L80.2,430.6z"/>
	<path class="st5" d="M84,429.6c0-0.5-0.1-0.6-0.4-0.6s-0.4,0.3-0.4,1c0,1,0.1,1.2,0.4,1.2s0.4-0.3,0.4-0.7h0.9
		c0,0.9-0.5,1.3-1.3,1.3c-1.2,0-1.3-0.7-1.3-1.8s0.1-1.7,1.3-1.7c0.8,0,1.3,0.4,1.3,1.2L84,429.6z"/>
	<path class="st5" d="M87.2,431.7v-2.3c0-0.3-0.1-0.5-0.3-0.5s-0.3,0.2-0.3,0.5v2.3h-0.9V427h0.9v1.7l0,0c0.1-0.1,0.2-0.2,0.3-0.3
		c0.1-0.1,0.3-0.1,0.4-0.1c0.4,0,0.8,0.2,0.8,0.7c0,0,0,0,0,0.1v2.6L87.2,431.7z"/>
	<path class="st5" d="M89.8,427v0.7h-0.9V427H89.8z M89.8,431.7h-0.9v-3.3h0.9V431.7z"/>
	<path class="st5" d="M91.6,427v4.7h-0.9V427H91.6z"/>
	<path class="st5" d="M94.1,431.7v-0.4l0,0c-0.1,0.3-0.4,0.5-0.8,0.4c-0.9,0-0.9-1-0.9-1.7s0-1.7,0.9-1.7c0.3,0,0.6,0.1,0.8,0.4l0,0
		V427H95v4.7L94.1,431.7z M94.1,430c0-0.7,0-1.1-0.4-1.1s-0.4,0.5-0.4,1.1c0,0.8,0.1,1.2,0.4,1.2S94,430.9,94.1,430L94.1,430z"/>
	<path class="st5" d="M98.7,429.6v0.7h-1.6v-0.7H98.7z"/>
	<path class="st5" d="M101.5,430.6c0,0.1,0,0.2,0.1,0.3c0.1,0.1,0.2,0.1,0.3,0.1c0.5,0,0.4-0.4,0.4-1.5c-0.2,0.2-0.5,0.3-0.8,0.3
		c-0.7,0-1-0.6-1-1.2c0-0.9,0.3-1.6,1.3-1.6c1.3,0,1.3,1.1,1.3,2.4c0,1.1,0,2.3-1.3,2.3c-0.8,0-1.2-0.3-1.2-1.1L101.5,430.6z
		 M101.8,429.3c0.4,0,0.4-0.5,0.4-0.8s0-0.8-0.4-0.8s-0.4,0.5-0.4,0.8S101.4,429.3,101.8,429.3z"/>
	<path class="st5" d="M103.4,431.7v-0.8c1.4-1.9,1.7-2.1,1.7-2.7c0-0.2-0.1-0.4-0.3-0.4s-0.4,0.4-0.4,0.6h-0.9
		c-0.1-0.6,0.3-1.2,0.9-1.3c0.1,0,0.2,0,0.3,0c0.8,0,1.3,0.3,1.3,1.2c0,1-1.2,2.2-1.7,2.7h1.7v0.7L103.4,431.7z"/>
	<path class="st5" d="M106.2,431.7v-0.8c1.4-1.9,1.7-2.1,1.7-2.7c0-0.2-0.1-0.4-0.3-0.4s-0.4,0.4-0.4,0.6h-0.9
		c-0.1-0.6,0.3-1.2,0.9-1.3c0.1,0,0.2,0,0.3,0c0.8,0,1.3,0.3,1.3,1.2c0,1-1.2,2.2-1.7,2.7h1.7v0.7L106.2,431.7z"/>
	<path class="st5" d="M109.2,430.5c0-0.6,0.1-1,0.7-1.2l0,0c-0.5-0.1-0.6-0.5-0.6-1c0-0.8,0.4-1.2,1.3-1.2s1.3,0.4,1.3,1.2
		c0,0.5-0.1,0.9-0.6,1l0,0c0.6,0.2,0.7,0.7,0.7,1.2c0,0.9-0.5,1.2-1.3,1.2S109.2,431.4,109.2,430.5z M110.1,430.5
		c0,0.3,0,0.6,0.4,0.6s0.4-0.4,0.4-0.6s0-0.8-0.4-0.8S110.1,430.2,110.1,430.5L110.1,430.5z M110.1,428.4c0,0.2,0,0.6,0.4,0.6
		s0.4-0.4,0.4-0.6s0-0.6-0.4-0.6S110.1,428.1,110.1,428.4L110.1,428.4z"/>
	<path class="st5" d="M112.1,430.5c0-0.6,0.1-1,0.7-1.2l0,0c-0.5-0.1-0.6-0.5-0.6-1c0-0.8,0.4-1.2,1.3-1.2s1.3,0.4,1.3,1.2
		c0,0.5-0.1,0.9-0.6,1l0,0c0.6,0.2,0.7,0.7,0.7,1.2c0,0.9-0.5,1.2-1.3,1.2S112.1,431.4,112.1,430.5z M113,430.5c0,0.3,0,0.6,0.4,0.6
		s0.4-0.4,0.4-0.6s0-0.8-0.4-0.8S113,430.2,113,430.5L113,430.5z M113,428.4c0,0.2,0,0.6,0.4,0.6s0.4-0.4,0.4-0.6s0-0.6-0.4-0.6
		S113,428.1,113,428.4L113,428.4z"/>
	<path class="st5" d="M117.9,431.8c-1.2,0-1.4-0.7-1.4-1.5h1c0,0.5,0,0.8,0.6,0.8c0.3,0,0.5-0.2,0.5-0.4c0,0,0-0.1,0-0.1
		c0-0.8-2-0.9-2-2.3c0-0.7,0.3-1.3,1.6-1.3c1,0,1.4,0.4,1.4,1.4h-1c0-0.4-0.1-0.7-0.5-0.7c-0.3,0-0.5,0.2-0.5,0.4c0,0,0,0.1,0,0.1
		c0,0.9,2,0.8,2,2.3C119.6,431.6,118.7,431.8,117.9,431.8z"/>
	<path class="st5" d="M121.8,431.4L121.8,431.4c-0.2,0.3-0.5,0.4-0.8,0.4c-0.4,0-0.8-0.2-0.8-0.7c0,0,0,0,0-0.1v-2.6h0.9v2.3
		c0,0.3,0.1,0.5,0.3,0.5s0.3-0.2,0.3-0.5v-2.3h0.9v2.6c0,0.2,0,0.4,0,0.6h-0.9V431.4z"/>
	<path class="st5" d="M124.4,428.4v0.4l0,0c0.1-0.3,0.5-0.5,0.8-0.5v0.8c-0.8,0-0.8,0.4-0.8,0.7v1.8h-0.9v-3.3L124.4,428.4z"/>
	<path class="st5" d="M126.5,430.2c0,0.4,0,1,0.4,1s0.4-0.3,0.4-0.6h0.9c0,0.3-0.1,0.6-0.3,0.9c-0.3,0.2-0.6,0.4-1,0.3
		c-1.2,0-1.3-0.7-1.3-1.8s0.1-1.7,1.3-1.7c1.2,0,1.4,0.8,1.3,1.9L126.5,430.2z M127.3,429.7c0-0.3,0-0.8-0.4-0.8s-0.4,0.5-0.4,0.8
		H127.3z"/>
	<path class="st5" d="M129.6,430.6c0,0.1,0,0.3,0,0.4c0.1,0.1,0.2,0.2,0.3,0.2c0.2,0,0.3-0.1,0.3-0.3c0,0,0,0,0,0
		c0-0.7-1.6-0.5-1.6-1.6c0-0.7,0.7-0.9,1.3-0.9c0.6,0,1.2,0.3,1.1,1h-0.9c0-0.2,0-0.4-0.1-0.4c-0.1-0.1-0.1-0.1-0.2-0.1
		c-0.2,0-0.3,0.1-0.3,0.4c0,0.5,1.6,0.5,1.6,1.5c0,0.6-0.5,1-1.2,1c-0.8,0-1.3-0.2-1.3-1.1L129.6,430.6z"/>
	<path class="st5" d="M132.7,428.8L132.7,428.8c0.1-0.1,0.2-0.2,0.3-0.3c0.1-0.1,0.3-0.1,0.4-0.1c0.4,0,0.8,0.2,0.8,0.7
		c0,0,0,0,0,0.1v2.6h-0.9v-2.3c0-0.3-0.1-0.5-0.3-0.5s-0.3,0.2-0.3,0.5v2.3h-0.9v-3.3h0.9L132.7,428.8z"/>
	<path class="st5" d="M135.9,430.2c0,0.4,0,1,0.4,1s0.4-0.3,0.4-0.6h0.9c0,0.3-0.1,0.6-0.4,0.9c-0.3,0.2-0.6,0.4-1,0.3
		c-1.2,0-1.3-0.7-1.3-1.8s0.1-1.7,1.3-1.7s1.4,0.8,1.3,1.9L135.9,430.2z M136.7,429.7c0-0.3,0-0.8-0.4-0.8s-0.4,0.5-0.4,0.8H136.7z"
		/>
	<path class="st5" d="M139,430.6c0,0.1,0,0.3,0,0.4c0.1,0.1,0.1,0.2,0.3,0.2c0.2,0,0.3-0.1,0.3-0.3c0,0,0,0,0,0
		c0-0.7-1.6-0.5-1.6-1.6c0-0.7,0.7-0.9,1.3-0.9s1.2,0.3,1.1,1h-0.9c0-0.2,0-0.4-0.1-0.4c-0.1-0.1-0.1-0.1-0.2-0.1
		c-0.2,0-0.3,0.1-0.3,0.4c0,0.5,1.6,0.5,1.6,1.5c0,0.6-0.5,1-1.2,1s-1.3-0.2-1.3-1.1L139,430.6z"/>
	<path class="st5" d="M144.1,429.6v0.7h-1.6v-0.7H144.1z"/>
	<path class="st5" d="M146.3,431.7V427h2.4v0.7h-1.5v1.2h1.4v0.7h-1.4v2L146.3,431.7z"/>
	<path class="st5" d="M150.1,431.7h-1V427h1.8c0.7,0,1.1,0.4,1.1,1.2c0.1,0.5-0.3,1.1-0.8,1.1c0,0,0,0,0,0l0,0
		c0.5,0,0.8,0.3,0.9,0.8c0,0,0,0.1,0,0.1c0,0.5,0,0.9,0.1,1.4h-1c-0.1-0.3-0.1-0.6-0.1-0.9c0-0.6,0.1-1-0.7-1h-0.3L150.1,431.7z
		 M150.1,429h0.4c0.4,0,0.5-0.4,0.5-0.7s-0.2-0.6-0.5-0.6h-0.4V429z"/>
	<path class="st5" d="M152.4,431.7l1.3-4.7h1.3l1.3,4.7h-1l-0.3-1h-1.3l-0.3,1H152.4z M154.3,427.9L154.3,427.9l-0.4,2h1
		L154.3,427.9z"/>
	<path class="st5" d="M156.8,431.7V427h1.3l1.3,3.3l0,0V427h0.9v4.7H159l-1.3-3.4l0,0v3.4H156.8z"/>
	<path class="st5" d="M161,429.4c0-1.2,0-2.4,1.6-2.4c1,0,1.4,0.5,1.4,1.6h-1c0-0.6-0.1-0.9-0.4-0.9c-0.6,0-0.6,0.5-0.6,1.7
		s0.1,1.7,0.6,1.7s0.4-0.6,0.4-1h1c0,1.3-0.5,1.7-1.4,1.7C161,431.8,161,430.6,161,429.4z"/>
	<path class="st5" d="M164.7,431.7V427h2.6v0.7h-1.6v1.2h1.5v0.7h-1.5v1.4h1.6v0.7H164.7z"/>
	<path class="st5" d="M19.1,435v0.8H18v3.9h-1v-3.9h-1.1V435H19.1z"/>
	<path class="st5" d="M20.4,438.2c0,0.4,0,1,0.4,1c0.4,0,0.4-0.3,0.4-0.6h0.9c0,0.3-0.1,0.6-0.4,0.9c-0.3,0.2-0.6,0.4-1,0.3
		c-1.2,0-1.3-0.7-1.3-1.8s0.1-1.7,1.3-1.7c1.2,0,1.4,0.8,1.3,1.9L20.4,438.2z M21.7,435l-1,0.9h-0.5l0.6-0.9H21.7z M21.2,437.7
		c0-0.3,0-0.8-0.4-0.8s-0.4,0.5-0.4,0.8H21.2z"/>
	<path class="st5" d="M23.8,435v4.7h-0.9V435H23.8z"/>
	<path class="st5" d="M25.3,438.8v0.9h-0.8v-0.9H25.3z"/>
	<path class="st5" d="M28.2,436.4v0.9h-0.8v-0.9H28.2z M28.2,439.7h-0.8v-0.9h0.8V439.7z"/>
	<path class="st5" d="M31.3,436.4H32v1.3h1.1v0.7H32v1.3h-0.7v-1.3h-1.1v-0.7h1.1V436.4z"/>
	<path class="st5" d="M33.4,436.3c0-0.3,0.1-0.7,0.3-1c0.3-0.2,0.6-0.3,1-0.2c0.8,0,1.2,0.3,1.2,1.2c0,0.4-0.1,0.9-0.6,1l0,0
		c0.6,0.1,0.7,0.6,0.7,1.1c0,0.9-0.5,1.3-1.4,1.3c-0.9,0-1.3-0.3-1.3-1.3h0.9c0,0.3,0,0.6,0.4,0.6c0.4,0,0.5-0.4,0.5-0.7
		c0-0.7-0.2-0.7-0.9-0.7V437c0.6,0,0.8,0,0.8-0.7c0-0.3,0-0.5-0.4-0.5c-0.3,0-0.4,0.3-0.4,0.5L33.4,436.3z"/>
	<path class="st5" d="M36.3,436.3c0-0.3,0.1-0.7,0.3-1c0.3-0.2,0.6-0.3,1-0.2c0.8,0,1.2,0.3,1.2,1.2c0,0.4-0.1,0.9-0.6,1l0,0
		c0.6,0.1,0.7,0.6,0.7,1.1c0,0.9-0.5,1.3-1.4,1.3s-1.3-0.3-1.3-1.3h0.9c0,0.3,0,0.6,0.4,0.6s0.5-0.4,0.5-0.7c0-0.7-0.2-0.7-0.8-0.7
		V437c0.6,0,0.8,0,0.8-0.7c0-0.3,0-0.5-0.3-0.5s-0.4,0.3-0.4,0.5L36.3,436.3z"/>
	<path class="st5" d="M41.8,434.8c-0.2,0.9-0.4,1.9-0.4,2.8c0,1,0.2,1.9,0.4,2.9h-0.5c-0.4-0.9-0.6-1.9-0.7-2.9
		c0.1-1,0.3-1.9,0.7-2.8H41.8z"/>
	<path class="st5" d="M45,437.4c0,1.4-0.1,2.3-1.3,2.3s-1.3-0.9-1.3-2.3c0-1.7,0.2-2.3,1.3-2.3S45,435.7,45,437.4z M43.3,437.4
		c0,1.4,0,1.7,0.4,1.7s0.4-0.3,0.4-1.7s0-1.7-0.4-1.7S43.3,436,43.3,437.4L43.3,437.4z"/>
	<path class="st5" d="M45.5,440.5c0.2-0.9,0.4-1.9,0.4-2.8c0-1-0.2-1.9-0.4-2.9H46c0.4,0.9,0.6,1.9,0.7,2.9c-0.1,1-0.3,1.9-0.7,2.8
		H45.5z"/>
	<path class="st5" d="M47.3,435.9c0.3-0.2,0.6-0.4,0.9-0.7H49v4.5h-1v-3.5c-0.2,0.2-0.5,0.4-0.8,0.5L47.3,435.9z"/>
	<path class="st5" d="M52.4,437L52.4,437c0.2-0.2,0.4-0.3,0.7-0.3c0.8,0,1,0.5,1,1.5c0,1.2-0.5,1.6-1.4,1.6c-0.8,0-1.2-0.3-1.2-1.1
		h0.9c0,0.1,0,0.2,0.1,0.3c0.1,0.1,0.2,0.1,0.3,0.1c0.4,0,0.4-0.3,0.4-0.9c0-0.3,0-0.9-0.4-0.9s-0.3,0.3-0.3,0.5h-0.9v-2.6h2.4v0.7
		h-1.5V437z"/>
	<path class="st5" d="M56.8,436l-1.1,3.7h-1l1.2-3.8h-1.5v-0.7h2.5V436z"/>
	<path class="st5" d="M58.6,436.3c0-0.3,0.1-0.7,0.3-1c0.3-0.2,0.6-0.3,1-0.2c0.8,0,1.2,0.3,1.2,1.2c0,0.4-0.1,0.9-0.6,1l0,0
		c0.6,0.1,0.7,0.6,0.7,1.1c0,0.9-0.5,1.3-1.4,1.3s-1.3-0.3-1.3-1.3h0.9c0,0.3,0,0.6,0.4,0.6s0.5-0.4,0.5-0.7c0-0.7-0.2-0.7-0.8-0.7
		V437c0.6,0,0.8,0,0.8-0.7c0-0.3,0-0.5-0.3-0.5s-0.4,0.3-0.4,0.5L58.6,436.3z"/>
	<path class="st5" d="M61.5,439.7v-0.8c1.4-1.9,1.7-2.1,1.7-2.7c0-0.2-0.1-0.4-0.3-0.4s-0.4,0.4-0.4,0.6h-0.9
		c-0.1-0.6,0.3-1.2,0.9-1.3c0.1,0,0.3,0,0.4,0c0.8,0,1.3,0.3,1.3,1.2c0,1-1.2,2.2-1.7,2.7h1.7v0.7L61.5,439.7z"/>
	<path class="st5" d="M65.8,438.5c0-0.6,0.1-1,0.7-1.2l0,0c-0.5-0.1-0.6-0.5-0.6-1c0-0.8,0.4-1.2,1.3-1.2s1.3,0.4,1.3,1.2
		c0,0.5-0.1,0.9-0.6,1l0,0c0.6,0.2,0.7,0.7,0.7,1.2c0,0.9-0.5,1.2-1.3,1.2C66.3,439.8,65.8,439.4,65.8,438.5z M66.7,438.5
		c0,0.3,0,0.6,0.4,0.6s0.4-0.4,0.4-0.6s0-0.8-0.4-0.8S66.8,438.2,66.7,438.5L66.7,438.5z M66.7,436.4c0,0.2,0,0.6,0.4,0.6
		s0.4-0.4,0.4-0.6s0-0.6-0.4-0.6S66.8,436.1,66.7,436.4L66.7,436.4z"/>
	<path class="st5" d="M71.2,436l-1.1,3.7h-1l1.2-3.8h-1.5v-0.7h2.4L71.2,436z"/>
	<path class="st5" d="M75.7,437.4c0,1.4-0.1,2.3-1.3,2.3s-1.3-0.9-1.3-2.3c0-1.7,0.2-2.3,1.3-2.3S75.7,435.7,75.7,437.4z M74,437.4
		c0,1.4,0,1.7,0.4,1.7s0.4-0.3,0.4-1.7s0-1.7-0.4-1.7S74,436,74,437.4L74,437.4z"/>
	<path class="st5" d="M78.6,437.4c0,1.4-0.1,2.3-1.3,2.3s-1.3-0.9-1.3-2.3c0-1.7,0.2-2.3,1.3-2.3S78.6,435.7,78.6,437.4z
		 M76.9,437.4c0,1.4,0,1.7,0.4,1.7s0.4-0.3,0.4-1.7s0-1.7-0.4-1.7S76.8,436,76.9,437.4L76.9,437.4z"/>
	<path class="st5" d="M79.9,440.3l1.6-5.3h0.7l-1.6,5.3H79.9z"/>
	<path class="st5" d="M83.8,439.7V435h2.4v0.7h-1.5v1.2h1.4v0.7h-1.4v2L83.8,439.7z"/>
	<path class="st5" d="M89.1,439.1c0,0.2,0,0.4,0,0.6h-0.8v-0.4l0,0c-0.2,0.3-0.5,0.5-0.9,0.5c-0.6,0-0.9-0.5-0.9-1
		c0-1.1,0.8-1.1,1.7-1.1v-0.3c0-0.3,0-0.5-0.4-0.5s-0.3,0.2-0.3,0.5h-0.9c0-0.3,0.1-0.6,0.3-0.8c0.3-0.2,0.6-0.2,0.9-0.2
		c1.2,0,1.3,0.5,1.3,1.1L89.1,439.1z M87.4,438.7c0,0.2,0,0.5,0.3,0.5c0.5,0,0.5-0.7,0.5-1.1C87.8,438.1,87.4,438.1,87.4,438.7z"/>
	<path class="st5" d="M90.5,439.7h-0.9l1-1.7l-0.9-1.6h1l0.5,1l0.6-1h0.9l-0.9,1.6l0.9,1.7h-1l-0.6-1.1L90.5,439.7z"/>
	<path class="st5" d="M95.3,436.4v0.9h-0.8v-0.9H95.3z M95.3,439.7h-0.8v-0.9h0.8V439.7z"/>
	<path class="st5" d="M98.4,436.4h0.7v1.3h1.1v0.7h-1.1v1.3h-0.7v-1.3h-1.1v-0.7h1.1V436.4z"/>
	<path class="st5" d="M100.5,436.3c0-0.3,0.1-0.7,0.3-1c0.3-0.2,0.6-0.3,1-0.2c0.8,0,1.2,0.3,1.2,1.2c0,0.4-0.1,0.9-0.6,1l0,0
		c0.6,0.1,0.7,0.6,0.7,1.1c0,0.9-0.5,1.3-1.4,1.3s-1.3-0.3-1.3-1.3h0.9c0,0.3,0,0.6,0.4,0.6s0.4-0.4,0.4-0.7c0-0.7-0.2-0.7-0.8-0.7
		V437c0.6,0,0.8,0,0.8-0.7c0-0.3,0-0.5-0.3-0.5s-0.4,0.3-0.4,0.5L100.5,436.3z"/>
	<path class="st5" d="M103.4,436.3c0-0.3,0.1-0.7,0.3-1c0.3-0.2,0.6-0.3,1-0.2c0.8,0,1.2,0.3,1.2,1.2c0,0.4-0.1,0.9-0.6,1l0,0
		c0.6,0.1,0.7,0.6,0.7,1.1c0,0.9-0.5,1.3-1.4,1.3s-1.3-0.3-1.3-1.3h0.9c0,0.3,0,0.6,0.4,0.6s0.4-0.4,0.4-0.7c0-0.7-0.2-0.7-0.8-0.7
		V437c0.6,0,0.8,0,0.8-0.7c0-0.3,0-0.5-0.3-0.5s-0.4,0.3-0.4,0.5L103.4,436.3z"/>
	<path class="st5" d="M109,434.8c-0.2,0.9-0.4,1.9-0.4,2.8c0,1,0.2,1.9,0.4,2.9h-0.5c-0.4-0.9-0.6-1.9-0.7-2.9
		c0.1-1,0.3-1.9,0.7-2.8H109z"/>
	<path class="st5" d="M112.1,437.4c0,1.4-0.1,2.3-1.3,2.3s-1.3-0.9-1.3-2.3c0-1.7,0.2-2.3,1.3-2.3S112.1,435.7,112.1,437.4z
		 M110.4,437.4c0,1.4,0,1.7,0.4,1.7s0.4-0.3,0.4-1.7s0-1.7-0.4-1.7S110.4,436,110.4,437.4L110.4,437.4z"/>
	<path class="st5" d="M112.6,440.5c0.2-0.9,0.4-1.9,0.4-2.8c0-1-0.2-1.9-0.4-2.9h0.5c0.4,0.9,0.6,1.9,0.7,2.9
		c-0.1,1-0.3,1.9-0.7,2.8H112.6z"/>
	<path class="st5" d="M114.4,435.9c0.3-0.2,0.6-0.4,0.9-0.7h0.9v4.5h-1v-3.5c-0.2,0.2-0.5,0.4-0.8,0.5L114.4,435.9z"/>
	<path class="st5" d="M119.5,437L119.5,437c0.2-0.2,0.4-0.3,0.7-0.3c0.8,0,1,0.5,1,1.5c0,1.2-0.5,1.6-1.4,1.6
		c-0.8,0-1.2-0.3-1.2-1.1h0.9c0,0.1,0,0.2,0.1,0.3c0.1,0.1,0.2,0.1,0.3,0.1c0.4,0,0.4-0.3,0.4-0.9c0-0.3,0-0.9-0.4-0.9
		s-0.3,0.3-0.3,0.5h-0.9v-2.6h2.4v0.7h-1.5L119.5,437z"/>
	<path class="st5" d="M123.9,436l-1.1,3.7h-1l1.2-3.8h-1.6v-0.7h2.4L123.9,436z"/>
	<path class="st5" d="M125.7,436.3c0-0.3,0.1-0.7,0.3-1c0.3-0.2,0.6-0.3,1-0.2c0.8,0,1.2,0.3,1.2,1.2c0,0.4-0.1,0.9-0.6,1l0,0
		c0.6,0.1,0.7,0.6,0.7,1.1c0,0.9-0.5,1.3-1.4,1.3s-1.3-0.3-1.3-1.3h0.9c0,0.3,0,0.6,0.4,0.6s0.4-0.4,0.4-0.7c0-0.7-0.2-0.7-0.8-0.7
		V437c0.6,0,0.8,0,0.8-0.7c0-0.3,0-0.5-0.3-0.5s-0.4,0.3-0.4,0.5L125.7,436.3z"/>
	<path class="st5" d="M128.6,439.7v-0.8c1.4-1.9,1.7-2.1,1.7-2.7c0-0.2-0.1-0.4-0.3-0.4s-0.4,0.4-0.4,0.6h-0.9
		c-0.1-0.6,0.3-1.2,0.9-1.3c0.1,0,0.2,0,0.3,0c0.8,0,1.3,0.3,1.3,1.2c0,1-1.2,2.2-1.7,2.7h1.7v0.7L128.6,439.7z"/>
	<path class="st5" d="M133,438.5c0-0.6,0.1-1,0.7-1.2l0,0c-0.5-0.1-0.6-0.5-0.6-1c0-0.8,0.4-1.2,1.3-1.2s1.3,0.4,1.3,1.2
		c0,0.5-0.1,0.9-0.6,1l0,0c0.6,0.2,0.7,0.7,0.7,1.2c0,0.9-0.5,1.2-1.3,1.2S133,439.4,133,438.5z M133.9,438.5c0,0.3,0,0.6,0.4,0.6
		s0.4-0.4,0.4-0.6s0-0.8-0.4-0.8S133.8,438.2,133.9,438.5L133.9,438.5z M133.9,436.4c0,0.2,0,0.6,0.4,0.6s0.4-0.4,0.4-0.6
		s0-0.6-0.4-0.6S133.9,436.1,133.9,436.4L133.9,436.4z"/>
	<path class="st5" d="M138.3,436l-1.1,3.7h-1l1.2-3.8h-1.6v-0.7h2.4L138.3,436z"/>
	<path class="st5" d="M140.2,438.5c0-0.6,0.1-1,0.7-1.2l0,0c-0.5-0.1-0.6-0.5-0.6-1c0-0.8,0.4-1.2,1.3-1.2s1.3,0.4,1.3,1.2
		c0,0.5-0.1,0.9-0.6,1l0,0c0.6,0.2,0.7,0.7,0.7,1.2c0,0.9-0.5,1.2-1.3,1.2S140.2,439.4,140.2,438.5z M141.1,438.5
		c0,0.3,0,0.6,0.4,0.6s0.4-0.4,0.4-0.6s0-0.8-0.4-0.8S141.1,438.2,141.1,438.5L141.1,438.5z M141.1,436.4c0,0.2,0,0.6,0.4,0.6
		s0.4-0.4,0.4-0.6s0-0.6-0.4-0.6S141.1,436.1,141.1,436.4L141.1,436.4z"/>
	<path class="st5" d="M145.6,436l-1.1,3.7h-1l1.2-3.8h-1.6v-0.7h2.4V436z"/>
	<path class="st5" d="M15.9,443h1l0.6,3.3l0,0l0.7-3.3h1.2l0.7,3.3l0,0l0.6-3.3h1l-1,4.7h-1.1l-0.7-3.4l0,0l-0.8,3.4h-1.1L15.9,443z
		"/>
	<path class="st5" d="M22.9,446.2c0,0.4,0,1,0.4,1s0.4-0.3,0.4-0.6h0.9c0,0.3-0.1,0.6-0.4,0.9c-0.3,0.2-0.6,0.4-1,0.3
		c-1.2,0-1.3-0.7-1.3-1.8s0.1-1.7,1.3-1.7s1.4,0.8,1.3,1.9L22.9,446.2z M23.7,445.7c0-0.3,0-0.8-0.4-0.8s-0.4,0.5-0.4,0.8H23.7z"/>
	<path class="st5" d="M25.3,443h0.9v1.7l0,0c0.2-0.3,0.4-0.4,0.8-0.4c0.9,0,0.9,1,0.9,1.7s0,1.7-0.9,1.7c-0.3,0-0.6-0.1-0.8-0.4l0,0
		v0.4h-0.9L25.3,443z M27,446c0-0.7,0-1.1-0.4-1.1s-0.4,0.5-0.4,1.1c0,0.8,0.1,1.2,0.4,1.2S27,446.9,27,446L27,446z"/>
	<path class="st5" d="M30.7,444.4v0.9H30v-0.9H30.7z M30.7,447.7H30v-0.9h0.8V447.7z"/>
	<path class="st5" d="M32.6,444.4h0.9l0.5,2.5l0,0l0.6-2.5h1l0.6,2.5l0,0l0.5-2.5h0.9l-0.9,3.3h-1l-0.6-2.2l0,0l-0.7,2.2h-1
		L32.6,444.4z"/>
	<path class="st5" d="M37.6,444.4h0.9l0.5,2.5l0,0l0.6-2.5h1l0.6,2.5l0,0l0.5-2.5h0.9l-0.9,3.3h-1l-0.6-2.2l0,0l-0.7,2.2h-1
		L37.6,444.4z"/>
	<path class="st5" d="M42.7,444.4h0.9l0.5,2.5l0,0l0.6-2.5h1l0.6,2.5l0,0l0.5-2.5h0.9l-0.9,3.3h-1l-0.6-2.2l0,0l-0.7,2.2h-1
		L42.7,444.4z"/>
	<path class="st5" d="M48.8,446.8v0.9H48v-0.9H48.8z"/>
	<path class="st5" d="M51.2,445.6c0-0.5-0.1-0.6-0.4-0.6s-0.4,0.3-0.4,1c0,1,0.1,1.2,0.4,1.2s0.4-0.3,0.4-0.7h0.9
		c0,0.9-0.5,1.3-1.3,1.3c-1.2,0-1.3-0.7-1.3-1.8s0.1-1.7,1.3-1.7c0.8,0,1.3,0.4,1.3,1.2L51.2,445.6z"/>
	<path class="st5" d="M55.2,447.1c0,0.2,0,0.4,0,0.6h-0.8v-0.4l0,0c-0.2,0.3-0.5,0.5-0.9,0.5c-0.6,0-0.9-0.5-0.9-1
		c0-1.1,0.8-1.1,1.7-1.1v-0.3c0-0.3,0-0.5-0.4-0.5s-0.3,0.2-0.3,0.5h-0.9c0-0.3,0.1-0.6,0.3-0.8c0.3-0.2,0.6-0.2,0.9-0.2
		c1.2,0,1.3,0.5,1.3,1.1L55.2,447.1z M53.5,446.7c0,0.2,0,0.5,0.3,0.5c0.5,0,0.5-0.7,0.5-1.1C53.9,446.1,53.5,446.1,53.5,446.7z"/>
	<path class="st5" d="M56.8,444.4v0.4l0,0c0.1-0.3,0.5-0.5,0.8-0.5v0.8c-0.8,0-0.8,0.4-0.8,0.7v1.8h-0.9v-3.3L56.8,444.4z"/>
	<path class="st5" d="M59,444.4v0.4l0,0c0.1-0.3,0.5-0.5,0.8-0.5v0.8c-0.8,0-0.8,0.4-0.8,0.7v1.8h-0.9v-3.3L59,444.4z"/>
	<path class="st5" d="M61.2,446.2c0,0.4,0,1,0.4,1s0.4-0.3,0.4-0.6h0.9c0,0.3-0.1,0.6-0.3,0.9c-0.3,0.2-0.6,0.4-1,0.3
		c-1.2,0-1.3-0.7-1.3-1.8s0.1-1.7,1.3-1.7s1.4,0.8,1.3,1.9L61.2,446.2z M62,445.7c0-0.3,0-0.8-0.4-0.8s-0.4,0.5-0.4,0.8H62z"/>
	<path class="st5" d="M64.5,444.8L64.5,444.8c0.1-0.1,0.2-0.2,0.3-0.3c0.1-0.1,0.3-0.1,0.5-0.1c0.4,0,0.8,0.2,0.8,0.7c0,0,0,0,0,0.1
		v2.6h-0.9v-2.3c0-0.3-0.1-0.5-0.3-0.5s-0.3,0.2-0.3,0.5v2.3h-0.9v-3.3h0.9L64.5,444.8z"/>
	<path class="st5" d="M66.7,446c0-0.9,0.1-1.7,1.3-1.7c1.2,0,1.3,0.8,1.3,1.7s-0.2,1.8-1.3,1.8C66.9,447.8,66.7,447,66.7,446z
		 M68.5,446c0-0.7,0-1-0.4-1s-0.4,0.3-0.4,1c0,1,0.1,1.2,0.4,1.2S68.5,447,68.5,446z"/>
	<path class="st5" d="M71.1,443v0.7h-0.9V443H71.1z M71.1,447.7h-0.9v-3.3h0.9V447.7z"/>
	<path class="st5" d="M72.7,444.4v0.4l0,0c0.1-0.3,0.5-0.5,0.8-0.5v0.8c-0.8,0-0.8,0.4-0.8,0.7v1.8h-0.9v-3.3L72.7,444.4z"/>
	<path class="st5" d="M74.8,446.8v0.9H74v-0.9H74.8z"/>
	<path class="st5" d="M77.2,445.6c0-0.5-0.1-0.6-0.4-0.6s-0.4,0.3-0.4,1c0,1,0.1,1.2,0.4,1.2s0.4-0.3,0.4-0.7h0.9
		c0,0.9-0.5,1.3-1.3,1.3c-1.2,0-1.3-0.7-1.3-1.8s0.1-1.7,1.3-1.7c0.8,0,1.3,0.4,1.3,1.2L77.2,445.6z"/>
	<path class="st5" d="M78.7,446c0-0.9,0.1-1.7,1.3-1.7s1.3,0.8,1.3,1.7s-0.2,1.8-1.3,1.8S78.7,447,78.7,446z M80.4,446
		c0-0.7,0-1-0.4-1s-0.4,0.3-0.4,1c0,1,0.1,1.2,0.4,1.2S80.4,447,80.4,446z"/>
	<path class="st5" d="M82.8,444.8L82.8,444.8c0.3-0.4,0.8-0.5,1.2-0.3c0.1,0.1,0.2,0.2,0.3,0.3c0.2-0.3,0.5-0.4,0.8-0.4
		c0.4,0,0.8,0.2,0.8,0.7c0,0,0,0,0,0.1v2.6h-0.9v-2.3c0-0.3-0.1-0.5-0.3-0.5s-0.3,0.2-0.3,0.5v2.3h-0.9v-2.3c0-0.3-0.1-0.5-0.3-0.5
		s-0.3,0.2-0.3,0.5v2.3h-0.9v-3.3h0.9V444.8z"/>
	<line class="st4" x1="56.2" y1="398.5" x2="195.1" y2="398.5"/>
	<line class="st4" x1="56.2" y1="410.3" x2="195.1" y2="410.3"/>
	<line class="st4" x1="56.2" y1="422" x2="195.1" y2="422"/>
	<line class="st4" x1="11.5" y1="453.6" x2="195.1" y2="453.6"/>
	<path class="st5" d="M60.6,392.1c0-0.5-0.1-1-0.7-1s-0.8,1-0.8,2.2c0,1.8,0.2,2.2,0.9,2.2c0.2,0,0.4,0,0.6-0.1V394h-0.7v-0.9h1.9v3
		c-0.5,0.1-1.1,0.2-1.7,0.2c-2.1,0-2.3-0.9-2.3-3.1c0-1.5,0.1-3,2.1-3c0.9-0.1,1.8,0.5,1.9,1.4c0,0.2,0,0.3,0,0.5L60.6,392.1z"/>
	<path class="st5" d="M62.8,396.2v-5.9H66v0.9h-2v1.4h1.8v0.9h-1.8v1.7h2v0.9L62.8,396.2z"/>
	<path class="st5" d="M66.8,396.2v-5.9h3v0.9h-1.7v1.5h1.7v0.9h-1.7v2.5L66.8,396.2z"/>
	<path class="st5" d="M70.4,393.3c0-1.5,0-3,2-3c1.3,0,1.8,0.7,1.7,2h-1.2c0-0.8-0.1-1.1-0.5-1.1c-0.7,0-0.8,0.6-0.8,2.1
		s0.1,2.1,0.8,2.1s0.5-0.7,0.6-1.2h1.2c0,1.6-0.6,2.1-1.8,2.1C70.4,396.3,70.4,394.8,70.4,393.3z"/>
	<path class="st5" d="M74.9,393.3c0-1.5,0-3,2-3s2,1.5,2,3s0,3-2,3S74.9,394.8,74.9,393.3z M77.7,393.3c0-1.5-0.1-2.1-0.8-2.1
		s-0.8,0.6-0.8,2.1s0.1,2.1,0.8,2.1S77.7,394.8,77.7,393.3z"/>
	<path class="st6" d="M60.6,402.9c0-0.5-0.1-1-0.7-1s-0.8,1-0.8,2.2c0,1.8,0.2,2.2,0.9,2.2c0.2,0,0.4,0,0.6-0.1v-1.3h-0.7v-0.9h1.9
		v3c-0.5,0.1-1.1,0.2-1.7,0.2c-2.1,0-2.3-0.9-2.3-3.1c0-1.5,0.1-3,2.1-3c0.9-0.1,1.8,0.5,1.9,1.4c0,0.1,0,0.3,0,0.4H60.6z"/>
	<path class="st6" d="M62.8,407v-5.9H66v0.9h-2v1.4h1.8v0.9h-1.8v1.7h2v0.9L62.8,407z"/>
	<path class="st6" d="M66.8,407v-5.9h3v0.9h-1.7v1.5h1.7v0.9h-1.7v2.5L66.8,407z"/>
	<path class="st6" d="M70,408v-0.4h4v0.4H70z"/>
	<path class="st6" d="M74.4,402.2c0.4-0.2,0.8-0.5,1.1-0.9h1.1v5.7h-1.2v-4.4c-0.3,0.2-0.6,0.5-1,0.6L74.4,402.2z"/>
	<path class="st6" d="M80.9,402.4l-1.4,4.6h-1.3l1.6-4.8h-1.9v-0.9h3L80.9,402.4z"/>
	<path class="st6" d="M81.2,408v-0.4h4.1v0.4H81.2z"/>
	<path class="st6" d="M85.7,402.2c0.4-0.2,0.8-0.5,1.1-0.9h1.1v5.7h-1.2v-4.4c-0.3,0.2-0.6,0.5-1,0.6L85.7,402.2z"/>
	<path class="st6" d="M89.3,402.2c0.4-0.2,0.8-0.5,1.1-0.9h1.1v5.7h-1.2v-4.4c-0.3,0.2-0.6,0.5-1,0.6L89.3,402.2z"/>
	<path class="st6" d="M94.7,402.5c0-0.1,0-0.2-0.1-0.4c-0.1-0.1-0.2-0.2-0.3-0.1c-0.5,0-0.5,0.3-0.5,1.7c0.2-0.3,0.6-0.4,0.9-0.4
		c1.1,0,1.3,0.9,1.3,1.8c0,1.2-0.4,1.9-1.7,1.9c-1.5,0-1.6-1.3-1.6-2.4c0-2.3,0.1-3.4,1.7-3.4c0.9,0,1.5,0.4,1.5,1.3L94.7,402.5z
		 M94.8,405.1c0-0.7-0.1-1-0.5-1s-0.5,0.4-0.5,1.1c0,0.3,0,1,0.5,1S94.8,406,94.8,405.1L94.8,405.1z"/>
	<path class="st6" d="M96.2,407v-1c1.8-2.4,2.2-2.6,2.2-3.4c0-0.3-0.1-0.5-0.4-0.5s-0.5,0.5-0.5,0.8h-1.2c-0.1-0.8,0.3-1.5,1.1-1.6
		c0.2,0,0.3,0,0.5,0c1,0,1.7,0.4,1.7,1.5c0,1.3-1.5,2.7-2.1,3.4h2.2v0.9H96.2z"/>
	<path class="st6" d="M103.1,404.1c0,1.8-0.1,2.9-1.6,2.9s-1.6-1.2-1.6-2.9c0-2.2,0.2-2.9,1.6-2.9S103.1,402,103.1,404.1z
		 M101,404.1c0,1.7,0,2.1,0.5,2.1s0.5-0.4,0.5-2.1s0-2.1-0.5-2.1S101,402.4,101,404.1L101,404.1z"/>
	<path class="st5" d="M103.3,408v-0.4h4.1v0.4H103.3z"/>
	<path class="st5" d="M107.8,407v-5.9h1.2v4.9h1.8v1L107.8,407z"/>
	<path class="st5" d="M111.3,404.9c0-1.1,0.2-2.1,1.7-2.1s1.7,1,1.7,2.1c0,1.3-0.2,2.2-1.7,2.2S111.3,406.2,111.3,404.9z
		 M113.5,404.8c0-0.9,0-1.3-0.5-1.3s-0.5,0.4-0.5,1.3c0,1.3,0.1,1.5,0.5,1.5S113.5,406.1,113.5,404.8L113.5,404.8z"/>
	<path class="st5" d="M118.5,402.9v4.3c0,0.3,0,1.4-1.6,1.4c-0.8,0-1.6-0.2-1.6-1.2h1.1c0,0.1,0,0.3,0.1,0.4
		c0.1,0.1,0.2,0.2,0.4,0.2c0.3,0,0.4-0.3,0.4-0.7v-0.8l0,0c-0.2,0.3-0.5,0.5-0.9,0.5c-1.3,0-1.2-1.1-1.2-2.1s0-2,1.2-2
		c0.4,0,0.8,0.2,0.9,0.6l0,0v-0.5H118.5z M116.9,406.2c0.4,0,0.5-0.4,0.5-1.3s0-1.4-0.5-1.4s-0.5,0.3-0.5,1.5
		C116.4,405.4,116.4,406.2,116.9,406.2z"/>
	<path class="st5" d="M119.4,404.9c0-1.1,0.2-2.1,1.7-2.1s1.7,1,1.7,2.1c0,1.3-0.2,2.2-1.7,2.2S119.4,406.2,119.4,404.9z
		 M121.6,404.8c0-0.9,0-1.3-0.5-1.3s-0.5,0.4-0.5,1.3c0,1.3,0.1,1.5,0.5,1.5S121.6,406.1,121.6,404.8L121.6,404.8z"/>
	<path class="st5" d="M123,408v-0.4h4.1v0.4H123z"/>
	<path class="st5" d="M129.2,407.1c-1.5,0-1.8-0.9-1.7-1.9h1.2c0,0.6,0,1,0.7,1c0.3,0,0.6-0.2,0.6-0.5c0,0,0-0.1,0-0.1
		c0-1-2.5-1.1-2.5-2.9c0-0.9,0.4-1.6,1.9-1.6c1.2,0,1.8,0.5,1.7,1.8H130c0-0.4-0.1-0.9-0.6-0.9c-0.3,0-0.6,0.2-0.6,0.5
		c0,0,0,0.1,0,0.1c0,1.1,2.5,1,2.5,2.9C131.2,406.9,130.1,407.1,129.2,407.1z"/>
	<path class="st5" d="M133.3,401.1v0.9h-1.1v-0.9H133.3z M133.3,407h-1.1v-4.1h1.1V407z"/>
	<path class="st5" d="M137.4,402.9v4.3c0,0.3,0,1.4-1.6,1.4c-0.9,0-1.6-0.2-1.6-1.2h1.1c0,0.1,0,0.3,0.1,0.4
		c0.1,0.1,0.2,0.2,0.4,0.2c0.3,0,0.4-0.3,0.4-0.7v-0.8l0,0c-0.2,0.3-0.5,0.5-0.9,0.5c-1.3,0-1.2-1.1-1.2-2.1s0-2,1.2-2
		c0.4,0,0.8,0.2,0.9,0.6l0,0v-0.5H137.4z M135.8,406.2c0.4,0,0.5-0.4,0.5-1.3s0-1.4-0.5-1.4s-0.5,0.3-0.5,1.5
		C135.3,405.4,135.3,406.2,135.8,406.2z"/>
	<path class="st5" d="M139.5,403.3L139.5,403.3c0.1-0.2,0.2-0.3,0.4-0.4c0.2-0.1,0.4-0.1,0.6-0.1c0.5,0,1,0.3,1,0.9c0,0,0,0,0,0v3.3
		h-1.1v-2.8c0-0.4-0.1-0.6-0.4-0.6s-0.4,0.3-0.4,0.6v2.8h-1.1v-4.1h1.1L139.5,403.3z"/>
	<path class="st5" d="M145.1,403.5v-2.3h1.2v5.9h-1.2v-2.6h-1.4v2.6h-1.2v-5.9h1.2v2.3H145.1z"/>
	<path class="st5" d="M147.3,404.9c0-1.1,0.2-2.1,1.7-2.1s1.7,1,1.7,2.1c0,1.3-0.2,2.2-1.7,2.2S147.3,406.2,147.3,404.9z
		 M149.5,404.8c0-0.9,0-1.3-0.5-1.3s-0.5,0.4-0.5,1.3c0,1.3,0.1,1.5,0.5,1.5S149.5,406.1,149.5,404.8L149.5,404.8z"/>
	<path class="st5" d="M152.5,402.9v0.5l0,0c0.2-0.4,0.6-0.7,1.1-0.6v1c-1-0.1-1,0.5-1,0.9v2.2h-1.1v-4.1H152.5z"/>
	<path class="st5" d="M155.3,401.1v0.9h-1.1v-0.9H155.3z M155.3,407h-1.1v-4.1h1.1V407z"/>
	<path class="st5" d="M156.4,407v-5.9h2.2c0.9,0,1.7,0.3,1.7,1.5c0.1,0.6-0.4,1.2-1,1.3l0,0c0.9,0.1,1.1,0.7,1.1,1.5
		c0,1.5-1.3,1.5-1.8,1.5L156.4,407z M157.6,403.5h0.8c0.4,0,0.7-0.3,0.6-0.7c0,0,0-0.1,0-0.1c0-0.4-0.3-0.7-0.6-0.7c0,0,0,0-0.1,0
		h-0.8V403.5z M157.6,406.1h0.7c0.4,0.1,0.8-0.2,0.8-0.6c0-0.1,0-0.2,0-0.2c0-0.5-0.2-0.8-0.8-0.8h-0.7L157.6,406.1z"/>
	<path class="st5" d="M162.5,401.1v5.9h-1.1v-5.9H162.5z"/>
	<path class="st5" d="M164.6,405.1c0,0.5,0,1.2,0.5,1.2s0.5-0.4,0.5-0.7h1.2c0,0.4-0.2,0.8-0.4,1.1c-0.3,0.3-0.8,0.4-1.2,0.4
		c-1.5,0-1.7-0.9-1.7-2.2c0-1.1,0.2-2.1,1.7-2.1s1.7,1,1.7,2.3L164.6,405.1z M165.6,404.5c0-0.4,0-1-0.5-1s-0.5,0.6-0.5,1H165.6z"/>
	<path class="st5" d="M169.6,406.6L169.6,406.6c-0.2,0.4-0.6,0.5-1,0.5c-0.5,0-1-0.3-1-0.9c0,0,0,0,0,0v-3.3h1.1v2.8
		c0,0.4,0.1,0.6,0.4,0.6s0.4-0.3,0.4-0.6v-2.8h1.1v3.3c0,0.3,0,0.5,0,0.8h-1.2L169.6,406.6z"/>
	<path class="st5" d="M171.2,408v-0.4h4.1v0.4H171.2z"/>
	<path class="st5" d="M177,407h-1.2v-5.9h2.3c0.8,0,1.4,0.5,1.4,1.5c0.1,0.7-0.4,1.3-1.1,1.4c0,0,0,0,0,0l0,0c0.6,0,1,0.4,1.1,0.9
		c0,0.1,0,0.2,0,0.2c0,0.6,0,1.2,0.1,1.7h-1.2c-0.1-0.4-0.2-0.7-0.1-1.1c0-0.7,0.1-1.3-0.9-1.3H177L177,407z M177,403.7h0.5
		c0.5,0,0.6-0.5,0.6-0.9c0-0.6-0.2-0.8-0.6-0.8H177V403.7z"/>
	<path class="st5" d="M179.8,401.1h1.3l0.9,4.3l0,0l1-4.3h1.2l-1.6,5.9h-1.4L179.8,401.1z"/>
	<path class="st5" d="M184.8,407v-5.9h2.2c0.9,0,1.7,0.3,1.7,1.5c0.1,0.6-0.4,1.2-1,1.3l0,0c0.9,0.1,1.1,0.7,1.1,1.5
		c0,1.5-1.3,1.5-1.8,1.5L184.8,407z M186,403.5h0.8c0.4,0,0.7-0.3,0.6-0.7c0,0,0-0.1,0-0.1c0-0.4-0.3-0.7-0.6-0.7c0,0,0,0-0.1,0H186
		L186,403.5z M186,406.1h0.7c0.4,0.1,0.8-0.2,0.8-0.6c0-0.1,0-0.2,0-0.2c0-0.5-0.2-0.8-0.8-0.8H186L186,406.1z"/>
	<path class="st6" d="M57.8,413.9c0.4-0.2,0.8-0.5,1.1-0.9H60v5.7h-1.3v-4.4c-0.3,0.2-0.6,0.5-1,0.6L57.8,413.9z"/>
	<path class="st6" d="M63.2,414.2c0-0.1,0-0.3-0.1-0.4c-0.1-0.1-0.2-0.2-0.3-0.1c-0.5,0-0.5,0.3-0.5,1.7c0.2-0.3,0.6-0.4,0.9-0.4
		c1.1,0,1.3,0.9,1.3,1.8c0,1.2-0.4,1.9-1.7,1.9c-1.5,0-1.6-1.3-1.6-2.4c0-2.3,0.1-3.4,1.7-3.4c0.9,0,1.5,0.4,1.5,1.3L63.2,414.2z
		 M63.3,416.8c0-0.7-0.1-1-0.5-1s-0.5,0.4-0.5,1.1c0,0.3,0,1,0.5,1S63.3,417.7,63.3,416.8L63.3,416.8z"/>
	<path class="st6" d="M64.3,419.5l1.9-6.6h0.8l-1.9,6.6H64.3z"/>
	<path class="st6" d="M67.2,413.9c0.4-0.2,0.8-0.5,1.1-0.9h1.1v5.7h-1.2v-4.4c-0.3,0.2-0.6,0.5-1,0.6L67.2,413.9z"/>
	<path class="st6" d="M73.8,415.8c0,1.8-0.1,2.9-1.6,2.9s-1.6-1.1-1.6-2.9c0-2.2,0.2-2.9,1.6-2.9S73.8,413.7,73.8,415.8z
		 M71.7,415.8c0,1.7,0,2.1,0.5,2.1s0.5-0.4,0.5-2.1s0-2.1-0.5-2.1S71.7,414.1,71.7,415.8L71.7,415.8z"/>
	<path class="st6" d="M73.8,419.5l1.9-6.6h0.8l-1.9,6.6H73.8z"/>
	<path class="st6" d="M76.4,418.7v-1c1.8-2.4,2.2-2.6,2.2-3.4c0-0.3-0.1-0.5-0.4-0.5s-0.5,0.5-0.5,0.8h-1.2
		c-0.1-0.8,0.3-1.5,1.1-1.6c0.2,0,0.3,0,0.5,0c1,0,1.7,0.4,1.7,1.5c0,1.3-1.5,2.7-2.1,3.4h2.2v0.9H76.4z"/>
	<path class="st6" d="M83.3,415.8c0,1.8-0.1,2.9-1.6,2.9s-1.6-1.1-1.6-2.9c0-2.2,0.2-2.9,1.6-2.9S83.3,413.7,83.3,415.8z
		 M81.2,415.8c0,1.7,0,2.1,0.5,2.1s0.5-0.4,0.5-2.1s0-2.1-0.5-2.1S81.2,414.1,81.2,415.8L81.2,415.8z"/>
	<path class="st6" d="M83.8,413.9c0.4-0.2,0.8-0.5,1.1-0.9H86v5.7h-1.2v-4.4c-0.3,0.2-0.6,0.5-1,0.6V413.9z"/>
	<path class="st6" d="M90.3,414.1l-1.4,4.6h-1.3l1.5-4.8h-1.9V413h3L90.3,414.1z"/>
	<path class="st4" d="M15.3,435.5"/>
	<line class="st7" x1="195.1" y1="381.7" x2="195.1" y2="523.8"/>
	<line class="st4" x1="195.1" y1="381.7" x2="195.1" y2="523.8"/>
	<path d="M201.2,387.5h2.5v0.6H202v1.7h1.6v0.6H202v1.9h1.8v0.6h-2.5L201.2,387.5z M202.4,385.9h0.9l-0.7,1.2H202L202.4,385.9z"/>
	<path d="M208.3,392.4v0.7h-0.8H207c-0.3,0-0.5,0-0.8,0c-0.2,0-0.4,0-0.6-0.1c-0.4-0.1-0.7-0.4-0.7-0.8c-0.1-0.4-0.1-0.8-0.1-1.1
		v-1.5c0-0.5,0-1,0.2-1.5c0.3-0.4,0.8-0.7,1.4-0.6c0.5,0,1,0.2,1.3,0.5c0.1,0.2,0.2,0.4,0.2,0.7c0,0.2,0,0.4,0,0.7v1.7v0.4
		c0,0.4-0.2,0.7-0.4,1L208.3,392.4z M207.2,389.5v-0.6c0.1-0.4-0.2-0.8-0.6-0.9c-0.1,0-0.1,0-0.2,0c-0.5,0-0.8,0.3-0.8,0.9v2.1v0.6
		c0,0.2,0.1,0.5,0.2,0.6c0.2,0.2,0.4,0.2,0.6,0.2c0.3,0,0.6-0.1,0.7-0.4c0.1-0.3,0.1-0.7,0.1-1L207.2,389.5z"/>
	<path d="M209.1,387.5h0.7v4.2c0,0.5,0.3,0.8,0.8,0.8c0.4,0,0.7-0.3,0.8-0.6c0,0,0-0.1,0-0.1c0-0.2,0-0.4,0-0.5v-3.7h0.8v3.7
		c0,0.3,0,0.5,0,0.7c0,0.2-0.1,0.5-0.3,0.6c-0.3,0.4-0.8,0.5-1.3,0.5c-0.5,0-1-0.1-1.3-0.5c-0.1-0.2-0.2-0.4-0.3-0.6
		c0-0.1,0-0.4,0-0.7L209.1,387.5z"/>
	<path d="M214.1,387.5v5.5h-0.8v-5.5H214.1z"/>
	<path d="M215.8,387.5l0.9,4.7l0.9-4.7h0.7l-1.2,5.5h-0.9l-1.2-5.5H215.8z"/>
	<path d="M220.2,387.5h1l1.3,5.5h-0.8l-0.3-1.3H220l-0.3,1.3H219L220.2,387.5z M220.1,391.2h1.2l-0.6-2.9L220.1,391.2z"/>
	<path d="M223.5,387.5h0.8v4.9h1.6v0.6h-2.4L223.5,387.5z"/>
	<path d="M226.7,387.5h2.5v0.6h-1.7v1.7h1.6v0.6h-1.6v1.9h1.8v0.6h-2.5V387.5z"/>
	<path d="M231.4,387.5l1.4,4.8v-4.8h0.7v5.5h-1.2l-1.4-4.7v4.7h-0.7v-5.5H231.4z"/>
	<path d="M236.9,389v-0.3c0-0.4-0.2-0.7-0.6-0.7c-0.3,0-0.6,0.1-0.7,0.4c-0.1,0.1-0.1,0.2-0.1,0.3v2.6c0,0.3,0,0.5,0.1,0.8
		c0.1,0.2,0.4,0.4,0.6,0.4c0.4,0,0.6-0.2,0.7-0.7v-0.4v-0.2h0.8v0.5c0,0.3-0.1,0.7-0.3,1c-0.1,0.1-0.3,0.2-0.4,0.3
		c-0.2,0.1-0.4,0.1-0.7,0.1c-0.2,0-0.4,0-0.6-0.1c-0.6-0.1-0.9-0.7-0.9-1.5v-2.2c0-0.2,0-0.4,0-0.7c0-0.2,0.1-0.4,0.2-0.6
		c0.3-0.4,0.8-0.6,1.3-0.6c0.9,0,1.3,0.3,1.4,1c0,0.1,0,0.3,0,0.4v0.2h-0.8L236.9,389z"/>
	<path d="M238.8,387.5h2.5v0.6h-1.7v1.7h1.6v0.6h-1.6v1.9h1.8v0.6h-2.5V387.5z"/>
	<path d="M245.6,387.5h0.4c0.2,0,0.3,0,0.5,0c0.6,0.1,0.8,0.5,0.9,1.3c0,0.3-0.1,0.6-0.2,0.9c-0.2,0.2-0.5,0.4-0.8,0.4
		c0.2,0,0.4,0.1,0.6,0.1c0.2,0.1,0.3,0.3,0.3,0.5c0,0.2,0,0.3,0.1,0.5v0.6c0,0.2,0,0.4,0.1,0.6c0,0.1,0.1,0.3,0.1,0.4h-0.8l-0.1-0.4
		c0-0.1,0-0.3,0-0.4v-0.5v-0.5c0-0.4-0.2-0.6-0.5-0.7c-0.1,0-0.3,0-0.4,0h-0.5v2.5h-0.8v-5.5L245.6,387.5z M245.1,388.2v1.7h0.5
		c0.1,0,0.3,0,0.4,0c0.2,0,0.4-0.2,0.5-0.3c0.1-0.2,0.1-0.4,0.1-0.6c0-0.2-0.1-0.5-0.3-0.6c-0.2-0.1-0.5-0.2-0.7-0.1L245.1,388.2z"
		/>
	<path d="M249,387.5l0.9,4.7l0.9-4.7h0.7l-1.2,5.5h-0.9l-1.2-5.5H249z"/>
	<path d="M252.3,387.5h1.4c0.2,0,0.4,0,0.6,0c0.7,0.1,1,0.6,1,1.4c0,0.3-0.1,0.6-0.3,0.9c-0.2,0.2-0.5,0.3-0.8,0.4
		c0.3,0,0.7,0.1,0.9,0.4c0.2,0.3,0.3,0.6,0.3,1c0,0.2,0,0.4-0.1,0.6c-0.1,0.3-0.3,0.6-0.6,0.7c-0.3,0.1-0.7,0.1-1,0.1h-1.4
		L252.3,387.5z M253.1,388.2v1.7h0.6c0.1,0,0.3,0,0.4,0c0.3-0.1,0.5-0.4,0.5-0.9s-0.3-0.8-0.9-0.8L253.1,388.2z M253.1,390.5v1.9
		h0.6c0.3,0,0.6,0,0.8-0.2c0.2-0.2,0.3-0.5,0.2-0.8c0-0.5-0.2-0.8-0.6-0.9c-0.1,0-0.3,0-0.4,0L253.1,390.5z"/>
	<path d="M258.9,387.5h0.5l-0.8,6.1h-0.5L258.9,387.5z"/>
	<path d="M262.2,387.5h0.8v2.4h1.6v-2.3h0.8v5.5h-0.8v-2.6H263v2.5h-0.8V387.5z"/>
	<path d="M269.6,387.5v0.6h-1.3v4.9h-0.8v-4.9h-1.3v-0.6H269.6z"/>
	<path d="M271.8,387.5l1,4.4l1-4.4h1.2v5.5h-0.7v-4.8l-1.1,4.8h-0.8l-1.1-4.8v4.8h-0.7v-5.5H271.8z"/>
	<path d="M276.2,387.5h0.8v4.9h1.6v0.6h-2.4L276.2,387.5z"/>
	<path d="M205.2,507.6h-0.8c-0.1-0.2-0.1-0.5-0.1-0.7c0-0.2,0-0.4,0-0.7c0-0.3-0.1-0.7-0.3-0.9c-0.2-0.2-0.5-0.3-0.8-0.3h-1.1v2.6
		h-0.7v-6h1.6c0.6-0.1,1.1,0.1,1.6,0.4c0.3,0.3,0.4,0.7,0.4,1.2c-0.5-0.3-1-0.1-1.3,0.4c-0.3,0.5-0.1,1,0.4,1.3
		c0.2,0.1,0.4,0.1,0.6,0.1c0.2,0.2,0.2,0.5,0.2,0.8c0,0.3,0,0.7,0.1,1.3c0,0.3,0.1,0.4,0.2,0.4L205.2,507.6z M204.2,503.2
		c0-0.7-0.4-1.1-1.3-1.1H202v2.2h1C203.9,504.3,204.3,504,204.2,503.2L204.2,503.2z"/>
	<path d="M206.2,504.5h3.3v0.6h-3.3V504.5z M206.2,506h3.3v0.6h-3.3V506z"/>
	<path d="M210.3,504.8v-0.4c0-0.7,0.1-1.5,0.4-2.1c0.2-0.4,0.7-0.7,1.2-0.7h0.1c0.5,0,0.9,0.2,1.1,0.6c0.3,0.6,0.5,1.3,0.4,2v0.7
		c0.1,0.7-0.1,1.5-0.4,2.1c-0.3,0.4-0.7,0.7-1.2,0.7c-0.5,0-1-0.2-1.2-0.6c-0.3-0.6-0.4-1.2-0.4-1.9V504.8z M211,504.1v1
		c0,0.5,0,1.1,0.2,1.6c0.1,0.3,0.4,0.4,0.7,0.4c0.3,0,0.6-0.2,0.7-0.5c0.2-0.5,0.2-1,0.2-1.6v-0.9c0-0.5-0.1-1-0.2-1.4
		c-0.1-0.3-0.4-0.5-0.7-0.5c-0.3,0-0.6,0.2-0.7,0.5C211.1,503.1,211,503.6,211,504.1L211,504.1z"/>
	<path d="M218.5,507.1l1.4-5.5h0.7l-1.8,6h-0.8l-1.8-6h0.7L218.5,507.1z"/>
	<path d="M221.2,504.5h3.3v0.6h-3.3V504.5z M221.2,506h3.3v0.6h-3.3V506z"/>
	<path d="M226.6,504.3c-0.7-0.1-1-0.6-1-1.3c0-0.4,0.1-0.8,0.4-1c0.3-0.3,0.7-0.4,1.1-0.4c0.4,0,0.7,0.1,1,0.4
		c0.2,0.3,0.4,0.7,0.4,1.1c0.1,0.6-0.3,1.2-0.9,1.3c0.3,0,0.6,0.2,0.8,0.5c0.2,0.3,0.3,0.6,0.3,1c0,0.5-0.1,1-0.4,1.4
		c-0.3,0.3-0.7,0.5-1.1,0.5c-1.1,0-1.7-0.6-1.7-1.8c0-0.4,0.1-0.7,0.3-1C225.9,504.6,226.2,504.4,226.6,504.3z M226.1,505.8
		c0,0.8,0.3,1.3,1,1.3c0.3,0,0.5-0.1,0.7-0.3c0.2-0.3,0.2-0.6,0.2-0.9c0-0.8-0.3-1.2-0.9-1.2c-0.3,0-0.5,0.1-0.7,0.3
		C226.2,505.2,226.1,505.5,226.1,505.8z M226.3,503.1c0,0.7,0.3,1,0.8,1c0.5,0,0.8-0.3,0.7-1c0-0.6-0.2-0.9-0.7-0.9
		C226.6,502.2,226.3,502.5,226.3,503.1L226.3,503.1z"/>
	<path d="M230.2,505.8c0,0.1,0,0.1,0,0.2c0,0.7,0.3,1.1,1,1.1c0.3,0,0.5-0.1,0.7-0.3c0.2-0.2,0.3-0.5,0.3-0.8c0-0.3-0.1-0.7-0.3-0.9
		c-0.3-0.2-0.8-0.3-1.2-0.3v-0.6c0.3,0,0.7,0,1-0.2c0.2-0.2,0.3-0.5,0.3-0.8c0-0.7-0.3-1-0.8-1c-0.3,0-0.5,0.1-0.7,0.3
		c-0.1,0.3-0.2,0.6-0.2,0.9h-0.7v-0.2c0-0.4,0.1-0.8,0.4-1.1c0.3-0.3,0.7-0.4,1.1-0.4c0.4,0,0.8,0.1,1.1,0.4
		c0.3,0.3,0.4,0.7,0.4,1.1c0.1,0.6-0.3,1.2-0.9,1.3c0.3,0,0.6,0.2,0.8,0.5c0.2,0.3,0.3,0.6,0.3,0.9c0,1.2-0.6,1.9-1.7,1.9
		c-1.1,0-1.7-0.6-1.6-1.9L230.2,505.8z"/>
	<path d="M236.2,507.6v-6h1.7c0.8-0.1,1.5,0.4,1.6,1.2c0,0.1,0,0.2,0,0.4c0,0.3-0.1,0.6-0.2,0.8c-0.2,0.2-0.4,0.3-0.7,0.4
		c0.7,0.1,1.1,0.6,1.1,1.4c0.1,0.9-0.5,1.6-1.3,1.8c-0.1,0-0.3,0-0.4,0L236.2,507.6z M236.8,504.1h0.7c0.3,0,0.6,0,0.9-0.2
		c0.2-0.2,0.3-0.5,0.3-0.8c0-0.3-0.1-0.6-0.3-0.8c-0.3-0.2-0.6-0.2-0.9-0.2h-0.7L236.8,504.1z M236.8,507h1c0.3,0,0.6-0.1,0.8-0.3
		c0.2-0.3,0.3-0.6,0.2-0.9c0-0.3-0.1-0.6-0.3-0.9c-0.3-0.2-0.6-0.3-0.9-0.3h-0.8L236.8,507z"/>
	<path d="M240.5,504.5h3.3v0.6h-3.3L240.5,504.5z M240.5,506h3.3v0.6h-3.3L240.5,506z"/>
	<path d="M244.9,502.7c0.4,0,0.7-0.1,1-0.3c0.2-0.2,0.3-0.5,0.4-0.9h0.6v6h-0.7v-4.4h-1.3V502.7z"/>
	<path d="M249.4,505.8c0,0.1,0,0.1,0,0.2c0,0.7,0.3,1.1,1,1.1c0.3,0,0.5-0.1,0.7-0.3c0.2-0.2,0.3-0.5,0.3-0.8c0-0.3-0.1-0.7-0.3-0.9
		c-0.3-0.2-0.8-0.3-1.2-0.3v-0.6c0.3,0,0.7,0,1-0.2c0.2-0.2,0.3-0.5,0.3-0.8c0-0.7-0.3-1-0.8-1c-0.3,0-0.5,0.1-0.7,0.3
		c-0.1,0.3-0.2,0.6-0.2,0.9h-0.7v-0.2c0-0.4,0.1-0.8,0.4-1.1c0.3-0.3,0.7-0.4,1.1-0.4c0.4,0,0.8,0.1,1.1,0.4
		c0.3,0.3,0.4,0.7,0.4,1.1c0.1,0.6-0.3,1.2-0.9,1.3c0.3,0,0.6,0.2,0.8,0.5c0.2,0.3,0.3,0.6,0.3,0.9c0,1.2-0.6,1.9-1.7,1.9
		c-1.1,0-1.7-0.6-1.6-1.9L249.4,505.8z"/>
	<path d="M253.1,506.2h0.7c0,0.6,0.3,0.8,0.8,0.8c0.3,0,0.6-0.2,0.8-0.5c0.2-0.6,0.3-1.2,0.3-1.8c-0.2,0.5-0.6,0.8-1.1,0.8
		c-0.4,0-0.9-0.2-1.2-0.5c-0.3-0.4-0.4-0.8-0.4-1.3c0-0.5,0.1-1.1,0.4-1.5c0.3-0.4,0.7-0.6,1.2-0.6c0.5,0,1,0.2,1.3,0.6
		c0.3,0.7,0.5,1.4,0.4,2.1c0,0.9-0.1,1.8-0.5,2.6c-0.3,0.5-0.8,0.8-1.4,0.8c-0.4,0-0.7-0.1-1-0.4C253.2,507,253.1,506.6,253.1,506.2
		z M253.6,503.6c0,0.4,0.1,0.7,0.3,1c0.2,0.2,0.4,0.3,0.7,0.3c0.6,0,0.9-0.4,0.9-1.3c0-0.9-0.3-1.3-1-1.4
		C253.9,502.2,253.6,502.6,253.6,503.6z"/>
	<path d="M258.8,507.8l2-6.2h0.5l-1.9,6.2H258.8z"/>
	<path d="M263.5,505.5l0.1-0.5h0.9l0.3-1h-0.9l0.1-0.5h0.9l0.6-2h0.4l-0.6,2h0.7l0.6-2h0.5l-0.6,2h0.9l-0.1,0.5h-0.9l-0.3,1h0.9
		l-0.1,0.5H266l-0.6,2h-0.5l0.6-2h-0.6l-0.6,2h-0.4l0.6-2H263.5z M265,505.1h0.7l0.3-1h-0.7L265,505.1z"/>
	<path d="M268,504.8v-0.4c0-0.7,0.1-1.5,0.4-2.1c0.2-0.4,0.7-0.7,1.2-0.7h0.1c0.5,0,0.9,0.2,1.1,0.6c0.3,0.6,0.5,1.3,0.4,2v0.7
		c0.1,0.7-0.1,1.5-0.4,2.1c-0.3,0.4-0.7,0.7-1.2,0.7c-0.5,0-1-0.2-1.2-0.6c-0.3-0.6-0.4-1.2-0.4-1.9V504.8z M268.7,504.1v1
		c0,0.5,0,1.1,0.2,1.6c0.1,0.3,0.4,0.4,0.7,0.4c0.3,0,0.6-0.2,0.7-0.5c0.2-0.5,0.2-1,0.2-1.6v-0.9c0-0.5-0.1-1-0.2-1.4
		c-0.1-0.3-0.4-0.5-0.7-0.5c-0.3,0-0.6,0.2-0.7,0.5C268.7,503.1,268.6,503.6,268.7,504.1L268.7,504.1z"/>
	<path d="M272.2,504.8v-0.4c0-0.7,0.1-1.5,0.4-2.1c0.2-0.4,0.7-0.7,1.2-0.7h0.1c0.5,0,0.9,0.2,1.1,0.6c0.3,0.6,0.5,1.3,0.4,2v0.7
		c0.1,0.7-0.1,1.5-0.4,2.1c-0.3,0.4-0.7,0.7-1.2,0.7c-0.5,0-1-0.2-1.2-0.6c-0.3-0.6-0.4-1.2-0.4-1.9L272.2,504.8z M272.8,504.1v1
		c0,0.5,0,1.1,0.2,1.6c0.1,0.3,0.4,0.4,0.7,0.4c0.3,0,0.6-0.2,0.7-0.5c0.2-0.5,0.2-1,0.2-1.6v-0.9c0-0.5-0.1-1-0.2-1.4
		c-0.1-0.3-0.4-0.5-0.7-0.5c-0.3,0-0.6,0.2-0.7,0.5C272.9,503.1,272.8,503.6,272.8,504.1L272.8,504.1z"/>
	<path d="M277,506v0.2c0,0.2,0.1,0.4,0.2,0.6c0.2,0.2,0.4,0.3,0.7,0.3c0.3,0,0.6-0.1,0.7-0.4c0.2-0.3,0.2-0.7,0.2-1.1
		c0-0.9-0.3-1.4-1-1.4c-0.4,0-0.7,0.2-0.8,0.5h-0.6l0.4-3h2.5v0.6h-2l-0.3,1.8c0.2-0.3,0.6-0.5,1-0.5c0.4,0,0.9,0.2,1.1,0.5
		c0.3,0.4,0.4,0.9,0.4,1.4c0,0.6-0.1,1.1-0.4,1.6c-0.3,0.4-0.7,0.6-1.2,0.6c-0.4,0-0.9-0.1-1.2-0.4c-0.3-0.3-0.4-0.6-0.4-1V506
		L277,506z"/>
	<path d="M281.1,505.8c0,0.1,0,0.1,0,0.2c0,0.7,0.3,1.1,1,1.1c0.3,0,0.5-0.1,0.7-0.3c0.2-0.2,0.3-0.5,0.3-0.8c0-0.3-0.1-0.7-0.3-0.9
		c-0.3-0.2-0.8-0.3-1.2-0.3v-0.6c0.3,0,0.7,0,1-0.2c0.2-0.2,0.3-0.5,0.3-0.8c0-0.7-0.3-1-0.8-1c-0.3,0-0.5,0.1-0.7,0.3
		c-0.1,0.3-0.2,0.6-0.2,0.9h-0.7v-0.2c0-0.4,0.1-0.8,0.4-1.1c0.3-0.3,0.7-0.4,1.1-0.4c0.4,0,0.8,0.1,1.1,0.4
		c0.3,0.3,0.4,0.7,0.4,1.1c0.1,0.6-0.3,1.2-0.9,1.3c0.3,0,0.6,0.2,0.8,0.5c0.2,0.3,0.3,0.6,0.3,0.9c0,1.2-0.6,1.9-1.7,1.9
		c-1.1,0-1.7-0.6-1.6-1.9L281.1,505.8z"/>
	<path d="M285.8,504.3c-0.7-0.1-1-0.6-1-1.3c0-0.4,0.1-0.8,0.4-1c0.3-0.3,0.7-0.4,1.1-0.4c0.4,0,0.7,0.1,1,0.4
		c0.2,0.3,0.4,0.7,0.4,1.1c0.1,0.6-0.3,1.2-0.9,1.3c0.3,0,0.6,0.2,0.8,0.5c0.2,0.3,0.3,0.6,0.3,1c0,0.5-0.1,1-0.4,1.4
		c-0.3,0.3-0.7,0.5-1.1,0.5c-1.1,0-1.7-0.6-1.7-1.8c0-0.4,0.1-0.7,0.3-1C285.1,504.6,285.5,504.4,285.8,504.3z M285.4,505.8
		c0,0.8,0.3,1.3,1,1.3c0.3,0,0.5-0.1,0.7-0.3c0.2-0.3,0.2-0.6,0.2-0.9c0-0.8-0.3-1.2-0.9-1.2c-0.3,0-0.5,0.1-0.7,0.3
		C285.4,505.2,285.3,505.5,285.4,505.8L285.4,505.8z M285.5,503.1c0,0.7,0.3,1,0.8,1c0.5,0,0.8-0.3,0.7-1c0-0.6-0.2-0.9-0.7-0.9
		C285.8,502.2,285.6,502.5,285.5,503.1L285.5,503.1z"/>
	<path d="M289.1,507.6v-6h1.6c0.8-0.1,1.5,0.4,1.6,1.2c0,0.1,0,0.2,0,0.4c0,0.3-0.1,0.6-0.2,0.8c-0.2,0.2-0.4,0.3-0.7,0.4
		c0.7,0.1,1.1,0.6,1.1,1.4c0.1,0.9-0.5,1.6-1.3,1.8c-0.1,0-0.3,0-0.4,0L289.1,507.6z M289.7,504.1h0.7c0.3,0,0.6,0,0.9-0.2
		c0.2-0.2,0.3-0.5,0.3-0.8c0-0.3-0.1-0.6-0.3-0.8c-0.3-0.2-0.6-0.2-0.9-0.2h-0.7L289.7,504.1z M289.7,507h1c0.3,0,0.6-0.1,0.8-0.3
		c0.2-0.3,0.3-0.6,0.2-0.9c0-0.3-0.1-0.6-0.3-0.9c-0.3-0.2-0.6-0.3-0.9-0.3h-0.8L289.7,507z"/>
	<polyline class="st4" points="195.1,510.4 517.4,510.4 535.7,492.1 	"/>
	<circle cx="535.7" cy="492.1" r="1.4"/>
	<path d="M205.2,484.1h-0.8c-0.1-0.2-0.1-0.5-0.1-0.7c0-0.2,0-0.4,0-0.7c0-0.3-0.1-0.7-0.3-0.9c-0.2-0.2-0.5-0.3-0.8-0.3h-1.1v2.6
		h-0.7v-6h1.6c0.6-0.1,1.1,0.1,1.6,0.4c0.3,0.3,0.4,0.7,0.4,1.2c-0.5-0.3-1-0.1-1.3,0.4c-0.3,0.5-0.1,1,0.4,1.3
		c0.2,0.1,0.4,0.1,0.6,0.1c0.2,0.2,0.2,0.5,0.2,0.8c0,0.3,0,0.7,0.1,1.3c0,0.3,0.1,0.4,0.2,0.4L205.2,484.1z M204.2,479.8
		c0-0.7-0.4-1.1-1.3-1.1H202v2.2h1C203.9,480.9,204.3,480.5,204.2,479.8L204.2,479.8z"/>
	<path d="M206.2,481.1h3.3v0.6h-3.3V481.1z M206.2,482.6h3.3v0.6h-3.3V482.6z"/>
	<path d="M210.5,482.9c0.1-0.3,0.3-0.6,0.6-0.8l1.2-1.2c0.2-0.2,0.3-0.3,0.4-0.5c0.1-0.2,0.1-0.5,0.1-0.7c0-0.7-0.3-1-0.9-1
		c-0.6,0-0.9,0.4-0.9,1.2v0.2h-0.7v-0.4c0-0.4,0.1-0.9,0.4-1.2c0.3-0.3,0.7-0.5,1.2-0.5c0.4,0,0.8,0.1,1.1,0.4
		c0.3,0.3,0.4,0.8,0.4,1.3c0,0.3-0.1,0.7-0.2,1c-0.2,0.3-0.5,0.6-0.8,0.9l-1,0.9c-0.3,0.2-0.4,0.5-0.5,0.9h2.6v0.6h-3.2
		C210.3,483.7,210.4,483.3,210.5,482.9z"/>
	<path d="M215.1,482.5v0.2c0,0.2,0.1,0.4,0.2,0.6c0.2,0.2,0.4,0.3,0.7,0.3c0.3,0,0.6-0.1,0.7-0.4c0.2-0.3,0.2-0.7,0.2-1.1
		c0-0.9-0.3-1.4-1-1.4c-0.4,0-0.7,0.2-0.8,0.5h-0.6l0.4-3h2.5v0.6h-2l-0.3,1.8c0.2-0.3,0.6-0.5,1-0.5c0.4,0,0.9,0.2,1.1,0.5
		c0.3,0.4,0.4,0.9,0.4,1.4c0,0.6-0.1,1.1-0.4,1.6c-0.3,0.4-0.7,0.6-1.2,0.6c-0.4,0-0.9-0.1-1.2-0.4c-0.3-0.3-0.4-0.6-0.4-1v-0.2
		L215.1,482.5z"/>
	<path d="M219.3,482.5v0.2c0,0.2,0.1,0.4,0.2,0.6c0.2,0.2,0.4,0.3,0.7,0.3c0.3,0,0.6-0.1,0.7-0.4c0.2-0.3,0.2-0.7,0.2-1.1
		c0-0.9-0.3-1.4-1-1.4c-0.4,0-0.7,0.2-0.8,0.5h-0.6l0.4-3h2.5v0.6h-2l-0.3,1.8c0.2-0.3,0.6-0.5,1-0.5c0.4,0,0.9,0.2,1.1,0.5
		c0.3,0.4,0.4,0.9,0.4,1.4c0,0.6-0.1,1.1-0.4,1.6c-0.3,0.4-0.7,0.6-1.2,0.6c-0.4,0-0.9-0.1-1.2-0.4c-0.3-0.3-0.4-0.6-0.4-1v-0.2
		L219.3,482.5z"/>
	<path d="M226.8,483.6l1.4-5.5h0.7l-1.8,6h-0.8l-1.8-6h0.7L226.8,483.6z"/>
	<path d="M229.6,481.1h3.3v0.6h-3.3V481.1z M229.6,482.6h3.3v0.6h-3.3V482.6z"/>
	<path d="M233.9,482.9c0.1-0.3,0.3-0.6,0.6-0.8l1.2-1.2c0.2-0.2,0.3-0.3,0.4-0.5c0.1-0.2,0.1-0.5,0.1-0.7c0-0.7-0.3-1-0.9-1
		s-0.9,0.4-0.9,1.2v0.2h-0.7v-0.4c0-0.4,0.1-0.9,0.4-1.2c0.3-0.3,0.7-0.5,1.2-0.5c0.4,0,0.8,0.1,1.1,0.4c0.3,0.3,0.4,0.8,0.4,1.3
		c0,0.3-0.1,0.7-0.2,1c-0.2,0.3-0.5,0.6-0.8,0.9l-1,0.9c-0.3,0.2-0.4,0.5-0.5,0.9h2.6v0.6h-3.2C233.7,483.7,233.8,483.3,233.9,482.9
		z"/>
	<path d="M237.9,481.3v-0.4c0-0.7,0.1-1.5,0.4-2.1c0.2-0.4,0.7-0.7,1.2-0.7h0.1c0.5,0,0.9,0.2,1.1,0.6c0.3,0.6,0.5,1.3,0.4,2v0.7
		c0.1,0.7-0.1,1.5-0.4,2.1c-0.3,0.4-0.7,0.7-1.2,0.7c-0.5,0-1-0.2-1.2-0.6c-0.3-0.6-0.4-1.2-0.4-1.9V481.3z M238.6,480.7v1
		c0,0.5,0,1.1,0.2,1.6c0.1,0.3,0.4,0.4,0.7,0.4c0.3,0,0.6-0.2,0.7-0.5c0.2-0.5,0.2-1,0.2-1.6v-0.9c0-0.5-0.1-1-0.2-1.4
		c-0.1-0.3-0.4-0.5-0.7-0.5c-0.3,0-0.6,0.2-0.7,0.5C238.6,479.7,238.5,480.2,238.6,480.7L238.6,480.7z"/>
	<path d="M242.7,482.5v0.2c0,0.2,0.1,0.4,0.2,0.6c0.2,0.2,0.4,0.3,0.7,0.3c0.3,0,0.6-0.1,0.7-0.4c0.2-0.3,0.2-0.7,0.2-1.1
		c0-0.9-0.3-1.4-1-1.4c-0.4,0-0.7,0.2-0.8,0.5h-0.6l0.4-3h2.5v0.6h-2l-0.3,1.8c0.2-0.3,0.6-0.5,1-0.5c0.4,0,0.9,0.2,1.1,0.5
		c0.3,0.4,0.4,0.9,0.4,1.4c0,0.6-0.1,1.1-0.4,1.6c-0.3,0.4-0.7,0.6-1.2,0.6c-0.4,0-0.9-0.1-1.2-0.4c-0.3-0.3-0.4-0.6-0.4-1v-0.2
		L242.7,482.5z"/>
	<path d="M248.6,484.1v-6h1.6c0.8-0.1,1.5,0.4,1.6,1.2c0,0.1,0,0.2,0,0.4c0,0.3-0.1,0.6-0.2,0.8c-0.2,0.2-0.4,0.3-0.7,0.4
		c0.7,0.1,1.1,0.6,1.1,1.4c0.1,0.9-0.5,1.6-1.3,1.8c-0.1,0-0.3,0-0.4,0L248.6,484.1z M249.3,480.6h0.7c0.3,0,0.6,0,0.9-0.2
		c0.2-0.2,0.3-0.5,0.3-0.8c0-0.3-0.1-0.6-0.3-0.8c-0.3-0.2-0.6-0.2-0.9-0.2h-0.7L249.3,480.6z M249.3,483.5h1c0.3,0,0.6-0.1,0.8-0.3
		c0.2-0.3,0.3-0.6,0.2-0.9c0-0.3-0.1-0.6-0.3-0.9c-0.3-0.2-0.6-0.3-0.9-0.3h-0.8L249.3,483.5z"/>
	<path d="M253,481.1h3.3v0.6H253V481.1z M253,482.6h3.3v0.6H253V482.6z"/>
	<path d="M257.1,481.3v-0.4c0-0.7,0.1-1.5,0.4-2.1c0.2-0.4,0.7-0.7,1.2-0.7h0.1c0.5,0,0.9,0.2,1.1,0.6c0.3,0.6,0.5,1.3,0.4,2v0.7
		c0.1,0.7-0.1,1.5-0.4,2.1c-0.3,0.4-0.7,0.7-1.2,0.7c-0.5,0-1-0.2-1.2-0.6c-0.3-0.6-0.4-1.2-0.4-1.9L257.1,481.3z M257.8,480.7v1
		c0,0.5,0,1.1,0.2,1.6c0.1,0.3,0.4,0.4,0.7,0.4c0.3,0,0.6-0.2,0.7-0.5c0.2-0.5,0.2-1,0.2-1.6v-0.9c0-0.5-0.1-1-0.2-1.4
		c-0.1-0.3-0.4-0.5-0.7-0.5c-0.3,0-0.6,0.2-0.7,0.5C257.9,479.7,257.8,480.2,257.8,480.7L257.8,480.7z"/>
	<path d="M263,484.3l2-6.2h0.5l-2,6.2H263z"/>
	<path d="M267.7,482.1l0.1-0.5h0.9l0.3-1h-0.9l0.1-0.5h0.9l0.6-2h0.4l-0.6,2h0.7l0.6-2h0.5l-0.6,2h0.9l-0.1,0.5h-0.9l-0.3,1h0.9
		l-0.1,0.5h-0.9l-0.6,2H269l0.6-2H269l-0.6,2h-0.4l0.6-2H267.7z M269.1,481.6h0.7l0.3-1h-0.7L269.1,481.6z"/>
	<path d="M272.4,484.1v-6h2.8v0.6H273v2h2v0.6h-2v2.8L272.4,484.1z"/>
	<path d="M276.1,484.1v-6h2.7v0.6h-2.1v2h2v0.6h-2v2.8L276.1,484.1z"/>
	<path d="M282.6,481.9h0.7l-0.1,0.7c0,0.4-0.2,0.8-0.5,1.2c-0.7,0.7-1.9,0.6-2.5-0.2c0,0-0.1-0.1-0.1-0.1c-0.3-0.6-0.5-1.4-0.4-2.1
		V481c-0.1-0.8,0.1-1.6,0.5-2.3c0.3-0.5,0.8-0.8,1.4-0.8c0.5,0,0.9,0.2,1.3,0.5c0.3,0.3,0.5,0.8,0.5,1.3v0.3h-0.7
		c0-0.9-0.4-1.3-1.1-1.3c-0.4,0-0.7,0.2-0.9,0.5c-0.3,0.7-0.4,1.5-0.3,2.2c0,0.6,0.1,1.2,0.3,1.8c0.1,0.4,0.5,0.6,0.9,0.6
		c0.6,0,0.9-0.4,1-1.3L282.6,481.9z"/>
	<path d="M284.5,484.1v-6h1.7c0.6,0,1.2,0.2,1.5,0.6c0.4,0.7,0.6,1.5,0.5,2.3c0,0.8-0.1,1.6-0.5,2.3c-0.3,0.5-0.9,0.8-1.5,0.8
		L284.5,484.1z M285.1,483.5h1c0.4,0,0.8-0.2,1-0.5c0.3-0.6,0.4-1.3,0.3-1.9c0-0.6-0.1-1.2-0.3-1.8c-0.2-0.4-0.6-0.6-1.1-0.6h-1
		L285.1,483.5z"/>
	<path d="M289.2,481.3v-0.4c0-0.7,0.1-1.5,0.4-2.1c0.2-0.4,0.7-0.7,1.2-0.7h0.1c0.5,0,0.9,0.2,1.1,0.6c0.3,0.6,0.5,1.3,0.4,2v0.7
		c0.1,0.7-0.1,1.5-0.4,2.1c-0.3,0.4-0.7,0.7-1.2,0.7c-0.5,0-1-0.2-1.2-0.6c-0.3-0.6-0.4-1.2-0.4-1.9V481.3z M289.9,480.7v1
		c0,0.5,0,1.1,0.2,1.6c0.1,0.3,0.4,0.4,0.7,0.4c0.3,0,0.6-0.2,0.7-0.5c0.2-0.5,0.2-1,0.2-1.6v-0.9c0-0.5-0.1-1-0.2-1.4
		c-0.1-0.3-0.4-0.5-0.7-0.5c-0.3,0-0.6,0.2-0.7,0.5C290,479.7,289.9,480.2,289.9,480.7L289.9,480.7z"/>
	<path d="M293.4,481.3v-0.4c0-0.7,0.1-1.5,0.4-2.1c0.2-0.4,0.7-0.7,1.2-0.7h0.1c0.5,0,0.9,0.2,1.1,0.6c0.3,0.6,0.5,1.3,0.4,2v0.7
		c0.1,0.7-0.1,1.5-0.4,2.1c-0.3,0.4-0.7,0.7-1.2,0.7c-0.5,0-1-0.2-1.2-0.6c-0.3-0.6-0.4-1.2-0.4-1.9V481.3z M294.1,480.7v1
		c0,0.5,0,1.1,0.2,1.6c0.1,0.3,0.4,0.4,0.7,0.4c0.3,0,0.6-0.2,0.7-0.5c0.2-0.5,0.2-1,0.2-1.6v-0.9c0-0.5-0.1-1-0.2-1.4
		c-0.1-0.3-0.4-0.5-0.7-0.5c-0.3,0-0.6,0.2-0.7,0.5C294.1,479.7,294,480.2,294.1,480.7L294.1,480.7z"/>
	<line class="st4" x1="195.1" y1="486.9" x2="450.5" y2="486.9"/>
	<circle cx="450.5" cy="486.9" r="1.4"/>
	<circle cx="442.3" cy="486.9" r="1.4"/>
	<path class="st8" d="M16.2,488.8c-0.6,1.2,0,2.2,1.4,2.2h31.9c1.4,0,2-1,1.4-2.2l-16.3-29.1c-0.6-1.2-1.7-1.2-2.3,0L16.2,488.8z"/>
	<path class="st9" d="M31,466.8h5.1v5.9l-1.3,10.8h-2.5L31,472.7V466.8z M31.1,484.7H36v4.5h-4.9V484.7z"/>
	<path class="st6" d="M41.2,461.3c0-1.4,0-2.8,1.9-2.8c1.2,0,1.6,0.6,1.6,1.8h-1.1c0-0.7-0.1-1-0.5-1c-0.6,0-0.7,0.6-0.7,2
		s0.1,2,0.7,2s0.5-0.7,0.5-1.1h1.1c0,1.5-0.6,1.9-1.6,1.9C41.2,464.1,41.2,462.7,41.2,461.3z"/>
	<path class="st6" d="M46.4,462.2c0,0.5,0,1.1,0.5,1.1s0.5-0.4,0.5-0.7h1.1c0,0.4-0.1,0.7-0.4,1c-0.3,0.3-0.7,0.4-1.1,0.4
		c-1.4,0-1.5-0.8-1.5-2s0.2-1.9,1.5-1.9s1.6,0.9,1.5,2.1L46.4,462.2z M47.4,461.6c0-0.4,0-0.9-0.5-0.9s-0.5,0.6-0.5,0.9H47.4z"/>
	<path class="st6" d="M52.5,459.2c-0.4,0-0.5,0.1-0.5,0.5v0.5h0.5v0.6H52v3.1h-1v-3.1h-0.5v-0.6H51c0-1.1-0.1-1.7,1.2-1.7h0.4
		L52.5,459.2z"/>
	<path class="st6" d="M54.2,458.5v0.8h-1.1v-0.8H54.2z M54.2,464h-1.1v-3.8h1.1V464z"/>
	<path class="st6" d="M57.2,461.5c0-0.6-0.1-0.8-0.5-0.8s-0.5,0.4-0.5,1.2c0,1.2,0.1,1.4,0.5,1.4s0.5-0.3,0.5-0.8h1.1
		c0,1-0.6,1.5-1.5,1.5c-1.4,0-1.5-0.8-1.5-2s0.2-1.9,1.5-1.9c1,0,1.5,0.4,1.5,1.4L57.2,461.5z"/>
	<path class="st6" d="M60.9,464v-2.6c0-0.3-0.1-0.6-0.4-0.6s-0.4,0.3-0.4,0.6v2.6h-1v-5.4h1.1v2l0,0c0.1-0.2,0.2-0.3,0.4-0.4
		c0.2-0.1,0.3-0.1,0.5-0.1c0.5,0,0.9,0.3,0.9,0.8c0,0,0,0,0,0.1v3L60.9,464z"/>
	<path class="st6" d="M64.1,458.5v0.8H63v-0.8H64.1z M64.1,464H63v-3.8h1.1L64.1,464z"/>
	<path class="st6" d="M66.1,462.2c0,0.5,0,1.1,0.5,1.1c0.5,0,0.4-0.4,0.4-0.7h1.1c0,0.4-0.1,0.7-0.4,1c-0.3,0.3-0.7,0.4-1.1,0.4
		c-1.4,0-1.5-0.8-1.5-2s0.2-1.9,1.5-1.9c1.4,0,1.6,0.9,1.6,2.1L66.1,462.2z M67.1,461.6c0-0.4,0-0.9-0.5-0.9c-0.5,0-0.5,0.6-0.5,0.9
		H67.1z"/>
	<path class="st6" d="M70,460.2v0.5l0,0c0.2-0.4,0.6-0.6,1-0.6v1c-0.9-0.1-0.9,0.5-0.9,0.9v2.1H69v-3.8L70,460.2z"/>
	<path class="st6" d="M74.1,462.2c0,0.5,0,1.1,0.5,1.1s0.4-0.4,0.4-0.7h1.1c0,0.4-0.1,0.7-0.4,1c-0.3,0.3-0.7,0.4-1.1,0.4
		c-1.4,0-1.6-0.8-1.6-2s0.2-1.9,1.6-1.9s1.6,0.9,1.6,2.1L74.1,462.2z M75.1,461.6c0-0.4,0-0.9-0.5-0.9s-0.5,0.6-0.5,0.9H75.1z"/>
	<path class="st6" d="M77.8,462.8c0,0.2,0,0.3,0.1,0.5c0.1,0.1,0.2,0.2,0.4,0.2c0.2,0,0.4-0.1,0.4-0.3c0,0,0,0,0,0
		c0-0.8-1.9-0.6-1.9-1.8c0-0.8,0.8-1.1,1.5-1.1s1.4,0.3,1.3,1.2h-1c0-0.3,0-0.4-0.1-0.5c-0.1-0.1-0.2-0.1-0.3-0.1
		c-0.2,0-0.4,0.1-0.4,0.4c0,0.6,1.9,0.6,1.9,1.8c0,0.7-0.5,1.2-1.4,1.2s-1.5-0.2-1.5-1.3L77.8,462.8z"/>
	<path class="st6" d="M80,460.2h0.4v-0.6l1.1-0.5v1.1H82v0.6h-0.6v2c0,0.3,0,0.5,0.3,0.5c0.1,0,0.1,0,0.2,0v0.6c-0.2,0-0.4,0-0.6,0
		c-0.9,0-1-0.6-1-0.8v-2.3H80L80,460.2z"/>
	<path class="st6" d="M86.1,463.6L86.1,463.6c-0.2,0.3-0.5,0.5-0.9,0.5c-0.5,0-0.9-0.3-0.9-0.8c0,0,0,0,0-0.1v-3h1.1v2.6
		c0,0.3,0.1,0.6,0.4,0.6s0.4-0.3,0.4-0.6v-2.6h1.1v3c0,0.3,0,0.5,0,0.8h-1.1L86.1,463.6z"/>
	<path class="st6" d="M89.1,460.6L89.1,460.6c0.1-0.2,0.2-0.3,0.4-0.4c0.2-0.1,0.3-0.1,0.5-0.1c0.5,0,0.9,0.3,0.9,0.8c0,0,0,0,0,0.1
		v3h-1.1v-2.6c0-0.3-0.1-0.6-0.4-0.6s-0.4,0.3-0.4,0.6v2.6h-1v-3.8h1.1V460.6z"/>
	<path class="st6" d="M95.4,464v-0.4l0,0c-0.2,0.3-0.5,0.5-0.9,0.5c-1.1,0-1.1-1.2-1.1-2s0-1.9,1-1.9c0.3,0,0.7,0.1,0.9,0.4l0,0v-2
		h1.1v5.4H95.4z M95.4,462c0-0.8,0-1.3-0.4-1.3s-0.4,0.5-0.4,1.3c0,1,0.1,1.4,0.4,1.4S95.4,463,95.4,462z"/>
	<path class="st6" d="M97.3,462c0-1,0.2-1.9,1.6-1.9s1.6,0.9,1.6,1.9s-0.2,2-1.6,2S97.3,463.2,97.3,462z M99.3,462
		c0-0.8,0-1.2-0.5-1.2s-0.5,0.4-0.5,1.2c0,1.2,0.1,1.4,0.5,1.4S99.3,463.1,99.3,462L99.3,462z"/>
	<path class="st6" d="M103.2,461.5c0-0.6-0.1-0.8-0.5-0.8s-0.5,0.4-0.5,1.2c0,1.2,0.1,1.4,0.5,1.4s0.5-0.3,0.5-0.8h1.1
		c0,1-0.6,1.5-1.6,1.5c-1.4,0-1.6-0.8-1.6-2s0.2-1.9,1.6-1.9c1,0,1.5,0.4,1.5,1.4L103.2,461.5z"/>
	<path class="st6" d="M106.9,463.6L106.9,463.6c-0.2,0.3-0.5,0.5-0.9,0.5c-0.5,0-0.9-0.3-0.9-0.8c0,0,0,0,0-0.1v-3h1.1v2.6
		c0,0.3,0.1,0.6,0.4,0.6s0.4-0.3,0.4-0.6v-2.6h1.1v3c0,0.3,0,0.5,0,0.8h-1.1L106.9,463.6z"/>
	<path class="st6" d="M109.9,460.6L109.9,460.6c0.3-0.5,0.9-0.6,1.4-0.4c0.2,0.1,0.3,0.2,0.4,0.4c0.2-0.3,0.6-0.5,1-0.5
		c0.5,0,0.9,0.3,0.9,0.8c0,0,0,0,0,0.1v3h-1.1v-2.6c0-0.3-0.1-0.6-0.4-0.6s-0.4,0.3-0.4,0.6v2.6h-1v-2.6c0-0.3-0.1-0.6-0.4-0.6
		s-0.4,0.3-0.4,0.6v2.6h-1.1v-3.8h1.1V460.6z"/>
	<path class="st6" d="M115.4,462.2c0,0.5,0,1.1,0.5,1.1s0.4-0.4,0.4-0.7h1.1c0,0.4-0.1,0.7-0.4,1c-0.3,0.3-0.7,0.4-1.1,0.4
		c-1.4,0-1.6-0.8-1.6-2s0.2-1.9,1.6-1.9s1.6,0.9,1.6,2.1L115.4,462.2z M116.4,461.6c0-0.4,0-0.9-0.5-0.9s-0.5,0.6-0.5,0.9H116.4z"/>
	<path class="st6" d="M119.3,460.6L119.3,460.6c0.1-0.2,0.2-0.3,0.4-0.4c0.2-0.1,0.3-0.1,0.5-0.1c0.5,0,0.9,0.3,0.9,0.8
		c0,0,0,0,0,0.1v3h-1.1v-2.6c0-0.3-0.1-0.6-0.4-0.6s-0.4,0.3-0.4,0.6v2.6h-1.1v-3.8h1.1L119.3,460.6z"/>
	<path class="st6" d="M121.7,460.2h0.4v-0.6l1.1-0.5v1.1h0.6v0.6h-0.6v2c0,0.3,0,0.5,0.3,0.5c0.1,0,0.1,0,0.2,0v0.6
		c-0.2,0-0.4,0-0.6,0c-0.9,0-1-0.6-1-0.8v-2.3h-0.4L121.7,460.2z"/>
	<path class="st6" d="M127.8,464v-0.4l0,0c-0.2,0.3-0.5,0.5-0.9,0.5c-1.1,0-1.1-1.2-1.1-2s0-1.9,1-1.9c0.3,0,0.7,0.1,0.9,0.4l0,0v-2
		h1.1v5.4H127.8z M127.8,462c0-0.8,0-1.3-0.4-1.3s-0.4,0.5-0.4,1.3c0,1,0.1,1.4,0.4,1.4S127.7,463,127.8,462L127.8,462z"/>
	<path class="st6" d="M129.8,458.5h1l-0.6,1.5h-0.7L129.8,458.5z"/>
	<path class="st6" d="M132.5,462.2c0,0.5,0,1.1,0.5,1.1c0.5,0,0.4-0.4,0.4-0.7h1.1c0,0.4-0.1,0.7-0.4,1c-0.3,0.3-0.7,0.4-1.1,0.4
		c-1.4,0-1.6-0.8-1.6-2s0.2-1.9,1.6-1.9c1.4,0,1.6,0.9,1.6,2.1L132.5,462.2z M133.5,461.6c0-0.4,0-0.9-0.5-0.9s-0.5,0.6-0.5,0.9
		H133.5z"/>
	<path class="st6" d="M136,464H135l1.1-2l-1-1.8h1.2l0.6,1.1l0.6-1.1h1.1l-1,1.8l1.1,2h-1.2l-0.7-1.3L136,464z"/>
	<path class="st6" d="M140.2,462.2c0,0.5,0,1.1,0.5,1.1s0.4-0.4,0.4-0.7h1.1c0,0.4-0.1,0.7-0.4,1c-0.3,0.3-0.7,0.4-1.1,0.4
		c-1.4,0-1.6-0.8-1.6-2s0.1-1.9,1.6-1.9s1.6,0.9,1.6,2.1L140.2,462.2z M141.7,458.5l-1.2,1.1H140l0.7-1.1H141.7z M141.1,461.6
		c0-0.4,0-0.9-0.5-0.9s-0.5,0.6-0.5,0.9H141.1z"/>
	<path class="st6" d="M145,461.5c0-0.6-0.1-0.8-0.5-0.8s-0.5,0.4-0.5,1.2c0,1.2,0.1,1.4,0.5,1.4s0.5-0.3,0.5-0.8h1.1
		c0,1-0.6,1.5-1.6,1.5c-1.4,0-1.6-0.8-1.6-2s0.1-1.9,1.6-1.9c1,0,1.5,0.4,1.5,1.4L145,461.5z"/>
	<path class="st6" d="M148.7,463.6L148.7,463.6c-0.2,0.3-0.5,0.5-0.9,0.5c-0.5,0-0.9-0.3-0.9-0.8c0,0,0,0,0-0.1v-3h1.1v2.6
		c0,0.3,0.1,0.6,0.4,0.6s0.4-0.3,0.4-0.6v-2.6h1.1v3c0,0.3,0,0.5,0,0.8h-1.1V463.6z"/>
	<path class="st6" d="M150.3,460.2h0.4v-0.6l1.1-0.5v1.1h0.6v0.6h-0.6v2c0,0.3,0,0.5,0.3,0.5c0.1,0,0.1,0,0.2,0v0.6
		c-0.2,0-0.4,0-0.6,0c-0.9,0-1-0.6-1-0.8v-2.3h-0.4L150.3,460.2z"/>
	<path class="st6" d="M154,458.5v0.8H153v-0.8H154z M154,464H153v-3.8h1.1V464z"/>
	<path class="st6" d="M155,462c0-1,0.1-1.9,1.6-1.9s1.6,0.9,1.6,1.9s-0.2,2-1.6,2S155,463.2,155,462z M157,462c0-0.8,0-1.2-0.5-1.2
		s-0.5,0.4-0.5,1.2c0,1.2,0.1,1.4,0.5,1.4S157,463.1,157,462L157,462z"/>
	<path class="st6" d="M160,460.6L160,460.6c0.1-0.2,0.2-0.3,0.4-0.4c0.2-0.1,0.3-0.1,0.5-0.1c0.5,0,0.9,0.3,0.9,0.8c0,0,0,0,0,0.1v3
		h-1.1v-2.6c0-0.3-0.1-0.6-0.4-0.6s-0.4,0.3-0.4,0.6v2.6h-1.1v-3.8h1.1L160,460.6z"/>
	<path class="st6" d="M166.3,461.5c0-0.6-0.1-0.8-0.5-0.8s-0.5,0.4-0.5,1.2c0,1.2,0.1,1.4,0.5,1.4s0.5-0.3,0.5-0.8h1.1
		c0,1-0.6,1.5-1.6,1.5c-1.4,0-1.6-0.8-1.6-2s0.1-1.9,1.6-1.9c1,0,1.5,0.4,1.5,1.4L166.3,461.5z"/>
	<path class="st6" d="M169.2,460.2v0.5l0,0c0.2-0.4,0.6-0.6,1-0.6v1c-0.9-0.1-0.9,0.5-0.9,0.9v2.1h-1.1v-3.8L169.2,460.2z"/>
	<path class="st6" d="M171.8,462.2c0,0.5,0,1.1,0.5,1.1s0.4-0.4,0.4-0.7h1.1c0,0.4-0.1,0.7-0.4,1c-0.3,0.3-0.7,0.4-1.1,0.4
		c-1.4,0-1.6-0.8-1.6-2s0.1-1.9,1.6-1.9s1.6,0.9,1.6,2.1L171.8,462.2z M173.3,458.5l-1.2,1.1h-0.5l0.7-1.1H173.3z M172.7,461.6
		c0-0.4,0-0.9-0.5-0.9s-0.5,0.6-0.5,0.9H172.7z"/>
	<path class="st6" d="M175.6,462.2c0,0.5,0,1.1,0.5,1.1s0.4-0.4,0.4-0.7h1.1c0,0.4-0.1,0.7-0.4,1c-0.3,0.3-0.7,0.4-1.1,0.4
		c-1.4,0-1.6-0.8-1.6-2s0.1-1.9,1.6-1.9s1.6,0.9,1.6,2.1L175.6,462.2z M177.1,458.5l-1.2,1.1h-0.5l0.7-1.1H177.1z M176.6,461.6
		c0-0.4,0-0.9-0.5-0.9s-0.5,0.6-0.5,0.9H176.6z"/>
	<path class="st6" d="M180.9,462.8c0,0.2,0,0.3,0.1,0.5c0.1,0.1,0.2,0.2,0.4,0.2c0.2,0,0.4-0.1,0.4-0.3c0,0,0,0,0,0
		c0-0.8-1.9-0.6-1.9-1.8c0-0.8,0.8-1.1,1.5-1.1s1.4,0.3,1.3,1.2h-1c0-0.3,0-0.4-0.1-0.5c-0.1-0.1-0.2-0.1-0.3-0.1
		c-0.2,0-0.4,0.1-0.4,0.4c0,0.6,1.9,0.6,1.9,1.8c0,0.7-0.5,1.2-1.4,1.2s-1.5-0.2-1.5-1.3L180.9,462.8z"/>
	<path class="st6" d="M185.3,463.6L185.3,463.6c-0.2,0.3-0.5,0.5-0.9,0.5c-0.5,0-0.9-0.3-0.9-0.8c0,0,0,0,0-0.1v-3h1.1v2.6
		c0,0.3,0.1,0.6,0.4,0.6s0.4-0.3,0.4-0.6v-2.6h1.1v3c0,0.3,0,0.5,0,0.8h-1.1L185.3,463.6z"/>
	<path class="st6" d="M188.3,460.2v0.5l0,0c0.2-0.4,0.6-0.6,1-0.6v1c-0.9-0.1-0.9,0.5-0.9,0.9v2.1h-1.1v-3.8L188.3,460.2z"/>
	<path class="st6" d="M45.6,472v-5.4h1.1v5.4H45.6z"/>
	<path class="st6" d="M48.7,466.5v5.4h-1.1v-5.4H48.7z"/>
	<path class="st6" d="M50.6,466.5v5.4h-1.1v-5.4H50.6z"/>
	<path class="st6" d="M53.3,471.6L53.3,471.6c-0.2,0.3-0.5,0.5-0.9,0.5c-0.5,0-0.9-0.3-0.9-0.8c0,0,0,0,0-0.1v-3h1.1v2.6
		c0,0.3,0.1,0.6,0.4,0.6s0.4-0.3,0.4-0.6v-2.6h1v3c0,0.3,0,0.5,0,0.8h-1.1L53.3,471.6z"/>
	<path class="st6" d="M55.8,470.8c0,0.2,0,0.3,0,0.5c0.1,0.1,0.2,0.2,0.4,0.2c0.2,0,0.4-0.1,0.4-0.3c0,0,0,0,0,0
		c0-0.8-1.9-0.6-1.9-1.8c0-0.8,0.8-1.1,1.5-1.1s1.4,0.3,1.3,1.2h-1c0-0.3,0-0.4-0.1-0.5c-0.1-0.1-0.2-0.1-0.3-0.1
		c-0.2,0-0.4,0.1-0.4,0.4c0,0.6,1.9,0.6,1.9,1.8c0,0.7-0.5,1.2-1.4,1.2s-1.5-0.2-1.5-1.3L55.8,470.8z"/>
	<path class="st6" d="M57.8,468.2h0.4v-0.6l1.1-0.5v1.1h0.5v0.6h-0.5v2c0,0.3,0,0.5,0.3,0.5c0.1,0,0.1,0,0.2,0v0.6
		c-0.2,0-0.4,0-0.5,0c-0.9,0-1-0.6-1-0.8v-2.3h-0.4V468.2z"/>
	<path class="st6" d="M61.2,468.2v0.5l0,0c0.2-0.4,0.6-0.6,1-0.6v1c-0.9-0.1-1,0.5-1,0.9v2.1h-1.1v-3.8L61.2,468.2z"/>
	<path class="st6" d="M65.4,471.3c0,0.2,0,0.5,0,0.7h-1v-0.5l0,0c-0.2,0.4-0.6,0.6-1,0.6c-0.7,0-1-0.5-1-1.2c0-1.3,1-1.3,2-1.3v-0.3
		c0-0.3,0-0.6-0.4-0.6s-0.4,0.3-0.4,0.6h-1c0-0.4,0.1-0.7,0.4-0.9c0.3-0.2,0.6-0.3,1-0.3c1.3,0,1.5,0.6,1.5,1.3L65.4,471.3z
		 M63.4,470.8c0,0.3,0,0.6,0.4,0.6c0.6,0,0.5-0.8,0.5-1.3C63.8,470.2,63.5,470.1,63.4,470.8L63.4,470.8z"/>
	<path class="st6" d="M65.7,468.2h0.4v-0.6l1.1-0.5v1.1h0.6v0.6h-0.6v2c0,0.3,0,0.5,0.3,0.5c0.1,0,0.1,0,0.2,0v0.6
		c-0.2,0-0.4,0-0.5,0c-0.9,0-1-0.6-1-0.8v-2.3h-0.4L65.7,468.2z"/>
	<path class="st6" d="M68,470c0-1,0.2-1.9,1.6-1.9s1.6,0.9,1.6,1.9s-0.2,2-1.6,2S68,471.2,68,470z M70,470c0-0.8,0-1.2-0.5-1.2
		S69,469.2,69,470c0,1.2,0.1,1.4,0.5,1.4S70,471.1,70,470L70,470z"/>
	<path class="st6" d="M72.7,468.2v0.5l0,0c0.2-0.4,0.6-0.6,1-0.6v1c-0.9-0.1-0.9,0.5-0.9,0.9v2.1h-1.1v-3.8L72.7,468.2z"/>
	<path class="st6" d="M75.2,468.2h1.1l0.5,2.8l0,0l0.6-2.8h1l-1,3.8h-1.2L75.2,468.2z"/>
	<path class="st6" d="M79.8,470.2c0,0.5,0,1.1,0.5,1.1s0.4-0.4,0.4-0.7h1.1c0,0.4-0.1,0.7-0.4,1c-0.3,0.3-0.7,0.4-1.1,0.4
		c-1.4,0-1.6-0.8-1.6-2s0.2-1.9,1.6-1.9s1.6,0.9,1.6,2.1L79.8,470.2z M80.8,469.6c0-0.4,0-0.9-0.5-0.9s-0.5,0.6-0.5,0.9H80.8z"/>
	<path class="st6" d="M83.4,468.2v0.5l0,0c0.2-0.4,0.6-0.6,1-0.6v1c-0.9-0.1-0.9,0.5-0.9,0.9v2.1h-1.1v-3.8L83.4,468.2z"/>
	<path class="st6" d="M85.6,470.8c0,0.2,0,0.3,0.1,0.5c0.1,0.1,0.2,0.2,0.4,0.2c0.2,0,0.4-0.1,0.4-0.3c0,0,0,0,0,0
		c0-0.8-1.9-0.6-1.9-1.8c0-0.8,0.8-1.1,1.5-1.1s1.4,0.3,1.3,1.2h-1c0-0.3,0-0.4-0.1-0.5c-0.1-0.1-0.2-0.1-0.3-0.1
		c-0.2,0-0.4,0.1-0.4,0.4c0,0.6,1.9,0.6,1.9,1.8c0,0.7-0.5,1.2-1.4,1.2s-1.5-0.2-1.5-1.3L85.6,470.8z"/>
	<path class="st6" d="M89.1,466.5v0.8h-1.1v-0.8H89.1z M89.1,472h-1.1v-3.8h1.1V472z"/>
	<path class="st6" d="M89.8,470c0-1,0.2-1.9,1.6-1.9s1.6,0.9,1.6,1.9s-0.2,2-1.6,2S89.8,471.2,89.8,470z M91.8,470
		c0-0.8,0-1.2-0.5-1.2s-0.5,0.4-0.5,1.2c0,1.2,0.1,1.4,0.5,1.4S91.8,471.1,91.8,470z"/>
	<path class="st6" d="M94.6,468.6L94.6,468.6c0.1-0.2,0.2-0.3,0.4-0.4c0.2-0.1,0.3-0.1,0.5-0.1c0.5,0,0.9,0.3,0.9,0.8c0,0,0,0,0,0.1
		v3h-1.1v-2.6c0-0.3-0.1-0.6-0.4-0.6s-0.4,0.3-0.4,0.6v2.6h-1v-3.8h1.1V468.6z"/>
	<path class="st6" d="M98.7,469.3c0-1.4,0-2.8,1.9-2.8c1.2,0,1.6,0.6,1.6,1.8H101c0-0.7-0.1-1-0.5-1c-0.6,0-0.7,0.6-0.7,2
		s0.1,2,0.7,2s0.5-0.7,0.5-1.1h1.1c0,1.5-0.6,1.9-1.6,1.9C98.7,472.1,98.7,470.7,98.7,469.3z"/>
	<path class="st6" d="M104.2,472.1c-1.4,0-1.7-0.8-1.6-1.8h1.1c0,0.5,0,1,0.7,1c0.3,0,0.6-0.2,0.6-0.5c0,0,0-0.1,0-0.1
		c0-1-2.3-1-2.3-2.6c0-0.9,0.4-1.5,1.8-1.5c1.1,0,1.7,0.5,1.6,1.6H105c0-0.4-0.1-0.8-0.5-0.8c-0.3,0-0.6,0.2-0.6,0.5
		c0,0,0,0.1,0,0.1c0,1,2.3,0.9,2.3,2.6C106.1,471.9,105.1,472.1,104.2,472.1z"/>
	<path class="st6" d="M108.4,467.9c0-0.1,0-0.2-0.1-0.3c-0.1-0.1-0.2-0.2-0.3-0.1c-0.5,0-0.5,0.2-0.5,1.6c0.2-0.2,0.5-0.4,0.8-0.4
		c1,0,1.2,0.9,1.2,1.7c0,1.1-0.4,1.8-1.6,1.8c-1.4,0-1.5-1.2-1.5-2.2c0-2.1,0.1-3.1,1.6-3.1c0.8,0,1.4,0.3,1.4,1.2L108.4,467.9z
		 M108.5,470.3c0-0.7-0.1-1-0.5-1s-0.4,0.4-0.4,1c0,0.3,0,0.9,0.4,0.9S108.5,471.1,108.5,470.3L108.5,470.3z"/>
	<path class="st6" d="M110.8,471v1h-0.9v-1H110.8z"/>
	<rect x="15.7" y="386.8" width="35.7" height="35.3"/>
	<polygon class="st10" points="46.7,386.8 43.8,390.7 43.3,390.3 45.8,386.8 	"/>
	<polygon class="st10" points="26.5,400.1 26.5,393.7 27.7,393.7 31.8,400.1 31,400.1 29.3,397.6 27.9,397.6 27.9,397 28.9,397 
		27.2,394.4 27.2,400.1 	"/>
	<path class="st10" d="M31.6,400.1v-6.4h2.1c0,0,2.1-0.1,2.1,1.9c0,0,0.1,1.4-1.6,1.7l2.1,2.8h-0.9l-2.5-3.3h0.7c0,0,1.5,0,1.5-1.3
		c0,0,0-1.2-1.5-1.2h-1.3v5.8L31.6,400.1z"/>
	<path class="st10" d="M36.7,400.1v-6.4h2.1c0,0,2.1-0.1,2.1,1.9c0,0,0.1,1.4-1.7,1.7l2.1,2.8h-0.9l-2.4-3.3h0.7c0,0,1.5,0,1.5-1.3
		c0,0,0-1.2-1.5-1.2h-1.3v5.8L36.7,400.1z"/>
	<polygon class="st10" points="41.8,400.1 41.8,393.7 45.7,393.7 45.7,394.4 42.5,394.4 42.5,396.5 45.6,396.5 45.6,397.2 
		42.5,397.2 42.5,399.5 45.8,399.5 45.8,400.1 	"/>
	<path class="st10" d="M41.8,407.4V401h2c0,0,2.1-0.1,2.1,1.9c0,0,0.1,1.4-1.7,1.7l2.2,2.8h-0.9l-2.5-3.3h0.7c0,0,1.5,0,1.5-1.3
		c0,0,0-1.2-1.5-1.2h-1.3v5.8L41.8,407.4z"/>
	<rect x="40.2" y="401" class="st10" width="0.7" height="6.4"/>
	<polygon class="st10" points="32.3,407.4 32.3,401 31.6,401 31.6,406.6 27.7,401 26.5,401 26.5,407.4 27.2,407.4 27.2,401.6 
		31.3,407.4 	"/>
	<path class="st10" d="M36.2,400.9c-1.8,0-3.3,1.5-3.3,3.3s1.5,3.3,3.3,3.3c1.8,0,3.3-1.5,3.3-3.3l0,0
		C39.5,402.4,38,400.9,36.2,400.9z M36.2,406.8c-1.4,0-2.6-1.2-2.6-2.6c0-1.4,1.2-2.6,2.6-2.6c1.4,0,2.6,1.2,2.6,2.6
		C38.8,405.6,37.7,406.8,36.2,406.8L36.2,406.8z"/>
	<path class="st10" d="M23.5,399.6c-1.4-0.1-2.5-1.3-2.5-2.8c0.1-1.3,1.1-2.4,2.5-2.5c0.9,0,1.7,0.4,2.2,1.1v-0.9
		c-1.4-1.2-3.5-1.1-4.7,0.3c-1.2,1.4-1.1,3.5,0.3,4.7c1.2,1.1,3.1,1.1,4.3,0v-0.9C25.2,399.2,24.4,399.5,23.5,399.6z"/>
	<rect x="-45.2" y="-43.1" class="st0" width="841.9" height="595.3"/>
</g>
</svg>
