<?xml version="1.0" encoding="utf-8"?>
<!-- Generator: Adobe Illustrator 21.0.0, SVG Export Plug-In . SVG Version: 6.00 Build 0)  -->
<svg version="1.1" id="Layer_1" xmlns="http://www.w3.org/2000/svg" xmlns:xlink="http://www.w3.org/1999/xlink" x="0px" y="0px"
	 viewBox="0 0 452.2 385" style="enable-background:new 0 0 452.2 385;" xml:space="preserve">
<style type="text/css">
	.st0{fill:none;}
	.st1{fill:#FFCD00;}
	.st2{fill:#00538B;}
	.st3{fill:none;stroke:#1D1D1B;stroke-width:0.225;}
	.st4{fill:none;stroke:#1D1D1B;stroke-width:0.27;}
	.st5{fill:#1D1D1B;}
	.st6{fill:#E20613;}
	.st7{fill:none;stroke:#1D1D1B;stroke-width:0.5;}
	.st8{fill:#FFEC00;stroke:#D10A11;stroke-width:1.98;}
	.st9{fill:#D10A11;}
	.st10{fill:#FFFFFF;}
</style>
<title>GEFCO_Logo_SignVertiBleu_RVB_crop</title>
<g id="Logo">
	<rect x="-42.9" y="-41" class="st0" width="541.7" height="474"/>
	<g id="_Group_">
		<g id="_Group_2">
			<path id="_Compound_Path_" class="st1" d="M363.4,297.5H92.5V26.7h270.8V297.5z M104,286.1h248v-248H104L104,286.1z"/>
		</g>
	</g>
	<path id="_Path_" class="st1" d="M164.9,244.9v18.9c0,0.2-0.1,0.3-0.3,0.4c-5.5,1.4-11.2,2.2-16.8,2.1c-24.9,0-28.1-12.3-28.1-18.6
		s4.6-18.6,29.5-18.6c4,0,7.9,0.3,11.8,1.1c0.2,0.1,0.4,0.3,0.3,0.5c0,0,0,0,0,0l-2.3,6.4c-0.1,0.2-0.3,0.3-0.5,0.3
		c-3-0.8-6.1-1.1-9.2-1.1c-15.9,0-18.9,7.6-18.9,11.4s2.5,11.3,19.3,11.3c1.5,0,3.1-0.1,4.6-0.2c0.2,0,0.4-0.2,0.4-0.4v-6.7
		c0-0.2-0.2-0.4-0.4-0.4l0,0h-10.5c-0.2,0-0.4-0.2-0.4-0.4c0,0,0-0.1,0-0.1l2.2-5.9c0.1-0.2,0.2-0.3,0.4-0.3h18.7
		C164.7,244.5,164.9,244.7,164.9,244.9C164.9,244.9,164.9,244.9,164.9,244.9z"/>
	<path id="_Path_2" class="st1" d="M285.6,257.9l2.4,6.7c0.1,0.2,0,0.4-0.2,0.5c0,0,0,0,0,0c-3.8,0.8-7.7,1.2-11.6,1.1
		c-24.4,0-29-12.3-29-18.6c0-6.4,4.5-18.6,29-18.6c3.9,0,7.8,0.3,11.5,1.1c0.2,0.1,0.4,0.3,0.3,0.5c0,0,0,0,0,0l-2.4,6.7
		c-0.1,0.2-0.3,0.3-0.5,0.3c-2.9-0.8-5.9-1.1-8.9-1.1c-15.6,0-18.5,7.3-18.5,11.1s2.9,11,18.5,11c3,0.1,6-0.3,8.9-1.1
		C285.3,257.6,285.5,257.7,285.6,257.9C285.6,257.9,285.6,257.9,285.6,257.9z"/>
	<path class="st1" d="M311.5,229c-14,0-24.9,8.2-24.9,18.7c0,10.5,10.6,18.6,24.8,18.6c14,0,24.9-8.2,24.9-18.7
		C336.3,237.2,325.6,229,311.5,229z M311.5,258.7c-8.2,0-14.4-4.8-14.4-11.1c0-6.3,6.1-11,14.3-11s14.4,4.8,14.4,11.1
		S319.6,258.7,311.5,258.7L311.5,258.7z"/>
	<g id="_Group_3">
		<path id="_Path_3" class="st1" d="M222.8,237.7v7.4c0,0.2,0.2,0.4,0.4,0.4l0,0h19.5c0.2,0,0.4,0.2,0.4,0.4c0,0,0,0.1,0,0.1
			l-2.4,6.7c-0.1,0.2-0.2,0.3-0.4,0.3h-17.1c-0.2,0-0.4,0.2-0.4,0.4l0,0v11.6c0,0.2-0.2,0.4-0.4,0.4l0,0h-10.2
			c-0.2,0-0.4-0.2-0.4-0.4l0,0v-34.9c0-0.2,0.2-0.4,0.4-0.4l0,0h37.5c0.2,0,0.4,0.2,0.4,0.4c0,0,0,0.1,0,0.1l-2.4,6.7
			c-0.1,0.2-0.2,0.3-0.4,0.3h-24.1C223,237.3,222.8,237.5,222.8,237.7z"/>
	</g>
	<g id="_Group_4">
		<path id="_Path_4" class="st1" d="M206.6,258.6l-2.4,6.7c-0.1,0.2-0.2,0.3-0.4,0.3h-32.8c-0.2,0-0.4-0.2-0.4-0.4l0,0v-34.9
			c0-0.2,0.2-0.4,0.4-0.4l0,0h35.2c0.2,0,0.4,0.2,0.4,0.4c0,0,0,0.1,0,0.1l-2.4,6.7c-0.1,0.2-0.2,0.3-0.4,0.3h-21.8
			c-0.2,0-0.4,0.2-0.4,0.4l0,0v6c0,0.2,0.2,0.4,0.4,0.4l0,0h19c0.2,0,0.4,0.2,0.4,0.4c0,0,0,0.1,0,0.1l-2.4,6.7
			c-0.1,0.2-0.2,0.3-0.4,0.3h-16.6c-0.2,0-0.4,0.2-0.4,0.4l0,0v5.6c0,0.2,0.2,0.4,0.4,0.4l0,0h24.3
			C206.4,258.1,206.6,258.3,206.6,258.6C206.6,258.5,206.6,258.5,206.6,258.6z"/>
	</g>
	<path class="st2" d="M47.7,332.6c1.9,1.6,2.9,4.6,2.9,9.1c0,4.6-0.7,7.3-2.9,8.9s-5,2.1-10.3,2.1h-5.6v11.9c0,0.6-0.1,0.7-0.7,0.7
		h-5.7c-0.5,0-0.7-0.1-0.7-0.7v-33.3c0-0.5,0.1-0.6,0.7-0.6c3.6-0.3,7.6-0.5,12-0.5C42.4,330.1,45.8,330.9,47.7,332.6z M31.8,336.3
		v10.9h4.9c2.8,0,4.6-0.3,5.5-1s1.3-2.1,1.3-4.4s-0.5-3.8-1.3-4.5s-2.7-1.1-5.4-1.1L31.8,336.3z"/>
	<path class="st2" d="M71.3,341.7c1.5,1.3,2.3,3.2,2.3,5.9v15.6c0.1,0.6-0.4,1.2-1,1.4c-3.4,0.7-6.8,1-10.2,1
		c-3.8,0-5.7-0.2-7.7-1.2s-2.7-3.1-2.8-6.6c0-2.9,0.8-4.8,2.2-5.9s3.8-1.5,7-1.5h5.7v-1.6c0-2.1-1.4-3.1-4.2-3.1h-8.1
		c-0.5,0-0.6-0.1-0.6-0.7v-3.7c0-0.5,0.1-0.6,0.6-0.7c2.7-0.5,5.4-0.7,8.2-0.7C66.9,339.8,69.8,340.4,71.3,341.7z M66.9,354.7h-5.2
		c-2.3,0-3.2,0.7-3.2,2.7s1,2.8,3.8,2.8c1.5,0.1,3-0.1,4.5-0.5L66.9,354.7z"/>
	<path class="st2" d="M93.4,340.3c0.4,0.1,0.8,0.5,0.7,0.9v3.7c0,0.5-0.3,0.7-0.8,0.7h-4.2c-2.5,0-3.2,0.5-3.2,2.3v16.7
		c0,0.5-0.2,0.7-0.7,0.7h-5.4c-0.4,0-0.7-0.2-0.7-0.7v-18.4c-0.1-1.7,0.5-3.4,1.7-4.7c1.7-1.4,4-1.7,6.5-1.7
		C89.4,339.7,91.4,339.9,93.4,340.3z"/>
	<path class="st2" d="M105.9,333c0.5-0.1,0.7,0.1,0.7,0.7v6.5h4.2c0.5,0,0.8,0.2,0.8,0.7v3.6c0,0.5-0.3,0.7-0.8,0.7h-4.2v12.3
		c0,1.9,0.6,2.3,2.7,2.3h1.9c0.5,0,0.8,0.2,0.8,0.7v3.8c0.1,0.4-0.3,0.8-0.7,0.9c0,0,0,0,0,0c-1.3,0.3-2.5,0.4-3.8,0.4
		c-1.4,0.1-2.9-0.1-4.2-0.4c-2.1-0.6-3-2-3.2-5.4v-14.6h-2.7c-0.5,0-0.7-0.2-0.7-0.7v-3.6c0-0.5,0.2-0.7,0.7-0.7h2.7v-5
		c0-0.4,0.3-0.7,0.6-0.7L105.9,333z"/>
	<path class="st2" d="M136.3,341.8c1.8,1.6,2.3,4.1,2.3,8.8v13.9c0.1,0.3-0.2,0.7-0.5,0.7c-0.1,0-0.1,0-0.2,0h-5.3
		c-0.4,0-0.7-0.2-0.7-0.7v-12.2c0-3.4,0-4.8-0.9-5.8c-0.9-1-1.6-1-3.9-1h-4.1v19c0,0.5-0.2,0.7-0.7,0.7h-5.4c-0.4,0-0.7-0.2-0.7-0.7
		v-23.3c0-0.5,0.2-0.6,0.7-0.7c3.6-0.6,7.2-0.9,10.8-0.8C132.2,339.8,134.5,340.1,136.3,341.8z"/>
	<path class="st2" d="M163.4,342.3c1.5,1.7,2.2,5,2.3,10v1.4c0,0.9-0.3,1.2-1.4,1.2H150c0,2,0.4,3.3,1,3.9s2,0.9,4.1,0.9h8
		c0.3,0,0.6,0.2,0.7,0.5c0,0.1,0,0.1,0,0.2v3.8c0,0.4-0.2,0.7-0.6,0.7c0,0,0,0,0,0c-2.8,0.5-5.7,0.7-8.6,0.6c-4.6,0-7.6-0.9-9.1-2.6
		c-1.5-1.7-2.3-5.1-2.3-10.3s0.8-8.6,2.3-10.3s4.5-2.6,9.1-2.6S162,340.6,163.4,342.3z M150,350.6h8.9c0-3.9-1.1-5-4.4-5
		S150,346.6,150,350.6L150,350.6z"/>
	<path class="st2" d="M184.4,340.3c0.4,0.1,0.8,0.5,0.7,0.9v3.7c0,0.5-0.3,0.7-0.8,0.7h-4.2c-2.5,0-3.2,0.5-3.2,2.3v16.7
		c0,0.5-0.2,0.7-0.7,0.7H171c-0.4,0-0.7-0.2-0.7-0.7v-18.4c-0.1-1.7,0.5-3.4,1.7-4.7c1.7-1.4,4-1.7,6.5-1.7
		C180.5,339.7,182.5,339.9,184.4,340.3z"/>
	<path class="st2" d="M205,340.4c0.5,0.1,0.7,0.4,0.7,0.7v3.4c0,0.5-0.3,0.7-0.8,0.7h-8.1c-1.8,0-2.7,0.5-2.7,1.6v0.5
		c0,0.9,0.7,1.6,2.2,2.1l5.8,2c3.6,1.3,4.7,3.4,4.7,6.8v0.7c0,4.9-3.3,6.6-9.6,6.6c-3.1,0-6.2-0.1-9.3-0.5c-0.5,0-0.8-0.2-0.8-0.7
		v-3.6c0-0.5,0.3-0.7,0.8-0.7h9.3c2.4,0,3.1-0.3,3.1-1.5v-0.4c0-0.9-0.5-1.4-2.5-2.1l-5.6-2c-3.1-1-4.6-3.3-4.6-6.9v-0.9
		c0-4.6,3.4-6.5,10.2-6.5C200.3,339.7,202.7,340,205,340.4z"/>
	<path class="st2" d="M218.9,359.6c0.3,0,0.4,0.1,0.4,0.5v1c0,0.2-0.1,0.4-0.2,0.6l-8.1,11.4c-0.2,0.2-0.4,0.3-0.7,0.2l-2-1.1
		c-0.2-0.1-0.3-0.3-0.1-0.6l3.3-11.5c0.1-0.2,0.3-0.4,0.5-0.4L218.9,359.6z"/>
	<path class="st2" d="M255.3,340c0.4,0,0.6,0.2,0.6,0.7V364c0,0.5-0.1,0.6-0.6,0.8c-3.6,0.6-7.2,0.8-10.8,0.8c-4.6,0-6.9-0.4-8.7-2
		s-2.2-4.1-2.2-8.9v-13.9c0-0.5,0.2-0.7,0.7-0.7h5.3c0.4,0,0.6,0.2,0.6,0.7v12.2c-0.1,1.6,0.1,3.2,0.4,4.7c0.5,1.8,1.4,2.1,4.5,2.1
		h4.1v-19c0-0.3,0.2-0.6,0.5-0.7c0.1,0,0.1,0,0.2,0L255.3,340z"/>
	<path class="st2" d="M281.8,341.8c1.8,1.6,2.3,4.1,2.3,8.8v13.9c0,0.5-0.2,0.7-0.7,0.7H278c-0.5,0-0.7-0.2-0.7-0.7v-12.2
		c0-3.4,0-4.8-0.9-5.8s-1.6-1-3.9-1h-4.1v19c0,0.5-0.2,0.7-0.7,0.7h-5.4c-0.4,0-0.7-0.2-0.7-0.7v-23.3c0-0.5,0.2-0.6,0.7-0.7
		c3.6-0.6,7.2-0.9,10.8-0.8C277.7,339.8,280,340.1,281.8,341.8z"/>
	<path class="st2" d="M295.5,330.4c0.3,0,0.6,0.2,0.7,0.5c0,0.1,0,0.1,0,0.2v33.5c0,0.5-0.2,0.7-0.7,0.7h-5.3
		c-0.5,0-0.7-0.2-0.7-0.7V331c0-0.3,0.2-0.6,0.5-0.7c0.1,0,0.1,0,0.2,0H295.5z"/>
	<path class="st2" d="M309.3,333c0,2.3-1.4,3.6-3.9,3.6s-4-1.4-4-3.6s1.4-3.6,4-3.6S309.3,330.7,309.3,333z M308,340
		c0.3,0,0.6,0.2,0.7,0.5c0,0.1,0,0.1,0,0.2v23.9c0,0.5-0.2,0.7-0.7,0.7h-5.3c-0.5,0-0.7-0.2-0.7-0.7v-23.8c0-0.3,0.2-0.6,0.5-0.7
		c0.1,0,0.1,0,0.2,0L308,340z"/>
	<path class="st2" d="M347.2,341.8c1.4,1.3,2.1,3.8,2.1,7.6v15.2c0,0.5-0.2,0.7-0.7,0.7h-5.3c-0.5,0-0.7-0.2-0.7-0.7v-12.2
		c-0.2-6.6-0.4-6.6-4.3-6.8c-1.2,0-2.4,0.1-3.6,0.3c0.5,1.6,0.6,3.2,0.6,4.8v13.9c0,0.5-0.2,0.7-0.6,0.7h-5.4
		c-0.4,0-0.6-0.2-0.6-0.7v-13.8c0-2.6-0.1-3.8-0.9-4.5s-1.4-0.8-3.4-0.8h-3.2v19c0,0.5-0.2,0.7-0.7,0.7h-5.3c-0.5,0-0.7-0.2-0.7-0.7
		v-23.3c0-0.4,0.2-0.7,0.6-0.7c2.9-0.6,5.8-0.8,8.7-0.8c2.8-0.1,5.5,0.4,8.1,1.4c2.5-1,5.2-1.5,7.9-1.5
		C343.3,339.7,345.8,340.4,347.2,341.8z"/>
	<path class="st2" d="M362.1,333c0,2.3-1.4,3.6-3.9,3.6s-4-1.4-4-3.6s1.4-3.6,4-3.6S362.1,330.7,362.1,333z M360.8,340
		c0.3,0,0.6,0.2,0.7,0.5c0,0.1,0,0.1,0,0.2v23.9c0,0.5-0.2,0.7-0.7,0.7h-5.3c-0.5,0-0.7-0.2-0.7-0.7v-23.8c0-0.3,0.2-0.6,0.5-0.7
		c0.1,0,0.1,0,0.2,0L360.8,340z"/>
	<path class="st2" d="M374.4,333c0.5-0.1,0.7,0.1,0.7,0.7v6.5h4.1c0.5,0,0.8,0.2,0.8,0.7v3.6c0,0.5-0.3,0.7-0.8,0.7h-4.1v12.3
		c0,1.9,0.6,2.3,2.7,2.3h1.9c0.5,0,0.8,0.2,0.8,0.7v3.8c0.1,0.4-0.3,0.8-0.7,0.9c0,0,0,0,0,0c-1.3,0.3-2.5,0.4-3.8,0.4
		c-1.4,0.1-2.9-0.1-4.2-0.4c-2.1-0.6-3-2-3.2-5.4v-14.6h-2.7c-0.5,0-0.7-0.2-0.7-0.7v-3.6c0-0.5,0.2-0.7,0.7-0.7h2.7v-5
		c0-0.4,0.3-0.7,0.6-0.7L374.4,333z"/>
	<path class="st2" d="M403.5,342.3c1.5,1.7,2.2,5,2.3,10v1.4c0,0.9-0.3,1.2-1.4,1.2h-14.2c0,2,0.4,3.3,1,3.9s2,0.9,4.1,0.9h8
		c0.3,0,0.6,0.2,0.7,0.5c0,0.1,0,0.1,0,0.2v3.8c0,0.4-0.2,0.7-0.6,0.7c0,0,0,0,0,0c-2.8,0.5-5.7,0.7-8.6,0.6c-4.6,0-7.6-0.9-9.1-2.6
		c-1.5-1.7-2.3-5.1-2.3-10.3s0.8-8.6,2.3-10.3s4.5-2.6,9.1-2.6S402,340.6,403.5,342.3z M390.1,350.6h8.9c0-3.9-1.1-5-4.4-5
		S390.1,346.6,390.1,350.6L390.1,350.6z"/>
	<path class="st2" d="M431.1,330.4c0.5,0,0.7,0.2,0.7,0.7v32.4c0.1,0.5-0.3,1-0.9,1.1c0,0-0.1,0-0.1,0c-3.3,0.6-6.6,0.8-9.9,0.9
		c-4.7,0-7.9-0.9-9.4-2.6s-2.3-5.1-2.3-10.2s0.7-8.5,2.1-10.2s4.1-2.7,8.3-2.7c1.9,0,3.7,0.1,5.5,0.3v-9c0-0.5,0.2-0.7,0.7-0.7
		L431.1,330.4z M425.1,345.6H421c-2.2,0-3.6,0.5-4.2,1.3s-0.9,2.8-0.9,5.7s0.3,4.7,0.8,5.7s1.9,1.4,4.1,1.4c1.4,0,2.9-0.1,4.3-0.3
		V345.6z"/>
	<rect x="282.1" y="419.2" class="st0" width="162.5" height="142.2"/>
	<g id="_Group_5">
		<g id="_Group_6">
			<path id="_Compound_Path_2" class="st1" d="M404,520.8h-81.3v-81.3H404V520.8z M326.2,517.4h74.4V443h-74.4V517.4z"/>
		</g>
	</g>
	<path id="_Path_5" class="st1" d="M344.5,505v5.7c0,0.1,0,0.1-0.1,0.1c-1.6,0.4-3.3,0.6-5,0.6c-7.5,0-8.4-3.7-8.4-5.6
		s1.4-5.6,8.9-5.6c1.2,0,2.4,0.1,3.5,0.3c0.1,0,0.1,0.1,0.1,0.1c0,0,0,0,0,0l-0.7,1.9c0,0.1-0.1,0.1-0.1,0.1c0,0,0,0,0,0
		c-0.9-0.2-1.8-0.3-2.8-0.3c-4.8,0-5.7,2.3-5.7,3.4s0.8,3.4,5.8,3.4c0.5,0,0.9,0,1.4-0.1c0.1,0,0.1-0.1,0.1-0.1v-2
		c0-0.1-0.1-0.1-0.1-0.1h-3.2c-0.1,0-0.1-0.1-0.1-0.1c0,0,0,0,0,0l0.6-1.8c0,0,0.1-0.1,0.1-0.1h5.6C344.4,504.9,344.4,505,344.5,505
		z"/>
	<path id="_Path_6" class="st1" d="M380.7,508.9l0.7,2c0,0.1,0,0.1-0.1,0.2c0,0,0,0,0,0c-1.1,0.2-2.3,0.4-3.5,0.3
		c-7.3,0-8.7-3.7-8.7-5.6s1.4-5.6,8.7-5.6c1.2,0,2.3,0.1,3.5,0.3c0.1,0,0.1,0.1,0.1,0.1c0,0,0,0,0,0l-0.7,2c0,0.1-0.1,0.1-0.1,0.1
		c-0.9-0.2-1.8-0.3-2.7-0.3c-4.7,0-5.5,2.2-5.5,3.3s0.9,3.3,5.5,3.3c0.9,0,1.8-0.1,2.7-0.3C380.6,508.8,380.7,508.8,380.7,508.9
		C380.7,508.9,380.7,508.9,380.7,508.9z"/>
	<path class="st1" d="M388.4,500.2c-4.2,0-7.5,2.5-7.5,5.6s3.2,5.6,7.4,5.6s7.5-2.5,7.5-5.6S392.7,500.2,388.4,500.2z M388.4,509.1
		c-2.5,0-4.3-1.4-4.3-3.3s1.8-3.3,4.3-3.3s4.3,1.4,4.3,3.3S390.9,509.1,388.4,509.1z"/>
	<g id="_Group_7">
		<path id="_Path_7" class="st1" d="M361.8,502.9v2.2c0,0.1,0.1,0.1,0.1,0.1h5.9c0.1,0,0.1,0.1,0.1,0.1c0,0,0,0,0,0l-0.7,2
			c0,0-0.1,0.1-0.1,0.1H362c-0.1,0-0.1,0.1-0.1,0.1v3.5c0,0.1-0.1,0.1-0.1,0.1h-3c-0.1,0-0.1-0.1-0.1-0.1v-10.4
			c0-0.1,0.1-0.1,0.1-0.1h11.3c0.1,0,0.1,0.1,0.1,0.1c0,0,0,0,0,0l-0.7,2c0,0-0.1,0.1-0.1,0.1H362
			C361.9,502.7,361.8,502.8,361.8,502.9C361.8,502.8,361.8,502.8,361.8,502.9z"/>
	</g>
	<g id="_Group_8">
		<path id="_Path_8" class="st1" d="M357,509.1l-0.7,2c0,0-0.1,0.1-0.1,0.1h-9.8c-0.1,0-0.1-0.1-0.1-0.1v-10.4
			c0-0.1,0.1-0.1,0.1-0.1h10.6c0.1,0,0.1,0.1,0.1,0.1c0,0,0,0,0,0l-0.7,2c0,0-0.1,0.1-0.1,0.1h-6.5c-0.1,0-0.1,0.1-0.1,0.1v1.8
			c0,0.1,0.1,0.1,0.1,0.1h5.7c0.1,0,0.1,0.1,0.1,0.1c0,0,0,0,0,0l-0.7,2c0,0-0.1,0.1-0.1,0.1h-5c-0.1,0-0.1,0.1-0.1,0.1v1.7
			c0,0.1,0.1,0.1,0.1,0.1h7.3C356.9,508.9,357,508.9,357,509.1C357,509,357,509.1,357,509.1z"/>
	</g>
	<path class="st2" d="M309.3,531.3c0.7,0.7,1,1.7,0.9,2.7c0,1.4-0.2,2.2-0.9,2.7c-0.9,0.5-2,0.8-3.1,0.6h-1.7v3.6
		c0,0.2,0,0.2-0.2,0.2h-1.7c-0.2,0-0.2,0-0.2-0.2v-10c0-0.2,0-0.2,0.2-0.2c1.1-0.1,2.3-0.2,3.6-0.2
		C307.3,530.4,308.4,530.7,309.3,531.3z M304.5,532.4v3.3h1.5c0.6,0.1,1.1,0,1.6-0.3c0.3-0.4,0.5-0.8,0.4-1.3c0.1-0.5-0.1-1-0.4-1.3
		c-0.5-0.3-1.1-0.4-1.6-0.3L304.5,532.4z"/>
	<path class="st2" d="M316.4,534c0.5,0.4,0.7,1.1,0.7,1.8v4.7c0,0.2-0.1,0.4-0.3,0.4c-1,0.2-2,0.3-3.1,0.3c-0.8,0.1-1.6-0.1-2.3-0.4
		c-0.6-0.3-0.8-0.9-0.8-2c-0.1-0.7,0.2-1.3,0.7-1.8c0.6-0.4,1.4-0.5,2.1-0.5h1.7v-0.5c0-0.6-0.4-0.9-1.3-0.9h-2.5
		c-0.1,0-0.2,0-0.2-0.2v-1.1c0-0.2,0-0.2,0.2-0.2c0.8-0.1,1.6-0.2,2.5-0.2C314.7,533.3,315.6,533.6,316.4,534z M315.1,537.9h-1.6
		c-0.7,0-1,0.2-1,0.8s0.3,0.8,1.1,0.8c0.5,0,0.9,0,1.4-0.1L315.1,537.9z"/>
	<path class="st2" d="M323,533.6c0.1,0,0.2,0.1,0.2,0.3v1.1c0,0.1-0.1,0.2-0.2,0.2h-1.3c-0.7,0-1,0.1-1,0.7v5c0,0.2-0.1,0.2-0.2,0.2
		H319c-0.1,0-0.2-0.1-0.2-0.2v-5.5c0-0.5,0.2-1,0.5-1.4c0.6-0.4,1.3-0.6,2-0.5C321.8,533.4,322.4,533.5,323,533.6z"/>
	<path class="st2" d="M326.8,531.4c0.1,0,0.2,0,0.2,0.2v1.9h1.2c0.1,0,0.2,0.1,0.2,0.2v1.1c0,0.1-0.1,0.2-0.2,0.2H327v3.7
		c0,0.5,0.2,0.7,0.8,0.7h0.5c0.1,0,0.2,0.1,0.2,0.2v1.2c0,0.1-0.1,0.2-0.2,0.3c0,0,0,0,0,0c-0.4,0.1-0.8,0.1-1.1,0.1
		c-0.4,0-0.9,0-1.3-0.1c-0.6-0.2-0.9-0.6-1-1.6V535h-0.8c-0.1,0-0.2-0.1-0.2-0.2v-1.1c0-0.1,0.1-0.2,0.2-0.2h0.8V532
		c0-0.1,0.1-0.2,0.2-0.2L326.8,531.4z"/>
	<path class="st2" d="M335.9,534.1c0.5,0.5,0.7,1.3,0.7,2.7v4.2c0,0.1-0.1,0.2-0.2,0.2c0,0,0,0-0.1,0h-1.6c-0.1,0-0.2-0.1-0.2-0.2
		v-3.7c0-1,0-1.5-0.3-1.7s-0.5-0.3-1.2-0.3h-1.2v5.7c0,0.2-0.1,0.2-0.2,0.2H330c-0.1,0-0.2-0.1-0.2-0.2v-7c0-0.2,0.1-0.2,0.2-0.2
		c1.1-0.2,2.2-0.3,3.2-0.2C334.6,533.5,335.4,533.6,335.9,534.1z"/>
	<path class="st2" d="M344,534.2c0.5,0.9,0.8,2,0.7,3v0.4c0,0.3-0.1,0.4-0.4,0.4H340c0,0.4,0.1,0.8,0.3,1.2c0.4,0.2,0.8,0.3,1.2,0.3
		h2.4c0.1,0,0.2,0.1,0.2,0.2c0,0,0,0,0,0v1.1c0,0.1-0.1,0.2-0.2,0.2c0,0,0,0,0,0c-0.9,0.1-1.7,0.2-2.6,0.2c-1,0.1-2-0.2-2.7-0.8
		c-0.6-0.9-0.8-2-0.7-3.1c-0.1-1.1,0.1-2.2,0.7-3.1c0.8-0.6,1.7-0.9,2.7-0.8C342.3,533.3,343.3,533.6,344,534.2z M340,536.7h2.7
		c0-1.2-0.3-1.5-1.3-1.5S340,535.5,340,536.7L340,536.7z"/>
	<path class="st2" d="M350.3,533.6c0.1,0,0.2,0.1,0.2,0.3v1.1c0,0.1-0.1,0.2-0.2,0.2H349c-0.7,0-1,0.1-1,0.7v5
		c0,0.2-0.1,0.2-0.2,0.2h-1.6c-0.1,0-0.2-0.1-0.2-0.2v-5.5c0-0.5,0.2-1,0.5-1.4c0.6-0.4,1.3-0.6,2-0.5
		C349.1,533.4,349.7,533.5,350.3,533.6z"/>
	<path class="st2" d="M356.5,533.6c0.1,0,0.2,0.1,0.2,0.2v1c0,0.2-0.1,0.2-0.2,0.2H354c-0.5,0-0.8,0.2-0.8,0.5v0.2
		c0,0.3,0.2,0.5,0.6,0.6l1.7,0.6c0.9,0.2,1.5,1.1,1.4,2v0.2c0,1.5-1,2-2.9,2c-0.9,0-1.9,0-2.8-0.1c-0.1,0-0.2-0.1-0.2-0.2v-1.1
		c0-0.1,0.1-0.2,0.2-0.2h2.8c0.7,0,0.9-0.1,0.9-0.5v-0.1c0-0.3-0.2-0.4-0.7-0.6l-1.7-0.6c-0.9-0.3-1.5-1.1-1.4-2v-0.3
		c0-1.4,1-2,3.1-2C355.1,533.5,355.8,533.5,356.5,533.6z"/>
	<path class="st2" d="M360.7,539.4c0.1,0,0.1,0,0.1,0.1v0.3c0,0.1,0,0.1-0.1,0.2l-2.4,3.4c-0.1,0.1-0.1,0.1-0.2,0l-0.6-0.3
		c-0.1,0-0.1-0.1,0-0.2l1-3.5c0-0.1,0.1-0.1,0.2-0.1H360.7z"/>
	<path class="st2" d="M371.6,533.5c0.1,0,0.2,0.1,0.2,0.2v7c0,0.2,0,0.2-0.2,0.2c-1.1,0.2-2.2,0.2-3.3,0.2c-1.4,0-2.1-0.1-2.6-0.6
		s-0.7-1.3-0.7-2.7v-4.2c0-0.1,0.1-0.2,0.2-0.2h1.6c0.1,0,0.2,0.1,0.2,0.2v3.7c0,0.5,0,1,0.1,1.4c0.2,0.5,0.4,0.6,1.3,0.6h1.2v-5.7
		c0-0.1,0.1-0.2,0.2-0.2c0,0,0,0,0,0L371.6,533.5z"/>
	<path class="st2" d="M379.5,534.1c0.5,0.5,0.7,1.3,0.7,2.7v4.2c0,0.2-0.1,0.2-0.2,0.2h-1.6c-0.1,0-0.2-0.1-0.2-0.2v-3.7
		c0-1,0-1.5-0.3-1.7s-0.5-0.3-1.2-0.3h-1.2v5.7c0,0.2-0.1,0.2-0.2,0.2h-1.6c-0.1,0-0.2-0.1-0.2-0.2v-7c0-0.2,0.1-0.2,0.2-0.2
		c1.1-0.2,2.2-0.3,3.2-0.2C378.3,533.5,379,533.6,379.5,534.1z"/>
	<path class="st2" d="M383.6,530.6c0.1,0,0.2,0.1,0.2,0.2c0,0,0,0,0,0v10.1c0,0.2-0.1,0.2-0.2,0.2H382c-0.1,0-0.2-0.1-0.2-0.2v-10.1
		c0-0.1,0.1-0.2,0.2-0.2c0,0,0,0,0,0H383.6z"/>
	<path class="st2" d="M387.8,531.4c0.1,0.5-0.3,1-0.9,1.1c-0.1,0-0.2,0-0.3,0c-0.5,0.1-1.1-0.2-1.2-0.8c0-0.1,0-0.2,0-0.3
		c0-0.7,0.4-1.1,1.2-1.1c0.5-0.1,1.1,0.3,1.2,0.8C387.8,531.2,387.8,531.3,387.8,531.4z M387.4,533.5c0.1,0,0.2,0.1,0.2,0.2
		c0,0,0,0,0,0v7.2c0,0.2-0.1,0.2-0.2,0.2h-1.6c-0.1,0-0.2-0.1-0.2-0.2v-7.2c0-0.1,0.1-0.2,0.2-0.2c0,0,0,0,0,0L387.4,533.5z"/>
	<path class="st2" d="M399.2,534.1c0.5,0.6,0.7,1.5,0.6,2.3v4.6c0,0.2-0.1,0.2-0.2,0.2H398c-0.1,0-0.2-0.1-0.2-0.2v-3.7
		c-0.1-2-0.1-2-1.3-2c-0.4,0-0.7,0-1.1,0.1c0.1,0.5,0.2,1,0.2,1.4v4.2c0,0.2-0.1,0.2-0.2,0.2h-1.6c-0.1,0-0.2-0.1-0.2-0.2v-4.1
		c0-0.8,0-1.1-0.3-1.3s-0.4-0.2-1-0.2h-0.9v5.7c0,0.2-0.1,0.2-0.2,0.2h-1.6c-0.1,0-0.2-0.1-0.2-0.2v-7c0-0.1,0.1-0.2,0.2-0.2
		c0,0,0,0,0,0c0.9-0.2,1.7-0.2,2.6-0.2c0.8,0,1.7,0.1,2.4,0.4c0.8-0.3,1.6-0.4,2.4-0.5C397.8,533.4,398.6,533.6,399.2,534.1z"/>
	<path class="st2" d="M403.6,531.4c0.1,0.5-0.3,1-0.9,1.1c-0.1,0-0.2,0-0.3,0c-0.5,0.1-1.1-0.2-1.2-0.8c0-0.1,0-0.2,0-0.3
		c0-0.7,0.4-1.1,1.2-1.1c0.5-0.1,1.1,0.3,1.2,0.8C403.6,531.2,403.6,531.3,403.6,531.4z M403.2,533.5c0.1,0,0.2,0.1,0.2,0.2
		c0,0,0,0,0,0v7.2c0,0.2-0.1,0.2-0.2,0.2h-1.6c-0.1,0-0.2-0.1-0.2-0.2v-7.2c0-0.1,0.1-0.2,0.2-0.2c0,0,0,0,0,0L403.2,533.5z"/>
	<path class="st2" d="M407.3,531.4c0.1,0,0.2,0,0.2,0.2v1.9h1.3c0.1,0,0.2,0.1,0.2,0.2v1.1c0,0.1-0.1,0.2-0.2,0.2h-1.3v3.7
		c0,0.5,0.2,0.7,0.8,0.7h0.6c0.1,0,0.2,0.1,0.2,0.2v1.2c0,0.1-0.1,0.2-0.2,0.3c0,0,0,0,0,0c-0.4,0.1-0.8,0.1-1.1,0.1
		c-0.4,0-0.9,0-1.3-0.1c-0.6-0.2-0.9-0.6-1-1.6V535h-0.8c-0.1,0-0.2-0.1-0.2-0.2v-1.1c0-0.1,0.1-0.2,0.2-0.2h0.8V532
		c0-0.1,0.1-0.2,0.2-0.2L407.3,531.4z"/>
	<path class="st2" d="M416,534.2c0.5,0.9,0.8,2,0.7,3v0.4c0,0.3-0.1,0.4-0.4,0.4H412c0,0.4,0.1,0.8,0.3,1.2c0.4,0.2,0.8,0.3,1.2,0.3
		h2.4c0.1,0,0.2,0.1,0.2,0.2c0,0,0,0,0,0v1.1c0,0.1-0.1,0.2-0.2,0.2c0,0,0,0,0,0c-0.9,0.1-1.7,0.2-2.6,0.2c-1,0.1-2-0.2-2.7-0.8
		c-0.6-0.9-0.8-2-0.7-3.1c-0.1-1.1,0.1-2.2,0.7-3.1c0.8-0.6,1.7-0.9,2.7-0.8C414.3,533.3,415.3,533.6,416,534.2z M412,536.7h2.7
		c0-1.2-0.3-1.5-1.3-1.5S412,535.5,412,536.7L412,536.7z"/>
	<path class="st2" d="M424.3,530.6c0.1,0,0.2,0.1,0.2,0.2v9.7c0,0.2-0.1,0.3-0.3,0.3c0,0,0,0,0,0c-1,0.2-2,0.3-3,0.3
		c-1,0.1-2-0.1-2.8-0.8c-0.6-0.9-0.8-2-0.7-3.1c-0.1-1.1,0.1-2.1,0.6-3.1c0.7-0.6,1.6-0.9,2.5-0.8c0.6,0,1.1,0,1.7,0.1v-2.7
		c0-0.2,0.1-0.2,0.2-0.2L424.3,530.6z M422.5,535.2h-1.2c-0.7,0-1.1,0.1-1.3,0.4c-0.2,0.5-0.3,1.1-0.3,1.7c0,0.6,0,1.2,0.2,1.7
		c0.2,0.3,0.6,0.4,1.2,0.4c0.4,0,0.9,0,1.3-0.1V535.2z"/>
</g>
<g id="Interne">
	<rect x="-136.1" y="411.5" class="st3" width="678.4" height="142.1"/>
	<line class="st4" x1="47.4" y1="428.4" x2="542.2" y2="428.4"/>
	<path class="st5" d="M-131.7,461.5v-0.8c1.4-1.9,1.7-2.1,1.7-2.7c0-0.2-0.1-0.4-0.3-0.4s-0.4,0.4-0.4,0.6h-0.9
		c-0.1-0.6,0.3-1.2,0.9-1.3c0.1,0,0.2,0,0.3,0c0.8,0,1.3,0.3,1.3,1.2c0,1-1.2,2.2-1.7,2.7h1.7v0.7L-131.7,461.5z"/>
	<path class="st5" d="M-128.7,459.6l1.1-2.6h1.2v2.8h0.4v0.7h-0.4v1h-0.9v-1h-1.4L-128.7,459.6z M-127.2,459.8l0.1-2.2l0,0l-0.8,2.2
		H-127.2z"/>
	<path class="st5" d="M-125.5,460.7h0.9l-0.5,1.5h-0.6L-125.5,460.7z"/>
	<path class="st5" d="M-121.8,458.2v0.4l0,0c0.1-0.3,0.5-0.5,0.9-0.5v0.8c-0.8,0-0.8,0.4-0.8,0.7v1.8h-0.9v-3.3L-121.8,458.2z"/>
	<path class="st5" d="M-118.9,461.2L-118.9,461.2c-0.2,0.3-0.5,0.4-0.8,0.4c-0.4,0-0.8-0.2-0.8-0.7c0,0,0,0,0-0.1v-2.6h0.9v2.3
		c0,0.3,0.1,0.5,0.3,0.5s0.3-0.2,0.3-0.5v-2.3h0.9v2.6c0,0.2,0,0.4,0,0.6h-0.9L-118.9,461.2z"/>
	<path class="st5" d="M-116.5,460c0,0.4,0,1,0.4,1s0.4-0.3,0.4-0.6h0.9c0,0.3-0.1,0.6-0.3,0.9c-0.3,0.2-0.6,0.4-1,0.3
		c-1.2,0-1.3-0.7-1.3-1.8s0.1-1.7,1.3-1.7s1.4,0.8,1.3,1.9L-116.5,460z M-115.6,459.5c0-0.3,0-0.8-0.4-0.8s-0.4,0.5-0.4,0.8H-115.6z
		"/>
	<path class="st5" d="M-111.3,461.6c-1.2,0-1.4-0.7-1.4-1.5h1c0,0.5,0,0.8,0.6,0.8c0.3,0,0.5-0.2,0.5-0.4c0,0,0-0.1,0-0.1
		c0-0.8-2-0.9-2-2.3c0-0.7,0.3-1.3,1.6-1.3c1,0,1.4,0.4,1.4,1.4h-1c0-0.4-0.1-0.7-0.5-0.7c-0.3,0-0.5,0.2-0.5,0.4c0,0,0,0.1,0,0.1
		c0,0.9,2,0.8,2,2.3C-109.6,461.4-110.5,461.6-111.3,461.6z"/>
	<path class="st5" d="M-106.5,460.9c0,0.2,0,0.4,0,0.6h-0.8v-0.4l0,0c-0.2,0.3-0.5,0.5-0.9,0.5c-0.6,0-0.9-0.5-0.9-1
		c0-1.1,0.8-1.1,1.7-1.1v-0.3c0-0.3,0-0.5-0.4-0.5s-0.3,0.2-0.3,0.5h-0.9c0-0.3,0.1-0.6,0.3-0.8c0.3-0.2,0.6-0.2,0.9-0.2
		c1.2,0,1.3,0.5,1.3,1.1L-106.5,460.9z M-108.2,460.5c0,0.2,0,0.5,0.3,0.5c0.5,0,0.5-0.7,0.5-1.1
		C-107.8,459.9-108.2,459.9-108.2,460.5z"/>
	<path class="st5" d="M-104.7,456.8v4.7h-0.9v-4.7H-104.7z"/>
	<path class="st5" d="M-104,459.8c0-0.9,0.1-1.7,1.3-1.7s1.3,0.8,1.3,1.7s-0.2,1.8-1.3,1.8S-104,460.9-104,459.8z M-102.3,459.8
		c0-0.7,0-1-0.4-1s-0.4,0.3-0.4,1c0,1,0.1,1.2,0.4,1.2S-102.3,460.8-102.3,459.8z"/>
	<path class="st5" d="M-99.8,458.6L-99.8,458.6c0.2-0.3,0.5-0.4,0.8-0.4c0.3,0,0.6,0.2,0.7,0.4c0.2-0.3,0.5-0.4,0.8-0.4
		c0.4,0,0.8,0.2,0.8,0.7c0,0,0,0,0,0.1v2.6h-0.9v-2.3c0-0.3-0.1-0.5-0.3-0.5s-0.3,0.2-0.3,0.5v2.3h-0.9v-2.3c0-0.3-0.1-0.5-0.3-0.5
		s-0.3,0.2-0.3,0.5v2.3h-0.9v-3.3h0.9L-99.8,458.6z"/>
	<path class="st5" d="M-96.1,459.8c0-0.9,0.1-1.7,1.3-1.7s1.3,0.8,1.3,1.7s-0.2,1.8-1.3,1.8S-96.1,460.9-96.1,459.8z M-94.3,459.8
		c0-0.7,0-1-0.4-1s-0.4,0.3-0.4,1c0,1,0.1,1.2,0.4,1.2S-94.3,460.8-94.3,459.8z"/>
	<path class="st5" d="M-91.8,458.6L-91.8,458.6c0.1-0.1,0.2-0.2,0.3-0.3c0.1-0.1,0.3-0.1,0.4-0.1c0.4,0,0.8,0.2,0.8,0.7
		c0,0,0,0,0,0.1v2.6h-0.9v-2.3c0-0.3-0.1-0.5-0.3-0.5s-0.3,0.2-0.3,0.5v2.3h-0.9v-3.3h0.9L-91.8,458.6z"/>
	<path class="st5" d="M-86.4,461.5v-0.4l0,0c-0.1,0.3-0.4,0.5-0.8,0.4c-0.9,0-0.9-1-0.9-1.7s0-1.7,0.9-1.7c0.3,0,0.6,0.1,0.8,0.4
		l0,0v-1.7h0.9v4.7L-86.4,461.5z M-86.4,459.8c0-0.7,0-1.1-0.4-1.1s-0.4,0.5-0.4,1.1c0,0.8,0.1,1.2,0.4,1.2S-86.5,460.7-86.4,459.8
		L-86.4,459.8z"/>
	<path class="st5" d="M-84,460c0,0.4,0,1,0.4,1s0.4-0.3,0.4-0.6h0.9c0,0.3-0.1,0.6-0.3,0.9c-0.3,0.2-0.6,0.4-1,0.3
		c-1.2,0-1.3-0.7-1.3-1.8s0.1-1.7,1.3-1.7s1.4,0.8,1.3,1.9L-84,460z M-83.1,459.5c0-0.3,0-0.8-0.4-0.8s-0.4,0.5-0.4,0.8H-83.1z"/>
	<path class="st5" d="M-79.1,461.5h-1v-4.7h1.8c0.7,0,1.1,0.4,1.1,1.2c0.1,0.5-0.3,1.1-0.8,1.1c0,0,0,0,0,0l0,0
		c0.5,0,0.8,0.3,0.9,0.8c0,0,0,0.1,0,0.1c0,0.5,0,0.9,0.1,1.4h-1c-0.1-0.3-0.1-0.6-0.1-0.9c0-0.6,0.1-1-0.7-1h-0.3L-79.1,461.5z
		 M-79.1,458.8h0.4c0.4,0,0.5-0.4,0.5-0.7s-0.2-0.6-0.5-0.6h-0.4V458.8z"/>
	<path class="st5" d="M-76.6,459.8c0-0.9,0.1-1.7,1.3-1.7s1.3,0.8,1.3,1.7s-0.2,1.8-1.3,1.8S-76.6,460.9-76.6,459.8z M-74.8,459.8
		c0-0.7,0-1-0.4-1s-0.4,0.3-0.4,1c0,1,0.1,1.2,0.4,1.2S-74.8,460.8-74.8,459.8L-74.8,459.8z"/>
	<path class="st5" d="M-73.6,458.2h0.4v-0.5l0.9-0.4v0.9h0.5v0.6h-0.5v1.8c0,0.3,0,0.4,0.3,0.4h0.2v0.6c-0.2,0-0.3,0-0.5,0
		c-0.8,0-0.9-0.5-0.9-0.7v-2h-0.4L-73.6,458.2z"/>
	<path class="st5" d="M-69.8,461.5v-2.3c0-0.3-0.1-0.5-0.3-0.5s-0.3,0.2-0.3,0.5v2.3h-0.9v-4.7h0.9v1.7l0,0c0.1-0.1,0.2-0.2,0.3-0.3
		c0.1-0.1,0.3-0.1,0.4-0.1c0.4,0,0.8,0.2,0.8,0.7c0,0,0,0,0,0.1v2.6L-69.8,461.5z"/>
	<path class="st5" d="M-67.5,460.5c0,0.1,0,0.3,0,0.4c0.1,0.1,0.2,0.2,0.3,0.2c0.2,0,0.3-0.1,0.3-0.3c0,0,0,0,0,0
		c0-0.7-1.6-0.5-1.6-1.6c0-0.7,0.7-0.9,1.3-0.9s1.2,0.3,1.1,1h-0.8c0-0.2,0-0.4-0.1-0.4c-0.1-0.1-0.1-0.1-0.2-0.1
		c-0.2,0-0.3,0.1-0.3,0.4c0,0.5,1.6,0.5,1.6,1.5c0,0.6-0.5,1-1.2,1s-1.3-0.2-1.3-1.1L-67.5,460.5z"/>
	<path class="st5" d="M-63.6,459.4c0-0.5-0.1-0.6-0.4-0.6c-0.3,0-0.4,0.3-0.4,1c0,1,0.1,1.2,0.4,1.2c0.3,0,0.4-0.3,0.4-0.7h0.9
		c0,0.9-0.5,1.3-1.3,1.3c-1.2,0-1.3-0.7-1.3-1.8s0.1-1.7,1.3-1.7c0.8,0,1.3,0.4,1.3,1.2L-63.6,459.4z"/>
	<path class="st5" d="M-60.4,461.5v-2.3c0-0.3-0.1-0.5-0.3-0.5s-0.3,0.2-0.3,0.5v2.3H-62v-4.7h0.9v1.7l0,0c0.1-0.1,0.2-0.2,0.3-0.3
		c0.1-0.1,0.3-0.1,0.4-0.1c0.4,0,0.8,0.2,0.8,0.7c0,0,0,0,0,0.1v2.6L-60.4,461.5z"/>
	<path class="st5" d="M-57.8,456.8v0.7h-0.9v-0.7H-57.8z M-57.8,461.5h-0.9v-3.3h0.9V461.5z"/>
	<path class="st5" d="M-56,456.8v4.7h-0.9v-4.7H-56z"/>
	<path class="st5" d="M-53.5,461.5v-0.4l0,0c-0.1,0.3-0.4,0.5-0.8,0.4c-0.9,0-0.9-1-0.9-1.7s0-1.7,0.9-1.7c0.3,0,0.6,0.1,0.8,0.4
		l0,0v-1.7h0.9v4.7L-53.5,461.5z M-53.5,459.8c0-0.7,0-1.1-0.4-1.1s-0.4,0.5-0.4,1.1c0,0.8,0.1,1.2,0.4,1.2S-53.6,460.7-53.5,459.8
		L-53.5,459.8z"/>
	<path class="st5" d="M-49,459.4v0.7h-1.6v-0.7H-49z"/>
	<path class="st5" d="M-46.1,460.4c0,0.1,0,0.2,0.1,0.3c0.1,0.1,0.2,0.1,0.3,0.1c0.5,0,0.4-0.4,0.4-1.5c-0.2,0.2-0.5,0.3-0.8,0.3
		c-0.7,0-1-0.6-1-1.2c0-0.9,0.3-1.6,1.3-1.6c1.3,0,1.3,1.1,1.3,2.4c0,1.1,0,2.3-1.3,2.3c-0.8,0-1.2-0.3-1.2-1.1L-46.1,460.4z
		 M-45.8,459.1c0.4,0,0.4-0.5,0.4-0.8s0-0.8-0.4-0.8s-0.4,0.5-0.4,0.8S-46.2,459.1-45.8,459.1z"/>
	<path class="st5" d="M-44.3,461.5v-0.8c1.4-1.9,1.7-2.1,1.7-2.7c0-0.2-0.1-0.4-0.3-0.4s-0.4,0.4-0.4,0.6h-0.9
		c-0.1-0.6,0.3-1.2,0.9-1.3c0.1,0,0.2,0,0.3,0c0.8,0,1.3,0.3,1.3,1.2c0,1-1.2,2.2-1.7,2.7h1.7v0.7L-44.3,461.5z"/>
	<path class="st5" d="M-41.4,461.5v-0.8c1.4-1.9,1.7-2.1,1.7-2.7c0-0.2-0.1-0.4-0.3-0.4s-0.4,0.4-0.4,0.6h-0.9
		c-0.1-0.6,0.3-1.2,0.9-1.3c0.1,0,0.2,0,0.3,0c0.8,0,1.3,0.3,1.3,1.2c0,1-1.2,2.2-1.7,2.7h1.7v0.7L-41.4,461.5z"/>
	<path class="st5" d="M-38.5,460.4c0-0.6,0.1-1,0.7-1.2l0,0c-0.5-0.1-0.6-0.5-0.6-1c0-0.8,0.4-1.2,1.3-1.2s1.3,0.4,1.3,1.2
		c0,0.5-0.1,0.9-0.6,1l0,0c0.6,0.2,0.7,0.7,0.7,1.2c0,0.9-0.5,1.2-1.3,1.2S-38.5,461.2-38.5,460.4z M-37.5,460.3
		c0,0.3,0,0.6,0.4,0.6s0.4-0.4,0.4-0.6s0-0.8-0.4-0.8S-37.5,460-37.5,460.3L-37.5,460.3z M-37.5,458.2c0,0.2,0,0.6,0.4,0.6
		s0.4-0.4,0.4-0.6s0-0.6-0.4-0.6S-37.5,457.9-37.5,458.2L-37.5,458.2z"/>
	<path class="st5" d="M-35.6,460.4c0-0.6,0.1-1,0.7-1.2l0,0c-0.5-0.1-0.6-0.5-0.6-1c0-0.8,0.4-1.2,1.3-1.2s1.3,0.4,1.3,1.2
		c0,0.5-0.1,0.9-0.6,1l0,0c0.6,0.2,0.7,0.7,0.7,1.2c0,0.9-0.5,1.2-1.3,1.2S-35.6,461.2-35.6,460.4z M-34.7,460.3
		c0,0.3,0,0.6,0.4,0.6s0.4-0.4,0.4-0.6s0-0.8-0.4-0.8S-34.7,460-34.7,460.3L-34.7,460.3z M-34.7,458.2c0,0.2,0,0.6,0.4,0.6
		s0.4-0.4,0.4-0.6s0-0.6-0.4-0.6S-34.6,457.9-34.7,458.2L-34.7,458.2z"/>
	<path class="st5" d="M-29.7,461.6c-1.2,0-1.4-0.7-1.4-1.5h1c0,0.5,0,0.8,0.6,0.8c0.3,0,0.5-0.2,0.5-0.4c0,0,0-0.1,0-0.1
		c0-0.8-2-0.9-2-2.3c0-0.7,0.3-1.3,1.5-1.3c1,0,1.4,0.4,1.4,1.4h-1c0-0.4-0.1-0.7-0.5-0.7c-0.3,0-0.5,0.2-0.5,0.4c0,0,0,0.1,0,0.1
		c0,0.9,2,0.8,2,2.3C-28.1,461.4-28.9,461.6-29.7,461.6z"/>
	<path class="st5" d="M-25.8,461.2L-25.8,461.2c-0.2,0.3-0.5,0.4-0.8,0.4c-0.4,0-0.8-0.2-0.8-0.7c0,0,0,0,0-0.1v-2.6h0.9v2.3
		c0,0.3,0,0.5,0.3,0.5s0.3-0.2,0.3-0.5v-2.3h0.9v2.6c0,0.2,0,0.4,0,0.6h-0.9V461.2z"/>
	<path class="st5" d="M-23.3,458.2v0.4l0,0c0.1-0.3,0.5-0.5,0.9-0.5v0.8c-0.8,0-0.8,0.4-0.8,0.7v1.8h-0.9v-3.3L-23.3,458.2z"/>
	<path class="st5" d="M-21.1,460c0,0.4,0,1,0.4,1s0.4-0.3,0.4-0.6h0.9c0,0.3-0.1,0.6-0.4,0.9c-0.3,0.2-0.6,0.4-1,0.3
		c-1.2,0-1.3-0.7-1.3-1.8s0.1-1.7,1.3-1.7s1.4,0.8,1.3,1.9L-21.1,460z M-20.3,459.5c0-0.3,0-0.8-0.4-0.8s-0.4,0.5-0.4,0.8H-20.3z"/>
	<path class="st5" d="M-18,460.5c0,0.1,0,0.3,0,0.4c0,0.1,0.1,0.2,0.3,0.2c0.2,0,0.3-0.1,0.3-0.3c0,0,0,0,0,0c0-0.7-1.6-0.5-1.6-1.6
		c0-0.7,0.7-0.9,1.3-0.9s1.2,0.3,1.1,1h-0.9c0-0.2,0-0.4-0.1-0.4c-0.1-0.1-0.1-0.1-0.2-0.1c-0.2,0-0.3,0.1-0.3,0.4
		c0,0.5,1.6,0.5,1.6,1.5c0,0.6-0.5,1-1.2,1s-1.3-0.2-1.3-1.1L-18,460.5z"/>
	<path class="st5" d="M-14.9,458.6L-14.9,458.6c0.1-0.1,0.2-0.2,0.3-0.3c0.1-0.1,0.3-0.1,0.5-0.1c0.4,0,0.8,0.2,0.8,0.7
		c0,0,0,0,0,0.1v2.6h-0.9v-2.3c0-0.3,0-0.5-0.3-0.5s-0.3,0.2-0.3,0.5v2.3h-0.9v-3.3h0.9L-14.9,458.6z"/>
	<path class="st5" d="M-11.8,460c0,0.4,0,1,0.4,1s0.4-0.3,0.4-0.6h0.9c0,0.3-0.1,0.6-0.4,0.9c-0.3,0.2-0.6,0.4-1,0.3
		c-1.2,0-1.3-0.7-1.3-1.8s0.1-1.7,1.3-1.7S-10,459-10,460L-11.8,460z M-10.9,459.5c0-0.3,0-0.8-0.4-0.8s-0.4,0.5-0.4,0.8H-10.9z"/>
	<path class="st5" d="M-8.6,460.5c0,0.1,0,0.3,0,0.4c0,0.1,0.1,0.2,0.3,0.2c0.2,0,0.3-0.1,0.3-0.3c0,0,0,0,0,0
		c0-0.7-1.6-0.5-1.6-1.6c0-0.7,0.7-0.9,1.3-0.9s1.2,0.3,1.1,1H-8c0-0.2,0-0.4-0.1-0.4c-0.1-0.1-0.1-0.1-0.2-0.1
		c-0.2,0-0.3,0.1-0.3,0.4c0,0.5,1.6,0.5,1.6,1.5c0,0.6-0.5,1-1.2,1s-1.3-0.2-1.3-1.1L-8.6,460.5z"/>
	<path class="st5" d="M-3.5,459.4v0.7h-1.6v-0.7H-3.5z"/>
	<path class="st5" d="M-1.4,461.5v-4.7h2.4v0.7h-1.5v1.2H1v0.7h-1.4v2L-1.4,461.5z"/>
	<path class="st5" d="M2.5,461.5h-1v-4.7h1.8c0.7,0,1.1,0.4,1.1,1.2c0.1,0.5-0.3,1.1-0.8,1.1c0,0,0,0,0,0l0,0c0.5,0,0.8,0.3,0.9,0.8
		c0,0,0,0.1,0,0.1c0,0.5,0,0.9,0.1,1.4h-1c-0.1-0.3-0.1-0.6-0.1-0.9c0-0.6,0.1-1-0.7-1H2.5V461.5z M2.5,458.8h0.4
		c0.4,0,0.5-0.4,0.5-0.7s-0.2-0.6-0.5-0.6H2.5V458.8z"/>
	<path class="st5" d="M4.8,461.5l1.3-4.7h1.3l1.3,4.7h-1l-0.3-1H6l-0.3,1H4.8z M6.7,457.7L6.7,457.7l-0.5,2h1L6.7,457.7z"/>
	<path class="st5" d="M9.1,461.5v-4.7h1.3l1.3,3.3l0,0v-3.3h0.9v4.7h-1.3l-1.3-3.4l0,0v3.4H9.1z"/>
	<path class="st5" d="M13.4,459.2c0-1.2,0-2.4,1.6-2.4c1,0,1.4,0.5,1.4,1.6h-1c0-0.6-0.1-0.9-0.4-0.9c-0.6,0-0.6,0.5-0.6,1.7
		s0.1,1.7,0.6,1.7c0.5,0,0.4-0.6,0.4-1h1c0,1.3-0.5,1.7-1.4,1.7C13.4,461.6,13.4,460.4,13.4,459.2z"/>
	<path class="st5" d="M17.1,461.5v-4.7h2.6v0.7H18v1.2h1.5v0.7H18v1.4h1.6v0.7H17.1z"/>
	<path class="st5" d="M-128.5,464.8v0.8h-1.1v3.9h-1v-3.9h-1.1v-0.8H-128.5z"/>
	<path class="st5" d="M-127.3,468c0,0.4,0,1,0.4,1s0.4-0.3,0.4-0.6h0.9c0,0.3-0.1,0.6-0.4,0.9c-0.3,0.2-0.6,0.4-1,0.3
		c-1.2,0-1.3-0.7-1.3-1.8s0.1-1.7,1.3-1.7c1.2,0,1.4,0.8,1.3,1.9L-127.3,468z M-126,464.8l-1,0.9h-0.4l0.6-0.9H-126z M-126.4,467.5
		c0-0.3,0-0.8-0.4-0.8s-0.4,0.5-0.4,0.8H-126.4z"/>
	<path class="st5" d="M-123.9,464.8v4.7h-0.9v-4.7H-123.9z"/>
	<path class="st5" d="M-122.3,468.7v0.9h-0.8v-0.9H-122.3z"/>
	<path class="st5" d="M-119.4,466.2v0.9h-0.8v-0.9H-119.4z M-119.4,469.5h-0.8v-0.9h0.8V469.5z"/>
	<path class="st5" d="M-116.4,466.2h0.7v1.3h1.1v0.7h-1.1v1.3h-0.7v-1.3h-1.1v-0.7h1.1V466.2z"/>
	<path class="st5" d="M-114.3,466.1c0-0.3,0.1-0.7,0.3-1c0.3-0.2,0.6-0.3,1-0.2c0.8,0,1.2,0.3,1.2,1.2c0,0.4-0.1,0.9-0.6,1l0,0
		c0.6,0.1,0.7,0.6,0.7,1.1c0,0.9-0.5,1.3-1.4,1.3s-1.3-0.3-1.3-1.3h0.9c0,0.3,0,0.6,0.4,0.6s0.4-0.4,0.4-0.7c0-0.7-0.2-0.7-0.8-0.7
		v-0.7c0.6,0,0.8,0,0.8-0.7c0-0.3,0-0.5-0.3-0.5s-0.4,0.3-0.4,0.5L-114.3,466.1z"/>
	<path class="st5" d="M-111.4,466.1c0-0.3,0.1-0.7,0.3-1c0.3-0.2,0.6-0.3,1-0.2c0.8,0,1.2,0.3,1.2,1.2c0,0.4-0.1,0.9-0.6,1l0,0
		c0.6,0.1,0.7,0.6,0.7,1.1c0,0.9-0.5,1.3-1.4,1.3s-1.3-0.3-1.3-1.3h0.9c0,0.3,0,0.6,0.4,0.6s0.4-0.4,0.4-0.7c0-0.7-0.2-0.7-0.8-0.7
		v-0.7c0.6,0,0.8,0,0.8-0.7c0-0.3,0-0.5-0.3-0.5s-0.4,0.3-0.4,0.5L-111.4,466.1z"/>
	<path class="st5" d="M-105.8,464.6c-0.2,0.9-0.4,1.9-0.4,2.8c0,1,0.2,1.9,0.4,2.9h-0.5c-0.4-0.9-0.6-1.9-0.7-2.9
		c0.1-1,0.3-1.9,0.7-2.8H-105.8z"/>
	<path class="st5" d="M-102.6,467.2c0,1.4-0.1,2.3-1.3,2.3s-1.3-0.9-1.3-2.3c0-1.7,0.2-2.3,1.3-2.3S-102.6,465.5-102.6,467.2z
		 M-104.3,467.2c0,1.4,0,1.7,0.4,1.7s0.4-0.3,0.4-1.7s0-1.7-0.4-1.7S-104.3,465.9-104.3,467.2L-104.3,467.2z"/>
	<path class="st5" d="M-102.1,470.3c0.2-0.9,0.4-1.9,0.4-2.8c0-1-0.2-1.9-0.4-2.9h0.5c0.4,0.9,0.6,1.9,0.7,2.9
		c-0.1,1-0.3,1.9-0.7,2.8H-102.1z"/>
	<path class="st5" d="M-100.4,465.7c0.3-0.2,0.6-0.4,0.9-0.7h0.9v4.5h-1v-3.5c-0.2,0.2-0.5,0.4-0.8,0.5L-100.4,465.7z"/>
	<path class="st5" d="M-95.2,466.8L-95.2,466.8c0.2-0.2,0.4-0.3,0.7-0.3c0.8,0,1,0.5,1,1.5c0,1.2-0.5,1.6-1.4,1.6
		c-0.8,0-1.2-0.3-1.2-1.1h0.9c0,0.1,0,0.2,0.1,0.3c0.1,0.1,0.2,0.1,0.3,0.1c0.4,0,0.4-0.3,0.4-0.9c0-0.3,0-0.9-0.4-0.9
		s-0.3,0.3-0.3,0.5h-0.9V465h2.4v0.7h-1.5L-95.2,466.8z"/>
	<path class="st5" d="M-90.8,465.8l-1.1,3.7h-1l1.2-3.8h-1.6V465h2.4V465.8z"/>
	<path class="st5" d="M-89,466.1c0-0.3,0.1-0.7,0.3-1c0.3-0.2,0.6-0.3,1-0.2c0.8,0,1.2,0.3,1.2,1.2c0,0.4-0.1,0.9-0.6,1l0,0
		c0.6,0.1,0.7,0.6,0.7,1.1c0,0.9-0.5,1.3-1.4,1.3s-1.3-0.3-1.3-1.3h0.9c0,0.3,0,0.6,0.4,0.6s0.4-0.4,0.4-0.7c0-0.7-0.2-0.7-0.8-0.7
		v-0.7c0.6,0,0.8,0,0.8-0.7c0-0.3,0-0.5-0.3-0.5s-0.4,0.3-0.4,0.5L-89,466.1z"/>
	<path class="st5" d="M-86.2,469.5v-0.8c1.4-1.9,1.7-2.1,1.7-2.7c0-0.2-0.1-0.4-0.3-0.4s-0.4,0.4-0.4,0.6h-0.9
		c-0.1-0.6,0.3-1.2,0.9-1.3c0.1,0,0.3,0,0.4,0c0.8,0,1.3,0.3,1.3,1.2c0,1-1.2,2.2-1.7,2.7h1.7v0.7L-86.2,469.5z"/>
	<path class="st5" d="M-81.8,468.4c0-0.6,0.1-1,0.7-1.2l0,0c-0.5-0.1-0.6-0.5-0.6-1c0-0.8,0.4-1.2,1.3-1.2s1.3,0.4,1.3,1.2
		c0,0.5-0.1,0.9-0.6,1l0,0c0.6,0.2,0.7,0.7,0.7,1.2c0,0.9-0.5,1.2-1.3,1.2S-81.8,469.2-81.8,468.4z M-80.9,468.3
		c0,0.3,0,0.6,0.4,0.6s0.4-0.4,0.4-0.6s0-0.8-0.4-0.8S-80.9,468-80.9,468.3L-80.9,468.3z M-80.9,466.2c0,0.2,0,0.6,0.4,0.6
		s0.4-0.4,0.4-0.6s0-0.6-0.4-0.6S-80.8,465.9-80.9,466.2L-80.9,466.2z"/>
	<path class="st5" d="M-76.4,465.8l-1.1,3.7h-1l1.2-3.8h-1.6V465h2.4L-76.4,465.8z"/>
	<path class="st5" d="M-72,467.2c0,1.4-0.1,2.3-1.3,2.3s-1.3-0.9-1.3-2.3c0-1.7,0.2-2.3,1.3-2.3S-72,465.5-72,467.2z M-73.7,467.2
		c0,1.4,0,1.7,0.4,1.7s0.4-0.3,0.4-1.7s0-1.7-0.4-1.7S-73.7,465.9-73.7,467.2L-73.7,467.2z"/>
	<path class="st5" d="M-69.1,467.2c0,1.4-0.1,2.3-1.3,2.3s-1.3-0.9-1.3-2.3c0-1.7,0.2-2.3,1.3-2.3S-69.1,465.5-69.1,467.2z
		 M-70.8,467.2c0,1.4,0,1.7,0.4,1.7s0.4-0.3,0.4-1.7s0-1.7-0.4-1.7S-70.8,465.9-70.8,467.2L-70.8,467.2z"/>
	<path class="st5" d="M-67.7,470.1l1.6-5.3h0.7l-1.6,5.3H-67.7z"/>
	<path class="st5" d="M-63.8,469.5v-4.7h2.4v0.7h-1.5v1.2h1.4v0.7h-1.4v2L-63.8,469.5z"/>
	<path class="st5" d="M-58.5,468.9c0,0.2,0,0.4,0,0.6h-0.8v-0.4l0,0c-0.2,0.3-0.5,0.5-0.9,0.5c-0.6,0-0.9-0.5-0.9-1
		c0-1.1,0.8-1.1,1.7-1.1v-0.3c0-0.3,0-0.5-0.4-0.5s-0.3,0.2-0.3,0.5H-61c0-0.3,0.1-0.6,0.3-0.8c0.3-0.2,0.6-0.2,0.9-0.2
		c1.2,0,1.3,0.5,1.3,1.1L-58.5,468.9z M-60.2,468.5c0,0.2,0,0.5,0.3,0.5c0.5,0,0.5-0.7,0.5-1.1C-59.9,467.9-60.2,467.9-60.2,468.5z"
		/>
	<path class="st5" d="M-57.2,469.5h-0.9l1-1.7l-0.9-1.6h1l0.5,1l0.6-1h0.9l-0.9,1.6l0.9,1.7h-1l-0.6-1.1L-57.2,469.5z"/>
	<path class="st5" d="M-52.3,466.2v0.9h-0.8v-0.9H-52.3z M-52.3,469.5h-0.8v-0.9h0.8V469.5z"/>
	<path class="st5" d="M-49.3,466.2h0.7v1.3h1.1v0.7h-1.1v1.3h-0.7v-1.3h-1.1v-0.7h1.1V466.2z"/>
	<path class="st5" d="M-47.2,466.1c0-0.3,0.1-0.7,0.3-1c0.3-0.2,0.6-0.3,1-0.2c0.8,0,1.2,0.3,1.2,1.2c0,0.4-0.1,0.9-0.6,1l0,0
		c0.6,0.1,0.7,0.6,0.7,1.1c0,0.9-0.5,1.3-1.4,1.3s-1.3-0.3-1.3-1.3h0.9c0,0.3,0,0.6,0.4,0.6s0.5-0.4,0.5-0.7c0-0.7-0.2-0.7-0.8-0.7
		v-0.7c0.6,0,0.8,0,0.8-0.7c0-0.3,0-0.5-0.3-0.5s-0.4,0.3-0.4,0.5L-47.2,466.1z"/>
	<path class="st5" d="M-44.3,466.1c0-0.3,0.1-0.7,0.3-1c0.3-0.2,0.6-0.3,1-0.2c0.8,0,1.2,0.3,1.2,1.2c0,0.4-0.1,0.9-0.6,1l0,0
		c0.6,0.1,0.7,0.6,0.7,1.1c0,0.9-0.5,1.3-1.4,1.3s-1.3-0.3-1.3-1.3h0.9c0,0.3,0,0.6,0.4,0.6s0.5-0.4,0.5-0.7c0-0.7-0.2-0.7-0.8-0.7
		v-0.7c0.6,0,0.8,0,0.8-0.7c0-0.3,0-0.5-0.3-0.5s-0.4,0.3-0.4,0.5L-44.3,466.1z"/>
	<path class="st5" d="M-38.7,464.6c-0.2,0.9-0.4,1.9-0.4,2.8c0,1,0.2,1.9,0.4,2.9h-0.5c-0.4-0.9-0.6-1.9-0.7-2.9
		c0.1-1,0.3-1.9,0.7-2.8H-38.7z"/>
	<path class="st5" d="M-35.5,467.2c0,1.4-0.1,2.3-1.3,2.3s-1.3-0.9-1.3-2.3c0-1.7,0.2-2.3,1.3-2.3S-35.5,465.5-35.5,467.2z
		 M-37.2,467.2c0,1.4,0,1.7,0.4,1.7s0.4-0.3,0.4-1.7s0-1.7-0.4-1.7S-37.2,465.9-37.2,467.2L-37.2,467.2z"/>
	<path class="st5" d="M-35,470.3c0.2-0.9,0.4-1.9,0.4-2.8c0-1-0.2-1.9-0.4-2.9h0.5c0.4,0.9,0.6,1.9,0.7,2.9c-0.1,1-0.3,1.9-0.7,2.8
		H-35z"/>
	<path class="st5" d="M-33.3,465.7c0.3-0.2,0.6-0.4,0.9-0.7h0.9v4.5h-1v-3.5c-0.2,0.2-0.5,0.4-0.8,0.5L-33.3,465.7z"/>
	<path class="st5" d="M-28.1,466.8L-28.1,466.8c0.2-0.2,0.4-0.3,0.7-0.3c0.8,0,1,0.5,1,1.5c0,1.2-0.5,1.6-1.4,1.6
		c-0.8,0-1.2-0.3-1.2-1.1h0.9c0,0.1,0,0.2,0.1,0.3c0.1,0.1,0.2,0.1,0.3,0.1c0.4,0,0.4-0.3,0.4-0.9c0-0.3,0-0.9-0.4-0.9
		s-0.3,0.3-0.3,0.5H-29V465h2.4v0.7h-1.5L-28.1,466.8z"/>
	<path class="st5" d="M-23.7,465.8l-1.1,3.7h-1l1.2-3.8h-1.5V465h2.4L-23.7,465.8z"/>
	<path class="st5" d="M-21.9,466.1c0-0.3,0.1-0.7,0.3-1c0.3-0.2,0.6-0.3,1-0.2c0.9,0,1.2,0.3,1.2,1.2c0,0.4-0.1,0.9-0.6,1l0,0
		c0.6,0.1,0.7,0.6,0.7,1.1c0,0.9-0.5,1.3-1.4,1.3s-1.3-0.3-1.3-1.3h0.9c0,0.3,0,0.6,0.4,0.6s0.5-0.4,0.5-0.7c0-0.7-0.2-0.7-0.9-0.7
		v-0.7c0.6,0,0.8,0,0.8-0.7c0-0.3,0-0.5-0.4-0.5s-0.4,0.3-0.4,0.5L-21.9,466.1z"/>
	<path class="st5" d="M-19.1,469.5v-0.8c1.4-1.9,1.7-2.1,1.7-2.7c0-0.2-0.1-0.4-0.3-0.4s-0.4,0.4-0.4,0.6H-19
		c-0.1-0.6,0.3-1.2,0.9-1.3c0.1,0,0.2,0,0.3,0c0.8,0,1.3,0.3,1.3,1.2c0,1-1.2,2.2-1.7,2.7h1.7v0.7L-19.1,469.5z"/>
	<path class="st5" d="M-14.7,468.4c0-0.6,0.1-1,0.7-1.2l0,0c-0.5-0.1-0.6-0.5-0.6-1c0-0.8,0.4-1.2,1.3-1.2s1.3,0.4,1.3,1.2
		c0,0.5-0.1,0.9-0.6,1l0,0c0.6,0.2,0.7,0.7,0.7,1.2c0,0.9-0.5,1.2-1.3,1.2S-14.7,469.2-14.7,468.4z M-13.8,468.3
		c0,0.3,0,0.6,0.4,0.6s0.4-0.4,0.4-0.6s0-0.8-0.4-0.8S-13.8,468-13.8,468.3L-13.8,468.3z M-13.8,466.2c0,0.2,0,0.6,0.4,0.6
		s0.4-0.4,0.4-0.6s0-0.6-0.4-0.6S-13.7,465.9-13.8,466.2L-13.8,466.2z"/>
	<path class="st5" d="M-9.3,465.8l-1.1,3.7h-1l1.2-3.8h-1.5V465h2.4L-9.3,465.8z"/>
	<path class="st5" d="M-7.5,468.4c0-0.6,0.1-1,0.7-1.2l0,0c-0.5-0.1-0.6-0.5-0.6-1c0-0.8,0.4-1.2,1.3-1.2s1.3,0.4,1.3,1.2
		c0,0.5-0.1,0.9-0.6,1l0,0c0.6,0.2,0.7,0.7,0.7,1.2c0,0.9-0.5,1.2-1.3,1.2S-7.5,469.2-7.5,468.4z M-6.6,468.3c0,0.3,0,0.6,0.4,0.6
		s0.4-0.4,0.4-0.6s0-0.8-0.4-0.8S-6.6,468-6.6,468.3L-6.6,468.3z M-6.6,466.2c0,0.2,0,0.6,0.4,0.6s0.4-0.4,0.4-0.6s0-0.6-0.4-0.6
		S-6.5,465.9-6.6,466.2L-6.6,466.2z"/>
	<path class="st5" d="M-2.1,465.8l-1.1,3.7h-1l1.2-3.8h-1.6V465h2.4V465.8z"/>
	<path class="st5" d="M-131.7,472.8h1l0.6,3.3l0,0l0.7-3.3h1.2l0.7,3.3l0,0l0.6-3.3h1l-1,4.7h-1.1l-0.7-3.4l0,0l-0.8,3.4h-1.1
		L-131.7,472.8z"/>
	<path class="st5" d="M-124.7,476c0,0.4,0,1,0.4,1s0.4-0.3,0.4-0.6h0.9c0,0.3-0.1,0.6-0.4,0.9c-0.3,0.2-0.6,0.4-1,0.3
		c-1.2,0-1.3-0.7-1.3-1.8s0.1-1.7,1.3-1.7s1.4,0.8,1.3,1.9L-124.7,476z M-123.9,475.5c0-0.3,0-0.8-0.4-0.8s-0.4,0.5-0.4,0.8H-123.9z
		"/>
	<path class="st5" d="M-122.3,472.8h0.9v1.7l0,0c0.2-0.3,0.4-0.4,0.8-0.4c0.9,0,0.9,1,0.9,1.7s0,1.7-0.9,1.7c-0.3,0-0.6-0.1-0.8-0.4
		l0,0v0.4h-0.9L-122.3,472.8z M-120.7,475.8c0-0.7,0-1.1-0.4-1.1s-0.4,0.5-0.4,1.1c0,0.8,0.1,1.2,0.4,1.2S-120.7,476.7-120.7,475.8
		L-120.7,475.8z"/>
	<path class="st5" d="M-116.9,474.2v0.9h-0.8v-0.9H-116.9z M-116.9,477.5h-0.8v-0.9h0.8V477.5z"/>
	<path class="st5" d="M-115.1,474.2h0.9l0.4,2.5l0,0l0.6-2.5h0.9l0.6,2.5l0,0l0.5-2.5h0.9l-0.9,3.3h-1l-0.6-2.2l0,0l-0.7,2.2h-1
		L-115.1,474.2z"/>
	<path class="st5" d="M-110,474.2h0.9l0.4,2.5l0,0l0.6-2.5h0.9l0.6,2.5l0,0l0.5-2.5h0.9l-0.9,3.3h-1l-0.6-2.2l0,0l-0.7,2.2h-1
		L-110,474.2z"/>
	<path class="st5" d="M-104.9,474.2h0.9l0.4,2.5l0,0l0.6-2.5h0.9l0.6,2.5l0,0l0.5-2.5h0.9l-0.9,3.3h-1l-0.6-2.2l0,0l-0.7,2.2h-1
		L-104.9,474.2z"/>
	<path class="st5" d="M-98.8,476.7v0.9h-0.8v-0.9H-98.8z"/>
	<path class="st5" d="M-96.5,475.4c0-0.5-0.1-0.6-0.4-0.6s-0.4,0.3-0.4,1c0,1,0.1,1.2,0.4,1.2s0.4-0.3,0.4-0.7h0.9
		c0,0.9-0.5,1.3-1.3,1.3c-1.2,0-1.3-0.7-1.3-1.8s0.1-1.7,1.3-1.7c0.8,0,1.3,0.4,1.3,1.2L-96.5,475.4z"/>
	<path class="st5" d="M-92.4,476.9c0,0.2,0,0.4,0,0.6h-0.8v-0.4l0,0c-0.2,0.3-0.5,0.5-0.9,0.5c-0.6,0-0.9-0.5-0.9-1
		c0-1.1,0.8-1.1,1.7-1.1v-0.3c0-0.3,0-0.5-0.4-0.5s-0.3,0.2-0.3,0.5h-0.9c0-0.3,0.1-0.6,0.3-0.8c0.3-0.2,0.6-0.2,0.9-0.2
		c1.2,0,1.3,0.5,1.3,1.1L-92.4,476.9z M-94.1,476.5c0,0.2,0,0.5,0.3,0.5c0.5,0,0.5-0.7,0.5-1.1C-93.8,475.9-94.1,475.9-94.1,476.5z"
		/>
	<path class="st5" d="M-90.8,474.2v0.4l0,0c0.1-0.3,0.5-0.5,0.8-0.5v0.8c-0.8,0-0.8,0.4-0.8,0.7v1.8h-0.9v-3.3L-90.8,474.2z"/>
	<path class="st5" d="M-88.6,474.2v0.4l0,0c0.1-0.3,0.5-0.5,0.8-0.5v0.8c-0.8,0-0.8,0.4-0.8,0.7v1.8h-0.9v-3.3L-88.6,474.2z"/>
	<path class="st5" d="M-86.5,476c0,0.4,0,1,0.4,1s0.4-0.3,0.4-0.6h0.9c0,0.3-0.1,0.6-0.3,0.9c-0.3,0.2-0.6,0.4-1,0.3
		c-1.2,0-1.3-0.7-1.3-1.8s0.1-1.7,1.3-1.7s1.4,0.8,1.3,1.9L-86.5,476z M-85.6,475.5c0-0.3,0-0.8-0.4-0.8s-0.4,0.5-0.4,0.8H-85.6z"/>
	<path class="st5" d="M-83.2,474.6L-83.2,474.6c0.1-0.1,0.2-0.2,0.3-0.3c0.1-0.1,0.3-0.1,0.4-0.1c0.4,0,0.8,0.2,0.8,0.7
		c0,0,0,0,0,0.1v2.6h-0.9v-2.3c0-0.3-0.1-0.5-0.3-0.5s-0.3,0.2-0.3,0.5v2.3h-0.9v-3.3h0.9L-83.2,474.6z"/>
	<path class="st5" d="M-80.9,475.8c0-0.9,0.1-1.7,1.3-1.7s1.3,0.8,1.3,1.7s-0.2,1.8-1.3,1.8S-80.9,476.9-80.9,475.8z M-79.1,475.8
		c0-0.7,0-1-0.4-1s-0.4,0.3-0.4,1c0,1,0.1,1.2,0.4,1.2S-79.1,476.8-79.1,475.8z"/>
	<path class="st5" d="M-76.6,472.8v0.7h-0.9v-0.7H-76.6z M-76.6,477.5h-0.9v-3.3h0.9V477.5z"/>
	<path class="st5" d="M-74.9,474.2v0.4l0,0c0.1-0.3,0.5-0.5,0.8-0.5v0.8c-0.8,0-0.8,0.4-0.8,0.7v1.8h-0.9v-3.3L-74.9,474.2z"/>
	<path class="st5" d="M-72.8,476.7v0.9h-0.8v-0.9H-72.8z"/>
	<path class="st5" d="M-70.5,475.4c0-0.5-0.1-0.6-0.4-0.6s-0.4,0.3-0.4,1c0,1,0.1,1.2,0.4,1.2s0.4-0.3,0.4-0.7h0.9
		c0,0.9-0.5,1.3-1.3,1.3c-1.2,0-1.3-0.7-1.3-1.8s0.1-1.7,1.3-1.7c0.8,0,1.3,0.4,1.3,1.2L-70.5,475.4z"/>
	<path class="st5" d="M-69,475.8c0-0.9,0.1-1.7,1.3-1.7s1.3,0.8,1.3,1.7s-0.2,1.8-1.3,1.8S-69,476.9-69,475.8z M-67.2,475.8
		c0-0.7,0-1-0.4-1s-0.4,0.3-0.4,1c0,1,0.1,1.2,0.4,1.2S-67.2,476.8-67.2,475.8z"/>
	<path class="st5" d="M-64.8,474.6L-64.8,474.6c0.2-0.3,0.5-0.4,0.8-0.4c0.3,0,0.6,0.2,0.7,0.4c0.2-0.3,0.5-0.4,0.8-0.4
		c0.4,0,0.8,0.2,0.8,0.7c0,0,0,0,0,0.1v2.6h-0.9v-2.3c0-0.3-0.1-0.5-0.3-0.5s-0.3,0.2-0.3,0.5v2.3h-0.9v-2.3c0-0.3-0.1-0.5-0.3-0.5
		s-0.3,0.2-0.3,0.5v2.3h-0.9v-3.3h0.9V474.6z"/>
	<line class="st4" x1="-91.4" y1="428.4" x2="47.4" y2="428.4"/>
	<line class="st4" x1="-91.4" y1="440.1" x2="47.4" y2="440.1"/>
	<line class="st4" x1="-91.4" y1="451.8" x2="47.4" y2="451.8"/>
	<line class="st4" x1="-136.1" y1="483.4" x2="47.4" y2="483.4"/>
	<path class="st5" d="M-87.1,421.9c0-0.5-0.1-1-0.7-1s-0.8,1-0.8,2.2c0,1.8,0.2,2.2,0.9,2.2c0.2,0,0.4,0,0.6-0.1v-1.3h-0.7V423h1.9
		v3c-0.5,0.1-1.1,0.2-1.7,0.2c-2.1,0-2.3-0.9-2.3-3.1c0-1.5,0.1-3,2.1-3c0.9-0.1,1.8,0.5,1.9,1.4c0,0.2,0,0.3,0,0.5L-87.1,421.9z"/>
	<path class="st5" d="M-84.8,426v-5.9h3.2v0.9h-2v1.4h1.8v0.9h-1.8v1.7h2v0.9L-84.8,426z"/>
	<path class="st5" d="M-80.8,426v-5.9h3v0.9h-1.8v1.5h1.8v0.9h-1.7v2.5L-80.8,426z"/>
	<path class="st5" d="M-77.2,423.1c0-1.5,0-3,2-3c1.3,0,1.8,0.7,1.7,2h-1.2c0-0.8-0.1-1.1-0.5-1.1c-0.7,0-0.8,0.6-0.8,2.1
		s0.1,2.1,0.8,2.1s0.5-0.7,0.6-1.2h1.2c0,1.6-0.6,2.1-1.8,2.1C-77.2,426.1-77.2,424.6-77.2,423.1z"/>
	<path class="st5" d="M-72.7,423.1c0-1.5,0-3,2-3s2,1.5,2,3s0,3-2,3S-72.7,424.6-72.7,423.1z M-69.9,423.1c0-1.5-0.1-2.1-0.8-2.1
		s-0.8,0.6-0.8,2.1s0.1,2.1,0.8,2.1S-69.9,424.6-69.9,423.1z"/>
	<path class="st6" d="M-87.1,432.7c0-0.5-0.1-1-0.7-1s-0.8,1-0.8,2.2c0,1.8,0.2,2.2,0.9,2.2c0.2,0,0.4,0,0.6-0.1v-1.3h-0.7v-0.9h1.9
		v3c-0.5,0.1-1.1,0.2-1.7,0.2c-2.1,0-2.3-0.9-2.3-3.1c0-1.5,0.1-3,2.1-3c0.9-0.1,1.8,0.5,1.9,1.4c0,0.1,0,0.3,0,0.4H-87.1z"/>
	<path class="st6" d="M-84.8,436.8v-5.9h3.2v0.9h-2v1.4h1.8v0.9h-1.8v1.7h2v0.9L-84.8,436.8z"/>
	<path class="st6" d="M-80.8,436.8v-5.9h3v0.9h-1.8v1.5h1.8v0.9h-1.7v2.5L-80.8,436.8z"/>
	<path class="st6" d="M-77.7,437.8v-0.4h4.1v0.4H-77.7z"/>
	<path class="st6" d="M-73.2,432c0.4-0.2,0.8-0.5,1.1-0.9h1.1v5.7h-1.2v-4.4c-0.3,0.2-0.6,0.5-1,0.6L-73.2,432z"/>
	<path class="st6" d="M-66.7,432.2l-1.4,4.6h-1.3l1.6-4.8h-1.9v-0.9h3L-66.7,432.2z"/>
	<path class="st6" d="M-66.4,437.8v-0.4h4v0.4H-66.4z"/>
	<path class="st6" d="M-62,432c0.4-0.2,0.8-0.5,1.1-0.9h1.1v5.7H-61v-4.4c-0.3,0.2-0.6,0.5-1,0.6L-62,432z"/>
	<path class="st6" d="M-58.4,432c0.4-0.2,0.8-0.5,1.1-0.9h1.1v5.7h-1.2v-4.4c-0.3,0.2-0.6,0.5-1,0.6L-58.4,432z"/>
	<path class="st6" d="M-53,432.4c0-0.1,0-0.2-0.1-0.4c-0.1-0.1-0.2-0.2-0.3-0.1c-0.5,0-0.5,0.3-0.5,1.7c0.2-0.3,0.6-0.4,0.9-0.4
		c1,0,1.3,0.9,1.3,1.8c0,1.2-0.4,1.9-1.7,1.9c-1.5,0-1.6-1.3-1.6-2.4c0-2.3,0.1-3.4,1.7-3.4c0.9,0,1.5,0.4,1.5,1.3L-53,432.4z
		 M-52.9,434.9c0-0.7-0.1-1-0.5-1s-0.5,0.4-0.5,1.1c0,0.3,0,1,0.5,1S-52.9,435.8-52.9,434.9L-52.9,434.9z"/>
	<path class="st6" d="M-51.5,436.8v-1c1.8-2.4,2.2-2.6,2.2-3.4c0-0.3-0.1-0.5-0.4-0.5s-0.5,0.5-0.5,0.8h-1.1
		c-0.1-0.8,0.3-1.5,1.1-1.6c0.2,0,0.3,0,0.5,0c1,0,1.7,0.4,1.7,1.5c0,1.3-1.5,2.7-2.1,3.4h2.2v0.9H-51.5z"/>
	<path class="st6" d="M-44.5,433.9c0,1.8-0.1,2.9-1.6,2.9s-1.6-1.2-1.6-2.9c0-2.2,0.2-2.9,1.6-2.9S-44.5,431.8-44.5,433.9z
		 M-46.7,433.9c0,1.7,0,2.1,0.5,2.1s0.5-0.4,0.5-2.1s0-2.1-0.5-2.1S-46.7,432.2-46.7,433.9L-46.7,433.9z"/>
	<path class="st5" d="M-44.4,437.8v-0.4h4v0.4H-44.4z"/>
	<path class="st5" d="M-39.8,436.8v-5.9h1.2v4.9h1.8v1L-39.8,436.8z"/>
	<path class="st5" d="M-36.4,434.7c0-1.1,0.2-2.1,1.7-2.1s1.7,1,1.7,2.1c0,1.3-0.2,2.2-1.7,2.2S-36.4,436-36.4,434.7z M-34.2,434.6
		c0-0.9,0-1.3-0.5-1.3s-0.5,0.4-0.5,1.3c0,1.3,0.1,1.5,0.5,1.5S-34.2,435.9-34.2,434.6L-34.2,434.6z"/>
	<path class="st5" d="M-29.1,432.7v4.3c0,0.3,0,1.4-1.6,1.4c-0.8,0-1.6-0.2-1.6-1.2h1.1c0,0.1,0,0.3,0.1,0.4
		c0.1,0.1,0.2,0.2,0.4,0.2c0.3,0,0.4-0.3,0.4-0.7v-0.8l0,0c-0.2,0.3-0.5,0.5-0.9,0.5c-1.3,0-1.2-1.1-1.2-2.1s0-2,1.2-2
		c0.4,0,0.8,0.2,0.9,0.6l0,0v-0.5H-29.1z M-30.7,436c0.4,0,0.5-0.4,0.5-1.3s0-1.4-0.5-1.4s-0.5,0.3-0.5,1.5
		C-31.2,435.3-31.3,436-30.7,436z"/>
	<path class="st5" d="M-28.3,434.7c0-1.1,0.2-2.1,1.7-2.1s1.7,1,1.7,2.1c0,1.3-0.2,2.2-1.7,2.2S-28.3,436-28.3,434.7z M-26.1,434.6
		c0-0.9,0-1.3-0.5-1.3s-0.5,0.4-0.5,1.3c0,1.3,0.1,1.5,0.5,1.5S-26.1,435.9-26.1,434.6L-26.1,434.6z"/>
	<path class="st5" d="M-24.6,437.8v-0.4h4v0.4H-24.6z"/>
	<path class="st5" d="M-18.4,436.9c-1.5,0-1.8-0.9-1.7-1.9h1.2c0,0.6,0,1,0.7,1c0.3,0,0.6-0.2,0.6-0.5c0,0,0-0.1,0-0.1
		c0-1-2.5-1.1-2.5-2.9c0-0.9,0.4-1.6,1.9-1.6c1.2,0,1.8,0.5,1.7,1.8h-1.2c0-0.4-0.1-0.9-0.6-0.9c-0.3,0-0.6,0.2-0.6,0.5
		c0,0,0,0.1,0,0.1c0,1.1,2.5,1,2.5,2.9C-16.4,436.7-17.5,436.9-18.4,436.9z"/>
	<path class="st5" d="M-14.3,430.9v0.9h-1.1v-0.9H-14.3z M-14.3,436.8h-1.1v-4.1h1.1V436.8z"/>
	<path class="st5" d="M-10.2,432.7v4.3c0,0.3,0,1.4-1.6,1.4c-0.9,0-1.6-0.2-1.6-1.2h1.1c0,0.1,0,0.3,0.1,0.4
		c0.1,0.1,0.2,0.1,0.3,0.1c0.3,0,0.4-0.3,0.4-0.7v-0.8l0,0c-0.2,0.3-0.5,0.5-0.9,0.5c-1.3,0-1.2-1.1-1.2-2.1s0-2,1.2-2
		c0.4,0,0.8,0.2,0.9,0.6l0,0v-0.5H-10.2z M-11.8,436c0.4,0,0.5-0.4,0.5-1.3s0-1.4-0.5-1.4s-0.5,0.3-0.5,1.5
		C-12.3,435.3-12.4,436-11.8,436z"/>
	<path class="st5" d="M-8.1,433.1L-8.1,433.1c0.1-0.2,0.2-0.3,0.4-0.4c0.2-0.1,0.4-0.1,0.6-0.1c0.5,0,1,0.3,1,0.9c0,0,0,0,0,0v3.3
		h-1.1V434c0-0.4-0.1-0.6-0.4-0.6s-0.4,0.3-0.4,0.6v2.8h-1.1v-4.1h1.1L-8.1,433.1z"/>
	<path class="st5" d="M-5.6,430.9h1.3l0.9,4.3l0,0l1-4.3h1.2l-1.6,5.9h-1.4L-5.6,430.9z"/>
	<path class="st5" d="M0.3,434.9c0,0.5,0,1.2,0.5,1.2s0.5-0.4,0.5-0.7h1.2c0,0.4-0.2,0.8-0.4,1.1c-0.3,0.3-0.8,0.4-1.2,0.4
		c-1.5,0-1.7-0.9-1.7-2.2c0-1.1,0.2-2.1,1.7-2.1s1.7,1,1.7,2.3L0.3,434.9z M1.3,434.3c0-0.4,0-1-0.5-1s-0.5,0.6-0.5,1H1.3z"/>
	<path class="st5" d="M4.4,432.7v0.5l0,0c0.2-0.4,0.6-0.7,1.1-0.6v1c-1-0.1-1,0.5-1,0.9v2.2H3.3v-4.1H4.4z"/>
	<path class="st5" d="M5.6,432.7H6v-0.6l1.1-0.5v1.2h0.6v0.7H7.2v2.2c0,0.3,0,0.5,0.4,0.5c0.1,0,0.1,0,0.2,0v0.7c-0.2,0-0.4,0-0.6,0
		c-1,0-1.1-0.7-1.1-0.9v-2.5H5.6L5.6,432.7z"/>
	<path class="st5" d="M9.5,430.9v0.9H8.4v-0.9H9.5z M9.5,436.8H8.4v-4.1h1.1V436.8z"/>
	<path class="st5" d="M10.6,436.8v-5.9h2.2c0.9,0,1.7,0.3,1.7,1.5c0.1,0.6-0.4,1.2-1,1.3l0,0c0.9,0.1,1.1,0.7,1.1,1.5
		c0,1.5-1.3,1.5-1.8,1.5L10.6,436.8z M11.8,433.3h0.8c0.4,0,0.7-0.3,0.6-0.7c0,0,0-0.1,0-0.1c0-0.4-0.3-0.7-0.6-0.7c0,0,0,0-0.1,0
		h-0.8V433.3z M11.8,435.9h0.7c0.4,0.1,0.8-0.2,0.8-0.6c0-0.1,0-0.2,0-0.2c0-0.5-0.2-0.8-0.8-0.8h-0.7V435.9z"/>
	<path class="st5" d="M16.7,430.9v5.9h-1.2v-5.9H16.7z"/>
	<path class="st5" d="M18.8,434.9c0,0.5,0,1.2,0.5,1.2s0.5-0.4,0.5-0.7h1.2c0,0.4-0.2,0.8-0.4,1.1c-0.3,0.3-0.8,0.4-1.2,0.4
		c-1.5,0-1.7-0.9-1.7-2.2c0-1.1,0.2-2.1,1.7-2.1s1.7,1,1.7,2.3L18.8,434.9z M19.8,434.3c0-0.4,0-1-0.5-1c-0.5,0-0.5,0.6-0.5,1H19.8z
		"/>
	<path class="st5" d="M23.8,436.4L23.8,436.4c-0.2,0.4-0.6,0.5-1,0.5c-0.5,0-1-0.3-1-0.9c0,0,0,0,0,0v-3.3h1.1v2.8
		c0,0.4,0.1,0.6,0.4,0.6c0.4,0,0.4-0.3,0.4-0.6v-2.8h1.1v3.3c0,0.3,0,0.5,0,0.8h-1.1V436.4z"/>
	<path class="st5" d="M25.4,437.8v-0.4h4v0.4H25.4z"/>
	<path class="st5" d="M31.1,436.8h-1.2v-5.9h2.3c0.8,0,1.4,0.5,1.4,1.5c0.1,0.7-0.4,1.3-1.1,1.4c0,0,0,0,0,0l0,0
		c0.6,0,1,0.4,1.1,0.9c0,0.1,0,0.2,0,0.2c0,0.6,0,1.2,0.1,1.7h-1.2c-0.1-0.4-0.2-0.7-0.1-1.1c0-0.7,0.1-1.3-0.9-1.3h-0.3L31.1,436.8
		z M31.1,433.5h0.5c0.5,0,0.6-0.5,0.6-0.9c0-0.6-0.2-0.8-0.6-0.8h-0.5V433.5z"/>
	<path class="st5" d="M34,430.9h1.2l0.9,4.3l0,0l1-4.3h1.3l-1.5,5.9h-1.4L34,430.9z"/>
	<path class="st5" d="M39,436.8v-5.9h2.2c0.9,0,1.7,0.3,1.7,1.5c0.1,0.6-0.4,1.2-1,1.3l0,0c0.9,0.1,1.1,0.7,1.1,1.5
		c0,1.5-1.3,1.5-1.8,1.5L39,436.8z M40.2,433.3H41c0.4,0,0.7-0.3,0.6-0.7c0,0,0-0.1,0-0.1c0-0.4-0.3-0.7-0.6-0.7c0,0,0,0-0.1,0h-0.8
		V433.3z M40.2,435.9h0.7c0.4,0.1,0.8-0.2,0.8-0.6c0-0.1,0-0.2,0-0.2c0-0.5-0.2-0.8-0.8-0.8h-0.7V435.9z"/>
	<path class="st6" d="M-89.8,443.7c0.4-0.2,0.8-0.5,1.1-0.9h1.1v5.7h-1.2v-4.4c-0.3,0.2-0.6,0.5-1,0.6L-89.8,443.7z"/>
	<path class="st6" d="M-84.5,444.1c0-0.1,0-0.3-0.1-0.4c-0.1-0.1-0.2-0.2-0.3-0.1c-0.5,0-0.5,0.3-0.5,1.7c0.2-0.3,0.6-0.4,0.9-0.4
		c1.1,0,1.3,0.9,1.3,1.8c0,1.2-0.4,1.9-1.7,1.9c-1.5,0-1.6-1.3-1.6-2.4c0-2.3,0.1-3.4,1.7-3.4c0.9,0,1.5,0.4,1.5,1.3L-84.5,444.1z
		 M-84.4,446.6c0-0.7-0.1-1-0.5-1s-0.5,0.4-0.5,1.1c0,0.3,0,1,0.5,1S-84.4,447.5-84.4,446.6L-84.4,446.6z"/>
	<path class="st6" d="M-83.3,449.3l1.9-6.6h0.8l-1.9,6.6H-83.3z"/>
	<path class="st6" d="M-80.4,443.7c0.4-0.2,0.8-0.5,1.1-0.9h1.1v5.7h-1.2v-4.4c-0.3,0.2-0.6,0.5-1,0.6L-80.4,443.7z"/>
	<path class="st6" d="M-73.8,445.6c0,1.8-0.1,2.9-1.6,2.9s-1.6-1.1-1.6-2.9c0-2.2,0.2-2.9,1.6-2.9S-73.8,443.5-73.8,445.6z
		 M-75.9,445.6c0,1.7,0,2.1,0.5,2.1s0.5-0.4,0.5-2.1s0-2.1-0.5-2.1S-75.9,443.9-75.9,445.6L-75.9,445.6z"/>
	<path class="st6" d="M-73.9,449.3l1.9-6.6h0.8l-1.9,6.6H-73.9z"/>
	<path class="st6" d="M-71.3,448.5v-1c1.8-2.4,2.2-2.6,2.2-3.4c0-0.3-0.1-0.5-0.4-0.5s-0.5,0.5-0.5,0.8h-1.1
		c-0.1-0.8,0.3-1.5,1.1-1.6c0.2,0,0.3,0,0.5,0c1,0,1.7,0.4,1.7,1.5c0,1.3-1.5,2.7-2.1,3.4h2.2v0.9H-71.3z"/>
	<path class="st6" d="M-64.3,445.6c0,1.8-0.1,2.9-1.6,2.9s-1.6-1.1-1.6-2.9c0-2.2,0.2-2.9,1.6-2.9S-64.3,443.5-64.3,445.6z
		 M-66.5,445.6c0,1.7,0,2.1,0.5,2.1s0.5-0.4,0.5-2.1s0-2.1-0.5-2.1S-66.5,443.9-66.5,445.6L-66.5,445.6z"/>
	<path class="st6" d="M-63.8,443.7c0.4-0.2,0.8-0.5,1.1-0.9h1.1v5.7h-1.2v-4.4c-0.3,0.2-0.6,0.5-1,0.6V443.7z"/>
	<path class="st6" d="M-57.3,443.9l-1.4,4.6h-1.3l1.6-4.8h-1.9v-0.9h3L-57.3,443.9z"/>
	<path class="st4" d="M-132.4,465.3"/>
	<line class="st7" x1="47.4" y1="411.5" x2="47.4" y2="553.6"/>
	<line class="st4" x1="47.4" y1="411.5" x2="47.4" y2="553.6"/>
	<path d="M53.7,422.9v-6h3v0.6h-2.3v2h2.2v0.6h-2.2v2.2h2.3v0.6L53.7,422.9z M54.8,416.3l0.7-1.1h0.9l-1,1.1L54.8,416.3z"/>
	<path d="M61.2,422.1l0.7,0.6l-0.3,0.4l-0.7-0.6c-0.8,0.7-2,0.6-2.7-0.2c0,0,0,0,0-0.1c-0.4-0.8-0.5-1.7-0.5-2.6
		c-0.1-0.8,0.1-1.6,0.5-2.3c0.4-0.5,0.9-0.7,1.5-0.7c0.6,0,1.1,0.2,1.5,0.7c0.4,0.7,0.6,1.5,0.5,2.3
		C61.7,420.6,61.5,421.4,61.2,422.1z M60.1,421.3l0.6,0.5c0.1-0.2,0.2-0.5,0.2-0.8c0-0.4,0.1-0.9,0.1-1.3c0-0.6-0.1-1.2-0.3-1.8
		c-0.2-0.4-0.6-0.6-1-0.5c-0.4,0-0.8,0.2-1,0.5c-0.2,0.6-0.3,1.2-0.3,1.9c0,0.7,0,1.5,0.3,2.1c0.2,0.4,0.6,0.6,1,0.6
		c0.2,0,0.5-0.1,0.7-0.2l-0.6-0.5L60.1,421.3z"/>
	<path d="M62.9,416.9h0.7v4.3c0,0.8,0.4,1.2,1.1,1.2c0.8,0,1.1-0.4,1.1-1.2v-4.4h0.7v4.6c0,0.4-0.1,0.9-0.5,1.2
		c-0.8,0.5-1.9,0.5-2.7,0c-0.3-0.3-0.5-0.7-0.5-1.2V416.9z"/>
	<path d="M68.2,416.9h0.7v6h-0.7V416.9z"/>
	<path d="M72,422.4l1.4-5.5h0.7l-1.8,6h-0.8l-1.8-6h0.7L72,422.4z"/>
	<path d="M74.4,422.9l1.7-6H77l1.7,6h-0.7l-0.5-1.7h-1.9l-0.4,1.7H74.4z M75.8,420.5h1.6l-0.8-3.2L75.8,420.5z"/>
	<path d="M79.6,416.9h0.7v5.4h2.4v0.6h-3.1L79.6,416.9z"/>
	<path d="M83.7,422.9v-6h3v0.6h-2.3v2h2.2v0.6h-2.2v2.2h2.3v0.6L83.7,422.9z"/>
	<path d="M87.9,416.9H89l1.9,5.4v-5.4h0.7v6h-1.1l-1.9-5.5v5.5h-0.7V416.9z"/>
	<path d="M95.7,420.7h0.7l-0.1,0.7c0,0.4-0.2,0.8-0.5,1.2c-0.7,0.7-1.9,0.6-2.5-0.2c0,0-0.1-0.1-0.1-0.1c-0.3-0.6-0.5-1.4-0.4-2.1
		v-0.4c-0.1-0.8,0.1-1.6,0.5-2.3c0.3-0.5,0.8-0.8,1.4-0.8c0.5,0,0.9,0.2,1.3,0.5c0.3,0.3,0.5,0.8,0.5,1.3v0.2h-0.7
		c0-0.9-0.4-1.3-1.1-1.3c-0.4,0-0.7,0.2-0.9,0.5c-0.3,0.7-0.4,1.5-0.3,2.2c0,0.6,0.1,1.2,0.3,1.8c0.1,0.4,0.5,0.6,0.9,0.6
		c0.6,0,0.9-0.4,1-1.3L95.7,420.7z"/>
	<path d="M97.5,422.9v-6h3v0.6h-2.3v2h2.2v0.6h-2.2v2.2h2.3v0.6L97.5,422.9z"/>
	<path d="M107.7,422.9h-0.8c-0.1-0.2-0.1-0.5-0.2-0.7c0-0.2,0-0.4,0-0.7c0-0.3-0.1-0.7-0.3-0.9c-0.2-0.2-0.5-0.3-0.8-0.3h-1.2v2.6
		h-0.7v-6h1.6c0.6-0.1,1.1,0.1,1.6,0.4c0.3,0.3,0.4,0.7,0.4,1.2c-0.5-0.3-1-0.1-1.3,0.4c-0.3,0.5-0.1,1,0.4,1.3
		c0.2,0.1,0.4,0.1,0.6,0.1c0.2,0.2,0.2,0.5,0.2,0.8c0,0.3,0,0.7,0.1,1.3c0,0.3,0.1,0.4,0.2,0.4L107.7,422.9z M106.7,418.5
		c0-0.7-0.4-1.1-1.3-1.1h-0.9v2.2h1C106.4,419.6,106.8,419.3,106.7,418.5L106.7,418.5z"/>
	<path d="M110.5,422.4l1.4-5.5h0.7l-1.8,6h-0.8l-1.8-6h0.7L110.5,422.4z"/>
	<path d="M113.5,422.9v-6h1.6c0.8-0.1,1.5,0.4,1.6,1.2c0,0.1,0,0.2,0,0.4c0,0.3-0.1,0.6-0.2,0.8c-0.2,0.2-0.4,0.3-0.7,0.4
		c0.7,0.1,1.1,0.6,1.1,1.4c0.1,0.9-0.5,1.6-1.3,1.8c-0.1,0-0.3,0-0.4,0L113.5,422.9z M114.2,419.4h0.7c0.3,0,0.6,0,0.9-0.2
		c0.2-0.2,0.3-0.5,0.3-0.8c0-0.3-0.1-0.6-0.3-0.8c-0.3-0.2-0.6-0.2-0.9-0.2h-0.8L114.2,419.4z M114.2,422.2h1c0.3,0,0.6-0.1,0.8-0.3
		c0.2-0.3,0.3-0.6,0.2-0.9c0-0.3-0.1-0.6-0.3-0.9c-0.3-0.2-0.6-0.3-0.9-0.3h-0.8L114.2,422.2z"/>
	<path d="M119.6,423.1l1.9-6.2h0.5l-1.9,6.2H119.6z"/>
	<path d="M124.8,416.9h0.7v2.5h2.3v-2.5h0.7v6h-0.7v-2.9h-2.3v2.9h-0.7V416.9z"/>
	<path d="M129.4,416.9h3.8v0.6h-1.6v5.4H131v-5.4h-1.6V416.9z"/>
	<path d="M134,416.9h1.1l1.4,5.3l1.3-5.3h1.2v6h-0.7v-5.6l-1.5,5.6h-0.7l-1.5-5.6v5.6h-0.7L134,416.9z"/>
	<path d="M140.5,416.9h0.7v5.4h2.4v0.6h-3.1V416.9z"/>
	<path d="M57.6,533.8h-0.8c-0.1-0.2-0.1-0.5-0.2-0.7c0-0.2,0-0.4,0-0.7c0-0.3-0.1-0.7-0.3-0.9c-0.2-0.2-0.5-0.3-0.8-0.3h-1.2v2.6
		h-0.7v-6h1.6c0.6-0.1,1.1,0.1,1.5,0.4c0.3,0.3,0.4,0.7,0.4,1.2c-0.5-0.3-1-0.1-1.3,0.4c-0.3,0.5-0.1,1,0.4,1.3
		c0.2,0.1,0.4,0.1,0.6,0.1c0.2,0.2,0.2,0.5,0.2,0.8c0,0.3,0,0.7,0.1,1.3c0,0.3,0.1,0.4,0.2,0.4L57.6,533.8z M56.6,529.4
		c0-0.7-0.4-1.1-1.3-1.1h-0.9v2.2h1C56.2,530.5,56.6,530.2,56.6,529.4L56.6,529.4z"/>
	<path d="M58.5,530.7h3.3v0.6h-3.3V530.7z M58.5,532.2h3.3v0.6h-3.3V532.2z"/>
	<path d="M62.7,531v-0.4c0-0.7,0.1-1.5,0.4-2.1c0.2-0.4,0.7-0.7,1.2-0.7h0.1c0.5,0,0.9,0.2,1.2,0.6c0.3,0.6,0.5,1.3,0.4,2v0.7
		c0.1,0.7-0.1,1.5-0.4,2.1c-0.3,0.4-0.7,0.7-1.2,0.7c-0.5,0-1-0.2-1.2-0.6c-0.3-0.6-0.4-1.2-0.4-1.9L62.7,531z M63.4,530.3v1
		c0,0.5,0,1.1,0.2,1.6c0.1,0.3,0.4,0.4,0.7,0.4c0.3,0,0.6-0.2,0.7-0.5c0.2-0.5,0.2-1,0.2-1.6v-0.9c0-0.5-0.1-1-0.2-1.4
		c-0.1-0.3-0.4-0.5-0.7-0.5c-0.3,0-0.6,0.2-0.7,0.5C63.4,529.3,63.3,529.8,63.4,530.3L63.4,530.3z"/>
	<path d="M70.8,533.3l1.4-5.5H73l-1.8,6h-0.8l-1.8-6h0.7L70.8,533.3z"/>
	<path d="M73.6,530.7h3.3v0.6h-3.3V530.7z M73.6,532.2h3.3v0.6h-3.3V532.2z"/>
	<path d="M78.9,530.5c-0.7-0.1-1-0.6-1-1.3c0-0.4,0.1-0.8,0.4-1c0.3-0.3,0.7-0.4,1.1-0.4c0.4,0,0.7,0.1,1,0.4
		c0.2,0.3,0.4,0.7,0.3,1.1c0.1,0.6-0.3,1.2-0.9,1.3c0.3,0,0.6,0.2,0.8,0.5c0.2,0.3,0.3,0.6,0.3,1c0,0.5-0.1,1-0.4,1.4
		c-0.3,0.3-0.7,0.5-1.1,0.5c-1.1,0-1.7-0.6-1.7-1.8c0-0.4,0.1-0.7,0.3-1C78.2,530.8,78.6,530.6,78.9,530.5z M78.4,532
		c0,0.8,0.3,1.3,1,1.3c0.3,0,0.5-0.1,0.7-0.3c0.2-0.3,0.2-0.6,0.2-0.9c0-0.8-0.3-1.2-0.9-1.2c-0.3,0-0.5,0.1-0.7,0.3
		C78.5,531.4,78.4,531.7,78.4,532z M78.6,529.3c0,0.7,0.3,1,0.8,1c0.5,0,0.8-0.3,0.7-1c0-0.6-0.2-0.9-0.7-0.9S78.7,528.7,78.6,529.3
		L78.6,529.3z"/>
	<path d="M82.5,532c0,0.1,0,0.1,0,0.2c0,0.7,0.3,1.1,1,1.1c0.3,0,0.5-0.1,0.7-0.3c0.2-0.2,0.3-0.5,0.3-0.8c0-0.3-0.1-0.7-0.3-0.9
		c-0.3-0.2-0.8-0.3-1.2-0.3v-0.6c0.3,0,0.7,0,1-0.2c0.2-0.2,0.3-0.5,0.3-0.8c0-0.7-0.3-1-0.8-1c-0.3,0-0.5,0.1-0.7,0.3
		c-0.1,0.3-0.2,0.6-0.2,0.9H82v-0.2c0-0.4,0.1-0.8,0.4-1.1c0.3-0.3,0.7-0.4,1.1-0.4c0.4,0,0.8,0.1,1.1,0.4c0.3,0.3,0.4,0.7,0.4,1.1
		c0.1,0.6-0.3,1.2-0.9,1.3c0.3,0,0.6,0.2,0.8,0.5c0.2,0.3,0.3,0.6,0.3,0.9c0,1.2-0.6,1.9-1.7,1.9s-1.7-0.6-1.6-1.9L82.5,532z"/>
	<path d="M88.5,533.8v-6h1.7c0.8-0.1,1.5,0.4,1.6,1.2c0,0.1,0,0.2,0,0.4c0,0.3-0.1,0.6-0.2,0.8c-0.2,0.2-0.4,0.3-0.7,0.4
		c0.7,0.1,1.1,0.6,1.1,1.4c0.1,0.9-0.5,1.6-1.3,1.8c-0.1,0-0.3,0-0.4,0L88.5,533.8z M89.2,530.3h0.7c0.3,0,0.6,0,0.9-0.2
		c0.2-0.2,0.3-0.5,0.3-0.8c0-0.3-0.1-0.6-0.3-0.8c-0.3-0.2-0.6-0.2-0.9-0.2h-0.7L89.2,530.3z M89.2,533.2h1c0.3,0,0.6-0.1,0.8-0.3
		c0.2-0.3,0.3-0.6,0.2-0.9c0-0.3-0.1-0.6-0.3-0.9c-0.3-0.2-0.6-0.3-0.9-0.3h-0.8L89.2,533.2z"/>
	<path d="M92.9,530.7h3.3v0.6h-3.3V530.7z M92.9,532.2h3.3v0.6h-3.3V532.2z"/>
	<path d="M97.3,528.9c0.4,0,0.7-0.1,1-0.3c0.2-0.2,0.3-0.5,0.4-0.9h0.6v6h-0.7v-4.4h-1.3V528.9z"/>
	<path d="M101.8,532c0,0.1,0,0.1,0,0.2c0,0.7,0.3,1.1,1,1.1c0.3,0,0.5-0.1,0.7-0.3c0.2-0.2,0.3-0.5,0.3-0.8c0-0.3-0.1-0.7-0.3-0.9
		c-0.3-0.2-0.8-0.3-1.2-0.3v-0.6c0.3,0,0.7,0,1-0.2c0.2-0.2,0.3-0.5,0.3-0.8c0-0.7-0.3-1-0.8-1c-0.3,0-0.5,0.1-0.7,0.3
		c-0.1,0.3-0.2,0.6-0.2,0.9h-0.7v-0.2c0-0.4,0.1-0.8,0.4-1.1c0.3-0.3,0.7-0.4,1.1-0.4c0.4,0,0.8,0.1,1.1,0.4
		c0.3,0.3,0.4,0.7,0.4,1.1c0.1,0.6-0.3,1.2-0.9,1.3c0.3,0,0.6,0.2,0.8,0.5c0.2,0.3,0.3,0.6,0.3,0.9c0,1.2-0.6,1.9-1.7,1.9
		s-1.7-0.6-1.6-1.9L101.8,532z"/>
	<path d="M105.4,532.5h0.7c0,0.6,0.3,0.8,0.8,0.8c0.3,0,0.6-0.2,0.8-0.5c0.2-0.6,0.3-1.2,0.3-1.8c-0.2,0.5-0.6,0.8-1.1,0.8
		c-0.4,0-0.9-0.2-1.2-0.5c-0.3-0.4-0.4-0.8-0.4-1.3c0-0.5,0.1-1.1,0.4-1.5c0.3-0.4,0.7-0.6,1.2-0.6c0.5,0,1,0.2,1.3,0.6
		c0.3,0.7,0.5,1.4,0.4,2.1c0.1,0.9-0.1,1.8-0.4,2.6c-0.3,0.5-0.8,0.8-1.4,0.8c-0.4,0-0.7-0.1-1-0.4
		C105.6,533.2,105.4,532.8,105.4,532.5z M106,529.8c0,0.4,0.1,0.7,0.3,1c0.2,0.2,0.4,0.3,0.7,0.3c0.6,0,1-0.4,0.9-1.3
		c0-0.9-0.3-1.3-1-1.4C106.3,528.4,106,528.9,106,529.8z"/>
	<path d="M111.2,534l1.9-6.2h0.5l-1.9,6.2H111.2z"/>
	<path d="M115.9,531.7l0.1-0.5h0.9l0.3-1h-0.9l0.1-0.5h0.9l0.6-2h0.4l-0.6,2h0.7l0.6-2h0.4l-0.6,2h0.9l-0.1,0.5h-0.9l-0.3,1h0.9
		l-0.1,0.5h-0.9l-0.6,2h-0.5l0.6-2h-0.6l-0.7,2h-0.4l0.6-2H115.9z M117.3,531.2h0.7l0.3-1h-0.7L117.3,531.2z"/>
	<path d="M120.4,531v-0.4c0-0.7,0.1-1.5,0.4-2.1c0.2-0.4,0.7-0.7,1.2-0.7h0.1c0.5,0,0.9,0.2,1.2,0.6c0.3,0.6,0.5,1.3,0.4,2v0.7
		c0.1,0.7-0.1,1.5-0.4,2.1c-0.3,0.4-0.7,0.7-1.2,0.7c-0.5,0-1-0.2-1.2-0.6c-0.3-0.6-0.4-1.2-0.4-1.9L120.4,531z M121,530.3v1
		c0,0.5,0,1.1,0.2,1.6c0.1,0.3,0.4,0.4,0.7,0.4c0.3,0,0.6-0.2,0.7-0.5c0.2-0.5,0.2-1,0.2-1.6v-0.9c0-0.5-0.1-1-0.2-1.4
		c-0.1-0.3-0.4-0.5-0.7-0.5c-0.3,0-0.6,0.2-0.7,0.5C121.1,529.3,121,529.8,121,530.3L121,530.3z"/>
	<path d="M124.5,531v-0.4c0-0.7,0.1-1.5,0.4-2.1c0.2-0.4,0.7-0.7,1.2-0.7h0.1c0.5,0,0.9,0.2,1.2,0.6c0.3,0.6,0.5,1.3,0.4,2v0.7
		c0.1,0.7-0.1,1.5-0.4,2.1c-0.3,0.4-0.7,0.7-1.2,0.7c-0.5,0-1-0.2-1.2-0.6c-0.3-0.6-0.4-1.2-0.4-1.9L124.5,531z M125.2,530.3v1
		c0,0.5,0,1.1,0.2,1.6c0.1,0.3,0.4,0.4,0.7,0.4c0.3,0,0.6-0.2,0.7-0.5c0.2-0.5,0.2-1,0.2-1.6v-0.9c0-0.5-0.1-1-0.2-1.4
		c-0.1-0.3-0.4-0.5-0.7-0.5c-0.3,0-0.6,0.2-0.7,0.5C125.3,529.3,125.2,529.8,125.2,530.3L125.2,530.3z"/>
	<path d="M129.3,532.2v0.2c0,0.2,0.1,0.4,0.2,0.6c0.2,0.2,0.4,0.3,0.7,0.3c0.3,0,0.6-0.1,0.7-0.4c0.2-0.3,0.2-0.7,0.2-1.1
		c0-0.9-0.3-1.4-1-1.4c-0.4,0-0.7,0.2-0.8,0.5h-0.6l0.4-3h2.5v0.6h-2l-0.3,1.8c0.2-0.3,0.6-0.5,1-0.5c0.4,0,0.9,0.2,1.1,0.5
		c0.3,0.4,0.4,0.9,0.4,1.4c0,0.6-0.1,1.1-0.4,1.6c-0.3,0.4-0.7,0.6-1.2,0.6c-0.4,0-0.9-0.1-1.2-0.4c-0.3-0.3-0.4-0.6-0.4-1v-0.2
		L129.3,532.2z"/>
	<path d="M133.5,532c0,0.1,0,0.1,0,0.2c0,0.7,0.3,1.1,1,1.1c0.3,0,0.5-0.1,0.7-0.3c0.2-0.2,0.3-0.5,0.3-0.8c0-0.3-0.1-0.7-0.3-0.9
		c-0.3-0.2-0.8-0.3-1.2-0.3v-0.6c0.3,0,0.7,0,1-0.2c0.2-0.2,0.3-0.5,0.3-0.8c0-0.7-0.3-1-0.8-1c-0.3,0-0.5,0.1-0.7,0.3
		c-0.1,0.3-0.2,0.6-0.2,0.9h-0.7v-0.2c0-0.4,0.1-0.8,0.4-1.1c0.3-0.3,0.7-0.4,1.1-0.4c0.4,0,0.8,0.1,1.1,0.4
		c0.3,0.3,0.4,0.7,0.4,1.1c0.1,0.6-0.3,1.2-0.9,1.3c0.3,0,0.6,0.2,0.8,0.5c0.2,0.3,0.3,0.6,0.3,0.9c0,1.2-0.6,1.9-1.7,1.9
		s-1.7-0.6-1.6-1.9L133.5,532z"/>
	<path d="M138.2,530.5c-0.7-0.1-1-0.6-1-1.3c0-0.4,0.1-0.8,0.4-1c0.3-0.3,0.7-0.4,1.1-0.4c0.4,0,0.7,0.1,1,0.4
		c0.2,0.3,0.4,0.7,0.4,1.1c0.1,0.6-0.3,1.2-0.9,1.3c0.3,0,0.6,0.2,0.8,0.5c0.2,0.3,0.3,0.6,0.3,1c0,0.5-0.1,1-0.4,1.4
		c-0.3,0.3-0.7,0.5-1.1,0.5c-1.1,0-1.7-0.6-1.7-1.8c0-0.4,0.1-0.7,0.3-1C137.5,530.8,137.8,530.6,138.2,530.5z M137.7,532
		c0,0.8,0.3,1.3,1,1.3c0.3,0,0.5-0.1,0.7-0.3c0.2-0.3,0.2-0.6,0.2-0.9c0-0.8-0.3-1.2-0.9-1.2c-0.3,0-0.5,0.1-0.7,0.3
		C137.8,531.4,137.7,531.7,137.7,532L137.7,532z M137.9,529.3c0,0.7,0.3,1,0.8,1s0.8-0.3,0.7-1c0-0.6-0.2-0.9-0.7-0.9
		S137.9,528.7,137.9,529.3L137.9,529.3z"/>
	<path d="M141.4,533.8v-6h1.6c0.8-0.1,1.5,0.4,1.6,1.2c0,0.1,0,0.2,0,0.4c0,0.3-0.1,0.6-0.2,0.8c-0.2,0.2-0.4,0.3-0.7,0.4
		c0.7,0.1,1.1,0.6,1.1,1.4c0.1,0.9-0.5,1.6-1.3,1.8c-0.1,0-0.3,0-0.4,0L141.4,533.8z M142.1,530.3h0.7c0.3,0,0.6,0,0.9-0.2
		c0.2-0.2,0.3-0.5,0.3-0.8c0-0.3-0.1-0.6-0.3-0.8c-0.3-0.2-0.6-0.2-0.9-0.2h-0.7L142.1,530.3z M142.1,533.2h1c0.3,0,0.6-0.1,0.8-0.3
		c0.2-0.3,0.3-0.6,0.2-0.9c0-0.3-0.1-0.6-0.3-0.9c-0.3-0.2-0.6-0.3-0.9-0.3H142L142.1,533.2z"/>
	<line class="st4" x1="47.4" y1="536.6" x2="302.4" y2="536.6"/>
	<circle cx="302.4" cy="536.6" r="1.4"/>
	<path d="M57.6,503.7h-0.8c-0.1-0.2-0.1-0.5-0.2-0.7c0-0.2,0-0.4,0-0.7c0-0.3-0.1-0.7-0.3-0.9c-0.2-0.2-0.5-0.3-0.8-0.3h-1.2v2.6
		h-0.7v-6h1.6c0.6-0.1,1.1,0.1,1.5,0.4c0.3,0.3,0.4,0.7,0.4,1.2c-0.5-0.3-1-0.1-1.3,0.4s-0.1,1,0.4,1.3c0.2,0.1,0.4,0.1,0.6,0.1
		c0.2,0.2,0.2,0.5,0.2,0.8c0,0.3,0,0.7,0.1,1.3c0,0.3,0.1,0.4,0.2,0.4L57.6,503.7z M56.6,499.4c0-0.7-0.4-1.1-1.3-1.1h-0.9v2.2h1
		C56.2,500.5,56.6,500.1,56.6,499.4L56.6,499.4z"/>
	<path d="M58.5,500.7h3.3v0.6h-3.3V500.7z M58.5,502.2h3.3v0.5h-3.3V502.2z"/>
	<path d="M62.8,502.5c0.1-0.3,0.3-0.6,0.6-0.8l1.2-1.2c0.2-0.2,0.3-0.3,0.4-0.5c0.1-0.2,0.1-0.5,0.1-0.7c0-0.7-0.3-1-0.9-1
		c-0.6,0-0.9,0.4-0.9,1.2v0.2h-0.7v-0.4c0-0.4,0.1-0.9,0.4-1.2c0.3-0.3,0.7-0.5,1.2-0.4c0.4,0,0.8,0.1,1.2,0.4
		c0.3,0.3,0.4,0.8,0.4,1.3c0,0.3-0.1,0.7-0.2,1c-0.2,0.3-0.5,0.6-0.8,0.9l-1,0.9c-0.3,0.2-0.4,0.5-0.5,0.9h2.5v0.6h-3.3
		C62.7,503.3,62.7,502.9,62.8,502.5z"/>
	<path d="M67.5,502.1v0.2c0,0.2,0.1,0.4,0.2,0.6c0.2,0.2,0.4,0.3,0.7,0.3c0.3,0,0.6-0.1,0.7-0.4c0.2-0.3,0.2-0.7,0.2-1.1
		c0-0.9-0.3-1.4-1-1.4c-0.4,0-0.7,0.2-0.8,0.5h-0.6l0.4-3h2.5v0.6h-2l-0.3,1.8c0.2-0.3,0.6-0.5,1-0.5c0.4,0,0.9,0.2,1.1,0.5
		c0.3,0.4,0.4,0.9,0.4,1.4c0,0.6-0.1,1.1-0.4,1.6c-0.3,0.4-0.7,0.6-1.2,0.6c-0.4,0-0.9-0.1-1.2-0.4c-0.3-0.3-0.4-0.6-0.4-1v-0.2
		L67.5,502.1z"/>
	<path d="M71.7,502.1v0.2c0,0.2,0.1,0.4,0.2,0.6c0.2,0.2,0.4,0.3,0.7,0.3c0.3,0,0.6-0.1,0.7-0.4c0.2-0.3,0.2-0.7,0.2-1.1
		c0-0.9-0.3-1.4-1-1.4c-0.4,0-0.7,0.2-0.8,0.5H71l0.4-3h2.5v0.6h-2l-0.3,1.8c0.2-0.3,0.6-0.5,1-0.5c0.4,0,0.9,0.2,1.1,0.5
		c0.3,0.4,0.4,0.9,0.4,1.4c0,0.6-0.1,1.1-0.4,1.6c-0.3,0.4-0.7,0.6-1.2,0.6c-0.4,0-0.9-0.1-1.2-0.4c-0.3-0.3-0.4-0.6-0.4-1v-0.2
		L71.7,502.1z"/>
	<path d="M79.2,503.2l1.4-5.5h0.7l-1.8,6h-0.8l-1.8-6h0.7L79.2,503.2z"/>
	<path d="M81.9,500.7h3.3v0.6h-3.3V500.7z M81.9,502.2h3.3v0.5h-3.3V502.2z"/>
	<path d="M86.2,502.5c0.1-0.3,0.3-0.6,0.6-0.8l1.2-1.2c0.2-0.2,0.3-0.3,0.4-0.5c0.1-0.2,0.1-0.5,0.1-0.7c0-0.7-0.3-1-0.9-1
		s-0.9,0.4-0.9,1.2v0.2h-0.7v-0.4c0-0.4,0.1-0.9,0.4-1.2c0.3-0.3,0.7-0.5,1.2-0.5c0.4,0,0.8,0.1,1.2,0.4c0.3,0.3,0.4,0.8,0.4,1.3
		c0,0.3-0.1,0.7-0.2,1c-0.2,0.3-0.5,0.6-0.8,0.9l-1,0.9c-0.3,0.2-0.4,0.5-0.5,0.9h2.6v0.6h-3.3C86.1,503.3,86.1,502.9,86.2,502.5z"
		/>
	<path d="M90.2,500.9v-0.4c0-0.7,0.1-1.5,0.4-2.1c0.2-0.4,0.7-0.7,1.2-0.7h0.1c0.5,0,0.9,0.2,1.2,0.6c0.3,0.6,0.5,1.3,0.4,2v0.7
		c0.1,0.7-0.1,1.5-0.4,2.1c-0.3,0.4-0.7,0.7-1.2,0.7c-0.5,0-1-0.2-1.2-0.6c-0.3-0.6-0.4-1.2-0.4-1.9L90.2,500.9z M90.9,500.3v1
		c0,0.5,0,1.1,0.2,1.6c0.1,0.3,0.4,0.4,0.7,0.4c0.3,0,0.6-0.2,0.7-0.5c0.2-0.5,0.2-1,0.2-1.6v-0.9c0-0.5-0.1-1-0.2-1.4
		c-0.1-0.3-0.4-0.5-0.7-0.5c-0.3,0-0.6,0.2-0.7,0.5C91,499.3,90.9,499.8,90.9,500.3z"/>
	<path d="M95.1,502.1v0.2c0,0.2,0.1,0.4,0.2,0.6c0.2,0.2,0.4,0.3,0.7,0.3c0.3,0,0.6-0.1,0.7-0.4c0.2-0.3,0.3-0.7,0.2-1.1
		c0-0.9-0.3-1.4-1-1.4c-0.4,0-0.7,0.2-0.8,0.5h-0.6l0.4-3h2.5v0.6h-2l-0.3,1.8c0.2-0.3,0.6-0.5,1-0.5c0.4,0,0.9,0.2,1.1,0.5
		c0.3,0.4,0.4,0.9,0.4,1.4c0,0.6-0.1,1.1-0.4,1.6c-0.3,0.4-0.7,0.6-1.2,0.6c-0.4,0-0.9-0.1-1.2-0.4c-0.3-0.3-0.4-0.6-0.4-1v-0.2
		L95.1,502.1z"/>
	<path d="M101,503.7v-6h1.7c0.8-0.1,1.5,0.5,1.5,1.2c0,0.1,0,0.2,0,0.3c0,0.3-0.1,0.6-0.2,0.8c-0.2,0.2-0.4,0.3-0.7,0.4
		c0.7,0.1,1.1,0.6,1.1,1.4c0.1,0.9-0.5,1.6-1.3,1.8c-0.1,0-0.3,0-0.4,0H101z M101.7,500.3h0.7c0.3,0,0.6,0,0.9-0.2
		c0.2-0.2,0.3-0.5,0.3-0.8c0-0.3-0.1-0.6-0.3-0.8c-0.3-0.2-0.6-0.2-0.9-0.2h-0.7L101.7,500.3z M101.7,503.1h1c0.3,0,0.6-0.1,0.8-0.3
		c0.2-0.3,0.3-0.6,0.2-0.9c0-0.3-0.1-0.6-0.3-0.9c-0.3-0.2-0.6-0.3-0.9-0.3h-0.8L101.7,503.1z"/>
	<path d="M105.3,500.7h3.3v0.6h-3.3V500.7z M105.3,502.2h3.3v0.5h-3.3V502.2z"/>
	<path d="M109.5,500.9v-0.4c0-0.7,0.1-1.5,0.4-2.1c0.2-0.4,0.7-0.7,1.2-0.7h0.1c0.5,0,0.9,0.2,1.2,0.6c0.3,0.6,0.5,1.3,0.4,2v0.7
		c0.1,0.7-0.1,1.5-0.4,2.1c-0.3,0.4-0.7,0.7-1.2,0.7c-0.5,0-1-0.2-1.2-0.6c-0.3-0.6-0.4-1.2-0.4-1.9L109.5,500.9z M110.2,500.3v1
		c0,0.5,0,1.1,0.2,1.6c0.1,0.3,0.4,0.4,0.7,0.4c0.3,0,0.6-0.2,0.7-0.5c0.2-0.5,0.2-1,0.2-1.6v-0.9c0-0.5-0.1-1-0.2-1.4
		c-0.1-0.3-0.4-0.5-0.7-0.5c-0.3,0-0.6,0.2-0.7,0.5C110.2,499.3,110.2,499.8,110.2,500.3L110.2,500.3z"/>
	<path d="M115.3,503.9l1.9-6.2h0.5l-1.9,6.2L115.3,503.9z"/>
	<path d="M120,501.7l0.1-0.5h0.9l0.3-1h-0.9l0.1-0.5h0.9l0.6-2h0.4l-0.6,2h0.7l0.6-2h0.4l-0.6,2h0.9l-0.1,0.5h-0.9l-0.3,1h0.9
		l-0.1,0.5h-0.9l-0.6,2h-0.4l0.6-2h-0.7l-0.7,2h-0.4l0.6-2H120z M121.5,501.2h0.7l0.3-1h-0.7L121.5,501.2z"/>
	<path d="M124.7,503.7v-6h2.8v0.6h-2.1v2h2v0.6h-2v2.8H124.7z"/>
	<path d="M128.4,503.7v-6h2.7v0.6h-2.1v2h2v0.6h-2v2.8H128.4z"/>
	<path d="M134.9,501.5h0.7l-0.1,0.7c0,0.4-0.2,0.8-0.5,1.2c-0.7,0.7-1.9,0.6-2.5-0.2c0,0-0.1-0.1-0.1-0.1c-0.3-0.6-0.5-1.4-0.4-2.1
		v-0.4c-0.1-0.8,0.1-1.6,0.5-2.3c0.3-0.5,0.8-0.8,1.4-0.8c0.5,0,0.9,0.2,1.3,0.5c0.3,0.3,0.5,0.8,0.5,1.3v0.2h-0.7
		c0-0.9-0.4-1.3-1.1-1.3c-0.4,0-0.7,0.2-0.9,0.5c-0.3,0.7-0.4,1.5-0.3,2.2c0,0.6,0.1,1.2,0.3,1.8c0.1,0.4,0.5,0.6,0.9,0.6
		c0.6,0,0.9-0.4,1-1.3L134.9,501.5z"/>
	<path d="M136.8,503.7v-6h1.7c0.6,0,1.2,0.2,1.6,0.6c0.4,0.7,0.6,1.5,0.5,2.3c0,0.8-0.1,1.6-0.5,2.3c-0.3,0.5-0.9,0.8-1.5,0.8
		L136.8,503.7z M137.5,503.1h1.1c0.4,0,0.8-0.2,1-0.5c0.3-0.6,0.4-1.3,0.3-1.9c0-0.6-0.1-1.2-0.3-1.8c-0.2-0.4-0.6-0.6-1.1-0.6h-1
		L137.5,503.1z"/>
	<path d="M141.6,500.9v-0.4c0-0.7,0.1-1.5,0.4-2.1c0.2-0.4,0.7-0.7,1.2-0.7h0.1c0.5,0,0.9,0.2,1.1,0.6c0.3,0.6,0.5,1.3,0.4,2v0.7
		c0.1,0.7-0.1,1.5-0.4,2.1c-0.3,0.4-0.7,0.7-1.2,0.7c-0.5,0-1-0.2-1.2-0.6c-0.3-0.6-0.4-1.2-0.4-1.9L141.6,500.9z M142.3,500.3v1
		c0,0.5,0,1.1,0.2,1.6c0.1,0.3,0.4,0.4,0.7,0.4c0.3,0,0.6-0.2,0.7-0.5c0.2-0.5,0.2-1,0.2-1.6v-0.9c0-0.5-0.1-1-0.2-1.4
		c-0.1-0.3-0.4-0.5-0.7-0.5c-0.3,0-0.6,0.2-0.7,0.5C142.3,499.3,142.3,499.8,142.3,500.3z"/>
	<path d="M145.7,500.9v-0.4c0-0.7,0.1-1.5,0.4-2.1c0.2-0.4,0.7-0.7,1.2-0.7h0.1c0.5,0,0.9,0.2,1.1,0.6c0.3,0.6,0.5,1.3,0.4,2v0.7
		c0.1,0.7-0.1,1.5-0.4,2.1c-0.3,0.4-0.7,0.7-1.2,0.7c-0.5,0-1-0.2-1.2-0.6c-0.3-0.6-0.4-1.2-0.4-1.9V500.9z M146.4,500.3v1
		c0,0.5,0,1.1,0.2,1.6c0.1,0.3,0.4,0.4,0.7,0.4c0.3,0,0.6-0.2,0.7-0.5c0.2-0.5,0.2-1,0.2-1.6v-0.9c0-0.5-0.1-1-0.2-1.4
		c-0.1-0.3-0.4-0.5-0.7-0.5c-0.3,0-0.6,0.2-0.7,0.5C146.5,499.3,146.4,499.8,146.4,500.3z"/>
	<line class="st4" x1="47.4" y1="506.5" x2="330.9" y2="506.5"/>
	<circle cx="330.9" cy="506.5" r="1.4"/>
	<circle cx="322.8" cy="506.5" r="1.4"/>
	<path class="st8" d="M-131.4,518.7c-0.6,1.2,0,2.2,1.4,2.2h31.9c1.4,0,2.1-1,1.4-2.2l-16.3-29.1c-0.6-1.2-1.7-1.2-2.3,0
		L-131.4,518.7z"/>
	<path class="st9" d="M-116.6,496.6h5.2v5.9l-1.3,10.8h-2.5l-1.3-10.8L-116.6,496.6z M-116.5,514.6h4.9v4.5h-4.9V514.6z"/>
	<path class="st6" d="M-106.5,491.1c0-1.4,0-2.8,1.9-2.8c1.2,0,1.6,0.6,1.6,1.8h-1.1c0-0.7-0.1-1-0.5-1c-0.6,0-0.7,0.6-0.7,2
		s0.1,2,0.7,2s0.5-0.7,0.5-1.1h1.1c0,1.5-0.6,1.9-1.6,1.9C-106.5,493.9-106.5,492.5-106.5,491.1z"/>
	<path class="st6" d="M-101.2,492c0,0.5,0,1.1,0.5,1.1s0.4-0.4,0.4-0.7h1.1c0,0.4-0.1,0.7-0.4,1c-0.3,0.3-0.7,0.4-1.1,0.4
		c-1.4,0-1.6-0.8-1.6-2s0.2-1.9,1.6-1.9s1.6,0.9,1.6,2.1L-101.2,492z M-100.2,491.5c0-0.4,0-0.9-0.5-0.9s-0.5,0.6-0.5,0.9H-100.2z"
		/>
	<path class="st6" d="M-95.1,489c-0.4,0-0.5,0.1-0.5,0.5v0.5h0.5v0.6h-0.5v3.1h-1.1v-3.1h-0.5V490h0.5c0-1.1-0.1-1.7,1.2-1.7h0.4
		L-95.1,489z"/>
	<path class="st6" d="M-93.4,488.4v0.8h-1.1v-0.8H-93.4z M-93.4,493.8h-1.1V490h1.1V493.8z"/>
	<path class="st6" d="M-90.5,491.3c0-0.6-0.1-0.8-0.5-0.8s-0.5,0.4-0.5,1.2c0,1.2,0.1,1.4,0.5,1.4s0.5-0.3,0.5-0.8h1.1
		c0,1-0.6,1.5-1.6,1.5c-1.4,0-1.6-0.8-1.6-2s0.2-1.9,1.6-1.9c1,0,1.5,0.4,1.5,1.4L-90.5,491.3z"/>
	<path class="st6" d="M-86.7,493.8v-2.6c0-0.3-0.1-0.6-0.4-0.6s-0.4,0.3-0.4,0.6v2.6h-1.1v-5.4h1.1v2l0,0c0.1-0.2,0.2-0.3,0.4-0.4
		c0.2-0.1,0.3-0.1,0.5-0.1c0.5,0,0.9,0.3,0.9,0.8c0,0,0,0,0,0.1v3L-86.7,493.8z"/>
	<path class="st6" d="M-83.6,488.4v0.8h-1.1v-0.8H-83.6z M-83.6,493.8h-1.1V490h1.1L-83.6,493.8z"/>
	<path class="st6" d="M-81.6,492c0,0.5,0,1.1,0.5,1.1s0.4-0.4,0.4-0.7h1.1c0,0.4-0.1,0.7-0.4,1c-0.3,0.3-0.7,0.4-1.1,0.4
		c-1.4,0-1.6-0.8-1.6-2s0.2-1.9,1.6-1.9s1.6,0.9,1.6,2.1L-81.6,492z M-80.6,491.5c0-0.4,0-0.9-0.5-0.9s-0.5,0.6-0.5,0.9H-80.6z"/>
	<path class="st6" d="M-77.7,490v0.5l0,0c0.2-0.4,0.6-0.6,1-0.6v1c-0.9-0.1-0.9,0.5-0.9,0.9v2.1h-1.1V490L-77.7,490z"/>
	<path class="st6" d="M-73.5,492c0,0.5,0,1.1,0.5,1.1s0.4-0.4,0.4-0.7h1.1c0,0.4-0.1,0.7-0.4,1c-0.3,0.3-0.7,0.4-1.1,0.4
		c-1.4,0-1.6-0.8-1.6-2s0.2-1.9,1.6-1.9s1.6,0.9,1.6,2.1L-73.5,492z M-72.5,491.5c0-0.4,0-0.9-0.5-0.9s-0.5,0.6-0.5,0.9H-72.5z"/>
	<path class="st6" d="M-69.8,492.6c0,0.2,0,0.3,0.1,0.5c0.1,0.1,0.2,0.2,0.4,0.2c0.2,0,0.4-0.1,0.4-0.3c0,0,0,0,0,0
		c0-0.8-1.9-0.6-1.9-1.8c0-0.8,0.8-1.1,1.5-1.1s1.4,0.3,1.3,1.2h-1c0-0.3,0-0.4-0.1-0.5c-0.1-0.1-0.2-0.1-0.3-0.1
		c-0.2,0-0.4,0.1-0.4,0.4c0,0.6,1.9,0.6,1.9,1.8c0,0.7-0.5,1.2-1.4,1.2s-1.5-0.2-1.5-1.3L-69.8,492.6z"/>
	<path class="st6" d="M-67.6,490h0.4v-0.6l1.1-0.5v1.1h0.6v0.6h-0.6v2c0,0.3,0,0.5,0.3,0.5c0.1,0,0.1,0,0.2,0v0.6
		c-0.2,0-0.4,0-0.6,0c-0.9,0-1-0.6-1-0.8v-2.3h-0.4L-67.6,490z"/>
	<path class="st6" d="M-61.6,493.4L-61.6,493.4c-0.2,0.3-0.5,0.5-0.9,0.5c-0.5,0-0.9-0.3-0.9-0.8c0,0,0,0,0-0.1v-3h1.1v2.6
		c0,0.3,0.1,0.6,0.4,0.6s0.4-0.3,0.4-0.6V490h1.1v3c0,0.3,0,0.5,0,0.8h-1.1L-61.6,493.4z"/>
	<path class="st6" d="M-58.5,490.4L-58.5,490.4c0.1-0.2,0.2-0.3,0.4-0.4c0.2-0.1,0.3-0.1,0.5-0.1c0.5,0,0.9,0.3,0.9,0.8
		c0,0,0,0,0,0.1v3h-1.1v-2.6c0-0.3-0.1-0.6-0.4-0.6s-0.4,0.3-0.4,0.6v2.6h-1.1V490h1.1L-58.5,490.4z"/>
	<path class="st6" d="M-52.2,493.8v-0.4l0,0c-0.2,0.3-0.5,0.5-0.9,0.5c-1.1,0-1.1-1.2-1.1-2s0-1.9,1-1.9c0.3,0,0.7,0.1,0.9,0.4l0,0
		v-2h1.1v5.4H-52.2z M-52.3,491.9c0-0.8,0-1.3-0.4-1.3s-0.5,0.5-0.5,1.3c0,1,0.1,1.4,0.5,1.4S-52.3,492.8-52.3,491.9z"/>
	<path class="st6" d="M-50.3,491.8c0-1,0.2-1.9,1.5-1.9s1.5,0.9,1.5,1.9s-0.2,2-1.5,2S-50.3,493-50.3,491.8z M-48.3,491.8
		c0-0.8,0-1.2-0.5-1.2s-0.5,0.4-0.5,1.2c0,1.2,0.1,1.4,0.5,1.4S-48.3,492.9-48.3,491.8L-48.3,491.8z"/>
	<path class="st6" d="M-44.5,491.3c0-0.6-0.1-0.8-0.5-0.8s-0.5,0.4-0.5,1.2c0,1.2,0.1,1.4,0.5,1.4s0.5-0.3,0.5-0.8h1.1
		c0,1-0.6,1.5-1.5,1.5c-1.4,0-1.5-0.8-1.5-2s0.2-1.9,1.5-1.9c1,0,1.5,0.4,1.5,1.4L-44.5,491.3z"/>
	<path class="st6" d="M-40.7,493.4L-40.7,493.4c-0.2,0.3-0.5,0.5-0.9,0.5c-0.5,0-0.9-0.3-0.9-0.8c0,0,0,0,0-0.1v-3h1.1v2.6
		c0,0.3,0.1,0.6,0.4,0.6s0.4-0.3,0.4-0.6V490h1.1v3c0,0.3,0,0.5,0,0.8h-1.1L-40.7,493.4z"/>
	<path class="st6" d="M-37.8,490.4L-37.8,490.4c0.2-0.3,0.5-0.5,0.9-0.5c0.4,0,0.7,0.2,0.8,0.5c0.2-0.3,0.6-0.5,1-0.5
		c0.5,0,0.9,0.3,0.9,0.8c0,0,0,0,0,0.1v3h-1.1v-2.6c0-0.3-0.1-0.6-0.4-0.6s-0.4,0.3-0.4,0.6v2.6h-1v-2.6c0-0.3-0.1-0.6-0.4-0.6
		s-0.4,0.3-0.4,0.6v2.6h-1.1v-3.8h1.1V490.4z"/>
	<path class="st6" d="M-32.2,492c0,0.5,0,1.1,0.5,1.1c0.5,0,0.5-0.4,0.5-0.7h1.1c0,0.4-0.1,0.7-0.4,1c-0.3,0.3-0.7,0.4-1.1,0.4
		c-1.4,0-1.6-0.8-1.6-2s0.2-1.9,1.6-1.9c1.4,0,1.6,0.9,1.5,2.1L-32.2,492z M-31.2,491.5c0-0.4,0-0.9-0.5-0.9c-0.5,0-0.5,0.6-0.5,0.9
		H-31.2z"/>
	<path class="st6" d="M-28.3,490.4L-28.3,490.4c0.1-0.2,0.2-0.3,0.4-0.4c0.2-0.1,0.3-0.1,0.5-0.1c0.5,0,0.9,0.3,0.9,0.8
		c0,0,0,0,0,0.1v3h-1.1v-2.6c0-0.3-0.1-0.6-0.4-0.6s-0.4,0.3-0.4,0.6v2.6h-1.1V490h1.1L-28.3,490.4z"/>
	<path class="st6" d="M-26,490h0.4v-0.6l1.1-0.5v1.1h0.5v0.6h-0.5v2c0,0.3,0,0.5,0.3,0.5c0.1,0,0.1,0,0.2,0v0.6c-0.2,0-0.4,0-0.5,0
		c-0.9,0-1-0.6-1-0.8v-2.3h-0.4L-26,490z"/>
	<path class="st6" d="M-19.8,493.8v-0.4l0,0c-0.2,0.3-0.5,0.5-0.9,0.5c-1.1,0-1.1-1.2-1.1-2s0-1.9,1-1.9c0.3,0,0.7,0.1,0.9,0.4l0,0
		v-2h1.1v5.4H-19.8z M-19.9,491.9c0-0.8,0-1.3-0.4-1.3s-0.5,0.5-0.5,1.3c0,1,0.1,1.4,0.5,1.4S-19.9,492.8-19.9,491.9L-19.9,491.9z"
		/>
	<path class="st6" d="M-17.8,488.4h1l-0.5,1.5h-0.7L-17.8,488.4z"/>
	<path class="st6" d="M-15.2,492c0,0.5,0,1.1,0.5,1.1s0.5-0.4,0.5-0.7h1.1c0,0.4-0.1,0.7-0.4,1c-0.3,0.3-0.7,0.4-1.1,0.4
		c-1.4,0-1.5-0.8-1.5-2s0.1-1.9,1.5-1.9s1.6,0.9,1.5,2.1L-15.2,492z M-14.2,491.5c0-0.4,0-0.9-0.5-0.9s-0.5,0.6-0.5,0.9H-14.2z"/>
	<path class="st6" d="M-11.6,493.8h-1l1.1-2l-1-1.8h1.2l0.6,1.1l0.6-1.1h1.1l-1,1.8l1.1,2h-1.2l-0.7-1.3L-11.6,493.8z"/>
	<path class="st6" d="M-7.5,492c0,0.5,0,1.1,0.5,1.1s0.4-0.4,0.4-0.7h1.1c0,0.4-0.1,0.7-0.4,1c-0.3,0.3-0.7,0.4-1.1,0.4
		c-1.4,0-1.5-0.8-1.5-2s0.1-1.9,1.5-1.9s1.6,0.9,1.6,2.1L-7.5,492z M-6,488.4l-1.2,1.1h-0.5l0.7-1.1H-6z M-6.5,491.5
		c0-0.4,0-0.9-0.5-0.9c-0.5,0-0.5,0.6-0.5,0.9H-6.5z"/>
	<path class="st6" d="M-2.7,491.3c0-0.6-0.1-0.8-0.5-0.8s-0.5,0.4-0.5,1.2c0,1.2,0.1,1.4,0.5,1.4s0.5-0.3,0.5-0.8h1.1
		c0,1-0.6,1.5-1.6,1.5c-1.4,0-1.5-0.8-1.5-2s0.1-1.9,1.5-1.9c1,0,1.5,0.4,1.5,1.4L-2.7,491.3z"/>
	<path class="st6" d="M1.1,493.4L1.1,493.4c-0.2,0.3-0.5,0.5-0.9,0.5c-0.5,0-0.9-0.3-0.9-0.8c0,0,0,0,0-0.1v-3h1v2.6
		c0,0.3,0.1,0.6,0.4,0.6s0.4-0.3,0.4-0.6V490h1.1v3c0,0.3,0,0.5,0,0.8H1.1V493.4z"/>
	<path class="st6" d="M2.6,490h0.4v-0.6l1.1-0.5v1.1h0.6v0.6H4.1v2c0,0.3,0,0.5,0.3,0.5c0.1,0,0.1,0,0.2,0v0.6c-0.2,0-0.4,0-0.6,0
		c-0.9,0-1-0.6-1-0.8v-2.3H2.7L2.6,490z"/>
	<path class="st6" d="M6.4,488.4v0.8H5.3v-0.8H6.4z M6.4,493.8H5.3V490h1.1V493.8z"/>
	<path class="st6" d="M7.3,491.8c0-1,0.2-1.9,1.6-1.9s1.6,0.9,1.6,1.9s-0.2,2-1.6,2S7.3,493,7.3,491.8z M9.3,491.8
		c0-0.8,0-1.2-0.5-1.2s-0.5,0.4-0.5,1.2c0,1.2,0.1,1.4,0.5,1.4S9.4,492.9,9.3,491.8L9.3,491.8z"/>
	<path class="st6" d="M12.3,490.4L12.3,490.4c0.1-0.2,0.2-0.3,0.4-0.4c0.2-0.1,0.3-0.1,0.5-0.1c0.5-0.1,0.9,0.3,1,0.8c0,0,0,0,0,0v3
		h-1.1v-2.6c0-0.3-0.1-0.6-0.4-0.6s-0.4,0.3-0.4,0.6v2.6h-1.1v-3.8h1.1V490.4z"/>
	<path class="st6" d="M18.7,491.3c0-0.6-0.1-0.8-0.5-0.8s-0.5,0.4-0.5,1.2c0,1.2,0.1,1.4,0.5,1.4s0.5-0.3,0.5-0.8h1.1
		c0,1-0.6,1.5-1.6,1.5c-1.4,0-1.5-0.8-1.5-2s0.1-1.9,1.5-1.9c1,0,1.5,0.4,1.5,1.4L18.7,491.3z"/>
	<path class="st6" d="M21.6,490v0.5l0,0c0.2-0.4,0.6-0.6,1-0.6v1c-0.9-0.1-0.9,0.5-0.9,0.9v2.1h-1.1V490L21.6,490z"/>
	<path class="st6" d="M24.1,492c0,0.5,0,1.1,0.5,1.1s0.5-0.4,0.5-0.7h1.1c0,0.4-0.1,0.7-0.4,1c-0.3,0.3-0.7,0.4-1.1,0.4
		c-1.4,0-1.5-0.8-1.5-2s0.1-1.9,1.5-1.9c1.4,0,1.6,0.9,1.6,2.1L24.1,492z M25.6,488.4l-1.2,1.1H24l0.7-1.1H25.6z M25.1,491.5
		c0-0.4,0-0.9-0.5-0.9s-0.5,0.6-0.5,0.9H25.1z"/>
	<path class="st6" d="M28,492c0,0.5,0,1.1,0.5,1.1s0.5-0.4,0.5-0.7H30c0,0.4-0.1,0.7-0.4,1c-0.3,0.3-0.7,0.4-1.1,0.4
		c-1.4,0-1.5-0.8-1.5-2s0.1-1.9,1.5-1.9s1.6,0.9,1.5,2.1L28,492z M29.5,488.4l-1.2,1.1h-0.5l0.7-1.1H29.5z M28.9,491.5
		c0-0.4,0-0.9-0.5-0.9s-0.5,0.6-0.5,0.9H28.9z"/>
	<path class="st6" d="M33.3,492.6c0,0.2,0,0.3,0,0.5c0.1,0.1,0.2,0.2,0.4,0.2c0.2,0,0.4-0.1,0.4-0.3c0,0,0,0,0,0
		c0-0.8-1.9-0.6-1.9-1.8c0-0.8,0.8-1.1,1.5-1.1s1.4,0.3,1.3,1.2h-1c0-0.3,0-0.4-0.1-0.5c-0.1-0.1-0.2-0.1-0.3-0.1
		c-0.2,0-0.4,0.1-0.4,0.4c0,0.6,1.9,0.6,1.9,1.8c0,0.7-0.5,1.2-1.4,1.2c-0.9,0-1.5-0.3-1.5-1.3H33.3z"/>
	<path class="st6" d="M37.7,493.4L37.7,493.4c-0.2,0.3-0.5,0.5-0.9,0.5c-0.5,0-0.9-0.3-0.9-0.8c0,0,0,0,0-0.1v-3h1.1v2.6
		c0,0.3,0.1,0.6,0.4,0.6s0.4-0.3,0.4-0.6V490h1.1v3c0,0.3,0,0.5,0,0.8h-1.1L37.7,493.4z"/>
	<path class="st6" d="M40.7,490v0.5l0,0c0.2-0.4,0.6-0.6,1-0.6v1c-0.9-0.1-1,0.5-1,0.9v2.1h-1.1V490L40.7,490z"/>
	<path class="st6" d="M-102,501.8v-5.4h1.1v5.4H-102z"/>
	<path class="st6" d="M-99,496.4v5.4h-1.1v-5.4H-99z"/>
	<path class="st6" d="M-97,496.4v5.4h-1.1v-5.4H-97z"/>
	<path class="st6" d="M-94.4,501.4L-94.4,501.4c-0.2,0.3-0.5,0.5-0.9,0.5c-0.5,0-0.9-0.3-0.9-0.8c0,0,0,0,0-0.1v-3h1.1v2.6
		c0,0.3,0.1,0.6,0.4,0.6s0.4-0.3,0.4-0.6V498h1.1v3c0,0.3,0,0.5,0,0.8h-1.1L-94.4,501.4z"/>
	<path class="st6" d="M-91.8,500.6c0,0.2,0,0.3,0.1,0.5c0.1,0.1,0.2,0.2,0.4,0.2c0.2,0,0.4-0.1,0.4-0.3c0,0,0,0,0,0
		c0-0.8-1.9-0.6-1.9-1.8c0-0.8,0.8-1.1,1.5-1.1s1.4,0.3,1.3,1.2h-1c0-0.3,0-0.4-0.1-0.5c-0.1-0.1-0.2-0.1-0.3-0.1
		c-0.2,0-0.4,0.1-0.4,0.4c0,0.6,1.9,0.6,1.9,1.8c0,0.7-0.5,1.2-1.4,1.2s-1.5-0.2-1.5-1.3L-91.8,500.6z"/>
	<path class="st6" d="M-89.8,498h0.4v-0.6l1.1-0.5v1.1h0.5v0.6h-0.6v2c0,0.3,0,0.5,0.3,0.5c0.1,0,0.1,0,0.2,0v0.6
		c-0.2,0-0.4,0-0.6,0c-0.9,0-1-0.6-1-0.8v-2.3h-0.4V498z"/>
	<path class="st6" d="M-86.5,498v0.5l0,0c0.2-0.4,0.6-0.6,1-0.6v1c-0.9-0.1-0.9,0.5-0.9,0.9v2.1h-1.1V498L-86.5,498z"/>
	<path class="st6" d="M-82.2,501.1c0,0.2,0,0.5,0.1,0.7h-1v-0.5l0,0c-0.2,0.4-0.6,0.6-1,0.6c-0.7,0-1-0.5-1-1.2c0-1.3,1-1.3,2-1.3
		v-0.3c0-0.3,0-0.6-0.4-0.6s-0.4,0.3-0.4,0.6h-1c0-0.4,0.1-0.7,0.4-0.9c0.3-0.2,0.6-0.3,1-0.3c1.3,0,1.5,0.6,1.5,1.3L-82.2,501.1z
		 M-84.2,500.6c0,0.3,0,0.6,0.4,0.6c0.6,0,0.5-0.8,0.5-1.3C-83.8,500-84.2,499.9-84.2,500.6L-84.2,500.6z"/>
	<path class="st6" d="M-81.9,498h0.4v-0.6l1.1-0.5v1.1h0.6v0.6h-0.6v2c0,0.3,0,0.5,0.3,0.5c0.1,0,0.1,0,0.2,0v0.6
		c-0.2,0-0.4,0-0.6,0c-0.9,0-1-0.6-1-0.8v-2.3h-0.4L-81.9,498z"/>
	<path class="st6" d="M-79.6,499.8c0-1,0.2-1.9,1.6-1.9s1.6,0.9,1.6,1.9s-0.2,2-1.6,2S-79.6,501-79.6,499.8z M-77.6,499.8
		c0-0.8,0-1.2-0.5-1.2s-0.5,0.4-0.5,1.2c0,1.2,0.1,1.4,0.5,1.4S-77.6,500.9-77.6,499.8L-77.6,499.8z"/>
	<path class="st6" d="M-74.9,498v0.5l0,0c0.2-0.4,0.6-0.6,1-0.6v1c-0.9-0.1-0.9,0.5-0.9,0.9v2.1h-1.1V498L-74.9,498z"/>
	<path class="st6" d="M-72.4,498h1.1l0.5,2.8l0,0l0.6-2.8h1l-1,3.8h-1.2L-72.4,498z"/>
	<path class="st6" d="M-67.9,500c0,0.5,0,1.1,0.5,1.1s0.4-0.4,0.4-0.7h1.1c0,0.4-0.1,0.7-0.4,1c-0.3,0.3-0.7,0.4-1.1,0.4
		c-1.4,0-1.6-0.8-1.6-2s0.2-1.9,1.6-1.9s1.6,0.9,1.6,2.1L-67.9,500z M-66.9,499.5c0-0.4,0-0.9-0.5-0.9s-0.5,0.6-0.5,0.9H-66.9z"/>
	<path class="st6" d="M-64.2,498v0.5l0,0c0.2-0.4,0.6-0.6,1-0.6v1c-0.9-0.1-0.9,0.5-0.9,0.9v2.1h-1.1V498L-64.2,498z"/>
	<path class="st6" d="M-62,500.6c0,0.2,0,0.3,0.1,0.5c0.1,0.1,0.2,0.2,0.4,0.2c0.2,0,0.4-0.1,0.4-0.3c0,0,0,0,0,0
		c0-0.8-1.9-0.6-1.9-1.8c0-0.8,0.8-1.1,1.5-1.1s1.4,0.3,1.3,1.2h-1c0-0.3,0-0.4-0.1-0.5c-0.1-0.1-0.2-0.1-0.3-0.1
		c-0.2,0-0.4,0.1-0.4,0.4c0,0.6,1.9,0.6,1.9,1.8c0,0.7-0.5,1.2-1.4,1.2s-1.5-0.2-1.5-1.3L-62,500.6z"/>
	<path class="st6" d="M-58.5,496.4v0.8h-1.1v-0.8H-58.5z M-58.5,501.8h-1.1V498h1.1V501.8z"/>
	<path class="st6" d="M-57.8,499.8c0-1,0.2-1.9,1.6-1.9s1.5,0.9,1.5,1.9s-0.2,2-1.5,2S-57.8,501-57.8,499.8z M-55.8,499.8
		c0-0.8,0-1.2-0.5-1.2s-0.5,0.4-0.5,1.2c0,1.2,0.1,1.4,0.5,1.4S-55.8,500.9-55.8,499.8z"/>
	<path class="st6" d="M-53,498.4L-53,498.4c0.1-0.2,0.2-0.3,0.4-0.4c0.2-0.1,0.3-0.1,0.5-0.1c0.5,0,0.9,0.3,0.9,0.8c0,0,0,0,0,0.1v3
		h-1.1v-2.6c0-0.3-0.1-0.6-0.4-0.6s-0.4,0.3-0.4,0.6v2.6h-1.1V498h1.1L-53,498.4z"/>
	<path class="st6" d="M-49,499.1c0-1.4,0-2.8,1.9-2.8c1.2,0,1.6,0.6,1.6,1.8h-1.1c0-0.7-0.1-1-0.5-1c-0.6,0-0.7,0.6-0.7,2
		s0.1,2,0.7,2s0.5-0.7,0.5-1.1h1.1c0,1.5-0.6,1.9-1.6,1.9C-49,501.9-49,500.5-49,499.1z"/>
	<path class="st6" d="M-43.4,501.9c-1.4,0-1.7-0.8-1.6-1.8h1.1c0,0.5,0,1,0.7,1c0.3,0,0.6-0.2,0.6-0.5c0,0,0-0.1,0-0.1
		c0-1-2.3-1-2.3-2.6c0-0.9,0.4-1.5,1.8-1.5c1.1,0,1.7,0.5,1.6,1.6h-1.1c0-0.4-0.1-0.8-0.5-0.8c-0.3,0-0.6,0.2-0.6,0.5
		c0,0,0,0.1,0,0.1c0,1,2.3,0.9,2.3,2.6C-41.5,501.7-42.5,501.9-43.4,501.9z"/>
	<path class="st6" d="M-39.3,497.7c0-0.1,0-0.2-0.1-0.3c-0.1-0.1-0.2-0.2-0.3-0.1c-0.5,0-0.5,0.2-0.5,1.6c0.2-0.2,0.5-0.4,0.8-0.4
		c1,0,1.2,0.9,1.2,1.7c0,1.1-0.4,1.8-1.6,1.8c-1.4,0-1.5-1.2-1.5-2.2c0-2.1,0.1-3.1,1.6-3.1c0.8,0,1.4,0.3,1.4,1.2L-39.3,497.7z
		 M-39.2,500.1c0-0.7-0.1-1-0.5-1s-0.4,0.4-0.4,1c0,0.3,0,0.9,0.4,0.9S-39.2,500.9-39.2,500.1L-39.2,500.1z"/>
	<path class="st6" d="M-36.8,500.8v1h-0.9v-1H-36.8z"/>
	<rect x="-131.9" y="416.6" width="35.7" height="35.3"/>
	<polygon class="st10" points="-101,416.6 -103.8,420.5 -104.4,420.1 -101.8,416.6 	"/>
	<polygon class="st10" points="-121.1,430 -121.1,423.6 -119.9,423.6 -115.8,430 -116.7,430 -118.3,427.4 -119.7,427.4 
		-119.7,426.8 -118.7,426.8 -120.4,424.2 -120.4,430 	"/>
	<path class="st10" d="M-116.1,429.9v-6.4h2.1c0,0,2.1-0.1,2.1,1.9c0,0,0.1,1.4-1.7,1.7l2.1,2.8h-0.9l-2.4-3.3h0.7
		c0,0,1.5,0,1.5-1.3c0,0,0-1.2-1.5-1.2h-1.3v5.8L-116.1,429.9z"/>
	<path class="st10" d="M-111,429.9v-6.4h2.1c0,0,2.1-0.1,2.1,1.9c0,0,0.1,1.4-1.7,1.7l2.1,2.8h-0.9l-2.4-3.3h0.7c0,0,1.5,0,1.5-1.3
		c0,0,0-1.2-1.5-1.2h-1.3v5.8L-111,429.9z"/>
	<polygon class="st10" points="-105.9,430 -105.9,423.6 -101.9,423.6 -101.9,424.2 -105.2,424.2 -105.2,426.3 -102.1,426.3 
		-102.1,427 -105.2,427 -105.2,429.3 -101.9,429.3 -101.9,430 	"/>
	<path class="st10" d="M-105.8,437.2v-6.4h2c0,0,2.1-0.1,2.1,1.9c0,0,0.1,1.4-1.7,1.7l2.2,2.8h-0.9l-2.5-3.3h0.7c0,0,1.5,0,1.5-1.3
		c0,0,0-1.2-1.5-1.2h-1.3v5.8L-105.8,437.2z"/>
	<rect x="-107.4" y="430.8" class="st10" width="0.7" height="6.4"/>
	<polygon class="st10" points="-115.4,437.2 -115.4,430.8 -116.1,430.8 -116.1,436.4 -120,430.8 -121.1,430.8 -121.1,437.2 
		-120.4,437.2 -120.4,431.5 -116.4,437.2 	"/>
	<path class="st10" d="M-111.4,430.7c-1.8,0-3.3,1.5-3.3,3.3s1.5,3.3,3.3,3.3s3.3-1.5,3.3-3.3S-109.6,430.7-111.4,430.7z
		 M-111.4,436.6c-1.4,0-2.6-1.2-2.6-2.6c0-1.4,1.2-2.6,2.6-2.6c1.4,0,2.6,1.2,2.6,2.6l0,0C-108.8,435.5-110,436.6-111.4,436.6
		L-111.4,436.6z"/>
	<path class="st10" d="M-124.1,429.4c-1.4,0-2.6-1.2-2.6-2.6c0-1.4,1.2-2.6,2.6-2.6c0.9,0,1.7,0.4,2.2,1.1v-0.9
		c-0.6-0.5-1.4-0.8-2.2-0.8c-1.8,0-3.3,1.5-3.3,3.3c0,1.8,1.5,3.3,3.3,3.3c0.8,0,1.6-0.3,2.2-0.8v-0.9
		C-122.4,429-123.2,429.3-124.1,429.4z"/>
	<rect x="-192.8" y="-13.3" class="st0" width="841.9" height="595.3"/>
</g>
</svg>
