<svg xmlns="http://www.w3.org/2000/svg" viewBox="0 0 841.89 622.99"><title>GEFCO_Logo_SignVertiBleu_RVB</title><g id="Logo"><rect x="149.93" width="541.68" height="473.97" style="fill:none"/><g id="_Group_" data-name="&lt;Group&gt;"><g id="_Group_2" data-name="&lt;Group&gt;"><path id="_Compound_Path_" data-name="&lt;Compound Path&gt;" d="M556.19,310.84H285.35V40H556.19ZM296.79,299.4h248v-248h-248Z" transform="translate(0 27.71)" style="fill:#ffcd00"/></g></g><path id="_Path_" data-name="&lt;Path&gt;" d="M357.71,258.22v18.88a.4.4,0,0,1-.28.39,64,64,0,0,1-16.84,2.11c-24.89,0-28.12-12.32-28.12-18.63s4.62-18.63,29.55-18.63a56,56,0,0,1,11.79,1.12.41.41,0,0,1,.29.54l-2.33,6.41a.41.41,0,0,1-.49.25,35.22,35.22,0,0,0-9.18-1.06c-15.91,0-18.95,7.64-18.95,11.36s2.54,11.33,19.25,11.33a43.17,43.17,0,0,0,4.63-.23.41.41,0,0,0,.36-.41v-6.73a.41.41,0,0,0-.41-.41H336.47a.41.41,0,0,1-.38-.55l2.16-5.9a.41.41,0,0,1,.38-.27H357.3A.41.41,0,0,1,357.71,258.22Z" transform="translate(0 27.71)" style="fill:#ffcd00"/><path id="_Path_2" data-name="&lt;Path&gt;" d="M478.41,271.21l2.44,6.7a.41.41,0,0,1-.29.54A52.84,52.84,0,0,1,469,279.59c-24.39,0-29-12.26-29-18.63s4.53-18.63,29-18.63a53.2,53.2,0,0,1,11.55,1.14.41.41,0,0,1,.29.54l-2.43,6.69a.39.39,0,0,1-.48.26,33,33,0,0,0-8.92-1.05c-15.59,0-18.48,7.29-18.48,11.05S453.45,272,469,272a32.66,32.66,0,0,0,8.91-1.07A.39.39,0,0,1,478.41,271.21Z" transform="translate(0 27.71)" style="fill:#ffcd00"/><path d="M504.31,242.34c-14,0-24.88,8.23-24.88,18.68s10.64,18.58,24.75,18.58c14,0,24.89-8.23,24.89-18.68S518.43,242.34,504.31,242.34Zm0,29.67c-8.22,0-14.41-4.79-14.41-11.09s6.13-11,14.26-11S518.6,254.72,518.6,261,512.46,272,504.32,272Z" transform="translate(0 27.71)" style="fill:#ffcd00"/><g id="_Group_3" data-name="&lt;Group&gt;"><path id="_Path_3" data-name="&lt;Path&gt;" d="M415.61,251v7.44a.41.41,0,0,0,.41.41h19.53a.41.41,0,0,1,.38.55l-2.43,6.68a.41.41,0,0,1-.38.27H416a.41.41,0,0,0-.41.41V278.4a.41.41,0,0,1-.41.41H405a.41.41,0,0,1-.41-.41V243.54a.41.41,0,0,1,.41-.41h37.53a.41.41,0,0,1,.38.55l-2.43,6.68a.41.41,0,0,1-.38.27H416A.41.41,0,0,0,415.61,251Z" transform="translate(0 27.71)" style="fill:#ffcd00"/></g><g id="_Group_4" data-name="&lt;Group&gt;"><path id="_Path_4" data-name="&lt;Path&gt;" d="M399.37,271.86l-2.43,6.68a.41.41,0,0,1-.38.27H363.76a.41.41,0,0,1-.41-.41V243.54a.41.41,0,0,1,.41-.41H399a.41.41,0,0,1,.38.55l-2.43,6.68a.41.41,0,0,1-.38.27H374.74a.41.41,0,0,0-.41.41v6a.41.41,0,0,0,.41.41h19a.41.41,0,0,1,.38.55l-2.43,6.68a.41.41,0,0,1-.38.27H374.74a.41.41,0,0,0-.41.41v5.57a.41.41,0,0,0,.41.41H399A.41.41,0,0,1,399.37,271.86Z" transform="translate(0 27.71)" style="fill:#ffcd00"/></g><path d="M240.55,345.85c1.94,1.62,2.89,4.65,2.89,9.11,0,4.65-.72,7.26-2.93,8.89s-5.05,2.08-10.29,2.08h-5.59v11.91c0,.59-.14.72-.68.72h-5.73c-.54,0-.68-.14-.68-.72V344.5c0-.5.14-.59.68-.63,3.65-.32,7.63-.5,12-.5C235.22,343.37,238.65,344.18,240.55,345.85Zm-15.93,3.7v10.92h4.87c2.75,0,4.6-.32,5.46-.95s1.31-2.12,1.31-4.38-.45-3.75-1.35-4.47-2.71-1.13-5.41-1.13Z" transform="translate(0 27.71)" style="fill:#00538b"/><path d="M264.14,355c1.53,1.26,2.3,3.2,2.3,5.87v15.61a1.33,1.33,0,0,1-1,1.4,46.8,46.8,0,0,1-10.24.95c-3.79,0-5.69-.18-7.67-1.22s-2.71-3.11-2.75-6.59c0-2.89.77-4.83,2.21-5.87s3.83-1.53,7-1.53h5.73V362c0-2.08-1.4-3.11-4.24-3.11h-8.17c-.5,0-.63-.13-.63-.68v-3.7c0-.5.14-.59.63-.72a42.88,42.88,0,0,1,8.17-.68C259.72,353.07,262.61,353.7,264.14,355Zm-4.38,12.95h-5.19c-2.35,0-3.16.72-3.16,2.71s.95,2.75,3.84,2.75a16.94,16.94,0,0,0,4.51-.45Z" transform="translate(0 27.71)" style="fill:#00538b"/><path d="M286.2,353.56a.84.84,0,0,1,.72.9v3.7c0,.45-.27.68-.77.68h-4.24c-2.48,0-3.16.45-3.16,2.3v16.69c0,.5-.23.72-.68.72h-5.37c-.45,0-.68-.23-.68-.72V359.43a6.43,6.43,0,0,1,1.67-4.69c1.67-1.4,4-1.67,6.5-1.67A29.19,29.19,0,0,1,286.2,353.56Z" transform="translate(0 27.71)" style="fill:#00538b"/><path d="M298.74,346.3c.5-.14.72.09.72.68v6.45h4.15c.5,0,.77.23.77.68v3.61c0,.45-.27.68-.77.68h-4.15v12.32c0,1.85.63,2.3,2.66,2.3H304c.5,0,.77.23.77.68v3.83a.77.77,0,0,1-.72.86,19.49,19.49,0,0,1-3.84.41,13.54,13.54,0,0,1-4.24-.41c-2.12-.59-3-2-3.16-5.41V358.39h-2.66c-.5,0-.72-.23-.72-.68v-3.61c0-.45.23-.68.72-.68h2.66v-5a.69.69,0,0,1,.63-.72Z" transform="translate(0 27.71)" style="fill:#00538b"/><path d="M329.1,355.05c1.8,1.62,2.26,4.15,2.26,8.84v13.94a.63.63,0,0,1-.72.72h-5.32c-.45,0-.68-.23-.68-.72V365.61c0-3.38,0-4.83-.9-5.78s-1.58-1-3.93-1H315.7v19c0,.5-.23.72-.68.72h-5.37c-.45,0-.68-.23-.68-.72V354.51c0-.54.23-.59.68-.68a55.48,55.48,0,0,1,10.78-.77C325,353.07,327.34,353.43,329.1,355.05Z" transform="translate(0 27.71)" style="fill:#00538b"/><path d="M356.22,355.6c1.49,1.67,2.21,5,2.26,10V367c0,.9-.32,1.22-1.44,1.22H342.86c0,2,.36,3.29,1,3.88s2,.9,4.06.9h8a.6.6,0,0,1,.68.68v3.75a.67.67,0,0,1-.63.72,46,46,0,0,1-8.62.63q-6.84,0-9.07-2.57c-1.49-1.71-2.26-5.14-2.26-10.29s.77-8.62,2.26-10.29,4.51-2.57,9.07-2.57S354.77,353.93,356.22,355.6Zm-13.4,8.26h8.93c0-3.93-1.08-5-4.38-5S342.86,359.93,342.82,363.85Z" transform="translate(0 27.71)" style="fill:#00538b"/><path d="M377.24,353.56a.84.84,0,0,1,.72.9v3.7c0,.45-.27.68-.77.68H373c-2.48,0-3.16.45-3.16,2.3v16.69c0,.5-.23.72-.68.72h-5.37c-.45,0-.68-.23-.68-.72V359.43a6.43,6.43,0,0,1,1.67-4.69c1.67-1.4,4-1.67,6.5-1.67A29.19,29.19,0,0,1,377.24,353.56Z" transform="translate(0 27.71)" style="fill:#00538b"/><path d="M397.81,353.66c.5.13.72.36.72.72v3.43c0,.5-.27.72-.77.72h-8.12c-1.76,0-2.66.54-2.66,1.62v.45c0,.86.72,1.58,2.17,2.08l5.78,2c3.61,1.26,4.74,3.38,4.74,6.77v.72c0,4.92-3.34,6.59-9.61,6.59a86.47,86.47,0,0,1-9.34-.45c-.5,0-.77-.23-.77-.68V374c0-.45.27-.68.77-.68H390c2.39,0,3.11-.32,3.11-1.53v-.41c0-.9-.54-1.44-2.48-2.12l-5.55-2c-3.07-1-4.6-3.34-4.6-6.86v-.86c0-4.65,3.43-6.5,10.24-6.5A40.34,40.34,0,0,1,397.81,353.66Z" transform="translate(0 27.71)" style="fill:#00538b"/><path d="M411.75,372.88c.32,0,.45.14.45.45v1a1.19,1.19,0,0,1-.23.63l-8.08,11.37c-.23.23-.45.32-.68.18l-2-1.08c-.23-.14-.27-.32-.14-.63l3.34-11.55a.53.53,0,0,1,.54-.41Z" transform="translate(0 27.71)" style="fill:#00538b"/><path d="M448.07,353.29c.41,0,.63.23.63.68v23.28c0,.54-.14.63-.63.77a61.58,61.58,0,0,1-10.83.77c-4.56,0-6.86-.36-8.66-2s-2.21-4.15-2.21-8.89V354c0-.45.23-.68.72-.68h5.32c.41,0,.63.23.63.68V366.2a19.29,19.29,0,0,0,.41,4.74c.54,1.8,1.4,2.08,4.47,2.08H442V354a.6.6,0,0,1,.68-.68Z" transform="translate(0 27.71)" style="fill:#00538b"/><path d="M474.6,355.05c1.8,1.62,2.26,4.15,2.26,8.84v13.94c0,.5-.23.72-.72.72h-5.32c-.45,0-.68-.23-.68-.72V365.61c0-3.38,0-4.83-.9-5.78s-1.58-1-3.92-1H461.2v19c0,.5-.23.72-.68.72h-5.37c-.45,0-.68-.23-.68-.72V354.51c0-.54.23-.59.68-.68a55.47,55.47,0,0,1,10.78-.77C470.49,353.07,472.84,353.43,474.6,355.05Z" transform="translate(0 27.71)" style="fill:#00538b"/><path d="M488.31,343.64a.6.6,0,0,1,.68.68v33.52c0,.5-.23.72-.68.72H483c-.45,0-.68-.23-.68-.72V344.32a.6.6,0,0,1,.68-.68Z" transform="translate(0 27.71)" style="fill:#00538b"/><path d="M502.12,346.26c0,2.3-1.4,3.65-3.88,3.65s-4-1.35-4-3.65,1.44-3.61,4-3.61S502.12,344,502.12,346.26Zm-1.26,7a.6.6,0,0,1,.68.68v23.87c0,.5-.23.72-.68.72h-5.32c-.45,0-.68-.23-.68-.72V354a.6.6,0,0,1,.68-.68Z" transform="translate(0 27.71)" style="fill:#00538b"/><path d="M540.06,355.05c1.4,1.31,2.12,3.83,2.12,7.58l0,15.21c0,.5-.23.72-.68.72h-5.32c-.45,0-.68-.23-.68-.72V365.61c-.23-6.63-.41-6.59-4.29-6.77a23.25,23.25,0,0,0-3.65.27,15.12,15.12,0,0,1,.59,4.78l0,13.94c0,.5-.23.72-.63.72h-5.37c-.41,0-.63-.23-.63-.72V364.08c0-2.57-.13-3.79-.9-4.47s-1.44-.77-3.43-.77H514v19c0,.5-.23.72-.68.72H508c-.45,0-.68-.23-.68-.72V354.51a.64.64,0,0,1,.59-.68,42.45,42.45,0,0,1,8.66-.77,19,19,0,0,1,8.08,1.44,21.63,21.63,0,0,1,7.85-1.49C536.13,353,538.66,353.7,540.06,355.05Z" transform="translate(0 27.71)" style="fill:#00538b"/><path d="M554.9,346.26c0,2.3-1.4,3.65-3.88,3.65s-4-1.35-4-3.65,1.44-3.61,4-3.61S554.9,344,554.9,346.26Zm-1.26,7a.6.6,0,0,1,.68.68v23.87c0,.5-.23.72-.68.72h-5.32c-.45,0-.68-.23-.68-.72V354a.6.6,0,0,1,.68-.68Z" transform="translate(0 27.71)" style="fill:#00538b"/><path d="M567.26,346.3c.5-.14.72.09.72.68v6.45h4.15c.5,0,.77.23.77.68v3.61c0,.45-.27.68-.77.68H568v12.32c0,1.85.63,2.3,2.66,2.3h1.85c.5,0,.77.23.77.68v3.83a.77.77,0,0,1-.72.86,19.49,19.49,0,0,1-3.83.41,13.54,13.54,0,0,1-4.24-.41c-2.12-.59-3-2-3.16-5.41V358.39h-2.66c-.5,0-.72-.23-.72-.68v-3.61c0-.45.23-.68.72-.68h2.66v-5a.69.69,0,0,1,.63-.72Z" transform="translate(0 27.71)" style="fill:#00538b"/><path d="M596.27,355.6c1.49,1.67,2.21,5,2.26,10V367c0,.9-.32,1.22-1.44,1.22H582.91c0,2,.36,3.29,1,3.88s2,.9,4.06.9h8a.6.6,0,0,1,.68.68v3.75a.67.67,0,0,1-.63.72,46,46,0,0,1-8.62.63q-6.84,0-9.07-2.57c-1.49-1.71-2.26-5.14-2.26-10.29s.77-8.62,2.26-10.29,4.51-2.57,9.07-2.57S594.83,353.93,596.27,355.6Zm-13.4,8.26h8.93c0-3.93-1.08-5-4.38-5S582.91,359.93,582.87,363.85Z" transform="translate(0 27.71)" style="fill:#00538b"/><path d="M623.88,343.64c.45,0,.68.23.68.72V376.8a1,1,0,0,1-.95,1.13,61.89,61.89,0,0,1-9.93.86c-4.74,0-7.85-.86-9.38-2.57S602,371.07,602,366s.68-8.48,2.08-10.24,4.15-2.66,8.26-2.66a52.14,52.14,0,0,1,5.55.27v-9c0-.5.23-.72.68-.72Zm-6,15.25h-4.06c-2.21,0-3.65.45-4.24,1.31s-.9,2.75-.9,5.73.27,4.74.81,5.69,1.94,1.4,4.06,1.4a25,25,0,0,0,4.33-.32Z" transform="translate(0 27.71)" style="fill:#00538b"/><rect x="474.94" y="460.22" width="162.51" height="142.19" style="fill:none"/><g id="_Group_5" data-name="&lt;Group&gt;"><g id="_Group_6" data-name="&lt;Group&gt;"><path id="_Compound_Path_2" data-name="&lt;Compound Path&gt;" d="M596.82,534.08H515.57V452.83h81.25ZM519,530.65h74.39V456.26H519Z" transform="translate(0 27.71)" style="fill:#ffcd00"/></g></g><path id="_Path_5" data-name="&lt;Path&gt;" d="M537.27,518.29V524a.12.12,0,0,1-.08.12,19.2,19.2,0,0,1-5.05.63c-7.47,0-8.43-3.7-8.43-5.59s1.39-5.59,8.87-5.59a16.79,16.79,0,0,1,3.54.34.12.12,0,0,1,.09.16l-.7,1.92a.12.12,0,0,1-.15.08,10.57,10.57,0,0,0-2.75-.32c-4.77,0-5.68,2.29-5.68,3.41s.76,3.4,5.78,3.4a13,13,0,0,0,1.39-.07.12.12,0,0,0,.11-.12v-2a.12.12,0,0,0-.12-.12H530.9a.12.12,0,0,1-.11-.16l.65-1.77a.12.12,0,0,1,.11-.08h5.6A.12.12,0,0,1,537.27,518.29Z" transform="translate(0 27.71)" style="fill:#ffcd00"/><path id="_Path_6" data-name="&lt;Path&gt;" d="M573.49,522.19l.73,2a.12.12,0,0,1-.09.16,15.85,15.85,0,0,1-3.46.34c-7.32,0-8.69-3.68-8.69-5.59s1.36-5.59,8.69-5.59a16,16,0,0,1,3.46.34.12.12,0,0,1,.09.16l-.73,2a.12.12,0,0,1-.14.08,9.9,9.9,0,0,0-2.68-.32c-4.68,0-5.54,2.19-5.54,3.32s.87,3.32,5.54,3.32a9.8,9.8,0,0,0,2.67-.32A.12.12,0,0,1,573.49,522.19Z" transform="translate(0 27.71)" style="fill:#ffcd00"/><path d="M581.26,513.53c-4.19,0-7.46,2.47-7.46,5.6s3.19,5.57,7.43,5.57,7.47-2.47,7.47-5.6S585.49,513.53,581.26,513.53Zm0,8.9c-2.47,0-4.32-1.44-4.32-3.33s1.84-3.3,4.28-3.3,4.33,1.44,4.33,3.33S583.7,522.43,581.26,522.43Z" transform="translate(0 27.71)" style="fill:#ffcd00"/><g id="_Group_7" data-name="&lt;Group&gt;"><path id="_Path_7" data-name="&lt;Path&gt;" d="M554.65,516.14v2.23a.12.12,0,0,0,.12.12h5.86a.12.12,0,0,1,.11.16l-.73,2a.12.12,0,0,1-.11.08h-5.13a.12.12,0,0,0-.12.12v3.49a.12.12,0,0,1-.12.12h-3.05a.12.12,0,0,1-.12-.12V513.89a.12.12,0,0,1,.12-.12h11.26a.12.12,0,0,1,.11.16l-.73,2a.12.12,0,0,1-.11.08h-7.23A.12.12,0,0,0,554.65,516.14Z" transform="translate(0 27.71)" style="fill:#ffcd00"/></g><g id="_Group_8" data-name="&lt;Group&gt;"><path id="_Path_8" data-name="&lt;Path&gt;" d="M549.77,522.38l-.73,2a.12.12,0,0,1-.11.08h-9.84a.12.12,0,0,1-.12-.12V513.89a.12.12,0,0,1,.12-.12h10.57a.12.12,0,0,1,.11.16l-.73,2a.12.12,0,0,1-.11.08h-6.54a.12.12,0,0,0-.12.12v1.8a.12.12,0,0,0,.12.12h5.71a.12.12,0,0,1,.11.16l-.73,2a.12.12,0,0,1-.11.08h-5a.12.12,0,0,0-.12.12v1.67a.12.12,0,0,0,.12.12h7.28A.12.12,0,0,1,549.77,522.38Z" transform="translate(0 27.71)" style="fill:#ffcd00"/></g><path d="M502.13,544.58a3.44,3.44,0,0,1,.87,2.73c0,1.39-.22,2.18-.88,2.67a5,5,0,0,1-3.09.62h-1.68v3.57c0,.18,0,.22-.2.22h-1.72c-.16,0-.2,0-.2-.22v-10c0-.15,0-.18.2-.19,1.1-.09,2.29-.15,3.6-.15A4.78,4.78,0,0,1,502.13,544.58Zm-4.78,1.11V549h1.46a3.12,3.12,0,0,0,1.64-.28,1.65,1.65,0,0,0,.39-1.31,1.68,1.68,0,0,0-.41-1.34,2.67,2.67,0,0,0-1.62-.34Z" transform="translate(0 27.71)" style="fill:#00538b"/><path d="M509.2,547.32a2.14,2.14,0,0,1,.69,1.76v4.68a.4.4,0,0,1-.3.42,14,14,0,0,1-3.07.28,4.58,4.58,0,0,1-2.3-.37c-.58-.32-.81-.93-.83-2a2.07,2.07,0,0,1,.66-1.76,3.76,3.76,0,0,1,2.11-.46h1.72v-.49c0-.62-.42-.93-1.27-.93h-2.45c-.15,0-.19,0-.19-.2v-1.11c0-.15,0-.18.19-.22a12.87,12.87,0,0,1,2.45-.2A4.25,4.25,0,0,1,509.2,547.32Zm-1.31,3.88h-1.56c-.7,0-.95.22-.95.81s.28.83,1.15.83a5.08,5.08,0,0,0,1.35-.14Z" transform="translate(0 27.71)" style="fill:#00538b"/><path d="M515.82,546.9a.25.25,0,0,1,.22.27v1.11c0,.14-.08.2-.23.2h-1.27c-.74,0-.95.14-.95.69v5c0,.15-.07.22-.2.22h-1.61c-.14,0-.2-.07-.2-.22v-5.52a1.93,1.93,0,0,1,.5-1.41,3,3,0,0,1,1.95-.5A8.76,8.76,0,0,1,515.82,546.9Z" transform="translate(0 27.71)" style="fill:#00538b"/><path d="M519.58,544.72c.15,0,.22,0,.22.2v1.94H521c.15,0,.23.07.23.2v1.08c0,.14-.08.2-.23.2H519.8V552c0,.55.19.69.8.69h.55c.15,0,.23.07.23.2v1.15a.23.23,0,0,1-.22.26,5.85,5.85,0,0,1-1.15.12,4.06,4.06,0,0,1-1.27-.12c-.64-.18-.89-.6-.95-1.62v-4.37H517c-.15,0-.22-.07-.22-.2v-1.08c0-.14.07-.2.22-.2h.8v-1.5a.21.21,0,0,1,.19-.22Z" transform="translate(0 27.71)" style="fill:#00538b"/><path d="M528.69,547.34c.54.49.68,1.25.68,2.65v4.18a.19.19,0,0,1-.22.22h-1.6c-.14,0-.2-.07-.2-.22v-3.67c0-1,0-1.45-.27-1.73s-.47-.3-1.18-.3h-1.23v5.7c0,.15-.07.22-.2.22h-1.61c-.14,0-.2-.07-.2-.22v-7c0-.16.07-.18.2-.2a16.64,16.64,0,0,1,3.24-.23C527.46,546.75,528.17,546.86,528.69,547.34Z" transform="translate(0 27.71)" style="fill:#00538b"/><path d="M536.83,547.51a4.83,4.83,0,0,1,.68,3v.42c0,.27-.09.37-.43.37h-4.25a1.64,1.64,0,0,0,.31,1.16,2,2,0,0,0,1.22.27h2.4a.18.18,0,0,1,.2.2v1.12a.2.2,0,0,1-.19.22,13.8,13.8,0,0,1-2.59.19,3.58,3.58,0,0,1-2.72-.77,5,5,0,0,1-.68-3.09,4.91,4.91,0,0,1,.68-3.09,3.58,3.58,0,0,1,2.72-.77A3.48,3.48,0,0,1,536.83,547.51Zm-4,2.48h2.68c0-1.18-.32-1.5-1.31-1.5S532.82,548.8,532.81,550Z" transform="translate(0 27.71)" style="fill:#00538b"/><path d="M543.13,546.9a.25.25,0,0,1,.22.27v1.11c0,.14-.08.2-.23.2h-1.27c-.74,0-.95.14-.95.69v5c0,.15-.07.22-.2.22h-1.61c-.14,0-.2-.07-.2-.22v-5.52a1.93,1.93,0,0,1,.5-1.41,3,3,0,0,1,1.95-.5A8.76,8.76,0,0,1,543.13,546.9Z" transform="translate(0 27.71)" style="fill:#00538b"/><path d="M549.31,546.92c.15,0,.22.11.22.22v1c0,.15-.08.22-.23.22h-2.44c-.53,0-.8.16-.8.49V549c0,.26.22.47.65.62l1.73.61a1.87,1.87,0,0,1,1.42,2v.22c0,1.48-1,2-2.88,2a26,26,0,0,1-2.8-.14c-.15,0-.23-.07-.23-.2V553c0-.14.08-.2.23-.2H547c.72,0,.93-.09.93-.46v-.12c0-.27-.16-.43-.74-.64l-1.66-.6A2,2,0,0,1,544.1,549v-.26c0-1.39,1-1.95,3.07-1.95A12.1,12.1,0,0,1,549.31,546.92Z" transform="translate(0 27.71)" style="fill:#00538b"/><path d="M553.49,552.69c.09,0,.14,0,.14.14v.31a.36.36,0,0,1-.07.19l-2.42,3.41c-.07.07-.14.09-.2.05l-.6-.32c-.07,0-.08-.09,0-.19l1-3.47a.16.16,0,0,1,.16-.12Z" transform="translate(0 27.71)" style="fill:#00538b"/><path d="M564.38,546.82c.12,0,.19.07.19.2v7c0,.16,0,.19-.19.23a18.48,18.48,0,0,1-3.25.23c-1.37,0-2.06-.11-2.6-.6s-.66-1.25-.66-2.67V547c0-.14.07-.2.22-.2h1.6c.12,0,.19.07.19.2v3.67a5.79,5.79,0,0,0,.12,1.42c.16.54.42.62,1.34.62h1.22V547a.18.18,0,0,1,.2-.2Z" transform="translate(0 27.71)" style="fill:#00538b"/><path d="M572.34,547.34c.54.49.68,1.25.68,2.65v4.18c0,.15-.07.22-.22.22h-1.6c-.14,0-.2-.07-.2-.22v-3.67c0-1,0-1.45-.27-1.73s-.47-.3-1.18-.3h-1.23v5.7c0,.15-.07.22-.2.22h-1.61c-.14,0-.2-.07-.2-.22v-7c0-.16.07-.18.2-.2a16.64,16.64,0,0,1,3.24-.23C571.11,546.75,571.81,546.86,572.34,547.34Z" transform="translate(0 27.71)" style="fill:#00538b"/><path d="M576.46,543.92a.18.18,0,0,1,.2.2v10.06c0,.15-.07.22-.2.22h-1.6c-.14,0-.2-.07-.2-.22V544.12a.18.18,0,0,1,.2-.2Z" transform="translate(0 27.71)" style="fill:#00538b"/><path d="M580.6,544.7a1,1,0,0,1-1.16,1.1,1,1,0,0,1-1.19-1.1c0-.69.43-1.08,1.19-1.08A1,1,0,0,1,580.6,544.7Zm-.38,2.11a.18.18,0,0,1,.2.2v7.16c0,.15-.07.22-.2.22h-1.6c-.14,0-.2-.07-.2-.22V547a.18.18,0,0,1,.2-.2Z" transform="translate(0 27.71)" style="fill:#00538b"/><path d="M592,547.34a3.1,3.1,0,0,1,.64,2.27v4.56c0,.15-.07.22-.2.22h-1.6c-.14,0-.2-.07-.2-.22v-3.67c-.07-2-.12-2-1.29-2a7,7,0,0,0-1.1.08,4.53,4.53,0,0,1,.18,1.43v4.18c0,.15-.07.22-.19.22h-1.61c-.12,0-.19-.07-.19-.22v-4.13c0-.77,0-1.14-.27-1.34s-.43-.23-1-.23h-.92v5.7c0,.15-.07.22-.2.22h-1.6c-.14,0-.2-.07-.2-.22v-7a.19.19,0,0,1,.18-.2,12.74,12.74,0,0,1,2.6-.23,5.7,5.7,0,0,1,2.42.43,6.49,6.49,0,0,1,2.36-.45A3.25,3.25,0,0,1,592,547.34Z" transform="translate(0 27.71)" style="fill:#00538b"/><path d="M596.43,544.7a1,1,0,0,1-1.16,1.1,1,1,0,0,1-1.19-1.1c0-.69.43-1.08,1.19-1.08A1,1,0,0,1,596.43,544.7Zm-.38,2.11a.18.18,0,0,1,.2.2v7.16c0,.15-.07.22-.2.22h-1.6c-.14,0-.2-.07-.2-.22V547a.18.18,0,0,1,.2-.2Z" transform="translate(0 27.71)" style="fill:#00538b"/><path d="M600.14,544.72c.15,0,.22,0,.22.2v1.94h1.25c.15,0,.23.07.23.2v1.08c0,.14-.08.2-.23.2h-1.25V552c0,.55.19.69.8.69h.56c.15,0,.23.07.23.2v1.15a.23.23,0,0,1-.22.26,5.85,5.85,0,0,1-1.15.12,4.06,4.06,0,0,1-1.27-.12c-.64-.18-.89-.6-.95-1.62v-4.37h-.8c-.15,0-.22-.07-.22-.2v-1.08c0-.14.07-.2.22-.2h.8v-1.5a.21.21,0,0,1,.19-.22Z" transform="translate(0 27.71)" style="fill:#00538b"/><path d="M608.84,547.51a4.83,4.83,0,0,1,.68,3v.42c0,.27-.1.37-.43.37h-4.25a1.64,1.64,0,0,0,.31,1.16,2,2,0,0,0,1.22.27h2.4a.18.18,0,0,1,.2.2v1.12a.2.2,0,0,1-.19.22,13.81,13.81,0,0,1-2.59.19,3.58,3.58,0,0,1-2.72-.77,5,5,0,0,1-.68-3.09,4.91,4.91,0,0,1,.68-3.09,3.58,3.58,0,0,1,2.72-.77A3.48,3.48,0,0,1,608.84,547.51Zm-4,2.48h2.68c0-1.18-.32-1.5-1.31-1.5S604.84,548.8,604.82,550Z" transform="translate(0 27.71)" style="fill:#00538b"/><path d="M617.13,543.92c.14,0,.2.07.2.22v9.73a.3.3,0,0,1-.28.34,18.57,18.57,0,0,1-3,.26,3.78,3.78,0,0,1-2.82-.77,4.84,4.84,0,0,1-.69-3.07,5.28,5.28,0,0,1,.62-3.07,3.06,3.06,0,0,1,2.48-.8,15.64,15.64,0,0,1,1.66.08v-2.69c0-.15.07-.22.2-.22Zm-1.8,4.57h-1.22c-.66,0-1.1.14-1.27.39a3.51,3.51,0,0,0-.27,1.72,3.93,3.93,0,0,0,.24,1.71c.18.28.58.42,1.22.42a7.49,7.49,0,0,0,1.3-.09Z" transform="translate(0 27.71)" style="fill:#00538b"/></g><g id="Interne"><rect x="56.69" y="452.52" width="678.37" height="142.12" style="fill:none;stroke:#1d1d1b;stroke-width:0.225px"/><line x1="240.24" y1="469.36" x2="735.06" y2="469.36" style="fill:none;stroke:#1d1d1b;stroke-width:0.27px"/><path d="M61.16,474.81V474c1.43-1.9,1.73-2.12,1.73-2.69,0-.23-.08-.44-.34-.44s-.4.36-.4.65h-.92a1.12,1.12,0,0,1,1.25-1.31c.79,0,1.33.32,1.33,1.17,0,1-1.19,2.18-1.68,2.72h1.73v.7Z" transform="translate(0 27.71)" style="fill:#1d1d1b"/><path d="M64.11,472.86l1.1-2.59h1.2v2.8h.36v.7h-.36v1h-.9v-1h-1.4Zm1.48.21.06-2.17h0l-.83,2.17Z" transform="translate(0 27.71)" style="fill:#1d1d1b"/><path d="M67.28,473.95h.85l-.49,1.49H67Z" transform="translate(0 27.71)" style="fill:#1d1d1b"/><path d="M71,471.52v.42h0a.83.83,0,0,1,.85-.49v.82c-.81-.05-.82.42-.82.74v1.79H70.1v-3.28Z" transform="translate(0 27.71)" style="fill:#1d1d1b"/><path d="M73.87,474.48h0a.82.82,0,0,1-.77.4.74.74,0,0,1-.82-.72v-2.63h.92v2.27c0,.29.05.51.34.51s.34-.21.34-.51v-2.27h.92v2.63c0,.21,0,.44,0,.65h-.95Z" transform="translate(0 27.71)" style="fill:#1d1d1b"/><path d="M76.36,473.31c0,.39,0,1,.42,1s.39-.31.39-.59h.93a1.17,1.17,0,0,1-.35.85,1.37,1.37,0,0,1-1,.32c-1.18,0-1.34-.72-1.34-1.75s.13-1.66,1.34-1.66,1.37.8,1.34,1.85Zm.84-.51c0-.32,0-.77-.42-.77s-.42.49-.42.77Z" transform="translate(0 27.71)" style="fill:#1d1d1b"/><path d="M81.53,474.88c-1.22,0-1.44-.71-1.39-1.53h1c0,.45,0,.83.56.83a.47.47,0,0,0,.49-.53c0-.84-2-.9-2-2.29,0-.74.35-1.32,1.55-1.32,1,0,1.43.43,1.36,1.41h-1c0-.35-.06-.71-.46-.71a.46.46,0,0,0-.51.5c0,.89,2,.81,2,2.29C83.17,474.74,82.28,474.88,81.53,474.88Z" transform="translate(0 27.71)" style="fill:#1d1d1b"/><path d="M86.31,474.2c0,.2,0,.41,0,.61h-.85l0-.44h0a.91.91,0,0,1-.86.5c-.64,0-.87-.47-.87-1,0-1.09.84-1.13,1.69-1.12v-.25c0-.28,0-.48-.37-.48s-.34.24-.34.5h-.9a.9.9,0,0,1,.34-.8,1.42,1.42,0,0,1,.86-.21c1.16,0,1.31.5,1.31,1.1Zm-1.69-.41c0,.23,0,.52.34.52.54,0,.46-.73.46-1.08C85,473.24,84.62,473.2,84.62,473.79Z" transform="translate(0 27.71)" style="fill:#1d1d1b"/><path d="M88.07,470.11v4.69h-.92v-4.69Z" transform="translate(0 27.71)" style="fill:#1d1d1b"/><path d="M88.8,473.12c0-.9.13-1.66,1.34-1.66s1.34.77,1.34,1.66-.16,1.75-1.34,1.75S88.8,474.15,88.8,473.12Zm1.76-.05c0-.68,0-1-.42-1s-.42.34-.42,1c0,1,.08,1.22.42,1.22S90.56,474.07,90.56,473.07Z" transform="translate(0 27.71)" style="fill:#1d1d1b"/><path d="M93,471.86h0a.9.9,0,0,1,1.51,0,1,1,0,0,1,.85-.42.74.74,0,0,1,.82.71v2.63h-.92v-2.26c0-.29-.05-.52-.34-.52s-.34.23-.34.52v2.26h-.9v-2.26c0-.29-.05-.52-.34-.52s-.34.23-.34.52v2.26h-.92v-3.28H93Z" transform="translate(0 27.71)" style="fill:#1d1d1b"/><path d="M96.75,473.12c0-.9.13-1.66,1.34-1.66s1.34.77,1.34,1.66-.16,1.75-1.34,1.75S96.75,474.15,96.75,473.12Zm1.76-.05c0-.68,0-1-.42-1s-.42.34-.42,1c0,1,.08,1.22.42,1.22S98.51,474.07,98.51,473.07Z" transform="translate(0 27.71)" style="fill:#1d1d1b"/><path d="M101,471.86h0a.76.76,0,0,1,.33-.31,1,1,0,0,1,.45-.09.74.74,0,0,1,.82.71v2.63h-.92v-2.26c0-.29-.05-.52-.34-.52s-.34.23-.34.52v2.26h-.92v-3.28H101Z" transform="translate(0 27.71)" style="fill:#1d1d1b"/><path d="M106.41,474.81v-.36h0a.78.78,0,0,1-.77.43c-.95,0-.92-1.05-.92-1.73s0-1.68.9-1.68a.8.8,0,0,1,.75.38h0v-1.72h.92v4.69Zm0-1.67c0-.66,0-1.11-.37-1.11s-.39.46-.39,1.11c0,.83.06,1.17.39,1.17S106.36,474,106.36,473.14Z" transform="translate(0 27.71)" style="fill:#1d1d1b"/><path d="M108.86,473.31c0,.39,0,1,.42,1s.39-.31.39-.59h.93a1.17,1.17,0,0,1-.35.85,1.37,1.37,0,0,1-1,.32c-1.18,0-1.34-.72-1.34-1.75s.13-1.66,1.34-1.66,1.37.8,1.34,1.85Zm.84-.51c0-.32,0-.77-.42-.77s-.42.49-.42.77Z" transform="translate(0 27.71)" style="fill:#1d1d1b"/><path d="M113.72,474.81h-1v-4.69h1.81c.67,0,1.1.43,1.1,1.23a1,1,0,0,1-.87,1.15h0a.83.83,0,0,1,.85.92,6.45,6.45,0,0,0,.11,1.38h-1a2.16,2.16,0,0,1-.1-.91c0-.56.05-1-.7-1h-.25Zm0-2.67h.44c.39,0,.5-.39.5-.69s-.19-.62-.5-.62h-.44Z" transform="translate(0 27.71)" style="fill:#1d1d1b"/><path d="M116.25,473.12c0-.9.13-1.66,1.34-1.66s1.34.77,1.34,1.66-.16,1.75-1.34,1.75S116.25,474.15,116.25,473.12Zm1.76-.05c0-.68,0-1-.42-1s-.42.34-.42,1c0,1,.08,1.22.42,1.22S118,474.07,118,473.07Z" transform="translate(0 27.71)" style="fill:#1d1d1b"/><path d="M119.2,471.52h.37V471l.92-.41v.93H121v.57h-.47v1.75c0,.25,0,.41.29.41h.16v.57a3.83,3.83,0,0,1-.47,0c-.79,0-.9-.53-.9-.73v-2h-.37Z" transform="translate(0 27.71)" style="fill:#1d1d1b"/><path d="M123,474.81v-2.26c0-.29-.05-.52-.34-.52s-.34.23-.34.52v2.26h-.92v-4.69h.92v1.74h0a.77.77,0,0,1,.33-.31,1,1,0,0,1,.45-.09.74.74,0,0,1,.82.71v2.63Z" transform="translate(0 27.71)" style="fill:#1d1d1b"/><path d="M125.35,473.75a.94.94,0,0,0,0,.4c.05.1.15.16.33.16a.32.32,0,0,0,.34-.34c0-.7-1.61-.54-1.61-1.59,0-.71.7-.92,1.29-.92s1.19.3,1.14,1H126c0-.23,0-.36-.09-.42a.31.31,0,0,0-.23-.07c-.2,0-.31.13-.31.35,0,.52,1.61.49,1.61,1.55,0,.57-.47,1-1.23,1s-1.33-.2-1.28-1.12Z" transform="translate(0 27.71)" style="fill:#1d1d1b"/><path d="M129.19,472.69c0-.49-.12-.65-.41-.65s-.42.34-.42,1c0,1,.08,1.22.42,1.22s.42-.26.42-.69h.92c0,.89-.48,1.27-1.34,1.27-1.18,0-1.34-.72-1.34-1.75s.13-1.66,1.34-1.66c.84,0,1.33.38,1.33,1.24Z" transform="translate(0 27.71)" style="fill:#1d1d1b"/><path d="M132.37,474.81v-2.26c0-.29-.05-.52-.34-.52s-.34.23-.34.52v2.26h-.92v-4.69h.92v1.74h0a.76.76,0,0,1,.32-.31,1,1,0,0,1,.45-.09.74.74,0,0,1,.82.71v2.63Z" transform="translate(0 27.71)" style="fill:#1d1d1b"/><path d="M135,470.11v.72h-.92v-.72Zm0,4.69h-.92v-3.28H135Z" transform="translate(0 27.71)" style="fill:#1d1d1b"/><path d="M136.82,470.11v4.69h-.92v-4.69Z" transform="translate(0 27.71)" style="fill:#1d1d1b"/><path d="M139.27,474.81v-.36h0a.78.78,0,0,1-.77.43c-.95,0-.92-1.05-.92-1.73s0-1.68.9-1.68a.8.8,0,0,1,.75.38h0v-1.72h.92v4.69Zm0-1.67c0-.66,0-1.11-.37-1.11s-.39.46-.39,1.11c0,.83.06,1.17.39,1.17S139.22,474,139.22,473.14Z" transform="translate(0 27.71)" style="fill:#1d1d1b"/><path d="M143.84,472.72v.66h-1.59v-.66Z" transform="translate(0 27.71)" style="fill:#1d1d1b"/><path d="M146.67,473.74a.62.62,0,0,0,.06.32.3.3,0,0,0,.27.14c.46,0,.4-.37.4-1.45a1,1,0,0,1-.75.3c-.7,0-1-.62-1-1.23,0-.89.27-1.61,1.29-1.61,1.35,0,1.34,1.07,1.34,2.35,0,1.12,0,2.31-1.35,2.31-.79,0-1.24-.27-1.22-1.12Zm.33-1.31c.39,0,.41-.53.41-.81s0-.79-.4-.79-.4.53-.4.81S146.61,472.43,147,472.43Z" transform="translate(0 27.71)" style="fill:#1d1d1b"/><path d="M148.53,474.81V474c1.43-1.9,1.73-2.12,1.73-2.69,0-.23-.08-.44-.34-.44s-.4.36-.4.65h-.92a1.12,1.12,0,0,1,1.25-1.31c.79,0,1.33.32,1.33,1.17,0,1-1.19,2.18-1.68,2.72h1.73v.7Z" transform="translate(0 27.71)" style="fill:#1d1d1b"/><path d="M151.42,474.81V474c1.43-1.9,1.73-2.12,1.73-2.69,0-.23-.08-.44-.34-.44s-.4.36-.4.65h-.92a1.12,1.12,0,0,1,1.25-1.31c.79,0,1.33.32,1.33,1.17,0,1-1.19,2.18-1.68,2.72h1.73v.7Z" transform="translate(0 27.71)" style="fill:#1d1d1b"/><path d="M154.35,473.64c0-.56.08-1,.67-1.23h0c-.51-.13-.63-.51-.63-1,0-.83.44-1.2,1.27-1.2s1.27.38,1.27,1.2c0,.48-.12.86-.63,1h0c.58.21.67.67.67,1.23,0,.85-.46,1.22-1.31,1.22S154.35,474.49,154.35,473.64Zm.92-.06c0,.26,0,.62.4.62s.4-.36.4-.62,0-.81-.4-.81S155.27,473.31,155.27,473.58Zm0-2.12c0,.23,0,.61.36.61s.36-.38.36-.61,0-.59-.36-.59S155.31,471.24,155.31,471.47Z" transform="translate(0 27.71)" style="fill:#1d1d1b"/><path d="M157.24,473.64c0-.56.08-1,.67-1.23h0c-.51-.13-.63-.51-.63-1,0-.83.44-1.2,1.27-1.2s1.27.38,1.27,1.2c0,.48-.12.86-.63,1h0c.58.21.67.67.67,1.23,0,.85-.46,1.22-1.31,1.22S157.24,474.49,157.24,473.64Zm.92-.06c0,.26,0,.62.4.62s.4-.36.4-.62,0-.81-.4-.81S158.16,473.31,158.16,473.58Zm0-2.12c0,.23,0,.61.36.61s.36-.38.36-.61,0-.59-.36-.59S158.2,471.24,158.2,471.47Z" transform="translate(0 27.71)" style="fill:#1d1d1b"/><path d="M163.12,474.88c-1.22,0-1.44-.71-1.39-1.53h1c0,.45,0,.83.56.83a.47.47,0,0,0,.49-.53c0-.84-2-.9-2-2.29,0-.74.35-1.32,1.55-1.32,1,0,1.43.43,1.36,1.41h-1c0-.35-.06-.71-.46-.71a.46.46,0,0,0-.51.5c0,.89,2,.81,2,2.29C164.76,474.74,163.87,474.88,163.12,474.88Z" transform="translate(0 27.71)" style="fill:#1d1d1b"/><path d="M167,474.48h0a.82.82,0,0,1-.77.4.74.74,0,0,1-.82-.72v-2.63h.92v2.27c0,.29.05.51.34.51s.34-.21.34-.51v-2.27h.92v2.63c0,.21,0,.44,0,.65H167Z" transform="translate(0 27.71)" style="fill:#1d1d1b"/><path d="M169.54,471.52v.42h0a.83.83,0,0,1,.85-.49v.82c-.81-.05-.82.42-.82.74v1.79h-.92v-3.28Z" transform="translate(0 27.71)" style="fill:#1d1d1b"/><path d="M171.68,473.31c0,.39,0,1,.42,1s.39-.31.39-.59h.93a1.16,1.16,0,0,1-.35.85,1.37,1.37,0,0,1-1,.32c-1.18,0-1.34-.72-1.34-1.75s.13-1.66,1.34-1.66,1.37.8,1.34,1.85Zm.84-.51c0-.32,0-.77-.42-.77s-.42.49-.42.77Z" transform="translate(0 27.71)" style="fill:#1d1d1b"/><path d="M174.8,473.75a.94.94,0,0,0,0,.4c.05.1.15.16.33.16a.32.32,0,0,0,.34-.34c0-.7-1.61-.54-1.61-1.59,0-.71.7-.92,1.29-.92s1.19.3,1.14,1h-.9c0-.23,0-.36-.09-.42a.31.31,0,0,0-.23-.07c-.2,0-.31.13-.31.35,0,.52,1.61.49,1.61,1.55,0,.57-.47,1-1.23,1s-1.33-.2-1.28-1.12Z" transform="translate(0 27.71)" style="fill:#1d1d1b"/><path d="M177.88,471.86h0a.77.77,0,0,1,.33-.31,1,1,0,0,1,.45-.09.74.74,0,0,1,.82.71v2.63h-.92v-2.26c0-.29-.05-.52-.34-.52s-.34.23-.34.52v2.26H177v-3.28h.92Z" transform="translate(0 27.71)" style="fill:#1d1d1b"/><path d="M181.06,473.31c0,.39,0,1,.42,1s.39-.31.39-.59h.93a1.17,1.17,0,0,1-.35.85,1.37,1.37,0,0,1-1,.32c-1.18,0-1.34-.72-1.34-1.75s.13-1.66,1.34-1.66,1.37.8,1.34,1.85Zm.84-.51c0-.32,0-.77-.42-.77s-.42.49-.42.77Z" transform="translate(0 27.71)" style="fill:#1d1d1b"/><path d="M184.19,473.75a.94.94,0,0,0,0,.4c.05.1.15.16.33.16a.32.32,0,0,0,.34-.34c0-.7-1.61-.54-1.61-1.59,0-.71.7-.92,1.29-.92s1.19.3,1.14,1h-.9c0-.23,0-.36-.09-.42a.31.31,0,0,0-.23-.07c-.2,0-.31.13-.31.35,0,.52,1.61.49,1.61,1.55,0,.57-.47,1-1.23,1s-1.33-.2-1.28-1.12Z" transform="translate(0 27.71)" style="fill:#1d1d1b"/><path d="M189.31,472.72v.66h-1.59v-.66Z" transform="translate(0 27.71)" style="fill:#1d1d1b"/><path d="M191.43,474.81v-4.69h2.44v.72h-1.46V472h1.39v.72h-1.39v2Z" transform="translate(0 27.71)" style="fill:#1d1d1b"/><path d="M195.3,474.81h-1v-4.69h1.81c.67,0,1.1.43,1.1,1.23a1,1,0,0,1-.87,1.15h0a.83.83,0,0,1,.85.92,6.42,6.42,0,0,0,.11,1.38h-1a2.16,2.16,0,0,1-.1-.91c0-.56.05-1-.7-1h-.25Zm0-2.67h.44c.39,0,.5-.39.5-.69s-.19-.62-.5-.62h-.44Z" transform="translate(0 27.71)" style="fill:#1d1d1b"/><path d="M197.59,474.81l1.3-4.69h1.29l1.27,4.69h-1l-.26-1h-1.34l-.27,1Zm1.89-3.79h0l-.45,2H200Z" transform="translate(0 27.71)" style="fill:#1d1d1b"/><path d="M201.93,474.81v-4.69h1.33l1.25,3.25h0v-3.25h.92v4.69h-1.29l-1.28-3.43h0v3.43Z" transform="translate(0 27.71)" style="fill:#1d1d1b"/><path d="M206.21,472.46c0-1.24,0-2.42,1.62-2.42,1,0,1.4.55,1.36,1.56h-1c0-.62-.11-.86-.4-.86-.55,0-.62.52-.62,1.72s.07,1.72.62,1.72.44-.58.45-1h1c0,1.25-.5,1.66-1.42,1.66C206.21,474.88,206.21,473.69,206.21,472.46Z" transform="translate(0 27.71)" style="fill:#1d1d1b"/><path d="M209.87,474.81v-4.69h2.56v.72h-1.58V472h1.46v.72h-1.46v1.37h1.63v.72Z" transform="translate(0 27.71)" style="fill:#1d1d1b"/><path d="M64.29,478.11v.78H63.19v3.91h-1v-3.91H61.12v-.78Z" transform="translate(0 27.71)" style="fill:#1d1d1b"/><path d="M65.54,481.31c0,.39,0,1,.42,1s.39-.31.39-.59h.93a1.17,1.17,0,0,1-.35.85,1.37,1.37,0,0,1-1,.32c-1.18,0-1.34-.72-1.34-1.75s.13-1.66,1.34-1.66,1.37.8,1.34,1.85Zm1.32-3.2-1,.93H65.4l.58-.93Zm-.48,2.68c0-.32,0-.77-.42-.77s-.42.49-.42.77Z" transform="translate(0 27.71)" style="fill:#1d1d1b"/><path d="M68.94,478.11v4.69H68v-4.69Z" transform="translate(0 27.71)" style="fill:#1d1d1b"/><path d="M70.5,481.95v.86h-.78v-.86Z" transform="translate(0 27.71)" style="fill:#1d1d1b"/><path d="M73.39,479.52v.86h-.78v-.86Zm0,3.28h-.78v-.86h.78Z" transform="translate(0 27.71)" style="fill:#1d1d1b"/><path d="M76.43,479.52h.72v1.28h1.1v.72h-1.1v1.28h-.72v-1.28h-1.1v-.72h1.1Z" transform="translate(0 27.71)" style="fill:#1d1d1b"/><path d="M78.54,479.4a1.19,1.19,0,0,1,.31-.95,1.52,1.52,0,0,1,1-.24c.84,0,1.24.34,1.24,1.21,0,.43-.12.94-.62,1h0c.59.11.69.58.69,1.11,0,.94-.5,1.32-1.42,1.32s-1.25-.32-1.25-1.29h.92c0,.3,0,.62.38.62s.45-.38.45-.7c0-.66-.21-.7-.85-.7v-.72c.6,0,.78,0,.78-.67,0-.25,0-.54-.35-.54s-.36.27-.36.53Z" transform="translate(0 27.71)" style="fill:#1d1d1b"/><path d="M81.43,479.4a1.19,1.19,0,0,1,.31-.95,1.52,1.52,0,0,1,1-.24c.85,0,1.24.34,1.24,1.21,0,.43-.12.94-.62,1h0c.59.11.69.58.69,1.11,0,.94-.5,1.32-1.42,1.32s-1.25-.32-1.25-1.29h.92c0,.3,0,.62.38.62s.45-.38.45-.7c0-.66-.21-.7-.85-.7v-.72c.6,0,.78,0,.78-.67,0-.25,0-.54-.35-.54s-.36.27-.36.53Z" transform="translate(0 27.71)" style="fill:#1d1d1b"/><path d="M87,477.9a12.1,12.1,0,0,0-.42,2.8,14,14,0,0,0,.42,2.89h-.51a9.66,9.66,0,0,1-.69-2.9,8.51,8.51,0,0,1,.69-2.79Z" transform="translate(0 27.71)" style="fill:#1d1d1b"/><path d="M90.19,480.53c0,1.42-.09,2.34-1.31,2.34s-1.31-.92-1.31-2.34c0-1.74.19-2.31,1.31-2.31S90.19,478.79,90.19,480.53Zm-1.71,0c0,1.37,0,1.66.4,1.66s.4-.29.4-1.66,0-1.66-.4-1.66S88.48,479.14,88.48,480.54Z" transform="translate(0 27.71)" style="fill:#1d1d1b"/><path d="M90.71,483.59a12.07,12.07,0,0,0,.42-2.8,14,14,0,0,0-.42-2.89h.51a9.66,9.66,0,0,1,.69,2.9,8.51,8.51,0,0,1-.69,2.79Z" transform="translate(0 27.71)" style="fill:#1d1d1b"/><path d="M92.44,479a2.78,2.78,0,0,0,.88-.7h.87v4.54h-1v-3.49a4.7,4.7,0,0,1-.77.51Z" transform="translate(0 27.71)" style="fill:#1d1d1b"/><path d="M97.59,480.1h0a.76.76,0,0,1,.66-.31c.75,0,1,.51,1,1.5,0,1.22-.46,1.56-1.38,1.56-.75,0-1.23-.31-1.2-1.12h.92a.63.63,0,0,0,.06.33.3.3,0,0,0,.28.14c.36,0,.41-.28.41-.9,0-.29,0-.91-.39-.91s-.34.3-.34.51h-.88v-2.63h2.37v.7H97.59Z" transform="translate(0 27.71)" style="fill:#1d1d1b"/><path d="M102,479.13l-1.1,3.67h-1l1.24-3.83H99.54v-.7H102Z" transform="translate(0 27.71)" style="fill:#1d1d1b"/><path d="M103.8,479.4a1.19,1.19,0,0,1,.31-.95,1.52,1.52,0,0,1,1-.24c.85,0,1.24.34,1.24,1.21,0,.43-.12.94-.62,1h0c.59.11.69.58.69,1.11,0,.94-.5,1.32-1.42,1.32s-1.25-.32-1.25-1.29h.92c0,.3,0,.62.38.62s.45-.38.45-.7c0-.66-.21-.7-.85-.7v-.72c.6,0,.78,0,.78-.67,0-.25,0-.54-.35-.54s-.36.27-.36.53Z" transform="translate(0 27.71)" style="fill:#1d1d1b"/><path d="M106.63,482.81V482c1.43-1.9,1.73-2.12,1.73-2.69,0-.23-.08-.44-.34-.44s-.4.36-.4.65h-.92a1.12,1.12,0,0,1,1.25-1.31c.79,0,1.33.32,1.33,1.17,0,1-1.19,2.18-1.68,2.72h1.73v.7Z" transform="translate(0 27.71)" style="fill:#1d1d1b"/><path d="M111,481.64c0-.56.08-1,.67-1.23h0c-.51-.13-.63-.51-.63-1,0-.83.44-1.2,1.27-1.2s1.27.38,1.27,1.2c0,.48-.12.86-.63,1h0c.59.21.67.67.67,1.23,0,.85-.46,1.22-1.31,1.22S111,482.49,111,481.64Zm.92-.06c0,.26,0,.62.4.62s.4-.36.4-.62,0-.81-.4-.81S111.93,481.31,111.93,481.58Zm0-2.12c0,.23,0,.61.36.61s.36-.38.36-.61,0-.59-.36-.59S112,479.24,112,479.47Z" transform="translate(0 27.71)" style="fill:#1d1d1b"/><path d="M116.41,479.13l-1.1,3.67h-1l1.24-3.83H114v-.7h2.44Z" transform="translate(0 27.71)" style="fill:#1d1d1b"/><path d="M120.85,480.53c0,1.42-.09,2.34-1.31,2.34s-1.31-.92-1.31-2.34c0-1.74.19-2.31,1.31-2.31S120.85,478.79,120.85,480.53Zm-1.71,0c0,1.37,0,1.66.4,1.66s.4-.29.4-1.66,0-1.66-.4-1.66S119.14,479.14,119.14,480.54Z" transform="translate(0 27.71)" style="fill:#1d1d1b"/><path d="M123.74,480.53c0,1.42-.09,2.34-1.31,2.34s-1.31-.92-1.31-2.34c0-1.74.2-2.31,1.31-2.31S123.74,478.79,123.74,480.53Zm-1.71,0c0,1.37,0,1.66.4,1.66s.4-.29.4-1.66,0-1.66-.4-1.66S122,479.14,122,480.54Z" transform="translate(0 27.71)" style="fill:#1d1d1b"/><path d="M125.1,483.43l1.55-5.32h.66l-1.55,5.32Z" transform="translate(0 27.71)" style="fill:#1d1d1b"/><path d="M129,482.81v-4.69h2.44v.72h-1.46V480h1.39v.72h-1.39v2Z" transform="translate(0 27.71)" style="fill:#1d1d1b"/><path d="M134.3,482.2c0,.2,0,.41,0,.61h-.85l0-.44h0a.91.91,0,0,1-.86.5c-.64,0-.87-.47-.87-1,0-1.09.84-1.13,1.69-1.12v-.25c0-.28,0-.48-.37-.48s-.34.24-.34.5h-.9a.9.9,0,0,1,.34-.8,1.43,1.43,0,0,1,.86-.21c1.16,0,1.31.5,1.31,1.1Zm-1.69-.41c0,.23,0,.52.34.52.54,0,.46-.73.46-1.08C132.95,481.24,132.61,481.2,132.61,481.79Z" transform="translate(0 27.71)" style="fill:#1d1d1b"/><path d="M135.64,482.81h-.91l1-1.72-.89-1.56h1l.48,1,.55-1h.92l-.88,1.57.94,1.71h-1l-.57-1.15Z" transform="translate(0 27.71)" style="fill:#1d1d1b"/><path d="M140.5,479.52v.86h-.78v-.86Zm0,3.28h-.78v-.86h.78Z" transform="translate(0 27.71)" style="fill:#1d1d1b"/><path d="M143.54,479.52h.72v1.28h1.1v.72h-1.1v1.28h-.72v-1.28h-1.1v-.72h1.1Z" transform="translate(0 27.71)" style="fill:#1d1d1b"/><path d="M145.66,479.4a1.19,1.19,0,0,1,.31-.95,1.52,1.52,0,0,1,1-.24c.84,0,1.24.34,1.24,1.21,0,.43-.12.94-.62,1h0c.59.11.69.58.69,1.11,0,.94-.5,1.32-1.42,1.32s-1.25-.32-1.25-1.29h.92c0,.3,0,.62.38.62s.45-.38.45-.7c0-.66-.21-.7-.85-.7v-.72c.6,0,.78,0,.78-.67,0-.25,0-.54-.35-.54s-.36.27-.36.53Z" transform="translate(0 27.71)" style="fill:#1d1d1b"/><path d="M148.54,479.4a1.19,1.19,0,0,1,.31-.95,1.52,1.52,0,0,1,1-.24c.84,0,1.24.34,1.24,1.21,0,.43-.12.94-.62,1h0c.59.11.69.58.69,1.11,0,.94-.5,1.32-1.42,1.32s-1.25-.32-1.25-1.29h.92c0,.3,0,.62.38.62s.45-.38.45-.7c0-.66-.21-.7-.85-.7v-.72c.6,0,.78,0,.78-.67,0-.25,0-.54-.35-.54s-.36.27-.36.53Z" transform="translate(0 27.71)" style="fill:#1d1d1b"/><path d="M154.16,477.9a12.1,12.1,0,0,0-.42,2.8,14,14,0,0,0,.42,2.89h-.51a9.66,9.66,0,0,1-.69-2.9,8.5,8.5,0,0,1,.69-2.79Z" transform="translate(0 27.71)" style="fill:#1d1d1b"/><path d="M157.3,480.53c0,1.42-.09,2.34-1.31,2.34s-1.31-.92-1.31-2.34c0-1.74.2-2.31,1.31-2.31S157.3,478.79,157.3,480.53Zm-1.71,0c0,1.37,0,1.66.4,1.66s.4-.29.4-1.66,0-1.66-.4-1.66S155.6,479.14,155.6,480.54Z" transform="translate(0 27.71)" style="fill:#1d1d1b"/><path d="M157.82,483.59a12.1,12.1,0,0,0,.42-2.8,14,14,0,0,0-.42-2.89h.51a9.66,9.66,0,0,1,.69,2.9,8.52,8.52,0,0,1-.69,2.79Z" transform="translate(0 27.71)" style="fill:#1d1d1b"/><path d="M159.56,479a2.79,2.79,0,0,0,.88-.7h.87v4.54h-1v-3.49a4.69,4.69,0,0,1-.77.51Z" transform="translate(0 27.71)" style="fill:#1d1d1b"/><path d="M164.71,480.1h0a.76.76,0,0,1,.66-.31c.75,0,1,.51,1,1.5,0,1.22-.46,1.56-1.38,1.56-.75,0-1.23-.31-1.2-1.12h.92a.63.63,0,0,0,.06.33.3.3,0,0,0,.28.14c.36,0,.41-.28.41-.9,0-.29,0-.91-.39-.91s-.34.3-.34.51h-.88v-2.63h2.37v.7h-1.48Z" transform="translate(0 27.71)" style="fill:#1d1d1b"/><path d="M169.1,479.13l-1.1,3.67h-1l1.24-3.83h-1.55v-.7h2.44Z" transform="translate(0 27.71)" style="fill:#1d1d1b"/><path d="M170.92,479.4a1.19,1.19,0,0,1,.31-.95,1.52,1.52,0,0,1,1-.24c.85,0,1.24.34,1.24,1.21,0,.43-.12.94-.62,1h0c.59.11.69.58.69,1.11,0,.94-.5,1.32-1.42,1.32s-1.25-.32-1.25-1.29h.92c0,.3,0,.62.38.62s.45-.38.45-.7c0-.66-.21-.7-.85-.7v-.72c.6,0,.78,0,.78-.67,0-.25,0-.54-.35-.54s-.36.27-.36.53Z" transform="translate(0 27.71)" style="fill:#1d1d1b"/><path d="M173.75,482.81V482c1.43-1.9,1.73-2.12,1.73-2.69,0-.23-.08-.44-.34-.44s-.4.36-.4.65h-.92a1.12,1.12,0,0,1,1.25-1.31c.79,0,1.33.32,1.33,1.17,0,1-1.19,2.18-1.68,2.72h1.73v.7Z" transform="translate(0 27.71)" style="fill:#1d1d1b"/><path d="M178.13,481.64c0-.56.08-1,.67-1.23h0c-.51-.13-.63-.51-.63-1,0-.83.44-1.2,1.27-1.2s1.27.38,1.27,1.2c0,.48-.12.86-.63,1h0c.58.21.67.67.67,1.23,0,.85-.46,1.22-1.31,1.22S178.13,482.49,178.13,481.64Zm.92-.06c0,.26,0,.62.4.62s.4-.36.4-.62,0-.81-.4-.81S179,481.31,179,481.58Zm0-2.12c0,.23,0,.61.36.61s.36-.38.36-.61,0-.59-.36-.59S179.08,479.24,179.08,479.47Z" transform="translate(0 27.71)" style="fill:#1d1d1b"/><path d="M183.52,479.13l-1.1,3.67h-1l1.24-3.83h-1.55v-.7h2.44Z" transform="translate(0 27.71)" style="fill:#1d1d1b"/><path d="M185.34,481.64c0-.56.08-1,.67-1.23h0c-.51-.13-.63-.51-.63-1,0-.83.44-1.2,1.27-1.2s1.27.38,1.27,1.2c0,.48-.12.86-.63,1h0c.58.21.67.67.67,1.23,0,.85-.46,1.22-1.31,1.22S185.34,482.49,185.34,481.64Zm.92-.06c0,.26,0,.62.4.62s.4-.36.4-.62,0-.81-.4-.81S186.26,481.31,186.26,481.58Zm0-2.12c0,.23,0,.61.36.61s.36-.38.36-.61,0-.59-.36-.59S186.3,479.24,186.3,479.47Z" transform="translate(0 27.71)" style="fill:#1d1d1b"/><path d="M190.74,479.13l-1.1,3.67h-1l1.24-3.83H188.3v-.7h2.44Z" transform="translate(0 27.71)" style="fill:#1d1d1b"/><path d="M61.08,486.11h1l.61,3.3h0l.74-3.3H64.6l.7,3.3h0l.58-3.3h1l-1,4.69H64.74L64,487.37h0l-.81,3.43H62.12Z" transform="translate(0 27.71)" style="fill:#1d1d1b"/><path d="M68.07,489.31c0,.39,0,1,.42,1s.39-.31.39-.59h.93a1.17,1.17,0,0,1-.35.85,1.37,1.37,0,0,1-1,.32c-1.18,0-1.34-.72-1.34-1.75s.13-1.66,1.34-1.66,1.37.8,1.34,1.85Zm.84-.51c0-.32,0-.77-.42-.77s-.42.49-.42.77Z" transform="translate(0 27.71)" style="fill:#1d1d1b"/><path d="M70.47,486.11h.92v1.72h0a.8.8,0,0,1,.75-.38c.92,0,.9,1,.9,1.68s0,1.73-.92,1.73a.78.78,0,0,1-.77-.43h0v.36h-.87Zm1.68,3c0-.66,0-1.11-.39-1.11s-.37.46-.37,1.11c0,.83.06,1.17.37,1.17S72.15,490,72.15,489.14Z" transform="translate(0 27.71)" style="fill:#1d1d1b"/><path d="M75.91,487.52v.86h-.78v-.86Zm0,3.28h-.78v-.86h.78Z" transform="translate(0 27.71)" style="fill:#1d1d1b"/><path d="M77.76,487.52h.91l.45,2.47h0l.63-2.47h.95l.58,2.47h0l.49-2.47h.88l-.89,3.28h-1l-.59-2.24h0l-.66,2.24h-1Z" transform="translate(0 27.71)" style="fill:#1d1d1b"/><path d="M82.82,487.52h.91l.45,2.47h0l.63-2.47h.95l.58,2.47h0l.49-2.47h.88l-.89,3.28h-1l-.59-2.24h0l-.66,2.24h-1Z" transform="translate(0 27.71)" style="fill:#1d1d1b"/><path d="M87.87,487.52h.91l.45,2.47h0l.63-2.47h.95L91.4,490h0l.49-2.47h.88l-.89,3.28h-1l-.59-2.24h0l-.66,2.24h-1Z" transform="translate(0 27.71)" style="fill:#1d1d1b"/><path d="M94,489.95v.86h-.78v-.86Z" transform="translate(0 27.71)" style="fill:#1d1d1b"/><path d="M96.34,488.69c0-.49-.12-.65-.41-.65s-.42.34-.42,1c0,1,.08,1.22.42,1.22s.42-.26.42-.69h.92c0,.89-.48,1.27-1.34,1.27-1.18,0-1.34-.72-1.34-1.75s.13-1.66,1.34-1.66c.84,0,1.33.38,1.33,1.24Z" transform="translate(0 27.71)" style="fill:#1d1d1b"/><path d="M100.41,490.2c0,.2,0,.41,0,.61H99.6l0-.44h0a.91.91,0,0,1-.86.5c-.64,0-.87-.47-.87-1,0-1.09.84-1.13,1.69-1.12v-.25c0-.28,0-.48-.37-.48s-.34.24-.34.5h-.9a.9.9,0,0,1,.34-.8,1.43,1.43,0,0,1,.86-.21c1.16,0,1.31.5,1.31,1.1Zm-1.69-.41c0,.23,0,.52.34.52.54,0,.46-.73.46-1.08C99.05,489.24,98.72,489.2,98.72,489.79Z" transform="translate(0 27.71)" style="fill:#1d1d1b"/><path d="M102,487.52v.42h0a.83.83,0,0,1,.85-.49v.82c-.81-.05-.82.42-.82.74v1.79h-.92v-3.28Z" transform="translate(0 27.71)" style="fill:#1d1d1b"/><path d="M104.2,487.52v.42h0a.83.83,0,0,1,.85-.49v.82c-.81-.05-.82.42-.82.74v1.79h-.92v-3.28Z" transform="translate(0 27.71)" style="fill:#1d1d1b"/><path d="M106.34,489.31c0,.39,0,1,.42,1s.39-.31.39-.59h.93a1.17,1.17,0,0,1-.35.85,1.37,1.37,0,0,1-1,.32c-1.18,0-1.34-.72-1.34-1.75s.13-1.66,1.34-1.66,1.37.8,1.34,1.85Zm.84-.51c0-.32,0-.77-.42-.77s-.42.49-.42.77Z" transform="translate(0 27.71)" style="fill:#1d1d1b"/><path d="M109.66,487.86h0a.77.77,0,0,1,.33-.31,1,1,0,0,1,.45-.09.74.74,0,0,1,.82.71v2.63h-.92v-2.26c0-.29-.05-.52-.34-.52s-.34.23-.34.52v2.26h-.92v-3.28h.92Z" transform="translate(0 27.71)" style="fill:#1d1d1b"/><path d="M111.92,489.12c0-.9.13-1.66,1.34-1.66s1.34.77,1.34,1.66-.16,1.75-1.34,1.75S111.92,490.15,111.92,489.12Zm1.76-.05c0-.68,0-1-.42-1s-.42.34-.42,1c0,1,.08,1.22.42,1.22S113.68,490.07,113.68,489.07Z" transform="translate(0 27.71)" style="fill:#1d1d1b"/><path d="M116.24,486.11v.72h-.92v-.72Zm0,4.69h-.92v-3.28h.92Z" transform="translate(0 27.71)" style="fill:#1d1d1b"/><path d="M117.92,487.52v.42h0a.83.83,0,0,1,.85-.49v.82c-.81-.05-.82.42-.82.74v1.79h-.92v-3.28Z" transform="translate(0 27.71)" style="fill:#1d1d1b"/><path d="M120,489.95v.86h-.78v-.86Z" transform="translate(0 27.71)" style="fill:#1d1d1b"/><path d="M122.33,488.69c0-.49-.12-.65-.41-.65s-.42.34-.42,1c0,1,.08,1.22.42,1.22s.42-.26.42-.69h.92c0,.89-.48,1.27-1.34,1.27-1.18,0-1.34-.72-1.34-1.75s.13-1.66,1.34-1.66c.85,0,1.33.38,1.33,1.24Z" transform="translate(0 27.71)" style="fill:#1d1d1b"/><path d="M123.83,489.12c0-.9.13-1.66,1.34-1.66s1.34.77,1.34,1.66-.16,1.75-1.34,1.75S123.83,490.15,123.83,489.12Zm1.76-.05c0-.68,0-1-.42-1s-.42.34-.42,1c0,1,.08,1.22.42,1.22S125.59,490.07,125.59,489.07Z" transform="translate(0 27.71)" style="fill:#1d1d1b"/><path d="M128,487.86h0a.9.9,0,0,1,1.51,0,1,1,0,0,1,.85-.42.74.74,0,0,1,.82.71v2.63h-.92v-2.26c0-.29-.05-.52-.34-.52s-.34.23-.34.52v2.26h-.9v-2.26c0-.29-.05-.52-.34-.52s-.34.23-.34.52v2.26h-.92v-3.28H128Z" transform="translate(0 27.71)" style="fill:#1d1d1b"/><line x1="101.42" y1="469.36" x2="240.24" y2="469.36" style="fill:none;stroke:#1d1d1b;stroke-width:0.27px"/><line x1="101.42" y1="481.09" x2="240.24" y2="481.09" style="fill:none;stroke:#1d1d1b;stroke-width:0.27px"/><line x1="101.42" y1="492.82" x2="240.24" y2="492.82" style="fill:none;stroke:#1d1d1b;stroke-width:0.27px"/><line x1="56.69" y1="524.4" x2="240.24" y2="524.4" style="fill:none;stroke:#1d1d1b;stroke-width:0.27px"/><path d="M105.74,435.24c0-.54-.08-1-.73-1s-.76,1-.76,2.16c0,1.83.18,2.16.88,2.16a1.91,1.91,0,0,0,.61-.11v-1.3h-.66v-.9H107v3a11.22,11.22,0,0,1-1.65.19c-2.06,0-2.29-.85-2.29-3.07,0-1.47.07-3,2.07-3a1.67,1.67,0,0,1,1.87,1.9Z" transform="translate(0 27.71)" style="fill:#1d1d1b"/><path d="M108,439.29v-5.85h3.19v.9h-2v1.44h1.81v.9h-1.81v1.71h2v.9Z" transform="translate(0 27.71)" style="fill:#1d1d1b"/><path d="M112,439.29v-5.85h3v.9h-1.81v1.5H115v.9h-1.73v2.55Z" transform="translate(0 27.71)" style="fill:#1d1d1b"/><path d="M115.61,436.36c0-1.55,0-3,2-3,1.25,0,1.75.69,1.7,1.95h-1.2c0-.78-.14-1.07-.5-1.07-.69,0-.78.65-.78,2.15s.09,2.15.78,2.15.54-.73.56-1.19h1.21c0,1.56-.62,2.07-1.77,2.07C115.61,439.38,115.61,437.89,115.61,436.36Z" transform="translate(0 27.71)" style="fill:#1d1d1b"/><path d="M120.11,436.36c0-1.55,0-3,2-3s2,1.47,2,3,0,3-2,3S120.11,437.89,120.11,436.36Zm2.8,0c0-1.5-.09-2.15-.78-2.15s-.78.65-.78,2.15.09,2.15.78,2.15S122.91,437.86,122.91,436.36Z" transform="translate(0 27.71)" style="fill:#1d1d1b"/><path d="M105.74,446c0-.54-.08-1-.73-1s-.76,1-.76,2.16c0,1.83.18,2.16.88,2.16a1.93,1.93,0,0,0,.61-.11v-1.3h-.66V447H107v3a11.22,11.22,0,0,1-1.65.19c-2.06,0-2.29-.85-2.29-3.07,0-1.47.07-3,2.07-3A1.67,1.67,0,0,1,107,446Z" transform="translate(0 27.71)" style="fill:#e20613"/><path d="M108,450.09v-5.85h3.19v.9h-2v1.44h1.81v.9h-1.81v1.71h2v.9Z" transform="translate(0 27.71)" style="fill:#e20613"/><path d="M112,450.09v-5.85h3v.9h-1.81v1.5H115v.9h-1.73v2.55Z" transform="translate(0 27.71)" style="fill:#e20613"/><path d="M115.15,451.1v-.41h4.05v.41Z" transform="translate(0 27.71)" style="fill:#e20613"/><path d="M119.6,445.31a3.46,3.46,0,0,0,1.09-.87h1.09v5.66h-1.22v-4.35a5.72,5.72,0,0,1-1,.63Z" transform="translate(0 27.71)" style="fill:#e20613"/><path d="M126.09,445.51l-1.38,4.58h-1.27l1.55-4.78h-1.94v-.87h3Z" transform="translate(0 27.71)" style="fill:#e20613"/><path d="M126.4,451.1v-.41h4.05v.41Z" transform="translate(0 27.71)" style="fill:#e20613"/><path d="M130.84,445.31a3.46,3.46,0,0,0,1.09-.87H133v5.66H131.8v-4.35a5.68,5.68,0,0,1-1,.63Z" transform="translate(0 27.71)" style="fill:#e20613"/><path d="M134.44,445.31a3.46,3.46,0,0,0,1.09-.87h1.09v5.66H135.4v-4.35a5.72,5.72,0,0,1-1,.63Z" transform="translate(0 27.71)" style="fill:#e20613"/><path d="M139.83,445.65a.62.62,0,0,0-.07-.36.35.35,0,0,0-.32-.15c-.5,0-.52.25-.52,1.69a1.16,1.16,0,0,1,.91-.39c1.05,0,1.26.93,1.26,1.8,0,1.17-.43,1.93-1.7,1.93-1.47,0-1.58-1.26-1.58-2.42,0-2.25.12-3.38,1.73-3.38.86,0,1.5.36,1.49,1.3Zm.11,2.58c0-.71-.09-1-.52-1s-.48.41-.48,1.13c0,.33,0,1,.47,1S139.93,449.11,139.93,448.24Z" transform="translate(0 27.71)" style="fill:#e20613"/><path d="M141.33,450.09v-1c1.78-2.37,2.16-2.65,2.16-3.35,0-.28-.11-.55-.43-.55s-.49.45-.49.81h-1.14a1.39,1.39,0,0,1,1.56-1.64c1,0,1.65.4,1.65,1.46,0,1.27-1.48,2.71-2.1,3.39h2.16v.88Z" transform="translate(0 27.71)" style="fill:#e20613"/><path d="M148.27,447.24c0,1.77-.11,2.92-1.64,2.92S145,449,145,447.24c0-2.16.24-2.88,1.64-2.88S148.27,445.08,148.27,447.24Zm-2.13,0c0,1.71,0,2.07.49,2.07s.49-.37.49-2.07,0-2.07-.49-2.07S146.14,445.52,146.14,447.26Z" transform="translate(0 27.71)" style="fill:#e20613"/><path d="M148.43,451.1v-.41h4.05v.41Z" transform="translate(0 27.71)" style="fill:#1d1d1b"/><path d="M153,450.09v-5.85h1.22v4.88H156v1Z" transform="translate(0 27.71)" style="fill:#1d1d1b"/><path d="M156.43,448c0-1.12.16-2.07,1.67-2.07s1.67,1,1.67,2.07c0,1.28-.19,2.18-1.67,2.18S156.43,449.27,156.43,448Zm2.2-.07c0-.85,0-1.28-.53-1.28s-.53.43-.53,1.28c0,1.25.1,1.52.53,1.52S158.63,449.17,158.63,447.92Z" transform="translate(0 27.71)" style="fill:#1d1d1b"/><path d="M163.7,446v4.26c0,.28,0,1.4-1.56,1.4-.85,0-1.58-.22-1.6-1.22h1.12a.7.7,0,0,0,.1.41.44.44,0,0,0,.38.16c.28,0,.42-.27.42-.68v-.79h0a.94.94,0,0,1-.87.48c-1.26,0-1.2-1.15-1.2-2.07s0-2,1.21-2a.93.93,0,0,1,.92.56h0V446Zm-1.61,3.33c.41,0,.47-.43.47-1.3s0-1.41-.46-1.41-.5.3-.5,1.55C161.6,448.55,161.54,449.33,162.09,449.33Z" transform="translate(0 27.71)" style="fill:#1d1d1b"/><path d="M164.53,448c0-1.12.16-2.07,1.67-2.07s1.67,1,1.67,2.07c0,1.28-.19,2.18-1.67,2.18S164.53,449.27,164.53,448Zm2.2-.07c0-.85,0-1.28-.53-1.28s-.53.43-.53,1.28c0,1.25.11,1.52.53,1.52S166.73,449.17,166.73,447.92Z" transform="translate(0 27.71)" style="fill:#1d1d1b"/><path d="M168.22,451.1v-.41h4.05v.41Z" transform="translate(0 27.71)" style="fill:#1d1d1b"/><path d="M174.37,450.18c-1.52,0-1.8-.89-1.73-1.9h1.22c0,.56,0,1,.7,1a.58.58,0,0,0,.62-.66c0-1.05-2.46-1.12-2.46-2.86,0-.92.44-1.64,1.93-1.64,1.19,0,1.78.53,1.7,1.76h-1.19c0-.44-.07-.88-.57-.88a.57.57,0,0,0-.63.62c0,1.11,2.46,1,2.46,2.85C176.41,450,175.3,450.18,174.37,450.18Z" transform="translate(0 27.71)" style="fill:#1d1d1b"/><path d="M178.47,444.24v.9h-1.14v-.9Zm0,5.85h-1.14V446h1.14Z" transform="translate(0 27.71)" style="fill:#1d1d1b"/><path d="M182.61,446v4.26c0,.28,0,1.4-1.56,1.4-.85,0-1.58-.22-1.6-1.22h1.12a.7.7,0,0,0,.1.41.44.44,0,0,0,.38.16c.28,0,.42-.27.42-.68v-.79h0a.94.94,0,0,1-.87.48c-1.26,0-1.2-1.15-1.2-2.07s0-2,1.21-2a.93.93,0,0,1,.92.56h0V446ZM181,449.33c.41,0,.47-.43.47-1.3s0-1.41-.46-1.41-.5.3-.5,1.55C180.5,448.55,180.45,449.33,181,449.33Z" transform="translate(0 27.71)" style="fill:#1d1d1b"/><path d="M184.67,446.41h0a.94.94,0,0,1,.41-.38,1.23,1.23,0,0,1,.56-.11.93.93,0,0,1,1,.89v3.28h-1.14v-2.82c0-.36-.06-.65-.43-.65s-.43.28-.43.65v2.82h-1.14V446h1.14Z" transform="translate(0 27.71)" style="fill:#1d1d1b"/><path d="M187.17,444.24h1.27l.91,4.25h0l1-4.25h1.21L190,450.09h-1.43Z" transform="translate(0 27.71)" style="fill:#1d1d1b"/><path d="M193.14,448.22c0,.49,0,1.22.52,1.22s.49-.39.49-.73h1.16a1.46,1.46,0,0,1-.44,1.06,1.71,1.71,0,0,1-1.21.4c-1.47,0-1.67-.9-1.67-2.18,0-1.12.16-2.07,1.67-2.07s1.71,1,1.67,2.31Zm1-.64c0-.4,0-1-.53-1s-.52.62-.52,1Z" transform="translate(0 27.71)" style="fill:#1d1d1b"/><path d="M197.22,446v.53h0a1,1,0,0,1,1.06-.61v1c-1-.06-1,.52-1,.92v2.23h-1.14V446Z" transform="translate(0 27.71)" style="fill:#1d1d1b"/><path d="M198.37,446h.46v-.65l1.14-.51V446h.59v.7H200v2.19c0,.31,0,.51.36.51a.82.82,0,0,0,.2,0v.7a4.59,4.59,0,0,1-.59,0c-1,0-1.12-.66-1.12-.91V446.7h-.46Z" transform="translate(0 27.71)" style="fill:#1d1d1b"/><path d="M202.32,444.24v.9h-1.14v-.9Zm0,5.85h-1.14V446h1.14Z" transform="translate(0 27.71)" style="fill:#1d1d1b"/><path d="M203.41,450.09v-5.85h2.17c.93,0,1.7.27,1.7,1.52a1.19,1.19,0,0,1-1,1.29v0c.87.12,1.09.68,1.09,1.48,0,1.48-1.29,1.55-1.81,1.55Zm1.22-3.46h.82a.66.66,0,0,0,.64-.75.7.7,0,0,0-.7-.75h-.75Zm0,2.56h.68a.73.73,0,0,0,.84-.83c0-.52-.19-.83-.81-.83h-.71Z" transform="translate(0 27.71)" style="fill:#1d1d1b"/><path d="M209.53,444.24v5.85h-1.14v-5.85Z" transform="translate(0 27.71)" style="fill:#1d1d1b"/><path d="M211.59,448.22c0,.49,0,1.22.52,1.22s.49-.39.49-.73h1.16a1.46,1.46,0,0,1-.44,1.06,1.71,1.71,0,0,1-1.21.4c-1.47,0-1.67-.9-1.67-2.18,0-1.12.16-2.07,1.67-2.07s1.71,1,1.67,2.31Zm1-.64c0-.4,0-1-.53-1s-.52.62-.52,1Z" transform="translate(0 27.71)" style="fill:#1d1d1b"/><path d="M216.59,449.67h0a1,1,0,0,1-1,.49.93.93,0,0,1-1-.89V446h1.14v2.83c0,.37.06.63.43.63s.43-.27.43-.63V446h1.14v3.28c0,.27,0,.54,0,.81h-1.18Z" transform="translate(0 27.71)" style="fill:#1d1d1b"/><path d="M218.18,451.1v-.41h4.05v.41Z" transform="translate(0 27.71)" style="fill:#1d1d1b"/><path d="M223.94,450.09h-1.22v-5.85H225c.83,0,1.37.54,1.37,1.53a1.26,1.26,0,0,1-1.09,1.43v0a1,1,0,0,1,1.06,1.15,8,8,0,0,0,.14,1.72h-1.2a2.68,2.68,0,0,1-.13-1.13c0-.7.06-1.29-.87-1.29h-.32Zm0-3.32h.54c.49,0,.62-.49.62-.86,0-.56-.24-.77-.62-.77h-.54Z" transform="translate(0 27.71)" style="fill:#1d1d1b"/><path d="M226.78,444.24H228l.91,4.25h0l1-4.25h1.21l-1.55,5.85h-1.43Z" transform="translate(0 27.71)" style="fill:#1d1d1b"/><path d="M231.77,450.09v-5.85h2.17c.93,0,1.7.27,1.7,1.52a1.19,1.19,0,0,1-1,1.29v0c.87.12,1.09.68,1.09,1.48,0,1.48-1.29,1.55-1.81,1.55Zm1.22-3.46h.82a.66.66,0,0,0,.64-.75.7.7,0,0,0-.71-.75H233Zm0,2.56h.68a.73.73,0,0,0,.84-.83c0-.52-.19-.83-.81-.83H233Z" transform="translate(0 27.71)" style="fill:#1d1d1b"/><path d="M103,457a3.45,3.45,0,0,0,1.09-.87h1.09v5.66h-1.22v-4.35a5.77,5.77,0,0,1-1,.63Z" transform="translate(0 27.71)" style="fill:#e20613"/><path d="M108.34,457.35a.63.63,0,0,0-.07-.37.35.35,0,0,0-.32-.15c-.5,0-.52.25-.52,1.69a1.16,1.16,0,0,1,.91-.39c1.05,0,1.26.93,1.26,1.8,0,1.17-.43,1.93-1.7,1.93-1.47,0-1.58-1.26-1.58-2.42,0-2.25.12-3.38,1.73-3.38.86,0,1.5.37,1.49,1.3Zm.11,2.58c0-.71-.09-1-.52-1s-.48.41-.48,1.13c0,.33,0,1,.47,1S108.45,460.81,108.45,459.94Z" transform="translate(0 27.71)" style="fill:#e20613"/><path d="M109.49,462.56l1.94-6.63h.83l-1.93,6.63Z" transform="translate(0 27.71)" style="fill:#e20613"/><path d="M112.4,457a3.45,3.45,0,0,0,1.09-.87h1.09v5.66h-1.22v-4.35a5.77,5.77,0,0,1-1,.63Z" transform="translate(0 27.71)" style="fill:#e20613"/><path d="M119,458.94c0,1.77-.11,2.92-1.64,2.92s-1.64-1.14-1.64-2.92c0-2.16.24-2.88,1.64-2.88S119,456.78,119,458.94Zm-2.13,0c0,1.71,0,2.07.49,2.07s.49-.37.49-2.07,0-2.07-.49-2.07S116.9,457.22,116.9,459Z" transform="translate(0 27.71)" style="fill:#e20613"/><path d="M118.94,462.56l1.94-6.63h.83l-1.93,6.63Z" transform="translate(0 27.71)" style="fill:#e20613"/><path d="M121.54,461.79v-1c1.78-2.37,2.16-2.65,2.16-3.35,0-.28-.11-.55-.43-.55s-.49.45-.49.81h-1.14a1.39,1.39,0,0,1,1.56-1.64c1,0,1.65.4,1.65,1.46,0,1.27-1.48,2.71-2.1,3.39h2.16v.88Z" transform="translate(0 27.71)" style="fill:#e20613"/><path d="M128.48,458.94c0,1.77-.11,2.92-1.64,2.92s-1.64-1.14-1.64-2.92c0-2.16.24-2.88,1.64-2.88S128.48,456.78,128.48,458.94Zm-2.13,0c0,1.71,0,2.07.49,2.07s.49-.37.49-2.07,0-2.07-.49-2.07S126.35,457.22,126.35,459Z" transform="translate(0 27.71)" style="fill:#e20613"/><path d="M129,457a3.46,3.46,0,0,0,1.09-.87h1.09v5.66H130v-4.35a5.75,5.75,0,0,1-1,.63Z" transform="translate(0 27.71)" style="fill:#e20613"/><path d="M135.52,457.21l-1.38,4.58h-1.27l1.55-4.78h-1.94v-.87h3Z" transform="translate(0 27.71)" style="fill:#e20613"/><path d="M60.45,478.56" transform="translate(0 27.71)" style="fill:none;stroke:#1d1d1b;stroke-width:0.27px"/><line x1="240.24" y1="452.52" x2="240.24" y2="594.64" style="fill:none;stroke:#1d1d1b;stroke-width:0.5px"/><line x1="240.24" y1="452.52" x2="240.24" y2="594.64" style="fill:none;stroke:#1d1d1b;stroke-width:0.27px"/><path d="M246.5,436.15v-6h3v.6h-2.31v2h2.17v.6h-2.17v2.21h2.33v.6Zm1.09-6.59.7-1.12h.87l-1,1.13Z" transform="translate(0 27.71)"/><path d="M254,435.44l.69.57-.33.41-.67-.56a1.89,1.89,0,0,1-2.71-.29,5.45,5.45,0,0,1-.45-2.65,3.84,3.84,0,0,1,.51-2.26,1.74,1.74,0,0,1,1.47-.67,1.67,1.67,0,0,1,1.46.7,4.2,4.2,0,0,1,.49,2.34A4.91,4.91,0,0,1,254,435.44Zm-1.09-.89.58.45a1.81,1.81,0,0,0,.21-.77,11,11,0,0,0,.07-1.29,4,4,0,0,0-.3-1.79,1,1,0,0,0-1-.55,1,1,0,0,0-1,.53,4.2,4.2,0,0,0-.29,1.85,5.71,5.71,0,0,0,.27,2.15,1,1,0,0,0,1,.59,1.05,1.05,0,0,0,.68-.23l-.63-.48Z" transform="translate(0 27.71)"/><path d="M255.76,430.15h.66v4.32q0,1.24,1.14,1.24t1.14-1.2v-4.36h.66v4.57a1.46,1.46,0,0,1-.48,1.18,2.36,2.36,0,0,1-2.66,0,1.53,1.53,0,0,1-.46-1.19Z" transform="translate(0 27.71)"/><path d="M261,430.15h.66v6H261Z" transform="translate(0 27.71)"/><path d="M264.77,435.68l1.42-5.53h.74l-1.75,6h-.82l-1.75-6h.74Z" transform="translate(0 27.71)"/><path d="M267.24,436.15l1.69-6h.88l1.69,6h-.74l-.46-1.72h-1.89l-.43,1.72Zm1.33-2.32h1.57l-.79-3.23Z" transform="translate(0 27.71)"/><path d="M272.43,430.15h.66v5.4h2.44v.6h-3.1Z" transform="translate(0 27.71)"/><path d="M276.51,436.15v-6h3v.6h-2.31v2h2.17v.6h-2.17v2.21h2.33v.6Z" transform="translate(0 27.71)"/><path d="M280.7,430.15h1.09l1.91,5.44v-5.44h.66v6h-1.09l-1.91-5.46v5.46h-.66Z" transform="translate(0 27.71)"/><path d="M288.49,434h.68l-.06.71a1.81,1.81,0,0,1-.52,1.16,1.79,1.79,0,0,1-2.6-.26,3.92,3.92,0,0,1-.44-2.07v-.44a4.65,4.65,0,0,1,.46-2.34,1.55,1.55,0,0,1,1.43-.77,1.66,1.66,0,0,1,1.25.49,1.76,1.76,0,0,1,.47,1.27v.17h-.68q0-1.34-1.08-1.34a1,1,0,0,0-.86.54,5.23,5.23,0,0,0-.31,2.23,4.27,4.27,0,0,0,.28,1.75.92.92,0,0,0,.89.59q.91,0,1-1.25Z" transform="translate(0 27.71)"/><path d="M290.33,436.15v-6h3v.6H291v2h2.17v.6H291v2.21h2.33v.6Z" transform="translate(0 27.71)"/><path d="M300.55,436.15h-.79a5.23,5.23,0,0,1-.15-.73,5.71,5.71,0,0,1,0-.67,1.3,1.3,0,0,0-.28-.93,1,1,0,0,0-.75-.29h-1.14v2.63h-.66v-6h1.57a2.15,2.15,0,0,1,1.55.43,1.6,1.6,0,0,1,.42,1.18.95.95,0,1,0-.34,1.77,1.19,1.19,0,0,1,.24.76q0,.45.13,1.3.07.41.24.43Zm-1-4.33q0-1.07-1.26-1.07h-.93v2.17h1Q299.6,432.92,299.6,431.82Z" transform="translate(0 27.71)"/><path d="M303.33,435.68l1.42-5.53h.74l-1.75,6h-.82l-1.75-6h.74Z" transform="translate(0 27.71)"/><path d="M306.36,436.15v-6H308a1.39,1.39,0,0,1,1.57,1.55,1.28,1.28,0,0,1-.24.84,1.34,1.34,0,0,1-.68.41q1.07.15,1.07,1.43a1.56,1.56,0,0,1-1.77,1.76Zm.66-3.45h.72a1.46,1.46,0,0,0,.89-.21,1,1,0,0,0,.27-.8.9.9,0,0,0-.25-.75,1.54,1.54,0,0,0-.89-.19H307Zm0,2.84h1a.94.94,0,0,0,.75-.27,1.29,1.29,0,0,0,.23-.86,1.17,1.17,0,0,0-.27-.87,1.34,1.34,0,0,0-.92-.25H307Z" transform="translate(0 27.71)"/><path d="M312.38,436.37l1.95-6.22h.49l-1.95,6.22Z" transform="translate(0 27.71)"/><path d="M317.66,430.15h.66v2.49h2.27v-2.49h.66v6h-.66v-2.91h-2.27v2.91h-.66Z" transform="translate(0 27.71)"/><path d="M322.2,430.15H326v.6h-1.56v5.4h-.66v-5.4H322.2Z" transform="translate(0 27.71)"/><path d="M326.85,430.15H328l1.35,5.27,1.34-5.27h1.17v6h-.66v-5.58l-1.46,5.58H329l-1.46-5.58v5.58h-.66Z" transform="translate(0 27.71)"/><path d="M333.28,430.15h.66v5.4h2.44v.6h-3.1Z" transform="translate(0 27.71)"/><path d="M250.4,547.06h-.79a5.23,5.23,0,0,1-.15-.73,5.71,5.71,0,0,1,0-.67,1.3,1.3,0,0,0-.28-.93,1,1,0,0,0-.75-.29h-1.14v2.63h-.66v-6h1.57a2.15,2.15,0,0,1,1.55.43,1.6,1.6,0,0,1,.42,1.18.95.95,0,1,0-.34,1.77,1.19,1.19,0,0,1,.24.76q0,.45.13,1.3.07.41.24.43Zm-1-4.33q0-1.07-1.26-1.07h-.93v2.17h1Q249.45,543.84,249.45,542.74Z" transform="translate(0 27.71)"/><path d="M251.33,544h3.31v.56h-3.31Zm0,1.5h3.31v.56h-3.31Z" transform="translate(0 27.71)"/><path d="M255.48,544.29v-.4a4.22,4.22,0,0,1,.42-2.14,1.3,1.3,0,0,1,1.17-.68h.07a1.35,1.35,0,0,1,1.15.6,3.44,3.44,0,0,1,.44,2v.73a4.26,4.26,0,0,1-.41,2.14,1.33,1.33,0,0,1-1.22.66,1.38,1.38,0,0,1-1.23-.59,3.49,3.49,0,0,1-.39-1.87Zm.69-.67v1a3.52,3.52,0,0,0,.23,1.57.77.77,0,0,0,.71.39.74.74,0,0,0,.73-.52,4.43,4.43,0,0,0,.21-1.57v-.92a3.25,3.25,0,0,0-.24-1.42.77.77,0,0,0-.73-.48.74.74,0,0,0-.66.48A3.46,3.46,0,0,0,256.17,543.63Z" transform="translate(0 27.71)"/><path d="M263.66,546.6l1.42-5.53h.74l-1.75,6h-.82l-1.75-6h.74Z" transform="translate(0 27.71)"/><path d="M266.42,544h3.31v.56h-3.31Zm0,1.5h3.31v.56h-3.31Z" transform="translate(0 27.71)"/><path d="M271.73,543.83q-1-.17-1-1.32a1.42,1.42,0,0,1,.39-1.05,1.52,1.52,0,0,1,1.13-.39,1.28,1.28,0,0,1,1,.39,1.56,1.56,0,0,1,.35,1.08,1.13,1.13,0,0,1-.94,1.29,1.15,1.15,0,0,1,.82.48,1.57,1.57,0,0,1,.3,1,2.13,2.13,0,0,1-.42,1.41,1.41,1.41,0,0,1-1.14.5q-1.69,0-1.69-1.84a1.56,1.56,0,0,1,.31-1A1.45,1.45,0,0,1,271.73,543.83Zm-.47,1.5q0,1.25,1,1.25a.75.75,0,0,0,.66-.34,1.58,1.58,0,0,0,.23-.91q0-1.18-.94-1.18a.81.81,0,0,0-.7.32A1.42,1.42,0,0,0,271.26,545.33Zm.19-2.76q0,1,.78,1t.72-.95q0-.94-.73-.94T271.45,542.58Z" transform="translate(0 27.71)"/><path d="M275.35,545.31a1.74,1.74,0,0,0,0,.21q0,1.07,1,1.07a.89.89,0,0,0,.68-.28,1.14,1.14,0,0,0,.26-.8,1.37,1.37,0,0,0-.26-.94,1.62,1.62,0,0,0-1.16-.29v-.6a1.58,1.58,0,0,0,1-.23,1.06,1.06,0,0,0,.25-.81q0-1-.8-1a.75.75,0,0,0-.67.28,1.54,1.54,0,0,0-.19.87h-.68v-.18a1.6,1.6,0,0,1,.4-1.14,1.47,1.47,0,0,1,1.12-.42,1.44,1.44,0,0,1,1.09.42,1.49,1.49,0,0,1,.41,1.08,1.26,1.26,0,0,1-.86,1.34,1.13,1.13,0,0,1,.75.47,1.58,1.58,0,0,1,.27.93q0,1.87-1.7,1.87t-1.59-1.87Z" transform="translate(0 27.71)"/><path d="M281.33,547.06v-6H283a1.39,1.39,0,0,1,1.57,1.55,1.28,1.28,0,0,1-.24.84,1.34,1.34,0,0,1-.68.41q1.07.15,1.07,1.43a1.56,1.56,0,0,1-1.77,1.76Zm.66-3.45h.72a1.45,1.45,0,0,0,.89-.21,1,1,0,0,0,.27-.8.9.9,0,0,0-.25-.75,1.54,1.54,0,0,0-.89-.19H282Zm0,2.84h1a.94.94,0,0,0,.75-.27,1.29,1.29,0,0,0,.23-.86,1.16,1.16,0,0,0-.27-.87,1.34,1.34,0,0,0-.92-.25H282Z" transform="translate(0 27.71)"/><path d="M285.67,544H289v.56h-3.31Zm0,1.5H289v.56h-3.31Z" transform="translate(0 27.71)"/><path d="M290.08,542.18a1.61,1.61,0,0,0,1-.25,1.33,1.33,0,0,0,.36-.86H292v6h-.67v-4.37h-1.25Z" transform="translate(0 27.71)"/><path d="M294.6,545.31a1.74,1.74,0,0,0,0,.21q0,1.07,1,1.07a.89.89,0,0,0,.68-.28,1.14,1.14,0,0,0,.26-.8,1.37,1.37,0,0,0-.26-.94,1.62,1.62,0,0,0-1.16-.29v-.6a1.58,1.58,0,0,0,1-.23,1.06,1.06,0,0,0,.25-.81q0-1-.8-1a.75.75,0,0,0-.67.28,1.55,1.55,0,0,0-.19.87H294v-.18a1.6,1.6,0,0,1,.4-1.14,1.48,1.48,0,0,1,1.12-.42,1.43,1.43,0,0,1,1.09.42,1.49,1.49,0,0,1,.41,1.08,1.26,1.26,0,0,1-.86,1.34,1.13,1.13,0,0,1,.75.47,1.57,1.57,0,0,1,.27.93q0,1.87-1.7,1.87t-1.59-1.87Z" transform="translate(0 27.71)"/><path d="M298.26,545.75h.69q0,.84.8.84a.82.82,0,0,0,.77-.53,5.08,5.08,0,0,0,.29-1.84,1.16,1.16,0,0,1-1.13.77,1.37,1.37,0,0,1-1.16-.52,2.06,2.06,0,0,1-.4-1.29,2.54,2.54,0,0,1,.43-1.52,1.37,1.37,0,0,1,1.18-.59,1.46,1.46,0,0,1,1.32.64,4,4,0,0,1,.42,2.11,5.79,5.79,0,0,1-.42,2.6,1.45,1.45,0,0,1-1.38.77,1.32,1.32,0,0,1-1-.4A1.53,1.53,0,0,1,298.26,545.75Zm.55-2.64a1.54,1.54,0,0,0,.25,1,.87.87,0,0,0,.73.32q.95,0,.95-1.3t-1-1.41Q298.81,541.67,298.81,543.11Z" transform="translate(0 27.71)"/><path d="M304,547.28l1.95-6.22h.49l-1.95,6.22Z" transform="translate(0 27.71)"/><path d="M308.68,545l.14-.47h.87l.32-1h-.89l.14-.47h.9l.63-2h.44l-.62,2h.68l.62-2h.45l-.63,2h.9l-.14.47h-.9l-.32,1h.92l-.12.47h-.94l-.64,2H310l.63-2H310l-.65,2h-.44l.64-2Zm1.46-.47h.66l.32-1h-.68Z" transform="translate(0 27.71)"/><path d="M313.17,544.29v-.4a4.22,4.22,0,0,1,.42-2.14,1.3,1.3,0,0,1,1.17-.68h.07a1.35,1.35,0,0,1,1.15.6,3.44,3.44,0,0,1,.44,2v.73a4.26,4.26,0,0,1-.41,2.14,1.33,1.33,0,0,1-1.22.66,1.38,1.38,0,0,1-1.23-.59,3.49,3.49,0,0,1-.39-1.87Zm.69-.67v1a3.52,3.52,0,0,0,.23,1.57.77.77,0,0,0,.71.39.74.74,0,0,0,.73-.52,4.43,4.43,0,0,0,.21-1.57v-.92a3.25,3.25,0,0,0-.24-1.42.77.77,0,0,0-.73-.48.74.74,0,0,0-.66.48A3.46,3.46,0,0,0,313.85,543.63Z" transform="translate(0 27.71)"/><path d="M317.33,544.29v-.4a4.22,4.22,0,0,1,.42-2.14,1.3,1.3,0,0,1,1.17-.68H319a1.35,1.35,0,0,1,1.15.6,3.45,3.45,0,0,1,.44,2v.73a4.26,4.26,0,0,1-.41,2.14,1.33,1.33,0,0,1-1.22.66,1.38,1.38,0,0,1-1.23-.59,3.49,3.49,0,0,1-.39-1.87Zm.69-.67v1a3.51,3.51,0,0,0,.23,1.57.77.77,0,0,0,.71.39.74.74,0,0,0,.73-.52,4.43,4.43,0,0,0,.21-1.57v-.92a3.25,3.25,0,0,0-.24-1.42.77.77,0,0,0-.73-.48.74.74,0,0,0-.66.48A3.46,3.46,0,0,0,318,543.63Z" transform="translate(0 27.71)"/><path d="M322.15,545.5v.22a1,1,0,0,0,.21.61.8.8,0,0,0,.66.26.78.78,0,0,0,.72-.41,2.12,2.12,0,0,0,.23-1.06q0-1.4-1-1.4a.82.82,0,0,0-.84.52h-.59l.36-3.05h2.52v.6h-2l-.28,1.8a1.13,1.13,0,0,1,1-.47,1.32,1.32,0,0,1,1.13.52,2.23,2.23,0,0,1,.39,1.38,2.6,2.6,0,0,1-.43,1.6,1.41,1.41,0,0,1-1.18.56,1.58,1.58,0,0,1-1.18-.42,1.43,1.43,0,0,1-.4-1v-.23Z" transform="translate(0 27.71)"/><path d="M326.27,545.31a1.74,1.74,0,0,0,0,.21q0,1.07,1,1.07a.89.89,0,0,0,.68-.28,1.14,1.14,0,0,0,.26-.8,1.37,1.37,0,0,0-.26-.94,1.62,1.62,0,0,0-1.16-.29v-.6a1.58,1.58,0,0,0,1-.23,1.06,1.06,0,0,0,.25-.81q0-1-.8-1a.76.76,0,0,0-.67.28,1.55,1.55,0,0,0-.19.87h-.68v-.18a1.6,1.6,0,0,1,.4-1.14,1.48,1.48,0,0,1,1.12-.42,1.43,1.43,0,0,1,1.09.42,1.49,1.49,0,0,1,.41,1.08,1.26,1.26,0,0,1-.86,1.34,1.13,1.13,0,0,1,.75.47,1.57,1.57,0,0,1,.27.93q0,1.87-1.7,1.87t-1.59-1.87Z" transform="translate(0 27.71)"/><path d="M331,543.83q-1-.17-1-1.32a1.42,1.42,0,0,1,.39-1.05,1.52,1.52,0,0,1,1.13-.39,1.28,1.28,0,0,1,1,.39,1.56,1.56,0,0,1,.35,1.08,1.13,1.13,0,0,1-.94,1.29,1.15,1.15,0,0,1,.82.48,1.57,1.57,0,0,1,.3,1,2.13,2.13,0,0,1-.42,1.41,1.41,1.41,0,0,1-1.14.5q-1.69,0-1.69-1.84a1.56,1.56,0,0,1,.31-1A1.45,1.45,0,0,1,331,543.83Zm-.47,1.5q0,1.25,1,1.25a.75.75,0,0,0,.66-.34,1.58,1.58,0,0,0,.23-.91q0-1.18-.94-1.18a.81.81,0,0,0-.7.32A1.42,1.42,0,0,0,330.49,545.33Zm.19-2.76q0,1,.78,1t.72-.95q0-.94-.73-.94T330.68,542.58Z" transform="translate(0 27.71)"/><path d="M334.24,547.06v-6h1.65a1.39,1.39,0,0,1,1.57,1.55,1.28,1.28,0,0,1-.24.84,1.34,1.34,0,0,1-.68.41q1.07.15,1.07,1.43a1.56,1.56,0,0,1-1.77,1.76Zm.66-3.45h.72a1.46,1.46,0,0,0,.89-.21,1,1,0,0,0,.27-.8.9.9,0,0,0-.25-.75,1.54,1.54,0,0,0-.89-.19h-.73Zm0,2.84h1a.94.94,0,0,0,.75-.27,1.29,1.29,0,0,0,.23-.86,1.17,1.17,0,0,0-.27-.87,1.34,1.34,0,0,0-.92-.25h-.84Z" transform="translate(0 27.71)"/><line x1="240.24" y1="577.61" x2="495.22" y2="577.61" style="fill:none;stroke:#1d1d1b;stroke-width:0.27px"/><circle cx="495.22" cy="577.61" r="1.42"/><path d="M250.4,517h-.79a5.23,5.23,0,0,1-.15-.73,5.71,5.71,0,0,1,0-.67,1.3,1.3,0,0,0-.28-.93,1,1,0,0,0-.75-.29h-1.14V517h-.66v-6h1.57a2.15,2.15,0,0,1,1.55.43,1.6,1.6,0,0,1,.42,1.18.95.95,0,1,0-.34,1.77,1.19,1.19,0,0,1,.24.76q0,.45.13,1.3.07.41.24.43Zm-1-4.33q0-1.07-1.26-1.07h-.93v2.17h1Q249.45,513.76,249.45,512.66Z" transform="translate(0 27.71)"/><path d="M251.33,514h3.31v.56h-3.31Zm0,1.5h3.31V516h-3.31Z" transform="translate(0 27.71)"/><path d="M255.65,515.83a2.11,2.11,0,0,1,.56-.76l1.21-1.17a1.84,1.84,0,0,0,.42-.54,1.66,1.66,0,0,0,.13-.72q0-1.05-.87-1.05t-.91,1.24v.22h-.68v-.38a1.77,1.77,0,0,1,.41-1.23,1.51,1.51,0,0,1,1.18-.45,1.49,1.49,0,0,1,1.15.44,1.76,1.76,0,0,1,.41,1.25,2,2,0,0,1-.23,1,3.64,3.64,0,0,1-.78.89l-1,.93a1.28,1.28,0,0,0-.46.9h2.55v.6h-3.24A4,4,0,0,1,255.65,515.83Z" transform="translate(0 27.71)"/><path d="M260.31,515.42v.22a1,1,0,0,0,.21.61.8.8,0,0,0,.66.26.78.78,0,0,0,.72-.41,2.12,2.12,0,0,0,.23-1.06q0-1.4-1-1.4a.82.82,0,0,0-.84.52h-.59l.36-3.05h2.52v.6h-2l-.28,1.8a1.13,1.13,0,0,1,1-.47,1.32,1.32,0,0,1,1.13.52,2.23,2.23,0,0,1,.39,1.38,2.6,2.6,0,0,1-.43,1.6,1.41,1.41,0,0,1-1.18.56,1.58,1.58,0,0,1-1.18-.42,1.44,1.44,0,0,1-.4-1v-.23Z" transform="translate(0 27.71)"/><path d="M264.47,515.42v.22a1,1,0,0,0,.21.61.8.8,0,0,0,.66.26.78.78,0,0,0,.72-.41,2.12,2.12,0,0,0,.23-1.06q0-1.4-1-1.4a.82.82,0,0,0-.84.52h-.59l.36-3.05h2.52v.6h-2l-.28,1.8a1.13,1.13,0,0,1,1-.47,1.32,1.32,0,0,1,1.13.52A2.23,2.23,0,0,1,267,515a2.6,2.6,0,0,1-.43,1.6,1.41,1.41,0,0,1-1.18.56,1.58,1.58,0,0,1-1.18-.42,1.43,1.43,0,0,1-.4-1v-.23Z" transform="translate(0 27.71)"/><path d="M272,516.52,273.4,511h.74l-1.75,6h-.82l-1.75-6h.74Z" transform="translate(0 27.71)"/><path d="M274.74,514h3.31v.56h-3.31Zm0,1.5h3.31V516h-3.31Z" transform="translate(0 27.71)"/><path d="M279.06,515.83a2.11,2.11,0,0,1,.56-.76l1.21-1.17a1.84,1.84,0,0,0,.42-.54,1.66,1.66,0,0,0,.13-.72q0-1.05-.87-1.05t-.91,1.24v.22h-.68v-.38a1.77,1.77,0,0,1,.41-1.23,1.51,1.51,0,0,1,1.18-.45,1.49,1.49,0,0,1,1.15.44,1.76,1.76,0,0,1,.41,1.25,2,2,0,0,1-.23,1,3.64,3.64,0,0,1-.78.89l-1,.93a1.28,1.28,0,0,0-.46.9h2.55v.6h-3.24A4,4,0,0,1,279.06,515.83Z" transform="translate(0 27.71)"/><path d="M283.05,514.22v-.4a4.22,4.22,0,0,1,.42-2.14,1.3,1.3,0,0,1,1.17-.68h.07a1.35,1.35,0,0,1,1.15.6,3.45,3.45,0,0,1,.44,2v.73a4.26,4.26,0,0,1-.41,2.14,1.33,1.33,0,0,1-1.22.66,1.38,1.38,0,0,1-1.23-.59,3.49,3.49,0,0,1-.39-1.87Zm.69-.67v1a3.51,3.51,0,0,0,.23,1.57.77.77,0,0,0,.71.39.74.74,0,0,0,.73-.52,4.43,4.43,0,0,0,.21-1.57v-.92a3.25,3.25,0,0,0-.24-1.42.77.77,0,0,0-.73-.48.74.74,0,0,0-.66.48A3.46,3.46,0,0,0,283.74,513.55Z" transform="translate(0 27.71)"/><path d="M287.88,515.42v.22a1,1,0,0,0,.21.61.8.8,0,0,0,.66.26.78.78,0,0,0,.72-.41,2.12,2.12,0,0,0,.23-1.06q0-1.4-1-1.4a.82.82,0,0,0-.84.52h-.59l.36-3.05h2.52v.6h-2l-.28,1.8a1.13,1.13,0,0,1,1-.47,1.32,1.32,0,0,1,1.13.52,2.23,2.23,0,0,1,.39,1.38,2.6,2.6,0,0,1-.43,1.6,1.41,1.41,0,0,1-1.18.56,1.58,1.58,0,0,1-1.18-.42,1.43,1.43,0,0,1-.4-1v-.23Z" transform="translate(0 27.71)"/><path d="M293.81,517v-6h1.65a1.39,1.39,0,0,1,1.57,1.55,1.28,1.28,0,0,1-.24.84,1.34,1.34,0,0,1-.68.41q1.07.15,1.07,1.43a1.56,1.56,0,0,1-1.77,1.76Zm.66-3.45h.72a1.45,1.45,0,0,0,.89-.21,1,1,0,0,0,.27-.8.9.9,0,0,0-.25-.75,1.54,1.54,0,0,0-.89-.19h-.73Zm0,2.84h1a.94.94,0,0,0,.75-.27,1.29,1.29,0,0,0,.23-.86,1.16,1.16,0,0,0-.27-.87,1.34,1.34,0,0,0-.92-.25h-.84Z" transform="translate(0 27.71)"/><path d="M298.15,514h3.31v.56h-3.31Zm0,1.5h3.31V516h-3.31Z" transform="translate(0 27.71)"/><path d="M302.3,514.22v-.4a4.22,4.22,0,0,1,.42-2.14,1.3,1.3,0,0,1,1.17-.68H304a1.35,1.35,0,0,1,1.15.6,3.45,3.45,0,0,1,.44,2v.73a4.27,4.27,0,0,1-.41,2.14,1.33,1.33,0,0,1-1.22.66,1.38,1.38,0,0,1-1.23-.59,3.48,3.48,0,0,1-.39-1.87Zm.69-.67v1a3.51,3.51,0,0,0,.23,1.57.77.77,0,0,0,.71.39.74.74,0,0,0,.73-.52,4.43,4.43,0,0,0,.21-1.57v-.92a3.26,3.26,0,0,0-.24-1.42.77.77,0,0,0-.73-.48.74.74,0,0,0-.66.48A3.46,3.46,0,0,0,303,513.55Z" transform="translate(0 27.71)"/><path d="M308.15,517.21,310.1,511h.49l-1.95,6.22Z" transform="translate(0 27.71)"/><path d="M312.84,515l.14-.47h.87l.32-1h-.89l.14-.47h.9l.63-2h.44l-.62,2h.68l.62-2h.45l-.63,2h.9l-.14.47h-.9l-.32,1h.92l-.12.47h-.94l-.64,2h-.44l.63-2h-.66l-.65,2h-.44l.64-2Zm1.46-.47H315l.32-1h-.68Z" transform="translate(0 27.71)"/><path d="M317.55,517v-6h2.79v.6h-2.12v2h2v.6h-2V517Z" transform="translate(0 27.71)"/><path d="M321.26,517v-6H324v.6h-2.12v2h2v.6h-2V517Z" transform="translate(0 27.71)"/><path d="M327.74,514.83h.68l-.06.71a1.81,1.81,0,0,1-.52,1.16,1.79,1.79,0,0,1-2.6-.26,3.93,3.93,0,0,1-.44-2.07v-.44a4.65,4.65,0,0,1,.46-2.34,1.55,1.55,0,0,1,1.43-.77,1.66,1.66,0,0,1,1.25.49,1.76,1.76,0,0,1,.47,1.27v.17h-.68q0-1.34-1.08-1.34a1,1,0,0,0-.86.54,5.23,5.23,0,0,0-.31,2.23,4.28,4.28,0,0,0,.28,1.75.92.92,0,0,0,.89.59q.91,0,1-1.25Z" transform="translate(0 27.71)"/><path d="M329.64,517v-6h1.66a1.9,1.9,0,0,1,1.55.62,3.78,3.78,0,0,1,.52,2.34,4.43,4.43,0,0,1-.47,2.26,1.63,1.63,0,0,1-1.51.79Zm.66-.6h1.05a1.1,1.1,0,0,0,1-.52,4,4,0,0,0,.32-1.91,4.13,4.13,0,0,0-.29-1.76,1.08,1.08,0,0,0-1.06-.6h-1Z" transform="translate(0 27.71)"/><path d="M334.4,514.22v-.4a4.22,4.22,0,0,1,.42-2.14A1.3,1.3,0,0,1,336,511h.07a1.35,1.35,0,0,1,1.15.6,3.45,3.45,0,0,1,.44,2v.73a4.27,4.27,0,0,1-.41,2.14,1.33,1.33,0,0,1-1.22.66,1.38,1.38,0,0,1-1.23-.59,3.48,3.48,0,0,1-.39-1.87Zm.69-.67v1a3.51,3.51,0,0,0,.23,1.57.77.77,0,0,0,.71.39.74.74,0,0,0,.73-.52,4.43,4.43,0,0,0,.21-1.57v-.92a3.26,3.26,0,0,0-.24-1.42.77.77,0,0,0-.73-.48.74.74,0,0,0-.66.48A3.46,3.46,0,0,0,335.09,513.55Z" transform="translate(0 27.71)"/><path d="M338.56,514.22v-.4a4.22,4.22,0,0,1,.42-2.14,1.3,1.3,0,0,1,1.17-.68h.07a1.35,1.35,0,0,1,1.15.6,3.44,3.44,0,0,1,.44,2v.73a4.26,4.26,0,0,1-.41,2.14,1.33,1.33,0,0,1-1.22.66,1.38,1.38,0,0,1-1.23-.59,3.49,3.49,0,0,1-.39-1.87Zm.69-.67v1a3.52,3.52,0,0,0,.23,1.57.77.77,0,0,0,.71.39.74.74,0,0,0,.73-.52,4.43,4.43,0,0,0,.21-1.57v-.92a3.25,3.25,0,0,0-.24-1.42.77.77,0,0,0-.73-.48.74.74,0,0,0-.66.48A3.46,3.46,0,0,0,339.25,513.55Z" transform="translate(0 27.71)"/><line x1="240.24" y1="547.54" x2="523.7" y2="547.54" style="fill:none;stroke:#1d1d1b;stroke-width:0.27px"/><circle cx="523.7" cy="547.54" r="1.42"/><circle cx="515.57" cy="547.54" r="1.42"/><path d="M61.37,531.95c-.63,1.21,0,2.19,1.42,2.19H94.7c1.42,0,2.05-1,1.41-2.19l-16.3-29.13c-.64-1.2-1.68-1.2-2.31,0Z" transform="translate(0 27.71)" style="fill:#ffec00;stroke:#d10a11;stroke-width:1.98px"/><path d="M76.19,509.94h5.15v5.88L80,526.65H77.54l-1.35-10.83Zm.13,17.91h4.9v4.54h-4.9Z" transform="translate(0 27.71)" style="fill:#d10a11"/><path d="M86.34,504.36c0-1.43,0-2.8,1.87-2.8,1.16,0,1.62.64,1.58,1.8H88.68c0-.72-.13-1-.47-1-.64,0-.72.6-.72,2s.08,2,.72,2,.5-.68.52-1.1h1.12c0,1.45-.58,1.91-1.64,1.91C86.34,507.16,86.34,505.78,86.34,504.36Z" transform="translate(0 27.71)" style="fill:#e20613"/><path d="M91.58,505.34c0,.45,0,1.13.48,1.13s.45-.36.45-.68h1.07a1.35,1.35,0,0,1-.41,1,1.59,1.59,0,0,1-1.12.37c-1.37,0-1.55-.83-1.55-2s.15-1.92,1.55-1.92,1.58.92,1.55,2.14Zm1-.59c0-.37,0-.89-.49-.89s-.48.57-.48.89Z" transform="translate(0 27.71)" style="fill:#e20613"/><path d="M97.7,502.3c-.43,0-.52.14-.52.52v.46h.5v.65h-.5v3.14H96.13v-3.14h-.47v-.65h.48c0-1.09-.1-1.67,1.19-1.67h.38Z" transform="translate(0 27.71)" style="fill:#e20613"/><path d="M99.4,501.65v.83H98.34v-.83Zm0,5.42H98.34v-3.79H99.4Z" transform="translate(0 27.71)" style="fill:#e20613"/><path d="M102.36,504.63c0-.56-.14-.75-.47-.75s-.49.4-.49,1.19c0,1.16.1,1.4.49,1.4s.49-.3.49-.8h1.06c0,1-.56,1.47-1.55,1.47-1.37,0-1.55-.83-1.55-2s.15-1.92,1.55-1.92c1,0,1.53.44,1.53,1.43Z" transform="translate(0 27.71)" style="fill:#e20613"/><path d="M106.12,507.07v-2.61c0-.34-.06-.6-.4-.6s-.4.26-.4.6v2.61h-1.06v-5.42h1.06v2h0a.89.89,0,0,1,.38-.35,1.15,1.15,0,0,1,.52-.1.86.86,0,0,1,.95.83v3Z" transform="translate(0 27.71)" style="fill:#e20613"/><path d="M109.26,501.65v.83H108.2v-.83Zm0,5.42H108.2v-3.79h1.06Z" transform="translate(0 27.71)" style="fill:#e20613"/><path d="M111.26,505.34c0,.45,0,1.13.48,1.13s.45-.36.45-.68h1.07a1.35,1.35,0,0,1-.41,1,1.59,1.59,0,0,1-1.12.37c-1.37,0-1.55-.83-1.55-2s.15-1.92,1.55-1.92,1.58.92,1.55,2.14Zm1-.59c0-.37,0-.89-.49-.89s-.48.57-.48.89Z" transform="translate(0 27.71)" style="fill:#e20613"/><path d="M115.13,503.28v.49h0a1,1,0,0,1,1-.56v.95c-.93-.06-.95.48-.95.86v2.06h-1.06v-3.79Z" transform="translate(0 27.71)" style="fill:#e20613"/><path d="M119.32,505.34c0,.45,0,1.13.48,1.13s.45-.36.45-.68h1.07a1.35,1.35,0,0,1-.41,1,1.59,1.59,0,0,1-1.12.37c-1.37,0-1.55-.83-1.55-2s.15-1.92,1.55-1.92,1.58.92,1.55,2.14Zm1-.59c0-.37,0-.89-.49-.89s-.48.57-.48.89Z" transform="translate(0 27.71)" style="fill:#e20613"/><path d="M123,505.86a1.08,1.08,0,0,0,.05.46c.06.12.17.18.38.18a.37.37,0,0,0,.39-.39c0-.8-1.86-.62-1.86-1.83,0-.82.81-1.07,1.49-1.07s1.37.34,1.31,1.16h-1c0-.26,0-.42-.1-.49a.35.35,0,0,0-.27-.08c-.23,0-.36.15-.36.41,0,.6,1.86.57,1.86,1.79,0,.66-.54,1.16-1.42,1.16s-1.54-.23-1.48-1.29Z" transform="translate(0 27.71)" style="fill:#e20613"/><path d="M125.18,503.28h.43v-.6l1.06-.47v1.07h.55v.65h-.55v2c0,.29,0,.47.34.47a.75.75,0,0,0,.19,0v.65a4.44,4.44,0,0,1-.55,0c-.92,0-1-.61-1-.84v-2.33h-.43Z" transform="translate(0 27.71)" style="fill:#e20613"/><path d="M131.26,506.69h0a.94.94,0,0,1-.89.46.86.86,0,0,1-.95-.83v-3h1.06v2.63c0,.34.06.59.4.59s.4-.25.4-.59v-2.63h1.06v3c0,.25,0,.5,0,.75h-1.1Z" transform="translate(0 27.71)" style="fill:#e20613"/><path d="M134.31,503.66h0a.89.89,0,0,1,.38-.35,1.15,1.15,0,0,1,.52-.1.86.86,0,0,1,.95.83v3H135.1v-2.61c0-.34-.06-.6-.4-.6s-.4.26-.4.6v2.61h-1.06v-3.79h1.06Z" transform="translate(0 27.71)" style="fill:#e20613"/><path d="M140.61,507.07v-.42h0a.9.9,0,0,1-.89.5c-1.1,0-1.06-1.22-1.06-2s0-1.94,1-1.94a.93.93,0,0,1,.86.44h0v-2h1.06v5.42Zm-.05-1.93c0-.76,0-1.28-.43-1.28s-.45.53-.45,1.28c0,1,.07,1.35.45,1.35S140.56,506.1,140.56,505.14Z" transform="translate(0 27.71)" style="fill:#e20613"/><path d="M142.47,505.13c0-1,.15-1.92,1.55-1.92s1.55.89,1.55,1.92-.18,2-1.55,2S142.47,506.31,142.47,505.13Zm2-.06c0-.79,0-1.19-.49-1.19s-.49.4-.49,1.19c0,1.16.1,1.4.49,1.4S144.5,506.22,144.5,505.07Z" transform="translate(0 27.71)" style="fill:#e20613"/><path d="M148.33,504.63c0-.56-.14-.75-.47-.75s-.49.4-.49,1.19c0,1.16.1,1.4.49,1.4s.49-.3.49-.8h1.06c0,1-.56,1.47-1.55,1.47-1.37,0-1.55-.83-1.55-2s.15-1.92,1.55-1.92c1,0,1.53.44,1.53,1.43Z" transform="translate(0 27.71)" style="fill:#e20613"/><path d="M152.1,506.69h0a.94.94,0,0,1-.89.46.86.86,0,0,1-.95-.83v-3h1.06v2.63c0,.34.06.59.4.59s.4-.25.4-.59v-2.63h1.06v3c0,.25,0,.5,0,.75h-1.1Z" transform="translate(0 27.71)" style="fill:#e20613"/><path d="M155.06,503.66h0a1,1,0,0,1,1.74,0,1.13,1.13,0,0,1,1-.48.86.86,0,0,1,.95.83v3h-1.06v-2.61c0-.34-.06-.6-.4-.6s-.4.26-.4.6v2.61h-1v-2.61c0-.34-.06-.6-.4-.6s-.4.26-.4.6v2.61H154v-3.79h1.06Z" transform="translate(0 27.71)" style="fill:#e20613"/><path d="M160.57,505.34c0,.45,0,1.13.48,1.13s.45-.36.45-.68h1.07a1.35,1.35,0,0,1-.41,1,1.59,1.59,0,0,1-1.12.37c-1.37,0-1.55-.83-1.55-2s.15-1.92,1.55-1.92,1.58.92,1.55,2.14Zm1-.59c0-.37,0-.89-.49-.89s-.48.57-.48.89Z" transform="translate(0 27.71)" style="fill:#e20613"/><path d="M164.49,503.66h0a.89.89,0,0,1,.38-.35,1.15,1.15,0,0,1,.52-.1.86.86,0,0,1,.95.83v3h-1.06v-2.61c0-.34-.06-.6-.4-.6s-.4.26-.4.6v2.61h-1.06v-3.79h1.06Z" transform="translate(0 27.71)" style="fill:#e20613"/><path d="M166.85,503.28h.43v-.6l1.06-.47v1.07h.55v.65h-.55v2c0,.29,0,.47.34.47a.75.75,0,0,0,.19,0v.65a4.43,4.43,0,0,1-.55,0c-.92,0-1-.61-1-.84v-2.33h-.43Z" transform="translate(0 27.71)" style="fill:#e20613"/><path d="M173,507.07v-.42h0a.9.9,0,0,1-.89.5c-1.1,0-1.06-1.22-1.06-2s0-1.94,1-1.94a.93.93,0,0,1,.86.44h0v-2H174v5.42Zm-.05-1.93c0-.76,0-1.28-.43-1.28s-.45.53-.45,1.28c0,1,.07,1.35.45,1.35S172.92,506.1,172.92,505.14Z" transform="translate(0 27.71)" style="fill:#e20613"/><path d="M175,501.65h1l-.55,1.48h-.72Z" transform="translate(0 27.71)" style="fill:#e20613"/><path d="M177.65,505.34c0,.45,0,1.13.48,1.13s.45-.36.45-.68h1.07a1.35,1.35,0,0,1-.41,1,1.59,1.59,0,0,1-1.12.37c-1.37,0-1.55-.83-1.55-2s.15-1.92,1.55-1.92,1.58.92,1.55,2.14Zm1-.59c0-.37,0-.89-.49-.89s-.48.57-.48.89Z" transform="translate(0 27.71)" style="fill:#e20613"/><path d="M181.18,507.07h-1.05l1.12-2-1-1.8h1.19l.56,1.15.64-1.15h1.06l-1,1.82,1.09,2h-1.19l-.66-1.33Z" transform="translate(0 27.71)" style="fill:#e20613"/><path d="M185.33,505.34c0,.45,0,1.13.48,1.13s.45-.36.45-.68h1.07a1.35,1.35,0,0,1-.41,1,1.59,1.59,0,0,1-1.12.37c-1.37,0-1.55-.83-1.55-2s.15-1.92,1.55-1.92,1.58.92,1.55,2.14Zm1.52-3.69-1.2,1.07h-.49l.68-1.07Zm-.56,3.1c0-.37,0-.89-.49-.89s-.48.57-.48.89Z" transform="translate(0 27.71)" style="fill:#e20613"/><path d="M190.13,504.63c0-.56-.14-.75-.47-.75s-.49.4-.49,1.19c0,1.16.1,1.4.49,1.4s.49-.3.49-.8h1.06c0,1-.56,1.47-1.55,1.47-1.37,0-1.55-.83-1.55-2s.15-1.92,1.55-1.92c1,0,1.53.44,1.53,1.43Z" transform="translate(0 27.71)" style="fill:#e20613"/><path d="M193.9,506.69h0a.94.94,0,0,1-.89.46.86.86,0,0,1-.95-.83v-3h1.06v2.63c0,.34.06.59.4.59s.4-.25.4-.59v-2.63H195v3c0,.25,0,.5,0,.75h-1.1Z" transform="translate(0 27.71)" style="fill:#e20613"/><path d="M195.46,503.28h.43v-.6l1.06-.47v1.07h.55v.65h-.55v2c0,.29,0,.47.34.47a.75.75,0,0,0,.19,0v.65a4.42,4.42,0,0,1-.55,0c-.92,0-1-.61-1-.84v-2.33h-.43Z" transform="translate(0 27.71)" style="fill:#e20613"/><path d="M199.21,501.65v.83h-1.06v-.83Zm0,5.42h-1.06v-3.79h1.06Z" transform="translate(0 27.71)" style="fill:#e20613"/><path d="M200.15,505.13c0-1,.15-1.92,1.55-1.92s1.55.89,1.55,1.92-.18,2-1.55,2S200.15,506.31,200.15,505.13Zm2-.06c0-.79,0-1.19-.49-1.19s-.49.4-.49,1.19c0,1.16.1,1.4.49,1.4S202.18,506.22,202.18,505.07Z" transform="translate(0 27.71)" style="fill:#e20613"/><path d="M205.14,503.66h0a.89.89,0,0,1,.38-.35,1.15,1.15,0,0,1,.52-.1.86.86,0,0,1,.95.83v3h-1.06v-2.61c0-.34-.06-.6-.4-.6s-.4.26-.4.6v2.61h-1.06v-3.79h1.06Z" transform="translate(0 27.71)" style="fill:#e20613"/><path d="M211.48,504.63c0-.56-.14-.75-.47-.75s-.49.4-.49,1.19c0,1.16.1,1.4.49,1.4s.49-.3.49-.8h1.06c0,1-.56,1.47-1.55,1.47-1.37,0-1.55-.83-1.55-2s.15-1.92,1.55-1.92c1,0,1.53.44,1.53,1.43Z" transform="translate(0 27.71)" style="fill:#e20613"/><path d="M214.39,503.28v.49h0a1,1,0,0,1,1-.56v.95c-.93-.06-.95.48-.95.86v2.06h-1.06v-3.79Z" transform="translate(0 27.71)" style="fill:#e20613"/><path d="M216.94,505.34c0,.45,0,1.13.48,1.13s.45-.36.45-.68h1.07a1.35,1.35,0,0,1-.41,1,1.59,1.59,0,0,1-1.12.37c-1.37,0-1.55-.83-1.55-2s.15-1.92,1.55-1.92,1.58.92,1.55,2.14Zm1.52-3.69-1.2,1.07h-.49l.68-1.07Zm-.56,3.1c0-.37,0-.89-.49-.89s-.48.57-.48.89Z" transform="translate(0 27.71)" style="fill:#e20613"/><path d="M220.77,505.34c0,.45,0,1.13.48,1.13s.45-.36.45-.68h1.07a1.35,1.35,0,0,1-.41,1,1.59,1.59,0,0,1-1.12.37c-1.37,0-1.55-.83-1.55-2s.15-1.92,1.55-1.92,1.58.92,1.55,2.14Zm1.52-3.69-1.2,1.07h-.49l.68-1.07Zm-.56,3.1c0-.37,0-.89-.49-.89s-.48.57-.48.89Z" transform="translate(0 27.71)" style="fill:#e20613"/><path d="M226.08,505.86a1.08,1.08,0,0,0,.05.46c.06.12.17.18.38.18a.37.37,0,0,0,.39-.39c0-.8-1.86-.62-1.86-1.83,0-.82.81-1.07,1.49-1.07s1.37.34,1.31,1.16h-1c0-.26,0-.42-.1-.49a.35.35,0,0,0-.27-.08c-.23,0-.36.15-.36.41,0,.6,1.86.57,1.86,1.79,0,.66-.54,1.16-1.42,1.16s-1.54-.23-1.48-1.29Z" transform="translate(0 27.71)" style="fill:#e20613"/><path d="M230.52,506.69h0a.94.94,0,0,1-.89.46.86.86,0,0,1-.95-.83v-3h1.06v2.63c0,.34.06.59.4.59s.4-.25.4-.59v-2.63h1.06v3c0,.25,0,.5,0,.75h-1.1Z" transform="translate(0 27.71)" style="fill:#e20613"/><path d="M233.5,503.28v.49h0a1,1,0,0,1,1-.56v.95c-.93-.06-.95.48-.95.86v2.06h-1.06v-3.79Z" transform="translate(0 27.71)" style="fill:#e20613"/><path d="M90.79,515.07v-5.42h1.13v5.42Z" transform="translate(0 27.71)" style="fill:#e20613"/><path d="M93.83,509.65v5.42H92.77v-5.42Z" transform="translate(0 27.71)" style="fill:#e20613"/><path d="M95.78,509.65v5.42H94.72v-5.42Z" transform="translate(0 27.71)" style="fill:#e20613"/><path d="M98.44,514.69h0a.94.94,0,0,1-.89.46.86.86,0,0,1-.95-.83v-3h1.06v2.63c0,.34.06.59.4.59s.4-.25.4-.59v-2.63H99.5v3c0,.25,0,.5,0,.75h-1.1Z" transform="translate(0 27.71)" style="fill:#e20613"/><path d="M101,513.86a1.08,1.08,0,0,0,.05.46c.06.12.17.18.38.18a.37.37,0,0,0,.39-.39c0-.8-1.86-.62-1.86-1.83,0-.82.81-1.07,1.49-1.07s1.37.34,1.31,1.16h-1c0-.26,0-.42-.1-.49a.35.35,0,0,0-.27-.08c-.23,0-.36.15-.36.41,0,.6,1.86.57,1.86,1.79,0,.66-.54,1.16-1.42,1.16s-1.54-.23-1.48-1.29Z" transform="translate(0 27.71)" style="fill:#e20613"/><path d="M103,511.28h.43v-.6l1.06-.47v1.07H105v.65h-.55v2c0,.29,0,.47.34.47a.75.75,0,0,0,.19,0v.65a4.43,4.43,0,0,1-.55,0c-.92,0-1-.61-1-.84v-2.33H103Z" transform="translate(0 27.71)" style="fill:#e20613"/><path d="M106.35,511.28v.49h0a1,1,0,0,1,1-.56v.95c-.93-.06-.95.48-.95.86v2.06h-1.06v-3.79Z" transform="translate(0 27.71)" style="fill:#e20613"/><path d="M110.58,514.37c0,.23,0,.47.05.71h-1l0-.5h0a1.05,1.05,0,0,1-1,.58c-.74,0-1-.55-1-1.21,0-1.25,1-1.31,2-1.29v-.29c0-.32,0-.56-.43-.56s-.4.28-.4.58h-1a1,1,0,0,1,.39-.92,1.64,1.64,0,0,1,1-.25c1.34,0,1.52.58,1.52,1.27Zm-2-.47c0,.27,0,.6.39.6.62,0,.53-.84.53-1.25C109,513.26,108.63,513.22,108.63,513.89Z" transform="translate(0 27.71)" style="fill:#e20613"/><path d="M110.89,511.28h.43v-.6l1.06-.47v1.07h.55v.65h-.55v2c0,.29,0,.47.34.47a.75.75,0,0,0,.19,0v.65a4.42,4.42,0,0,1-.55,0c-.92,0-1-.61-1-.84v-2.33h-.43Z" transform="translate(0 27.71)" style="fill:#e20613"/><path d="M113.18,513.13c0-1,.15-1.92,1.55-1.92s1.55.89,1.55,1.92-.18,2-1.55,2S113.18,514.31,113.18,513.13Zm2-.06c0-.79,0-1.19-.49-1.19s-.49.4-.49,1.19c0,1.16.1,1.4.49,1.4S115.21,514.22,115.21,513.07Z" transform="translate(0 27.71)" style="fill:#e20613"/><path d="M117.89,511.28v.49h0a1,1,0,0,1,1-.56v.95c-.93-.06-.95.48-.95.86v2.06h-1.06v-3.79Z" transform="translate(0 27.71)" style="fill:#e20613"/><path d="M120.42,511.28h1.07l.53,2.84h0l.56-2.84h1l-1,3.79h-1.16Z" transform="translate(0 27.71)" style="fill:#e20613"/><path d="M124.95,513.34c0,.45,0,1.13.48,1.13s.45-.36.45-.68H127a1.35,1.35,0,0,1-.41,1,1.59,1.59,0,0,1-1.12.37c-1.37,0-1.55-.83-1.55-2s.15-1.92,1.55-1.92,1.58.92,1.55,2.14Zm1-.59c0-.37,0-.89-.49-.89s-.48.57-.48.89Z" transform="translate(0 27.71)" style="fill:#e20613"/><path d="M128.59,511.28v.49h0a1,1,0,0,1,1-.56v.95c-.93-.06-.95.48-.95.86v2.06h-1.06v-3.79Z" transform="translate(0 27.71)" style="fill:#e20613"/><path d="M130.78,513.86a1.08,1.08,0,0,0,.05.46c.06.12.17.18.38.18a.37.37,0,0,0,.39-.39c0-.8-1.86-.62-1.86-1.83,0-.82.81-1.07,1.49-1.07s1.37.34,1.31,1.16h-1c0-.26,0-.42-.1-.49a.35.35,0,0,0-.27-.08c-.23,0-.36.15-.36.41,0,.6,1.86.57,1.86,1.79,0,.66-.54,1.16-1.42,1.16s-1.54-.23-1.48-1.29Z" transform="translate(0 27.71)" style="fill:#e20613"/><path d="M134.29,509.65v.83h-1.06v-.83Zm0,5.42h-1.06v-3.79h1.06Z" transform="translate(0 27.71)" style="fill:#e20613"/><path d="M135,513.13c0-1,.15-1.92,1.55-1.92s1.55.89,1.55,1.92-.18,2-1.55,2S135,514.31,135,513.13Zm2-.06c0-.79,0-1.19-.49-1.19s-.49.4-.49,1.19c0,1.16.1,1.4.49,1.4S137,514.22,137,513.07Z" transform="translate(0 27.71)" style="fill:#e20613"/><path d="M139.77,511.66h0a.89.89,0,0,1,.38-.35,1.15,1.15,0,0,1,.52-.1.86.86,0,0,1,.95.83v3h-1.06v-2.61c0-.34-.06-.6-.4-.6s-.4.26-.4.6v2.61h-1.06v-3.79h1.06Z" transform="translate(0 27.71)" style="fill:#e20613"/><path d="M143.85,512.36c0-1.43,0-2.8,1.87-2.8,1.16,0,1.62.64,1.58,1.8h-1.11c0-.72-.13-1-.47-1-.64,0-.72.6-.72,2s.08,2,.72,2,.5-.68.52-1.1h1.12c0,1.45-.58,1.91-1.64,1.91C143.85,515.16,143.85,513.78,143.85,512.36Z" transform="translate(0 27.71)" style="fill:#e20613"/><path d="M149.41,515.16c-1.4,0-1.67-.83-1.61-1.76h1.13c0,.52,0,1,.65,1a.54.54,0,0,0,.57-.62c0-1-2.28-1-2.28-2.65,0-.85.41-1.52,1.79-1.52,1.1,0,1.65.5,1.58,1.63h-1.1c0-.41-.07-.82-.53-.82a.53.53,0,0,0-.59.58c0,1,2.28.94,2.28,2.64C151.31,515,150.28,515.16,149.41,515.16Z" transform="translate(0 27.71)" style="fill:#e20613"/><path d="M153.53,511a.58.58,0,0,0-.07-.34.33.33,0,0,0-.3-.14c-.47,0-.48.23-.48,1.56a1.07,1.07,0,0,1,.84-.36c1,0,1.16.86,1.16,1.67,0,1.09-.4,1.79-1.58,1.79-1.37,0-1.46-1.17-1.46-2.24,0-2.09.11-3.13,1.61-3.13.8,0,1.39.34,1.38,1.2Zm.1,2.39c0-.66-.08-1-.48-1s-.44.38-.44,1c0,.31,0,.92.44.92S153.63,514.17,153.63,513.36Z" transform="translate(0 27.71)" style="fill:#e20613"/><path d="M156,514.08v1h-.9v-1Z" transform="translate(0 27.71)" style="fill:#e20613"/><rect x="60.87" y="457.62" width="35.67" height="35.32"/><polygon points="91.85 457.62 89 461.47 88.46 461.07 91.01 457.62 91.85 457.62" style="fill:#fff"/><polygon points="71.7 470.95 71.7 464.56 72.88 464.56 76.98 470.95 76.16 470.95 74.49 468.42 73.08 468.42 73.08 467.81 74.12 467.81 72.39 465.17 72.39 470.95 71.7 470.95" style="fill:#fff"/><path d="M76.75,443.24v-6.39h2.08s2.12-.09,2.09,1.87c0,0,.11,1.43-1.65,1.71l2.09,2.81h-.89L78,439.93h.69s1.51,0,1.49-1.3c0,0,0-1.16-1.47-1.16h-1.3v5.78Z" transform="translate(0 27.71)" style="fill:#fff"/><path d="M81.85,443.24v-6.39h2.09s2.12-.09,2.09,1.87c0,0,.11,1.43-1.65,1.71l2.08,2.81h-.89l-2.44-3.32h.69s1.51,0,1.49-1.3c0,0,0-1.16-1.46-1.16h-1.3v5.78Z" transform="translate(0 27.71)" style="fill:#fff"/><polygon points="86.95 470.95 86.95 464.56 90.87 464.56 90.87 465.19 87.64 465.19 87.64 467.34 90.76 467.34 90.76 468.05 87.64 468.05 87.64 470.31 90.94 470.31 90.94 470.95 86.95 470.95" style="fill:#fff"/><path d="M87,450.52v-6.39H89s2.12-.09,2.09,1.87c0,0,.11,1.43-1.65,1.71l2.18,2.82h-.9l-2.53-3.32h.69s1.51,0,1.49-1.3c0,0,0-1.16-1.47-1.16h-1.3v5.78Z" transform="translate(0 27.71)" style="fill:#fff"/><rect x="85.37" y="471.84" width="0.72" height="6.39" style="fill:#fff"/><polygon points="77.44 478.24 77.44 471.84 76.75 471.84 76.75 477.4 72.84 471.84 71.7 471.84 71.7 478.24 72.39 478.24 72.39 472.45 76.44 478.24 77.44 478.24" style="fill:#fff"/><path d="M81.4,444a3.31,3.31,0,1,0,3.31,3.31A3.31,3.31,0,0,0,81.4,444Zm0,5.92A2.61,2.61,0,1,1,84,447.3,2.61,2.61,0,0,1,81.4,449.91Z" transform="translate(0 27.71)" style="fill:#fff"/><path d="M68.72,442.66a2.62,2.62,0,0,1,0-5.23,2.86,2.86,0,0,1,2.21,1.06v-.93a3.31,3.31,0,1,0,0,5v-.91A3.14,3.14,0,0,1,68.72,442.66Z" transform="translate(0 27.71)" style="fill:#fff"/><rect y="27.71" width="841.89" height="595.28" style="fill:none"/></g></svg>